<svg height="512" viewBox="0 0 512 512" width="512" xmlns="http://www.w3.org/2000/svg"><g id="Flat"><path d="m96 176 40-40 3.157-45.883a63.38 63.38 0 0 1 63.161-58.117 63.38 63.38 0 0 1 60.128 43.338l17.554 52.662h-32v24a24 24 0 0 1 -24 24z" fill="#feb784"/><path d="m264 40a16 16 0 0 1 -16 16h-40l-8.33 32.16-11.61-11.85a17.058 17.058 0 0 0 -24.49 23.75l4.43 4.62-32 31.32v-72a40 40 0 0 1 40-40h72a15.979 15.979 0 0 1 16 16z" fill="#7a432a"/><path d="m264 40a16 16 0 0 1 -16 16h-40l-8.33 32.16-11.61-11.85a17.058 17.058 0 0 0 -24.49 23.75l4.43 4.62-32 31.32v-55.65a479.894 479.894 0 0 0 86.56-56.35h25.44a15.979 15.979 0 0 1 16 16z" fill="#6e3c26"/><circle cx="228" cy="100" fill="#92563a" r="12"/><path d="m240 176h-152a40 40 0 0 0 -40 40v176h136l8-72a98 98 0 0 0 46.6-70.179l1.4-9.821h136v-64z" fill="#feb784"/><path d="m488 220a44.012 44.012 0 0 1 -83.19 20h-28.81v-64h72v.19a44 44 0 0 1 40 43.81z" fill="#f35244"/><path d="m488 220a43.987 43.987 0 0 1 -77.22 28.83 465.9 465.9 0 0 0 70.16-52.73 43.78 43.78 0 0 1 7.06 23.9z" fill="#e64c3f"/><path d="m120 224a48 48 0 0 0 -48.82-47.993c-26.319.439-47.18 22.461-47.18 48.783v119.21a16 16 0 0 0 16 16h48v-90.742a48.012 48.012 0 0 0 32-45.258z" fill="#fec093"/><path d="m160 256-72 104h-48a16 16 0 0 1 -16-16v-40l88-96c.931 0 48 48 48 48z" fill="#fec9a3"/><path d="m208 488h-160v-56h136l6.86 16z" fill="#f35244"/><path d="m208 488h-160v-17.75a544.233 544.233 0 0 0 104.68-38.25h31.32l6.86 16z" fill="#e64c3f"/><path d="m48 392h136v40h-136z" fill="#4d5e78"/><path d="m48 408h136v24h-136z" fill="#435269"/><g fill="#3b495e"><path d="m72 392h16v40h-16z"/><path d="m104 392h16v40h-16z"/><path d="m136 392h16v40h-16z"/></g><rect fill="#f7ad7c" height="16" rx="8" width="40" x="160" y="312"/><path d="m232 188a43.946 43.946 0 0 1 -49.56 43.64l-22.44 24.36-22.42-22.42-25.58-25.58 37.48-41.27a44 44 0 0 1 82.52 21.27z" fill="#f35244"/><path d="m232 188a43.946 43.946 0 0 1 -49.56 43.64l-22.44 24.36-22.42-22.42a464.787 464.787 0 0 0 87.63-69.06 43.671 43.671 0 0 1 6.79 23.48z" fill="#e64c3f"/><path d="m190.86 448h-142.86v-16h136z" fill="#e64c3f"/></g></svg>