<svg id="LGBT_x5F_empowerment" enable-background="new 0 0 300 300" height="512" viewBox="0 0 300 300" width="512" xmlns="http://www.w3.org/2000/svg"><circle cx="124.958" cy="118" fill="#efefd2" r="90"/><path d="m142.958 268v-28.756l-33.168-34.536c-4.126-4.08-6.939-9.33-8.07-15.06-1.247-6.323-.379-12.881 2.472-18.661l10.239-20.761 16.527-10.226h92v68.299c0 5.787-.388 11.567-1.161 17.302l-2.164 16.052c-.45 3.335-.675 6.697-.675 10.062v16.285z" fill="#e7d1c4"/><path d="m218.958 272h-76c-2.209 0-4-1.791-4-4v-27.146l-32.053-33.375c-4.643-4.59-7.818-10.512-9.109-17.057-1.408-7.145-.41-14.674 2.809-21.205l10.24-20.762c.332-.672.846-1.238 1.482-1.633l16.525-10.225c.633-.391 1.361-.598 2.105-.598h92c2.209 0 4 1.791 4 4v68.299c0 5.936-.402 11.936-1.195 17.836l-2.164 16.055c-.426 3.139-.641 6.342-.641 9.525v16.286c.001 2.209-1.79 4-3.999 4zm-72-8h68v-12.285c0-3.541.24-7.105.711-10.598l2.164-16.051c.746-5.545 1.125-11.188 1.125-16.768v-64.298h-86.863l-14.582 9.023-9.732 19.732c-2.447 4.963-3.207 10.688-2.137 16.117.98 4.967 3.387 9.459 6.959 12.99l33.24 34.609c.715.746 1.115 1.738 1.115 2.771z" fill="#4c241d"/><path d="m178.958 225.91c-2.209 0-4-1.791-4-4v-22.254c0-10.066-8.783-18.256-19.58-18.256-2.209 0-4-1.791-4-4s1.791-4 4-4c15.207 0 27.58 11.779 27.58 26.256v22.254c0 2.209-1.791 4-4 4z" fill="#4c241d"/><path d="m143.206 171.966h-.829c-6.49 0-11.752-5.261-11.752-11.752v-29.379c0-6.49 5.261-11.752 11.752-11.752h.829c6.49 0 11.752 5.261 11.752 11.752v29.379c0 6.49-5.261 11.752-11.752 11.752z" fill="#e7d1c4"/><path d="m143.206 175.965h-.828c-8.686 0-15.752-7.064-15.752-15.75v-29.379c0-8.686 7.066-15.752 15.752-15.752h.828c8.686 0 15.752 7.066 15.752 15.752v29.379c0 8.685-7.066 15.75-15.752 15.75zm-.828-52.881c-4.275 0-7.752 3.477-7.752 7.752v29.379c0 4.273 3.477 7.75 7.752 7.75h.828c4.275 0 7.752-3.477 7.752-7.75v-29.379c0-4.275-3.477-7.752-7.752-7.752z" fill="#4c241d"/><path d="m190.958 172c-6.627 0-12-5.373-12-12v-20.029c0-6.627 5.373-12 12-12 6.627 0 12 5.373 12 12v20.029c0 6.627-5.373 12-12 12z" fill="#e7d1c4"/><path d="m190.958 176c-8.822 0-16-7.178-16-16v-20.029c0-8.822 7.178-16 16-16s16 7.178 16 16v20.029c0 8.822-7.178 16-16 16zm0-44.029c-4.412 0-8 3.588-8 8v20.029c0 4.412 3.588 8 8 8s8-3.588 8-8v-20.029c0-4.412-3.588-8-8-8z" fill="#4c241d"/><path d="m212.958 171.966c-5.523 0-10-4.477-10-10v-19.966c0-5.523 4.477-10 10-10 5.523 0 10 4.477 10 10v19.966c0 5.523-4.477 10-10 10z" fill="#e7d1c4"/><path d="m212.958 175.965c-7.719 0-14-6.281-14-14v-19.965c0-7.719 6.281-14 14-14s14 6.281 14 14v19.965c0 7.719-6.281 14-14 14zm0-39.965c-3.309 0-6 2.691-6 6v19.965c0 3.309 2.691 6 6 6s6-2.691 6-6v-19.965c0-3.309-2.691-6-6-6z" fill="#4c241d"/><path d="m166.958 172c-6.627 0-12-5.373-12-12v-28c0-6.627 5.373-12 12-12 6.627 0 12 5.373 12 12v28c0 6.627-5.373 12-12 12z" fill="#e7d1c4"/><path d="m166.958 176c-8.822 0-16-7.178-16-16v-28c0-8.822 7.178-16 16-16s16 7.178 16 16v28c0 8.822-7.178 16-16 16zm0-52c-4.412 0-8 3.588-8 8v28c0 4.412 3.588 8 8 8s8-3.588 8-8v-28c0-4.412-3.588-8-8-8z" fill="#4c241d"/><path d="m127.688 172.48c2.266 4.327 5.855 6.761 9.802 8.039 10.529 3.407 21.949-1.895 27.084-11.698l1.968-3.758-38.854-22.255-11.332 6.495" fill="#e7d1c4"/><path d="m143.921 185.523c-2.57 0-5.152-.387-7.664-1.201-5.496-1.775-9.572-5.137-12.111-9.986-1.025-1.957-.27-4.375 1.688-5.398 1.957-1.027 4.373-.271 5.398 1.688 1.557 2.969 4.006 4.961 7.488 6.086 8.385 2.709 17.979-1.477 22.311-9.746l.182-.346-33.523-19.203-9.342 5.357c-1.922 1.102-4.359.438-5.461-1.48-1.098-1.918-.436-4.361 1.48-5.461l11.332-6.496c1.23-.709 2.744-.709 3.979 0l38.854 22.256c1.865 1.068 2.553 3.422 1.555 5.326l-1.969 3.758c-4.844 9.245-14.435 14.846-24.197 14.846z" fill="#4c241d"/><path d="m94.954 148c-.814 0-1.639-.248-2.35-.766l-44-32c-1.785-1.299-2.182-3.801-.881-5.588 1.297-1.785 3.801-2.182 5.588-.881l44 32c1.785 1.299 2.182 3.801.881 5.588-.781 1.077-2.002 1.647-3.238 1.647z" fill="#bd53b5"/><path d="m110.96 128c-1.199 0-2.385-.537-3.172-1.561l-40-52c-1.348-1.752-1.02-4.264.73-5.609 1.752-1.35 4.264-1.021 5.609.73l40 52c1.348 1.752 1.02 4.264-.73 5.609-.726.561-1.585.831-2.437.831z" fill="#9dc1e4"/><path d="m130.956 108.002c-1.76 0-3.371-1.17-3.857-2.947l-17.426-63.758c-.582-2.131.674-4.33 2.805-4.914 2.141-.59 4.332.674 4.914 2.805l17.426 63.758c.582 2.131-.674 4.33-2.805 4.914-.354.095-.709.142-1.057.142z" fill="#a9ba5a"/><path d="m158.962 104c-.084 0-.168-.002-.254-.008-2.205-.139-3.881-2.037-3.742-4.242l4-64c.139-2.203 2.033-3.902 4.242-3.742 2.205.139 3.881 2.037 3.742 4.242l-4 64c-.133 2.119-1.892 3.75-3.988 3.75z" fill="#ffce56"/><path d="m186.956 108c-.562 0-1.135-.119-1.68-.371-2.004-.928-2.877-3.305-1.947-5.311l25.438-54.93c.928-2.002 3.305-2.873 5.311-1.947 2.004.928 2.877 3.305 1.947 5.311l-25.438 54.93c-.676 1.459-2.121 2.318-3.631 2.318z" fill="#fc8c29"/><path d="m214.958 116c-1.023 0-2.047-.391-2.828-1.172-1.562-1.562-1.562-4.094 0-5.656l36-36c1.562-1.562 4.094-1.562 5.656 0s1.562 4.094 0 5.656l-36 36c-.781.781-1.805 1.172-2.828 1.172z" fill="#f53e28"/><g fill="#4c241d"><path d="m49.024 233.639c-1.023 0-2.047-.391-2.828-1.172-1.562-1.562-1.562-4.094 0-5.656l8.486-8.486c1.562-1.562 4.094-1.562 5.656 0s1.562 4.094 0 5.656l-8.486 8.486c-.781.781-1.804 1.172-2.828 1.172z"/><path d="m68.823 213.84c-1.023 0-2.047-.391-2.828-1.172-1.562-1.562-1.562-4.094 0-5.656l8.486-8.486c1.562-1.562 4.094-1.562 5.656 0s1.562 4.094 0 5.656l-8.486 8.486c-.781.781-1.804 1.172-2.828 1.172z"/><path d="m78.317 234.646c-1.023 0-2.047-.391-2.828-1.172l-8.555-8.555c-1.562-1.562-1.562-4.094 0-5.656s4.094-1.562 5.656 0l8.555 8.555c1.562 1.562 1.562 4.094 0 5.656-.781.782-1.804 1.172-2.828 1.172z"/><path d="m57.511 213.84c-1.023 0-2.047-.391-2.828-1.172l-8.486-8.486c-1.562-1.562-1.562-4.094 0-5.656s4.094-1.562 5.656 0l8.486 8.486c1.562 1.562 1.562 4.094 0 5.656-.781.781-1.805 1.172-2.828 1.172z"/><path d="m251.552 58.684c-5.295 0-10.201-3.438-11.814-8.76-.955-3.154-.627-6.492.928-9.398s4.148-5.033 7.303-5.988c6.51-1.973 13.412 1.719 15.385 8.229 1.973 6.51-1.719 13.412-8.229 15.387-1.188.358-2.392.53-3.573.53zm-.01-16.678c-.416 0-.838.061-1.256.188-1.109.336-2.02 1.084-2.566 2.105s-.662 2.195-.326 3.305c.695 2.291 3.127 3.59 5.41 2.893 2.289-.693 3.586-3.121 2.893-5.41-.569-1.872-2.294-3.081-4.155-3.081z"/><path d="m249.251 182.924c-1.023 0-2.047-.391-2.828-1.172-1.562-1.561-1.562-4.094 0-5.656l11.791-11.793c1.562-1.562 4.094-1.562 5.656 0 1.562 1.561 1.562 4.094 0 5.656l-11.791 11.793c-.781.781-1.805 1.172-2.828 1.172z"/><path d="m261.042 182.924c-1.023 0-2.047-.391-2.828-1.172l-11.791-11.793c-1.562-1.562-1.562-4.096 0-5.656 1.562-1.562 4.094-1.562 5.656 0l11.791 11.793c1.562 1.562 1.562 4.096 0 5.656-.781.781-1.805 1.172-2.828 1.172z"/></g></svg>