<svg id="LGBT_x5F_empowerment" enable-background="new 0 0 300 300" height="512" viewBox="0 0 300 300" width="512" xmlns="http://www.w3.org/2000/svg"><path d="m207.925 126.001c-3.3 0-6.296 1.196-8.692 3.113-2.871-4.3-7.761-7.142-13.308-7.142-3.32 0-6.405 1.019-8.964 2.757-2.192-6.226-8.07-10.727-15.036-10.727-4.551 0-8.639 1.931-11.555 4.991-2.89-3.573-7.254-5.907-12.197-5.907h-.828c-8.686 0-15.752 7.066-15.752 15.752v7.139l-14.299 8.847c-.637.395-1.15.961-1.482 1.633l-10.24 20.762c-3.219 6.531-4.217 14.061-2.809 21.205 1.291 6.545 4.467 12.467 9.109 17.057l32.053 33.375v27.146c0 2.209 1.791 4 4 4h76c2.209 0 4-1.791 4-4v-16.285c0-3.184.215-6.387.641-9.525l2.164-16.055c.793-5.9 1.195-11.9 1.195-17.836v-46.334-19.965-2c0-.792-.29-1.488-.687-2.109-1.769-5.707-7.034-9.892-13.313-9.892zm0 8c3.309 0 6 2.691 6 6v19.965c0 3.309-2.691 6-6 6s-6-2.691-6-6v-1.965-18c0-3.308 2.691-6 6-6zm-22-4.029c4.412 0 8 3.588 8 8v2.029 18c0 4.412-3.588 8-8 8s-8-3.588-8-8v-20.029c0-4.412 3.588-8 8-8zm-24-7.971c4.412 0 8 3.588 8 8v7.971 20.029c0 3.406-2.148 6.301-5.153 7.453l.28-.535c.998-1.904.311-4.258-1.555-5.326l-9.572-5.483v-24.109c0-4.412 3.588-8 8-8zm-24.58-.916h.828c4.275 0 7.752 3.477 7.752 7.752v1.164 19.526l-16.332-9.355v-.754c.346-.898.351-1.871 0-2.805v-7.776c0-4.275 3.476-7.752 7.752-7.752zm75.455 101.983-2.164 16.051c-.471 3.492-.711 7.057-.711 10.598v12.285h-68v-24.756c0-1.033-.4-2.025-1.115-2.771l-33.24-34.609c-3.572-3.531-5.979-8.023-6.959-12.99-1.07-5.43-.311-11.154 2.137-16.117l9.716-19.699c.286-.087.58-.128.851-.284l9.342-5.357 33.523 19.203-.182.346c-4.332 8.27-13.926 12.455-22.311 9.746-3.482-1.125-5.932-3.117-7.488-6.086-1.025-1.959-3.441-2.715-5.398-1.688-1.957 1.023-2.713 3.441-1.688 5.398 2.539 4.85 6.615 8.211 12.111 9.986 2.512.814 5.094 1.201 7.664 1.201 4.934 0 9.819-1.44 14.074-4.049.138.035.25.12.395.14 9.445 1.357 16.568 9.113 16.568 18.041v22.254c0 2.209 1.791 4 4 4s4-1.791 4-4v-22.254c0-10.257-6.397-19.405-15.744-23.682 4.696-.076 8.862-2.205 11.744-5.504 2.935 3.36 7.199 5.53 12 5.53 4.508 0 8.569-1.889 11.479-4.899 2.569 2.954 6.308 4.864 10.521 4.864 2.155 0 4.174-.53 6-1.404v33.738c0 5.58-.379 11.223-1.125 16.768z"/><path d="m92.278 138.767-44-32c-1.787-1.301-4.291-.904-5.588.881-1.301 1.787-.904 4.289.881 5.588l44 32c.711.518 1.535.766 2.35.766 1.236 0 2.457-.57 3.238-1.646 1.301-1.788.904-4.29-.881-5.589z"/><path d="m102.755 124.441c.787 1.023 1.973 1.561 3.172 1.561.852 0 1.711-.27 2.438-.83 1.75-1.346 2.078-3.857.73-5.609l-40-52c-1.346-1.752-3.857-2.08-5.609-.73-1.75 1.346-2.078 3.857-.73 5.609z"/><path d="m122.065 103.056c.486 1.777 2.098 2.947 3.857 2.947.348 0 .703-.047 1.057-.143 2.131-.584 3.387-2.783 2.805-4.914l-17.426-63.758c-.582-2.131-2.773-3.395-4.914-2.805-2.131.584-3.387 2.783-2.805 4.914z"/><path d="m153.675 101.994c.086.006.17.008.254.008 2.096 0 3.855-1.631 3.988-3.75l4-64c.139-2.205-1.537-4.104-3.742-4.242-2.209-.16-4.104 1.539-4.242 3.742l-4 64c-.139 2.204 1.537 4.103 3.742 4.242z"/><path d="m180.243 105.63c.545.252 1.117.371 1.68.371 1.51 0 2.955-.859 3.631-2.318l25.438-54.93c.93-2.006.057-4.383-1.947-5.311-2.006-.926-4.383-.055-5.311 1.947l-25.438 54.93c-.93 2.007-.057 4.383 1.947 5.311z"/><path d="m243.097 71.173-36 36c-1.562 1.562-1.562 4.094 0 5.656.781.781 1.805 1.172 2.828 1.172s2.047-.391 2.828-1.172l36-36c1.562-1.562 1.562-4.094 0-5.656s-4.094-1.562-5.656 0z"/><path d="m49.649 216.326-8.486 8.486c-1.562 1.562-1.562 4.094 0 5.656.781.781 1.805 1.172 2.828 1.172s2.047-.391 2.828-1.172l8.486-8.486c1.562-1.562 1.562-4.094 0-5.656s-4.093-1.563-5.656 0z"/><path d="m63.79 211.841c1.023 0 2.047-.391 2.828-1.172l8.486-8.486c1.562-1.562 1.562-4.094 0-5.656s-4.094-1.562-5.656 0l-8.486 8.486c-1.562 1.562-1.562 4.094 0 5.656.781.782 1.805 1.172 2.828 1.172z"/><path d="m67.558 217.265c-1.562-1.562-4.094-1.562-5.656 0s-1.562 4.094 0 5.656l8.555 8.555c.781.781 1.805 1.172 2.828 1.172s2.047-.391 2.828-1.172c1.562-1.562 1.562-4.094 0-5.656z"/><path d="m46.819 196.527c-1.562-1.562-4.094-1.562-5.656 0s-1.562 4.094 0 5.656l8.486 8.486c.781.781 1.805 1.172 2.828 1.172s2.047-.391 2.828-1.172c1.562-1.562 1.562-4.094 0-5.656z"/><path d="m246.519 56.685c1.182 0 2.385-.172 3.572-.531 6.51-1.975 10.201-8.877 8.229-15.387s-8.875-10.201-15.385-8.229c-3.154.955-5.748 3.082-7.303 5.988s-1.883 6.244-.928 9.398c1.613 5.323 6.52 8.761 11.815 8.761zm-3.832-14.385c.547-1.021 1.457-1.77 2.566-2.105.418-.127.84-.188 1.256-.188 1.861 0 3.586 1.209 4.154 3.08.693 2.289-.604 4.717-2.893 5.41-2.283.697-4.715-.602-5.41-2.893-.336-1.109-.22-2.282.327-3.304z"/><path d="m255.769 171.029 3.068-3.068c1.562-1.562 1.562-4.096 0-5.656-1.562-1.562-4.094-1.562-5.656 0l-3.067 3.068-3.067-3.068c-1.562-1.562-4.094-1.562-5.656 0-1.562 1.561-1.562 4.094 0 5.656l3.068 3.068-3.068 3.068c-1.562 1.562-1.562 4.096 0 5.656.781.781 1.805 1.172 2.828 1.172s2.047-.391 2.828-1.172l3.067-3.068 3.067 3.068c.781.781 1.805 1.172 2.828 1.172s2.047-.391 2.828-1.172c1.562-1.561 1.562-4.094 0-5.656z"/></svg>