<svg height="512" viewBox="0 0 64 64" width="512" xmlns="http://www.w3.org/2000/svg"><g id="Hearth-3" data-name="Hearth"><path d="m22.41 21.59a1.955 1.955 0 0 0 -1.41-.59 2.006 2.006 0 0 0 -2 2v-3a2.015 2.015 0 0 0 -2-2 2.006 2.006 0 0 0 -2 2v-4a2.01 2.01 0 0 0 -2.18-1.99 2.076 2.076 0 0 0 -1.82 2.1v2.89a2.01 2.01 0 0 0 -2.18-1.99 2.076 2.076 0 0 0 -1.82 2.1v8.89a2.006 2.006 0 0 0 -2-2h-1a1 1 0 0 0 -1 1v10.34a4 4 0 0 0 1.17 2.83l.66.66a4 4 0 0 1 1.17 2.83v18.34h14v-18.34a4 4 0 0 1 1.17-2.83l.66-.66a4 4 0 0 0 1.17-2.83v-14.34a1.955 1.955 0 0 0 -.59-1.41z" fill="#ffbcab"/><path d="m59.83 20.83-.66-.66a4 4 0 0 1 -1.17-2.83v-15.34h-14v15.34a4 4 0 0 1 -1.17 2.83l-.66.66a4 4 0 0 0 -1.17 2.83v3.924l.288 7.1v.016a1 1 0 0 0 .712.3h1a2.006 2.006 0 0 0 2-2v8.89a2.076 2.076 0 0 0 1.82 2.1 2.01 2.01 0 0 0 2.18-1.99v2.89a2.076 2.076 0 0 0 1.82 2.1 2.01 2.01 0 0 0 2.18-1.99v-4a2.006 2.006 0 0 0 2 2 2.015 2.015 0 0 0 2-2v-3a2.006 2.006 0 0 0 2 2 2.015 2.015 0 0 0 2-2v-14.34a4 4 0 0 0 -1.17-2.83z" fill="#ffbcab"/><g fill="#ff9478"><path d="m11 19a1.955 1.955 0 0 0 -.59-1.41 1.866 1.866 0 0 0 -.41-.308v9.718h1z"/><path d="m7 28a1.955 1.955 0 0 0 -.59-1.41 1.866 1.866 0 0 0 -.41-.308v8.718h1z"/><path d="m15 16a1.955 1.955 0 0 0 -.59-1.41 1.866 1.866 0 0 0 -.41-.308v12.718h1z"/><path d="m19 20a1.955 1.955 0 0 0 -.59-1.41 1.866 1.866 0 0 0 -.41-.308v8.718h1z"/><path d="m23 23a1.955 1.955 0 0 0 -.59-1.41 1.866 1.866 0 0 0 -.41-.308v5.718h1z"/><path d="m49 42v-9h-1v10.723a2 2 0 0 0 1-1.723z"/><path d="m45 33v-7h-1v8.723a2 2 0 0 0 1-1.723z"/><path d="m53 45v-12h-1v13.723a2 2 0 0 0 1-1.723z"/><path d="m57 41v-8h-1v9.723a2 2 0 0 0 1-1.723z"/><path d="m61 38v-5h-1v6.723a2 2 0 0 0 1-1.723z"/></g><path d="m29.88 27.74a5 5 0 1 0 -7.07 7.07l.19.19 9 9v-14.14z" fill="#c00"/><path d="m41.19 27.74a4.985 4.985 0 0 0 -7.07 0l-2.12 2.12v14.14l9.19-9.19a4.985 4.985 0 0 0 0-7.07z" fill="#f00"/><path d="m33 38v-2h2v-2h-2v-2h-2v2h-2v2h2v2z" fill="#f1f2f2"/></g></svg>