<svg id="_x33_0" enable-background="new 0 0 64 64" height="512" viewBox="0 0 64 64" width="512" xmlns="http://www.w3.org/2000/svg"><g><g><g><path d="m18 56v6h-14v-6h2.28c.43 0 .81-.28.95-.68l1.77-5.32 1.77 5.32c.14.4.52.68.95.68z" fill="#b4dd7f"/></g><g><path d="m9 50-1.77 5.32c-.14.4-.52.68-.95.68h-2.28-1c-.55 0-1-.45-1-1v-9h4.17.01c-.12.31-.18.65-.18 1 0 1.66 1.34 3 3 3z" fill="#a0d468"/></g><g><path d="m20 46v9c0 .55-.45 1-1 1h-1-6.28c-.43 0-.81-.28-.95-.68l-1.77-5.32c1.66 0 3-1.34 3-3 0-.35-.06-.69-.18-1h.01z" fill="#a0d468"/></g><g><path d="m11.82 46c.12.31.18.65.18 1 0 1.66-1.34 3-3 3s-3-1.34-3-3c0-.35.06-.69.18-1 .4-1.17 1.51-2 2.82-2s2.42.83 2.82 2z" fill="#e6e9ed"/></g><g><path d="m34 44 1.97 1.48c-1.25 1.95-1.97 4.27-1.97 6.72v9.8h-10v-5.8c0-2.96 1.05-5.72 2.82-7.89 1.78-2.16 4.28-3.73 7.18-4.31z" fill="#4fc1e9"/></g><g><path d="m48 62h-14v-9.8c0-2.45.72-4.77 1.97-6.72.26-.41.55-.8.85-1.17.72-.87 1.56-1.65 2.49-2.3.61-.43 1.26-.8 1.94-1.12l1.75 6.11 2.61-2.09 1.39 2.09-2 12z" fill="#b4dd7f"/></g><g><path d="m62 52.2v9.8h-14l3-3-2-12 1.39-2.09 2.61 2.09 1.75-6.11c4.34 1.99 7.25 6.37 7.25 11.31z" fill="#b4dd7f"/></g><g><path d="m48 43-2.39 1.91-2.61 2.09-1.75-6.11c.86-.39 1.78-.7 2.75-.89z" fill="#a0d468"/></g><g><path d="m58.04 24.58c1.17.69 1.96 1.96 1.96 3.42 0 1.5-.82 2.8-2.04 3.49.03-.16.04-.32.04-.49 0-1.66-1.34-3-3-3h-1v-1c0-.83-.34-1.58-.88-2.12s-1.29-.88-2.12-.88h-6c-1.66 0-3 1.34-3 3v1h-1c-1.66 0-3 1.34-3 3 0 .17.01.33.04.49-1.22-.69-2.04-1.99-2.04-3.49 0-1.46.79-2.73 1.96-3.42-.59-.7-.96-1.59-.96-2.58 0-.63.15-1.23.42-1.77.65-1.32 2.01-2.23 3.58-2.23.76 0 1.46.22 2.07.59 1.08-1.56 2.88-2.59 4.93-2.59.35 0 .7.03 1.03.09 1.62.28 3.01 1.21 3.9 2.5.61-.37 1.31-.59 2.07-.59 2.21 0 4 1.79 4 4 0 .99-.37 1.88-.96 2.58z" fill="#b27946"/></g><g><path d="m58 31c0 .17-.01.33-.04.49-.1.63-.41 1.2-.84 1.63-.54.54-1.29.88-2.12.88h-1v-6h1c1.66 0 3 1.34 3 3z" fill="#f0d0b4"/></g><g><path d="m54.75 40.89-1.75 6.11-2.61-2.09-2.39-1.91 4-3c.97.19 1.89.5 2.75.89z" fill="#a0d468"/></g><g><path d="m54 28v6c0 1.76-1.14 3.26-2.73 3.79-.4.14-.83.21-1.27.21h-4c-.44 0-.87-.07-1.27-.21-1.59-.53-2.73-2.03-2.73-3.79v-6-1c0-1.66 1.34-3 3-3h6c.83 0 1.58.34 2.12.88s.88 1.29.88 2.12z" fill="#f0d0b4"/></g><g><path d="m51.27 37.8.73 2.2-4 3-4-3 .73-2.2v-.01c.4.14.83.21 1.27.21h4c.44 0 .87-.07 1.27-.21z" fill="#f0d0b4"/></g><g><path d="m49 47 2 12-3 3-3-3 2-12z" fill="#fcd770"/></g><g><path d="m50.39 44.91-1.39 2.09h-2l-1.39-2.09 2.39-1.91z" fill="#ffc729"/></g><g><path d="m47.23 5.23c1.77 1.77 2.77 4.18 2.77 6.69 0 1.46-.34 2.88-.97 4.17-.33-.06-.68-.09-1.03-.09-2.05 0-3.85 1.03-4.93 2.59-.61-.37-1.31-.59-2.07-.59-1.57 0-2.93.91-3.58 2.23h-.01c-1.99.46-3.79 1.61-5.05 3.29l-.36.48-1.09.27c-1.49.38-2.6 1.6-2.86 3.07l-4.05-3.81v-.28c0-1.8-1.45-3.25-3.25-3.25-.16 0-.32.01-.47.03l-1.31-1.23c-.68-.64-1.25-1.37-1.71-2.17-.82-1.42-1.26-3.04-1.26-4.71 0-.84.11-1.67.33-2.47.1-.39.24-.77.39-1.15.47-1.14 1.16-2.18 2.05-3.07l.4-.4c1.81-1.81 4.27-2.83 6.83-2.83 1.28 0 2.54.26 3.7.74s2.22 1.18 3.13 2.09l.17.17.17-.17c1.81-1.81 4.27-2.83 6.83-2.83 1.28 0 2.54.26 3.7.74s2.22 1.18 3.13 2.09z" fill="#ff826e"/></g><g><path d="m44.73 37.79v.01l-.73 2.2c-.97.19-1.89.5-2.75.89-.68.32-1.33.69-1.94 1.12v-.01h-3.31c-.44 0-.87-.07-1.27-.21-1.59-.53-2.73-2.03-2.73-3.79v-5.88c0-.04 0-.08 0-.12.06-1.78 1.29-3.32 3.03-3.76l.97-.24c0 1.5.82 2.8 2.04 3.49.1.63.41 1.2.84 1.63.54.54 1.29.88 2.12.88h1c0 1.76 1.14 3.26 2.73 3.79z" fill="#f0d0b4"/></g><g><path d="m42 28v6h-1c-.83 0-1.58-.34-2.12-.88-.43-.43-.74-1-.84-1.63-.03-.16-.04-.32-.04-.49 0-1.66 1.34-3 3-3z" fill="#f0d0b4"/></g><g><path d="m39.31 42v.01c-.93.65-1.77 1.43-2.49 2.3-.3.37-.59.76-.85 1.17l-1.97-1.48.73-2.2v-.01c.4.14.83.21 1.27.21z" fill="#f0d0b4"/></g><g><path d="m28.05 27.35v-.01c.26-1.47 1.37-2.69 2.86-3.07l1.09-.27.36-.48c1.26-1.68 3.06-2.83 5.05-3.29h.01c-.27.54-.42 1.14-.42 1.77 0 .99.37 1.88.96 2.58-1.17.69-1.96 1.96-1.96 3.42l-.97.24c-1.74.44-2.97 1.98-3.03 3.76h-1c-.77 0-1.46.29-1.99.77l-.01-.01s-.25-.69-.5-1.63c-.25-.93-.5-2.13-.5-3.13 0-.22.02-.44.05-.65z" fill="#656d78"/></g><g><path d="m32 32v.12 5.88h-1c-.83 0-1.58-.34-2.12-.88s-.88-1.29-.88-2.12c0-.89.39-1.7 1.01-2.23.53-.48 1.22-.77 1.99-.77z" fill="#f0d0b4"/></g><g><path d="m20.28 20.03c.15-.02.31-.03.47-.03 1.8 0 3.25 1.45 3.25 3.25v.28 7.41c0 2.64-.34 5.26-1.02 7.79-.67 2.53-1.67 4.97-2.98 7.27h-8.17-.01c-.4-1.17-1.51-2-2.82-2s-2.42.83-2.82 2h-.01-4.17v-19.51c0-4.68 2.34-9.05 6.23-11.65l8.1-5.39c-.22.8-.33 1.63-.33 2.47 0 1.67.44 3.29 1.26 4.71l-4.17 5.85c-.71.99-1.09 2.18-1.09 3.39 0 .75.14 1.48.42 2.18l1.25 3.13c.2.49.68.82 1.22.82.64 0 1.19-.46 1.29-1.1l1.37-8.19c.13-.78.53-1.46 1.1-1.94.45-.38 1.02-.64 1.63-.74z" fill="#f0d0b4"/></g></g><g><path d="m50 31.764c-.381.762-1.147 1.236-2 1.236h-3v2h3c1.615 0 3.067-.897 3.789-2.342l.105-.211-1.789-.895z"/><path d="m50.527 27.896.154.052.638-1.896-.157-.052c-1.293-.432-2.162-1.637-2.162-3h-2c0 2.226 1.418 4.193 3.527 4.896z"/><path d="m52.77 39.147-.279-.838c1.215-.705 2.119-1.89 2.408-3.309h.101c1.816 0 3.336-1.224 3.822-2.885 1.35-.926 2.178-2.461 2.178-4.115 0-1.411-.584-2.717-1.602-3.652.393-.723.602-1.531.602-2.348 0-2.757-2.243-5-5-5-.605 0-1.209.116-1.781.339-.775-.867-1.751-1.515-2.828-1.908.401-1.125.61-2.321.61-3.515 0-2.792-1.087-5.417-3.061-7.392l-.403-.403c-2.015-2.013-4.691-3.121-7.537-3.121-2.6 0-5.059.925-7 2.62-1.94-1.694-4.399-2.62-7-2.62-2.846 0-5.522 1.108-7.536 3.121l-.402.403c-1.221 1.221-2.1 2.692-2.595 4.296l-7.787 5.192c-4.183 2.788-6.68 7.454-6.68 12.48v28.508c0 1.103.897 2 2 2v6h60v-10.802c0-6.187-4.268-11.584-10.23-13.051zm.767 2.333-1.086 3.8-2.818-2.255 2.589-1.942c.45.108.889.239 1.315.397zm-50.537 13.52v-8h2c0 1.745 1.13 3.217 2.692 3.762l-1.413 4.238zm6-6c-1.103 0-2-.897-2-2s.897-2 2-2 2 .897 2 2-.897 2-2 2zm4-2h6v8h-7.279l-1.412-4.238c1.561-.545 2.691-2.017 2.691-3.762zm8 8v-8.736c2.618-4.674 4-9.967 4-15.326v-5.093l2.021 1.902c-.004.085-.021.167-.021.253 0 1.608.565 3.587.871 4.539-.537.681-.871 1.528-.871 2.461 0 2.206 1.794 4 4 4h.101c.289 1.419 1.193 2.604 2.408 3.31l-.279.838c-5.962 1.466-10.23 6.863-10.23 13.05v4.802h-4v-4c1.103 0 2-.897 2-2zm8-27c0-1.307.885-2.44 2.153-2.758l1.434-.358.575-.768c.754-1.005 1.741-1.801 2.86-2.34-.003.076-.022.148-.022.224 0 .817.209 1.625.602 2.348-.82.754-1.34 1.754-1.518 2.851l-.296.074c-1.855.464-3.23 1.927-3.644 3.728h-.144c-.503 0-.979.104-1.422.273-.265-.922-.578-2.229-.578-3.274zm12 7h.101c.289 1.419 1.193 2.604 2.408 3.31l-.279.838c-1.528.376-2.942 1.013-4.204 1.853h-3.026c-1.654 0-3-1.346-3-3v-5.877c0-1.34.886-2.502 2.164-2.873.3 1.159 1.014 2.178 2.014 2.866.486 1.659 2.006 2.883 3.822 2.883zm0-2c-1.103 0-2-.897-2-2s.897-2 2-2zm2.549 12.28-1.086-3.8c.426-.159.866-.289 1.316-.397l2.589 1.942zm-7.79-1.211-.582-.437.231-.693c.196.025.389.061.592.061h.66c-.32.34-.618.698-.901 1.069zm-4.759-7.069c-1.103 0-2-.897-2-2s.897-2 2-2zm-6 19.198c0-5.289 3.669-9.889 8.778-11.115l.882.662c-1.062 1.93-1.66 4.136-1.66 6.453v8.802h-8zm10-4c0-4.123 2.23-7.83 5.632-9.846l1.819 6.367 2.931-2.344.567.85-2.02 12.117 1.657 1.658h-10.586zm13 8.388-1.929-1.929 1.776-10.657h.306l1.776 10.657zm.465-14.586h-.93l-.586-.879 1.051-.84 1.051.84zm2.358-6.367-2.823 2.117-2.823-2.117.231-.693c.196.024.389.06.592.06h4c.203 0 .396-.036.593-.06zm4.177-6.633v-4c1.103 0 2 .897 2 2s-.897 2-2 2zm-2.888-13.84.536.774.805-.489c.487-.295 1.008-.445 1.547-.445 1.654 0 3 1.346 3 3 0 .888-.394 1.538-.725 1.928l-.765.901 1.015.604c.924.552 1.475 1.511 1.475 2.567 0 .489-.134.955-.353 1.375-.624-1.396-2.021-2.375-3.647-2.375 0-2.206-1.794-4-4-4v2c1.103 0 2 .897 2 2v7c0 1.654-1.346 3-3 3h-4c-1.654 0-3-1.346-3-3v-7c0-1.103.897-2 2-2v-2c-2.206 0-4 1.794-4 4-1.626 0-3.023.979-3.647 2.375-.219-.42-.353-.886-.353-1.375 0-1.056.551-2.015 1.475-2.566l1.015-.604-.765-.901c-.331-.391-.725-1.041-.725-1.929 0-1.654 1.346-3 3-3 .539 0 1.06.15 1.547.445l.805.489.536-.774c.936-1.352 2.473-2.16 4.112-2.16s3.176.808 4.112 2.16zm-32.636-13.222.402-.403c1.636-1.635 3.81-2.535 6.122-2.535s4.486.9 6.121 2.534l.879.882.878-.881c1.636-1.635 3.81-2.535 6.122-2.535s4.486.9 6.121 2.535l.403.403c1.597 1.597 2.476 3.72 2.476 5.978 0 1.06-.215 2.118-.604 3.105-.132-.007-.263-.021-.396-.021-2.004 0-3.898.861-5.219 2.339-.572-.223-1.176-.339-1.781-.339-1.789 0-3.35.953-4.234 2.37-2.072.579-3.909 1.82-5.204 3.547l-.149.199-.745.187c-1.314.328-2.38 1.176-3.019 2.287l-2.666-2.509c-.09-2.264-1.946-4.081-4.231-4.081-.033 0-.063.008-.096.009l-.996-.939c-1.69-1.59-2.66-3.834-2.66-6.154 0-2.258.879-4.381 2.476-5.978zm-1.187 13.589.166.156c-.977.629-1.69 1.643-1.893 2.866l-1.365 8.189c-.046.276-.494.323-.598.064l-1.251-3.129c-.231-.574-.348-1.18-.348-1.799 0-1.017.312-1.99.903-2.817l3.347-4.686c.319.407.659.799 1.039 1.156zm-9.5-3.851 6.23-4.153c-.005.131-.019.261-.019.393 0 1.617.392 3.197 1.098 4.626l-3.822 5.352c-.835 1.168-1.276 2.544-1.276 3.98 0 .874.165 1.729.49 2.543l1.251 3.129c.354.884 1.197 1.454 2.147 1.454 1.135 0 2.094-.813 2.281-1.933l1.365-8.189c.181-1.088 1.114-1.878 2.218-1.878 1.24 0 2.248 1.009 2.248 2.248v7.689c0 4.91-1.251 9.756-3.602 14.063h-6.955c-.694-1.19-1.97-2-3.444-2s-2.75.81-3.444 2h-2.555v-18.508c0-4.356 2.164-8.399 5.789-10.816zm-3.789 41.324h1.279c.862 0 1.625-.55 1.897-1.367l.824-2.47.823 2.47c.273.817 1.036 1.367 1.898 1.367h5.279v4h-12zm56 4h-10.586l1.657-1.657-2.02-12.117.567-.85 2.931 2.344 1.819-6.367c3.402 2.016 5.632 5.722 5.632 9.845z"/><path d="m40.707 9.707-1.414-1.414-9.293 9.293-3.293-3.293-1.414 1.414 4.707 4.707z"/></g></g></svg>