<svg height="512pt" viewBox="0 -21 512.00104 512" width="512pt" xmlns="http://www.w3.org/2000/svg"><path d="m10.3125 327.015625c-2.988281-13.203125-4.546875-26.945313-4.496094-41.066406.363282-102.414063 83.6875-183.757813 186.082032-181.757813 99.71875 1.945313 179.832031 83.886719 178.820312 184.304688-.992188 98.28125-80.820312 178.773437-179.089844 180.542968-28.679687.515626-55.882812-5.589843-80.183594-16.886718-14.539062-6.761719-31.371093-5.742188-45.492187 1.851562-14.484375 7.792969-30.777344 11.652344-44.542969 13.53125-13.792968 1.878906-24.867187-11.335937-20.410156-24.523437 19.855469-58.734375 9.3125-115.992188 9.3125-115.996094zm0 0" fill="#76e7e7"/><path d="m191.898438 104.191406c-47.664063-.933594-91.191407 16.191406-124.148438 45.101563-5.085938 59.402343 2.328125 156.730469 90.964844 211.832031 23.035156 14.316406 39.519531 37.261719 44.632812 63.894531 2.410156 12.570313 3.226563 27.140625.832032 43.359375 92.425781-8.054687 165.589843-85.824218 166.539062-179.882812 1.011719-100.417969-79.101562-182.359375-178.820312-184.304688zm0 0" fill="#2eddda"/><path d="m501.6875 222.863281c2.988281-13.203125 4.550781-26.949219 4.5-41.066406-.367188-102.414063-83.691406-183.757813-186.085938-181.7617188-99.71875 1.9453128-179.832031 83.8906248-178.820312 184.3085938.992188 98.277344 80.820312 178.773438 179.089844 180.542969 28.679687.515625 55.882812-5.589844 80.183594-16.890625 14.539062-6.757813 31.371093-5.738282 45.492187 1.855468 14.488281 7.792969 30.777344 11.652344 44.546875 13.53125 13.789062 1.878907 24.863281-11.335937 20.40625-24.523437-19.851562-58.734375-9.3125-115.996094-9.3125-115.996094zm0 0" fill="#b0f0ef"/><g fill="#889cb0"><path d="m268.417969 132.03125h-24.335938c-11.640625 0-21.078125 9.433594-21.078125 21.074219v29.109375c0 11.640625 9.4375 21.078125 21.078125 21.078125 0 0 17.109375-.101563 24.894531 15.761719 2.769532 5.648437 5.1875 12.730468 6.15625 20.980468 1.269532 10.839844 15.542969 13.820313 21.097657 4.425782 10.691406-18.085938 18.59375-46.027344 7.753906-85.464844-4.390625-15.964844-19.011719-26.964844-35.566406-26.964844zm0 0"/><path d="m383.714844 132.03125h-24.335938c-11.640625 0-21.078125 9.433594-21.078125 21.074219v29.109375c0 11.640625 9.4375 21.078125 21.078125 21.078125 0 0 17.109375-.101563 24.894532 15.761719 2.769531 5.648437 5.1875 12.730468 6.15625 20.980468 1.269531 10.839844 15.542968 13.820313 21.097656 4.425782 10.691406-18.085938 18.59375-46.027344 7.753906-85.464844-4.390625-15.964844-19.011719-26.964844-35.566406-26.964844zm0 0"/></g></svg>