<?xml version="1.0" encoding="utf-8"?>
<!-- Generator: Adobe Illustrator 22.1.0, SVG Export Plug-In . SVG Version: 6.00 Build 0)  -->
<svg version="1.1" id="Layer_1" xmlns="http://www.w3.org/2000/svg" xmlns:xlink="http://www.w3.org/1999/xlink" x="0px" y="0px"
	 viewBox="0 0 198.9 188" style="enable-background:new 0 0 198.9 188;" xml:space="preserve">
<style type="text/css">
	.st0{opacity:0.18;fill:#68E1FD;enable-background:new    ;}
	.st1{fill:#080608;}
	.st2{fill:#F38A6B;}
	.st3{fill:#32406A;}
	.st4{fill:#EB737F;}
	.st5{fill:#68E1FD;}
	.st6{fill:url(#SVGID_1_);}
	.st7{fill:url(#SVGID_2_);}
	.st8{fill:url(#SVGID_3_);}
	.st9{fill:url(#SVGID_4_);}
	.st10{fill:#FFFFFF;}
	.st11{fill:url(#SVGID_5_);}
	.st12{fill:url(#SVGID_6_);}
	.st13{fill:url(#SVGID_7_);}
	.st14{fill:url(#SVGID_8_);}
	.st15{fill:url(#SVGID_9_);}
	.st16{fill:url(#SVGID_10_);}
	.st17{fill:url(#SVGID_11_);}
</style>
<title>8</title>
<path class="st0" d="M180.1,140.7c-3.9,16.7-21.9,26.5-39,28.2c-2.3,0.2-4.6,0.4-6.8,0.4c-12.8,0.2-25.7-2.2-38.5-3.1
	c-1.9-0.1-3.9-0.2-5.8-0.3c-18.3-0.6-38.4,2.7-53.6-7.6c-12-8.1-17.9-23.1-18.3-37.5s4-28.6,8.8-42.2C32.9,61,40.3,43.2,53.7,30.2
	C65.7,18.6,81,13.9,97.5,15.7c15.3,1.7,31.1,2.4,46.3,4.4c21.7,2.9,38.8,25.5,35.7,47.2c-1.1,8.1-4.6,15.7-5.3,23.8
	C172.9,107.8,183.9,124.4,180.1,140.7z"/>
<path class="st1" d="M106.3,149.3c-12.8,0.2-25.7-2.2-38.5-3.1c0.5-2.1,1.1-4.2,1.6-6.3c1-3.7,1.4-3.7,5.1-3
	c6.7,1.3,13.5,1.7,20.3,1.3c0.9-0.1,9.8-0.7,9.8-1.2C104.6,141.1,105.1,145.3,106.3,149.3z"/>
<path class="st2" d="M96.6,83.5c1.8,4.1,4.8,8.6,9.3,8.8c2.5,0.1,4.9-1.2,6.8-2.9c5.1-4.6,7.1-11.7,7.8-18.6
	c0.4-3.5,0.4-7.3-1.5-10.2c-1.9-2.9-5.3-4.3-8.6-5.1c-6.7-1.7-16.3-0.6-18.9,7.1C89.5,68.7,94.2,78.2,96.6,83.5z"/>
<path class="st3" d="M117.6,72.1C117.6,72.1,117.6,72.1,117.6,72.1L117.6,72.1L117.6,72.1c0,0.1,0,0.2,0,0.4
	C117.6,72.4,117.6,72.3,117.6,72.1L117.6,72.1z"/>
<path class="st3" d="M122.4,66.1c-0.1,0.4-0.2,0.8-0.4,1.1c-0.6,1.8-1.1,3.5-1.7,5.3c-0.3-1-0.8-2-1.6-2.7c-0.2-0.2-0.3-0.3-0.5-0.5
	c-0.5,0.8-0.8,1.8-0.7,2.8c-0.3-2-2-3.5-3.6-4.7c-1.8-1.3-3.8-2.4-4.9-4.3c-0.2-0.4-0.5-0.8-0.8-1.1c-0.5-0.3-1-0.4-1.6-0.4
	c-0.9,0-1.9,0.1-2.9,0.1c-1.4,0-2.8-0.1-3.9-0.9c-0.5-0.4-1-0.8-1.6-1.2c-1-0.5-2.2-0.1-3.2,0.5c-2,1.2-3.4,3.1-3.9,5.3
	c-0.3,1.5-0.3,3.2-1.5,4.1c-1,0.8-2.5,0.6-3.5-0.1c-1-0.8-1.6-1.9-1.9-3.1c-0.3-1-0.4-2.1-1.1-2.8c-0.8-0.9-2.2-0.9-3.3-1.4
	c-2.5-1-3.8-3.9-2.8-6.4c0.7-1.8,2.4-3,4.3-3.1c1.8-0.1,3.7,0.7,5.3-0.2c3.9-2.3,7.1-6.3,12.2-5.4c2.7,0.5,5.3,1.7,8,1.4
	c1.2-0.1,2.4-0.5,3.6-0.6c3.7-0.3,7.2,3,7.1,6.7c2.6-0.3,4.9,2.1,5.5,4.7c0,0.1,0,0.1,0,0.2C123.7,61.5,123.1,63.8,122.4,66.1z"/>
<path class="st2" d="M122.8,68.4c0.3,0.8,0.3,1.7,0.1,2.5c-0.2,1.2-0.6,2.4-1.1,3.6c-0.4,1-1,2.1-2.1,2.5c-0.3,0.1-0.7,0.1-1-0.1
	c-1.4-0.9-1.3-4.8-0.7-6.2C118.6,69.1,121.4,65.1,122.8,68.4z"/>
<path class="st3" d="M105.7,70.7c-0.8,0.4-1.6,0.6-2.5,0.7c-1,0-3.2-1.9-1.6-1.7c0.6,0.1,1.4,0.8,2,1
	C104.1,70.8,105.1,71,105.7,70.7z"/>
<path class="st3" d="M94.6,73.4c0.6,0.1,1.3,0,1.9-0.3c0.7-0.4,1.4-2.9,0.5-2.1c-0.4,0.3-0.6,1.2-1,1.6C95.6,73,95,73.5,94.6,73.4z"
	/>
<path class="st3" d="M96.7,75c0.3-0.1,0.5-0.1,0.8-0.2c0.2,0,0.5,0,0.7,0c0.2,0.1,0.4,0.2,0.5,0.5c-0.7-0.2-1.5-0.1-2.2,0.2
	c-0.4,0.2-0.8,0.5-1.1,0.8C95.6,75.7,96.1,75.2,96.7,75z"/>
<path class="st3" d="M104.1,73.5c0.3-0.1,0.5-0.1,0.8-0.2c0.2,0,0.5,0,0.7,0c0.2,0.1,0.4,0.2,0.5,0.5c-0.7-0.2-1.5-0.1-2.2,0.2
	c-0.4,0.2-0.8,0.5-1,0.8C103,74.2,103.5,73.7,104.1,73.5z"/>
<path class="st4" d="M99.7,79c-0.3,0.5-0.7,1-0.6,1.5c0.1,0.4,0.5,0.7,0.9,0.9c0.4,0.1,0.8,0.2,1.3,0.3c0.3,0.1,0.7,0.2,1,0.4
	c0.1-0.2-0.1-0.4-0.3-0.5c-0.2-0.1-0.4-0.2-0.5-0.3c-0.3-0.3,0-0.9-0.2-1.2c-0.2-0.3-0.5-0.3-0.8-0.5c-0.3-0.2-0.5-0.6-0.5-1
	c0-0.3,0.1-0.6,0.2-0.9C100.3,78,99.9,78.6,99.7,79z"/>
<path class="st3" d="M104.4,83.7c-1,0.3-2,0.5-3,0.6c-0.1,0-0.2,0-0.3,0.1c-0.1,0.1,0,0.4,0,0.5c0.1,0.3,0.1,0.6,0.1,0.8
	c0,0.3,0.2,0.5,0.5,0.6c0.3,0,0.5-0.1,0.8-0.2c0.7-0.4,1.4-0.5,2.1-0.5c0.2,0,0.3,0,0.5,0.1c0.1,0.1,0.2,0.2,0.3,0.3
	c0.4,0.3,0.9,0.4,1.4,0.3c-0.1-0.1-0.2-0.2-0.3-0.3c-1.3-0.7-1.9-2.3-1.4-3.7C104.9,82.9,105,83.5,104.4,83.7z"/>
<path class="st4" d="M103.7,84.3c-0.2,0.1-0.3,0.2-0.4,0.4c-0.1,0.1-0.2,0.3-0.2,0.4l-0.2,0.6c0.3,0,0.5,0,0.8-0.1
	c0.4-0.1,0.8-0.1,1.2-0.2c0.1,0,0.1,0,0.1-0.1c0,0,0-0.1,0-0.1c-0.1-0.2-0.2-0.4-0.3-0.6c-0.1-0.2,0-0.6-0.2-0.6
	C104.2,83.9,103.9,84.1,103.7,84.3z"/>
<path class="st5" d="M101,103.2c1.9,5.8,1.7,12.2-0.7,17.8c-0.4,1.2-1.2,2.3-2.1,3.2c-0.9,0.7-1.9,1.2-3,1.6
	c-10.1,4.3-20.8,15-32.7,11.6c-1.9-0.5-3.8-1.5-4.8-3.2c-0.4-0.6-0.6-1.3-0.8-2c-0.2-0.9-0.2-1.8-0.2-2.7c0.3-7.3,4.9-13.5,8-20.1
	c2-4.4,3.4-9,5.4-13.4c0.7-1.6,1.6-3.2,2.5-4.8c0.5-1.2,1.8-1.9,3.1-1.5c1.9,0.2,3.9,0.7,5.7,1.3c0.1,4.1-1.6,8.1-2.7,12.1
	c-1.4,4.6-2.1,9.4-2.2,14.2c7-3,13.5-7.1,19.2-12.3c2.6-2.3,6.7-6.3,6.8-0.2c0.1,3.9-1.6,8-3.9,11c-1.1,1.4-2.3,2.6-3.5,3.8
	l-4.9,4.8c-3.8,3.8-7.7,7.6-12.3,10.2c-0.1,0.1-0.3,0.2-0.4,0.2"/>
<linearGradient id="SVGID_1_" gradientUnits="userSpaceOnUse" x1="191.4238" y1="140.7863" x2="135.9692" y2="109.4385" gradientTransform="matrix(1 0 0 -1 -73.84 230.0612)">
	<stop  offset="1.000000e-02" style="stop-color:#000000"/>
	<stop  offset="0.13" style="stop-color:#000000;stop-opacity:0.69"/>
	<stop  offset="1" style="stop-color:#000000;stop-opacity:0"/>
</linearGradient>
<path class="st6" d="M101,103.2c1.9,5.8,1.7,12.2-0.7,17.8c-0.4,1.2-1.2,2.3-2.1,3.2c-0.9,0.7-1.9,1.2-3,1.6
	c-10.1,4.3-20.8,15-32.7,11.6c-1.9-0.5-3.8-1.5-4.8-3.2c-0.4-0.6-0.6-1.3-0.8-2c-0.2-0.9-0.2-1.8-0.2-2.7c0.3-7.3,4.9-13.5,8-20.1
	c2-4.4,3.4-9,5.4-13.4c0.7-1.6,1.6-3.2,2.5-4.8c0.5-1.2,1.8-1.9,3.1-1.5c1.9,0.2,3.9,0.7,5.7,1.3c0.1,4.1-1.6,8.1-2.7,12.1
	c-1.4,4.6-2.1,9.4-2.2,14.2c7-3,13.5-7.1,19.2-12.3c2.6-2.3,6.7-6.3,6.8-0.2c0.1,3.9-1.6,8-3.9,11c-1.1,1.4-2.3,2.6-3.5,3.8
	l-4.9,4.8c-3.8,3.8-7.7,7.6-12.3,10.2c-0.1,0.1-0.3,0.2-0.4,0.2"/>
<path class="st5" d="M100.8,137.9c-0.4,5.6-2.5,11.1-2.5,16.7c-0.1,0.9,0.1,1.8,0.6,2.5c0.5,0.7,1.4,1.1,2.3,1.4
	c9.1,3,18.8,3.6,28.1,1.5c1.2-0.3,2.4-0.6,3.2-1.4c0.7-0.8,1.2-1.8,1.4-2.9c1.1-4.4,0.6-9.1,0-13.6c-1.9-14.8-4.5-29.6-7.9-44.2
	c-0.3-1.3-0.6-2.6-1.5-3.6c-1.4-1.6-3.8-2-5.9-1.5c-6,1.6-16.3,9.4-18.6,15.5C96.7,117.7,101.4,128.4,100.8,137.9z"/>
<linearGradient id="SVGID_2_" gradientUnits="userSpaceOnUse" x1="234.2554" y1="110.3614" x2="173.9805" y2="99.1813" gradientTransform="matrix(1 0 0 -1 -73.84 230.0612)">
	<stop  offset="1.000000e-02" style="stop-color:#000000"/>
	<stop  offset="0.13" style="stop-color:#000000;stop-opacity:0.69"/>
	<stop  offset="1" style="stop-color:#000000;stop-opacity:0"/>
</linearGradient>
<path class="st7" d="M100.8,137.9c-0.4,5.6-2.5,11.1-2.5,16.7c-0.1,0.9,0.1,1.8,0.6,2.5c0.5,0.7,1.4,1.1,2.3,1.4
	c9.1,3,18.8,3.6,28.1,1.5c1.2-0.3,2.4-0.6,3.2-1.4c0.7-0.8,1.2-1.8,1.4-2.9c1.1-4.4,0.6-9.1,0-13.6c-1.9-14.8-4.5-29.6-7.9-44.2
	c-0.3-1.3-0.6-2.6-1.5-3.6c-1.4-1.6-3.8-2-5.9-1.5c-6,1.6-16.3,9.4-18.6,15.5C96.7,117.7,101.4,128.4,100.8,137.9z"/>
<path class="st5" d="M97.3,129.5c-0.8,2.7-2.3,5.2-3.5,7.8c-1.8,3.8-3,7.8-3.6,12c4.9-1.4,10-1.4,14.9-0.1l1.8-24.2
	c0.6-9.8,2.6-19.4,5.8-28.7c-6.9-2.4-10,2.9-11.1,8.6C100.1,112.8,99.6,121.8,97.3,129.5z"/>
<linearGradient id="SVGID_3_" gradientUnits="userSpaceOnUse" x1="174.6272" y1="133.2957" x2="176.5968" y2="47.4833" gradientTransform="matrix(1 0 0 -1 -73.84 230.0612)">
	<stop  offset="1.000000e-02" style="stop-color:#000000"/>
	<stop  offset="0.13" style="stop-color:#000000;stop-opacity:0.69"/>
	<stop  offset="1" style="stop-color:#000000;stop-opacity:0"/>
</linearGradient>
<path class="st8" d="M112.6,96.2c-0.1,0.2-0.2,0.5-0.2,0.7c-0.8,2.5-1.6,4.9-2.2,7.3c-1.7,6.8-2.9,13.7-3.3,20.6l-1.8,24.2
	c-4.9-1.3-10-1.3-14.9,0.1c0.6-4.1,1.8-8.2,3.6-12c1.2-2.6,2.7-5,3.5-7.8c2.2-7.3,2.7-15.7,4-23.3l0.2-1.3c0.1-0.6,0.2-1.1,0.4-1.7
	C103.2,98.1,106.4,94.1,112.6,96.2z"/>
<path class="st5" d="M116.2,83.5c-1,2.9-2,6.1-4.5,7.9c-2.3,1.7-5.4,1.7-8.3,1.3c-1.3-0.2-2.7-0.5-3.9-0.1c-1.3,0.4-2.3,1.8-1.7,3
	c0.5,1.1,2.1,1.4,2.5,2.6c0.3,0.9-0.1,1.8-0.1,2.7c0.1,1.7,2,2.8,3.6,2.6c1.7-0.2,3.1-1.3,4.2-2.5c1.1-1.2,2.2-2.6,3.5-3.6
	c2.2-1.6,5-1.8,7.6-2.3c2.6-0.4,5.5-1.3,7-3.4c1-1.4,1.2-3.9-0.4-4.7c-0.3-0.1-0.7-0.3-0.9-0.5c-0.4-0.5-0.1-1.3,0-2
	c0.3-2-2.3-3-3.8-3.7C118.4,79.6,117.1,80.8,116.2,83.5z"/>
<linearGradient id="SVGID_4_" gradientUnits="userSpaceOnUse" x1="130.974" y1="142.2385" x2="145.8497" y2="110.0874" gradientTransform="matrix(1 0 0 -1 -73.84 230.0612)">
	<stop  offset="1.000000e-02" style="stop-color:#000000"/>
	<stop  offset="0.13" style="stop-color:#000000;stop-opacity:0.69"/>
	<stop  offset="1" style="stop-color:#000000;stop-opacity:0"/>
</linearGradient>
<path class="st9" d="M79.3,95.5c-0.9,1.4-2.5,2-3.8,2.9c-1.2,0.8-2.2,1.9-2.9,3.1c-5,8.1-8.6,17-10.8,26.3c-0.2,0.9-0.5,1.8-1,2.6
	c-0.9,1.2-2.3,1.7-3.9,1.7c-0.2-0.9-0.2-1.8-0.2-2.7c0.3-7.3,4.9-13.5,8-20.1c2-4.4,3.4-9,5.4-13.4c3.2-1.2,6.6-1.8,9.8-3.7
	C80.1,93.4,79.9,94.6,79.3,95.5z"/>
<path class="st2" d="M73.8,81.7c0.1-0.5,0.3-1,0.6-1.4c0.4-0.4,0.9-0.7,1.5-0.8c2.2-0.7,4.5-1.1,6.8-1.2c1.1-0.2,2.2,0,3.2,0.5
	c1.8,1,2.2,3.2,2.5,5.2c0.1,0.4,0.1,0.7,0,1.1c-0.3,0.4-0.7,0.8-1.1,0.9c-1.3,0.8-2.3,2-2.8,3.5c-0.1,0.6-0.4,1.2-0.8,1.7
	c-0.4,0.4-1,0.6-1.6,0.7c-1.8,0.2-3.5-0.7-5.3-0.9c-1.2-0.1-3.4,0.5-4.2-0.6C71.6,88.9,73.4,83.3,73.8,81.7z"/>
<path class="st10" d="M81.5,92.7c-4.8,3.1-10.7,4.7-14.7,8.9c-2.9,3-4.5,7.2-7.8,9.6c-0.4,0.3-0.7,0.5-1.1,0.7
	c-1.1,0.6-2.6,1-3.6,0.1c-0.7-0.7-0.8-1.8-1.5-2.4c-1.8-1.7-4.6,1.2-6.9,0.4c-2.1-0.6-2.3-3.6-1.6-5.7c0.6-2.1,1.6-4.5,0.5-6.3
	c-1.3-2.2-4.9-2.6-5.4-5.1c0,0,0-0.1,0-0.1c-0.2-1.4,0.9-2.7,2.1-3.2c1.2-0.6,2.8-0.6,4.2-0.7c7.6-0.2,15.2-0.9,22.7-2.1
	c3.1-0.5,15-4.5,15.9,1.4C84.8,90.1,83.1,91.7,81.5,92.7z"/>
<linearGradient id="SVGID_5_" gradientUnits="userSpaceOnUse" x1="109.4978" y1="214.587" x2="138.4353" y2="115.6198" gradientTransform="matrix(1 0 0 -1 -73.84 230.0612)">
	<stop  offset="1.000000e-02" style="stop-color:#000000"/>
	<stop  offset="0.13" style="stop-color:#000000;stop-opacity:0.69"/>
	<stop  offset="1" style="stop-color:#000000;stop-opacity:0"/>
</linearGradient>
<path class="st11" d="M76.3,89.9c-0.6,2.6-3.2,4-5.6,5.3c-2.4,1.3-4.7,2.8-6.8,4.4c-0.9,0.7-2,1.7-1.6,2.9c0.1,0.4,0.4,0.7,0.5,1.1
	c0.1,0.6-0.1,1.2-0.4,1.7l-2.4,4.5c-0.3,0.5-0.5,1-0.8,1.6c-0.4,0.3-0.7,0.5-1.1,0.7c-1.1,0.6-2.6,1-3.6,0.1
	c-0.7-0.7-0.8-1.8-1.5-2.4c-1.8-1.7-4.6,1.2-6.9,0.4c-2.1-0.6-2.3-3.6-1.6-5.7c0.6-2.1,1.6-4.5,0.5-6.3c-1.3-2.2-4.9-2.6-5.4-5.1
	c0,0,0-0.1,0-0.1c1.2,0.1,2.3,0.4,3.5,0.7c2.5,0.6,9.2,0.2,9.7,3.7c0.2,1.4-1,2.9-0.4,4.3c0.7,0.7,1.9,0.3,2.6-0.5
	c0.6-0.8,1-1.7,1.6-2.5c0.7-0.7,1.5-1.2,2.5-1.5L76.3,89.9z"/>
<path class="st2" d="M99.8,114.7c-0.8-1.5-1.9-3.1-3.6-3.4l-0.1,2.3c-1.3-1.7-3.1-3-5.1-3.6c-2.1-0.6-4.2-0.9-6.3-0.9
	c-0.5,0.6,0.3,1.3,0.9,1.6l3.6,1.8c-1.7-0.6-3.5-0.9-5.3-0.9c-0.2,0-0.4,0-0.6,0.1c-0.2,0.2-0.2,0.6-0.1,0.8
	c0.2,0.2,0.5,0.4,0.7,0.5l4,1.9c-1.6-0.3-3.2-0.4-4.9-0.4c-0.5,0-1.3,0.3-1.2,0.8c0.1,0.3,0.4,0.5,0.7,0.6l5,2.2
	c-1.3-0.3-2.8-0.5-4,0.2c1.2,1.2,3.1,1.6,4.6,2.4c2.2,1.2,3.9,3.3,6.2,4.2c1.4,0.5,2.9,0.7,4.4,0.7c0.6,0.1,1.2,0,1.8-0.2
	C105.2,123.7,101,117,99.8,114.7z"/>
<linearGradient id="SVGID_6_" gradientUnits="userSpaceOnUse" x1="192.0751" y1="157.222" x2="195.299" y2="157.222" gradientTransform="matrix(1 0 0 -1 -73.84 230.0612)">
	<stop  offset="1.000000e-02" style="stop-color:#000000"/>
	<stop  offset="0.13" style="stop-color:#000000;stop-opacity:0.69"/>
	<stop  offset="1" style="stop-color:#000000;stop-opacity:0"/>
</linearGradient>
<path class="st12" d="M118.2,74.4c0.5,0,0.9-0.3,1-0.7c0.1-0.4,0.2-0.9,0.1-1.4c0-0.4,0-0.9,0.2-1.3c0.1-0.4,0.5-0.8,0.9-1
	c0.1-0.1,0.3-0.1,0.4-0.1c0.2,0.1,0.3,0.3,0.4,0.5c0.2,0.4,0.2,0.9,0.2,1.4c0,0.7-0.1,1.5-0.3,2.2c0,0.3-0.1,0.5-0.3,0.8
	c-0.1,0.2-0.3,0.3-0.4,0.4c-0.2,0.2-0.5,0.4-0.9,0.5c-0.4,0.1-0.8-0.1-1-0.5c-0.2-0.3-0.1-0.8,0.1-1.1"/>
<path class="st5" d="M140.7,135.7c0.2,0.7,0.2,1.4-0.1,2.1c-0.4,0.6-1,1-1.7,1.2c-6.2,2.3-13.1,0.9-19.2-1.3
	c-4.8-1.7-9.5-3.8-13.9-6.4c-2.3-1.4-4.7-3-5.9-5.5c-1.1-2.5-0.4-6,2.1-6.9c1.8-0.7,3.8,0,5.6,0.7l10.3,4.1c0.6-3.4-1.3-6.6-2.5-9.8
	c-2.4-6.3-2.2-13.2,1.9-18.8c3.5-4.8,9.2-8,14.1-2.8c4.2,4.5,4.1,13.7,5.1,19.4L140.7,135.7z"/>
<linearGradient id="SVGID_7_" gradientUnits="userSpaceOnUse" x1="240.621" y1="116.0399" x2="183.4094" y2="114.7234" gradientTransform="matrix(1 0 0 -1 -73.84 230.0612)">
	<stop  offset="1.000000e-02" style="stop-color:#000000"/>
	<stop  offset="0.13" style="stop-color:#000000;stop-opacity:0.69"/>
	<stop  offset="1" style="stop-color:#000000;stop-opacity:0"/>
</linearGradient>
<path class="st13" d="M140.7,135.7c0.2,0.7,0.2,1.4-0.1,2.1c-0.4,0.6-1,1-1.7,1.2c-6.2,2.3-13.1,0.9-19.2-1.3
	c-4.8-1.7-9.5-3.8-13.9-6.4c-2.3-1.4-4.7-3-5.9-5.5c-1.1-2.5-0.4-6,2.1-6.9c1.8-0.7,3.8,0,5.6,0.7l10.3,4.1c0.6-3.4-1.3-6.6-2.5-9.8
	c-2.4-6.3-2.2-13.2,1.9-18.8c3.5-4.8,9.2-8,14.1-2.8c4.2,4.5,4.1,13.7,5.1,19.4L140.7,135.7z"/>
<linearGradient id="SVGID_8_" gradientUnits="userSpaceOnUse" x1="181.9601" y1="149.9726" x2="190.0147" y2="127.4518" gradientTransform="matrix(1 0 0 -1 -73.84 230.0612)">
	<stop  offset="1.000000e-02" style="stop-color:#000000"/>
	<stop  offset="0.13" style="stop-color:#000000;stop-opacity:0.69"/>
	<stop  offset="1" style="stop-color:#000000;stop-opacity:0"/>
</linearGradient>
<path class="st14" d="M126.2,91.7c-1.6,2.2-4.4,3-7,3.4c-2.6,0.5-5.4,0.7-7.6,2.3c-1.4,1-2.4,2.3-3.5,3.6c-1.2,1.2-2.6,2.3-4.2,2.5
	c-1.7,0.2-3.6-1-3.6-2.6c0-0.9,0.4-1.9,0.1-2.7c-0.3-0.6-0.7-1-1.2-1.3c-0.5-0.3-0.9-0.7-1.3-1.2c-0.6-1.2,0.5-2.6,1.7-3
	c1.3-0.4,2.6-0.1,3.9,0.1c2.8,0.5,5.9,0.4,8.3-1.3c2.5-1.8,3.5-5,4.5-7.9c0.9-2.7,2.2-3.9,5-2.7c1.5,0.6,4.1,1.6,3.8,3.7
	c0,0.2-0.1,0.5-0.2,0.8c-0.2,0.4-0.1,0.9,0.1,1.3c0.3,0.2,0.6,0.4,0.9,0.5C127.4,87.8,127.3,90.2,126.2,91.7z"/>
<linearGradient id="SVGID_9_" gradientUnits="userSpaceOnUse" x1="175.1314" y1="128.4414" x2="186.1974" y2="128.4414" gradientTransform="matrix(1 0 0 -1 -73.84 230.0612)">
	<stop  offset="1.000000e-02" style="stop-color:#000000"/>
	<stop  offset="0.13" style="stop-color:#000000;stop-opacity:0.69"/>
	<stop  offset="1" style="stop-color:#000000;stop-opacity:0"/>
</linearGradient>
<path class="st15" d="M112.4,96.9c-0.8,2.5-1.6,4.9-2.2,7.3c-0.7,0.7-1.5,1.2-2.4,1.6c-1.1,0.4-2.2,0.5-3.3,0.5
	c-1.1,0.1-2.2,0-3.2-0.2l0.2-1.3c0.1-0.6,0.2-1.1,0.4-1.7c0.6,0.3,1.3,0.4,1.9,0.3c1.7-0.2,3.1-1.3,4.2-2.5c1.1-1.2,2.2-2.6,3.5-3.6
	C111.8,97.2,112.1,97,112.4,96.9z"/>
<linearGradient id="SVGID_10_" gradientUnits="userSpaceOnUse" x1="172.8819" y1="135.757" x2="200.8826" y2="135.757" gradientTransform="matrix(1 0 0 -1 -73.84 230.0612)">
	<stop  offset="1.000000e-02" style="stop-color:#000000"/>
	<stop  offset="0.13" style="stop-color:#000000;stop-opacity:0.69"/>
	<stop  offset="1" style="stop-color:#000000;stop-opacity:0"/>
</linearGradient>
<path class="st16" d="M126.2,91.7c-1.6,2.2-4.4,3-7,3.4c-2.6,0.5-5.4,0.7-7.6,2.3c-1.4,1-2.4,2.3-3.5,3.6c-1.2,1.2-2.6,2.3-4.2,2.5
	c-1.7,0.2-3.6-1-3.6-2.6c0-0.9,0.4-1.9,0.1-2.7c-0.3-0.6-0.7-1-1.2-1.3c0.4-0.5,0.9-0.8,1.5-0.9c0.8-0.1,1.6,0.5,1.7,1.4
	c0,0.3-0.1,0.6,0,0.9c0.1,0.2,0.3,0.3,0.6,0.4c1.5,0.5,3.1-0.2,4.3-1c1.3-0.9,2.4-2,3.7-2.8c2.9-1.6,6.6-1.4,9.4-3.2
	c0.8-0.5,1.5-1.5,1-2.2c-2.2-0.4-4.1,1.8-6.3,1.6c2-0.9,4.6-1.6,6.2-3.2c1.1-1.1,2-2.4,3.6-2.5c-0.2,0.4-0.1,0.9,0.1,1.3
	c0.3,0.2,0.6,0.4,0.9,0.5C127.4,87.8,127.3,90.2,126.2,91.7z"/>
<path class="st10" d="M57.3,77.2c5.1-0.1,10.1-0.2,15.2,0.2c0.7,0.1,1.4,0.1,2.1,0.1s1.4,0,2.2-0.1c2.7-0.2,5.4,0,8.1,0
	c-3.5-1.4-9-0.3-12.8-0.3C67.2,77.2,62.3,77.1,57.3,77.2z"/>
<path class="st10" d="M76.5,105.2c-2.9,2.2-5.9,4.5-7.5,7.8c1.9-0.7,3.6-1.8,5-3.3c1.5-1.6,2.5-3.4,4.1-4.9c2.4-2.3,5.7-3.4,8.2-5.6
	c2.2-1.9,4-4.3,5.4-6.9c-2.3,0.3-5.3,4.6-7,6.2C82,100.8,79.3,103.1,76.5,105.2z"/>
<linearGradient id="SVGID_11_" gradientUnits="userSpaceOnUse" x1="170.394" y1="165.1517" x2="197.5982" y2="165.1517" gradientTransform="matrix(1 0 0 -1 -73.84 230.0612)">
	<stop  offset="1.000000e-02" style="stop-color:#000000"/>
	<stop  offset="0.13" style="stop-color:#000000;stop-opacity:0.69"/>
	<stop  offset="1" style="stop-color:#000000;stop-opacity:0"/>
</linearGradient>
<path class="st17" d="M122.4,66.1c-0.2,0.2-0.3,0.4-0.5,0.6c-1,1.1-2.3,1.9-3.1,3.1c0,0-0.1,0.1-0.1,0.1c-0.4,0.7-0.7,1.5-1.1,2.2
	l0,0l0,0c0,0,0-0.1,0-0.1c-0.3-2-2-3.5-3.6-4.7c-1.8-1.3-3.8-2.4-4.9-4.3c-0.2-0.4-0.5-0.8-0.8-1.1c-0.5-0.3-1-0.4-1.6-0.4
	c-0.9,0-1.9,0.1-2.9,0.1c-0.4-0.3-0.8-0.6-1.2-0.9c-1.8-1.3-3.9-2.3-6.1-2.7l11.9,0.9c0.2,0,0.4,0,0.5,0c0.3-0.1,0.4-0.5,0.6-0.8
	c0.5-0.5,1.3-0.6,1.9-0.2c0.6,0.4,1.1,1,1.4,1.6c0.7,1.2,1.1,2.6,2.7,2.3c1-0.2,1.9-0.6,3-0.7c2.1-0.2,3.1-0.7,4.4-2.4
	c0.1,0.1,0.1,0.2,0.2,0.4C124.3,61.2,123.8,64.1,122.4,66.1z"/>
</svg>
