<?xml version="1.0" encoding="utf-8"?>
<!-- Generator: Adobe Illustrator 22.1.0, SVG Export Plug-In . SVG Version: 6.00 Build 0)  -->
<svg version="1.1" id="Layer_1" xmlns="http://www.w3.org/2000/svg" xmlns:xlink="http://www.w3.org/1999/xlink" x="0px" y="0px"
	 viewBox="0 0 625 874.4" style="enable-background:new 0 0 625 874.4;" xml:space="preserve">
<style type="text/css">
	.st0{fill:#FFFFFF;}
	.st1{fill:#C6866D;}
	.st2{opacity:0.5;}
	.st3{fill:#F0A183;}
	.st4{opacity:0.5;fill:url(#SVGID_1_);enable-background:new    ;}
	.st5{fill:#33363D;}
	.st6{fill:#9E5E4A;}
	.st7{fill:#3A312B;}
	.st8{fill:#D69487;}
	.st9{fill:#F7C961;}
	.st10{fill:#E0B451;}
</style>
<title>1st</title>
<g>
	<g id="Layer_1_1_">
		<ellipse class="st0" cx="297.4" cy="368.6" rx="297.4" ry="368.6"/>
		<path class="st1" d="M211,490.3c-3.8,21.6,21.1,165.1,32.2,184s75.4,31.3,119.7,6c12.9-7.4,13.6-187.5,13.6-187.5L211,490.3z"/>
		<g class="st2">
			
				<image style="overflow:visible;enable-background:new    ;" width="240" height="278" xlink:href="B81F5F84.png"  transform="matrix(0.9958 0 0 0.9958 173.98 454.0092)">
			</image>
		</g>
		<path class="st3" d="M167.4,129.4c-50,43.5-74.3,114.9-51.5,250.9s92.4,206.6,220.8,196.9c116.3-8.9,142.1-72.5,151.9-108.4
			s0.2-71.6,0-105.1c-0.2-27.9,14.3-124.5-27.9-203C411.3,68.8,244.5,62.3,167.4,129.4z"/>
		
			<linearGradient id="SVGID_1_" gradientUnits="userSpaceOnUse" x1="534.5409" y1="520.0504" x2="454.2809" y2="699.2504" gradientTransform="matrix(1 0 0 -1 -230.79 839.63)">
			<stop  offset="0" style="stop-color:#D69487;stop-opacity:0"/>
			<stop  offset="1" style="stop-color:#D69487"/>
		</linearGradient>
		<path class="st4" d="M167.4,129.2c-50,43.5-74.3,114.9-51.5,250.9s92.4,206.6,220.8,196.9c116.3-8.9,142.1-72.5,151.9-108.4
			s0.2-71.6,0-105.1c-0.2-27.9,14.3-124.5-27.9-203C411.3,68.6,244.5,62,167.4,129.2z"/>
		<path class="st5" d="M133.9,400.6c42.6,8.2,74.7-25.1,73.6-63.6s-38.1-66.5-15.8-101.9s57.6-11.8,86.5-16
			c30.8-4.5,33.1-24,62.2-28.6c33.3-5.2,68.7,44.2,128.7,39.2c63.5-5.3,86.7-74.9,65.8-134.8c-16.7-48-72.9-64.7-116.4-60.4
			s-72.8,32.6-108.9,38.8c-24.5,4.2-75.6-10.3-107.7-1.1c-19.7,5.9-37.6,16.5-52.2,31c0,0,10.6-36.2-1.4-37s-7.1,38.9-7.1,38.9
			s-32.9-6.5-31.8,3.8s28.6,5.8,28.6,5.8s-80.8,25.7-91.8,93.9S82.9,390.8,133.9,400.6z"/>
		<path class="st5" d="M35.4,248.3c-0.9-25.9,5.6-52.6,20.6-74c16.5-23.4,42.1-36.4,67.1-48.8c0,0,0-0.1,0-0.1
			C73,145.8,34.7,179.9,31.8,237.3c-3.1,62,35,113.5,79.9,151.8c0.6,0.5,1.5-0.3,0.9-0.9C72.2,352.3,37.3,304.2,35.4,248.3z"/>
		<path class="st5" d="M509.9,53.8c-1-0.7-1.9-1.4-2.9-2.1C508,52.3,508.9,53,509.9,53.8z"/>
		<path class="st5" d="M507,51.7l-0.5-0.3L507,51.7z"/>
		<path class="st5" d="M421.4,39.7c-0.2,0-0.1,0.3,0.1,0.3c23.5-6.3,49-3.5,71.9,4.7c4.6,1.7,9,3.9,13.1,6.6
			C482.8,35.3,452.3,30.5,421.4,39.7z"/>
		<path class="st5" d="M547.7,111.3c-6.4-24.3-19.5-43.5-36.6-56.6c15.7,12.3,26.9,31.4,33.2,50.5c17.2,52.2-12.9,116.7-71.2,111.1
			c-0.7-0.1-0.7,1.1,0,1.1C529.6,223.8,561.6,163.4,547.7,111.3z"/>
		<path class="st5" d="M511.1,54.6c-0.4-0.3-0.8-0.6-1.2-0.9L511.1,54.6z"/>
		<path class="st5" d="M211.1,322c-2.8-10.3-6.8-20.1-12.1-29.4c-9.2-17-14.8-30.8-12.5-50.8c0-0.5-0.7-0.5-0.8,0
			c-2.9,20.4-0.2,31.2,9.4,48.9c15.3,28.1,23.6,58.9,6.6,88.4c-0.2,0.4-0.1,0.9,0.3,1.1s0.9,0.1,1.1-0.3
			C214.4,362.1,216.3,342.2,211.1,322z"/>
		<path class="st3" d="M171.5,396.3c0,0-30.5-41.9-74-36.4s-40.5,77.6,2.7,109.3c40.8,29.9,71.2,14.7,71.2,14.7V396.3z"/>
		<path class="st6" d="M88.6,392.2c-0.1,0.1-0.2,0.2-0.2,0.4c0,0.1,0.1,0.2,0.2,0.2c37.3,1,51.5,38.3,54.1,44.2
			c-1.9-1.2-3.9-2.2-5.9-3.2c-11.3-5-22.1-3.7-33,1.3c-0.5,0.2-0.1,1,0.3,0.8c9.7-3.4,20.3-0.7,29.2,3.8c8.2,4.2,15.8,9.9,20.6,17.4
			C154.2,457.6,149.5,381.5,88.6,392.2z"/>
		<g class="st2">
			
				<image style="overflow:visible;enable-background:new    ;" width="191" height="177" xlink:href="B81F5F85.png"  transform="matrix(0.9944 0 0 0.9944 219.0195 252.93)">
			</image>
		</g>
		<g class="st2">
			
				<image style="overflow:visible;enable-background:new    ;" width="160" height="178" xlink:href="B81F5F83.png"  transform="matrix(0.9937 0 0 0.9937 366.98 247.9862)">
			</image>
		</g>
		<path class="st6" d="M290.3,375.4c-4.2-1.1-22.3,4.6-25.4,8.2c-0.3,0.3-0.3,0.8,0,1.1c0.1,0.1,0.2,0.1,0.3,0.2
			c4.5,1.3,22.7-4.1,25.6-7.3c0.5-0.5,0.5-1.3,0-1.8C290.7,375.6,290.5,375.5,290.3,375.4z"/>
		<path class="st6" d="M296,383c-4.3,0.5-15.8,10.1-17.3,14.6c-0.1,0.4,0.1,0.8,0.5,1c0.1,0,0.2,0,0.3,0c4.7-0.5,16.4-9.8,17.9-13.9
			c0.2-0.7-0.1-1.4-0.7-1.6C296.4,383,296.2,383,296,383z"/>
		<path class="st6" d="M454.7,369.4c3.6-1.5,20.2,2,23.3,5.2c0.3,0.3,0.4,0.8,0.1,1.1c-0.1,0.1-0.1,0.1-0.2,0.2
			c-3.8,1.8-20.5-1.5-23.4-4.4c-0.5-0.5-0.6-1.3-0.1-1.9C454.4,369.6,454.5,369.5,454.7,369.4z"/>
		<path class="st6" d="M450.6,377.6c3.8,0.1,15.2,8.3,17.1,12.5c0.2,0.5,0,1.1-0.5,1.1c-4.2,0-15.6-7.8-17.5-11.8
			C449.3,378.6,449.7,377.6,450.6,377.6z"/>
		<path class="st6" d="M334.4,475.6c-6.2,1.9-27.5,9.4-28.3-15.1c0-1.2-1.2-1.9-1.3-0.8c-4.8,27.5,20.2,28.1,30.8,17.3
			C336.7,475.8,336,475.2,334.4,475.6z"/>
		<path class="st5" d="M310.2,271.1c-10.1,5.5-29.3,0.9-32.1,15.8c-2.4,12.3,23.9,22.2,44.7,12.5c23.3-10.9,27.4-36.8,18.1-42.1
			C326.7,249.2,319,266.3,310.2,271.1z"/>
		<path class="st5" d="M427.7,256.6c-11.9,7.2-5.1,29.2,15.1,38c15.2,6.6,34.6-0.4,34.5-11.9c0-11-17.9-8.4-23.6-12.3
			C446.5,265.4,437.5,250.6,427.7,256.6z"/>
		<path class="st6" d="M413.8,304.5c0.7-2.4-19.8,34.6-19.8,64.5c0,20.9,8.6,30.1,21.6,31.1c14.1,1.1,29-12.7,25-20.6
			c-4.9-9.8-20.1,1.2-29.5-9.8C401.8,359,405.8,333.2,413.8,304.5z"/>
		<path class="st6" d="M359.8,534.2c-6.6-3.3-14.7,0.8-16.9,7.6c-2.5,7.7,3.3,15.2,11.2,17.1c2.1,0.5,2.4-0.8,0.5-1.9
			c-3.5-2.1-6.8-4.2-7.8-8.4s0.9-8.7,5-10.3c3.5-1.5,7.7,0.1,9.2,3.6c0.1,0.3,0.2,0.6,0.3,0.9c0.8,3-0.8,5.1-4,4.9
			c-1.7-0.1-4.1-2.9-4.5-4.5c-0.1-0.2-0.3-0.3-0.5-0.3c-0.1,0-0.2,0.1-0.3,0.3c-1.9,5.8,5.6,11.4,10.8,7.8
			C368.8,546.5,365.4,537,359.8,534.2z"/>
		<path class="st7" d="M291.9,351.4c-0.9,0.3-1.1,1-0.2,1c18,0.7,24.7,8.9,26.2,10c-0.8,0.1-10.5,0.2-17.2,8.1
			c-0.5,0.5,0,1.4,0.7,1.2c3.8-1.3,16.4-5.9,30.2-2C335.8,370.8,323,341.6,291.9,351.4z"/>
		<path class="st7" d="M459.5,343.9c0.8,0.1,1.2,0.8,0.4,1c-16.4,3.5-21.2,12.5-22.4,13.9c6.2-0.7,12.4,1.2,17.1,5.4
			c0.5,0.5,0.2,1.4-0.4,1.3c-3.7-0.7-16-3.3-28,2.7C422.5,369.8,429.3,339,459.5,343.9z"/>
		<path class="st7" d="M388.6,460.5c-1.3,0.7-2.8,1.1-4.2,1.3c-6.3,0.9-12.7-1.9-18.8-3c-9.2-1.6-17.3,0.7-26.3-0.1
			c-7.5-0.7-14.8-4.4-14.2-12.9c0.5-3.1,1.6-6.1,3.3-8.8c2.8-5,6.8-9.2,11.6-12.3c6.9-4.5,16.4-7.3,29.1-5c4.5,0.8,9,3.4,12.9,7
			C393.2,436.9,399.7,455.4,388.6,460.5z"/>
		<path class="st8" d="M388.6,460.5c-1.3,0.7-2.8,1.1-4.2,1.3c-6.3,0.9-12.7-1.9-18.8-3c-9.2-1.6-17.3,0.7-26.3-0.1
			c-7.5-0.7-14.8-4.4-14.2-12.9c0.5-3.1,1.6-6.1,3.3-8.8c11.2-5.4,24.1-6.5,36-1.6C373.3,439,386.5,449.4,388.6,460.5z"/>
		<path class="st0" d="M382,426.5c-13.9-2.1-28-2.8-42-2c6.9-4.5,16.4-7.3,29.1-5C373.6,420.3,378.1,423,382,426.5z"/>
		<path class="st9" d="M503.8,655c-1.4,3.3-4.7,7.6-9.5,12.7c-2.1,2.2-4.6,4.6-7.2,7.1c-6.2,5.8-13.8,12.2-22.4,18.8
			c-2.1,1.6-4.3,3.3-6.6,4.9l0,0c-6.7,4.9-13.8,9.9-21.3,14.7c-2.2,1.4-4.3,2.8-6.6,4.2c-14.4,9-29.3,17-44.7,24
			c-1.8,0.8-3.5,1.6-5.3,2.3c-17.8,7.5-35.4,12.8-51,14.1l-3.9,0.3c-2.1,0-4.2,0.1-6.2,0c-11.7-0.4-26.2-3.3-42-7.8
			c-1.6-0.4-3.2-1-4.9-1.4c-18.7-5.8-37.1-12.8-55-20.8c-2.4-1-4.7-2.1-7.1-3.2c-15.5-7.1-30.6-14.8-44.5-22.5c-2-1.1-4-2.3-5.9-3.4
			c-10.1-5.9-19.4-11.8-27.5-17.4c-4-2.9-7.8-5.7-11.1-8.4c-10.8-8.7-17.5-16.5-18.4-22.3c-4.2-28.6,16.3-59.1,19.6-79
			s-10.5-66,21.3-78.3c5.2-2,11,1.2,19.9,6.8c1,0.7,1.9,1.3,3,2c6.1,4,13.5,8.9,22.9,14l3.4,1.7c11.6,6,23.8,11,36.3,14.9l3,0.9
			c15.9,4.6,32.1,7.9,48.5,9.7c1.2,0.2,2.4,0.3,3.7,0.4c5.2,0.6,10.6,1,16.2,1.4c8.7,0.6,17.1,0.8,25,0.8h1.9
			c13.1-0.1,26.2-0.9,39.2-2.6l4-0.6c12.2-1.8,24.2-4.4,36-8c1.3-0.4,2.7-0.8,4-1.3c7.9-2.6,15.7-5.6,23.2-9.2l2.7-1.3
			c8-4,15.8-8.3,23.4-13.1c1.4-0.9,2.8-1.7,4-2.4c8-4.8,12.8-7.2,16.1-4.4c27.7,23.7,2.3,77.8,4,87.3S514.3,631.3,503.8,655z"/>
		<path class="st10" d="M148.8,581.3c-13.8,30.8-32.6,67.1-16.5,100.2c-4-2.9-7.8-5.7-11.1-8.4c-8.3-25.9,2.8-57,13.4-80.6
			c6-13.3,12.1-25.1,13.9-39.9c1-8.9,0.8-17.9,2.6-26.7c2-10.2,5.6-18.8,12.5-25.6c1,0.7,1.9,1.3,3,2
			C151.1,524.6,160,556.4,148.8,581.3z"/>
		<path class="st10" d="M494.3,667.6c-2.1,2.2-4.6,4.6-7.2,7.1c0.1-12.1-1.3-23.8-5.8-35.8c-5-13.4-12.4-24.9-16.7-38.4
			c-4.1-13-2.2-25.9-0.8-39c1.2-11.2,4.4-38.6-3.7-51.2c1.4-0.9,2.8-1.7,4-2.4c12.1,13.8,7.3,49.3,5.4,62.2
			c-2.6,17.5,0.2,30.7,8.4,45.5c4.5,8,8.4,16.4,11.4,25.1C492.2,649.3,493.9,658.4,494.3,667.6z"/>
		<path class="st10" d="M464.7,693.5c-2.1,1.6-4.3,3.3-6.6,4.9c5.4-34.1-13.9-59-18.7-92.4c-3.7-25.1,7-57.8-5.5-81.3l2.7-1.3
			c16.7,19.6,6,58.9,9.3,81.4C450.1,634,471,664,464.7,693.5z"/>
		<path class="st10" d="M329.2,757.7l-3.9,0.3c-4.9-35.9,0.6-72.9-3.3-109c-3.9-35.7-4.2-68,3.5-102.8h1.9
			c-3.5,34.3-2.2,68.5,1.5,102.8C332.6,684.8,330.9,721.6,329.2,757.7z"/>
		<path class="st10" d="M436.8,713.1c-2.2,1.4-4.3,2.8-6.6,4.2c-0.2-11.7-0.4-23.3-1.8-34.8c-2.3-19.9-11.3-36.4-15-55.4
			c-2.7-14.1,0.8-30.2,0.4-44.5c-0.3-16.3-3.1-31.8-7.1-47.4c1.3-0.4,2.7-0.8,4-1.3c4.4,10.9,7.3,22.4,8.6,34.2
			c2.3,19-1.4,38.8,1.9,57.3c3.1,16.9,11,32.4,13.5,49.8C436.4,687.6,437.1,700.4,436.8,713.1z"/>
		<path class="st10" d="M385.5,741.3c-1.8,0.8-3.5,1.6-5.3,2.3c-1.9-32.3-3-64.3-6.5-96.5c-3.7-33.7-6.7-69.3-7-103.5l4-0.6
			c7.4,32.8,6.6,66.7,9.4,100C382.9,675.9,385.1,708.5,385.5,741.3z"/>
		<path class="st10" d="M277.8,693.6c-2,18.9-0.7,37.6-0.7,56.5c-1.6-0.4-3.2-1-4.9-1.4c-3.4-18.1-3-36.8-1.1-55.1
			c1.9-18.7,7.6-36.7,5.6-55.6c-3.4-32.2-8.8-64.1,3.9-94.6c1.2,0.2,2.4,0.3,3.7,0.4c-3.7,18.5-5.2,37.4-4.3,56.3
			c0.8,15.6,4.7,31.1,4.7,46.7S279.4,678.2,277.8,693.6z"/>
		<path class="st10" d="M161.6,656c-0.7,15.6,1.6,30.9,4.1,46.2c-2-1.1-4-2.3-5.9-3.4c-6.8-28.8-6.3-58.9,4.8-86.6
			c5.3-13.1,9.4-23.3,10.8-37.6c0.8-8.3,1-16.5,2.2-24.8c1.7-12.6,3.9-24.2,11.8-33.6l3.4,1.7c-14.9,25.8-6.1,57.9-16.7,85.3
			C168.9,621.8,162.5,635.8,161.6,656z"/>
		<path class="st10" d="M232.1,533.8c-4.5,16.3-9.8,31.6-11.1,48.8c-1.2,16-0.1,32.2-1.3,48.3c-2.3,33.2-7.1,64.3-2.5,97
			c-2.4-1-4.7-2.1-7.1-3.2c-6.1-33.4,1.7-67.8,3.3-101.5c1.4-31-2.1-63.6,15.7-90.4L232.1,533.8z"/>
		<g class="st2">
			
				<image style="overflow:visible;enable-background:new    ;" width="294" height="170" xlink:href="B81F5F8C.png"  transform="matrix(0.9941 0 0 0.9941 86.3447 522.93)">
			</image>
		</g>
		<g class="st2">
			
				<image style="overflow:visible;enable-background:new    ;" width="204" height="143" xlink:href="B81F5F8F.png"  transform="matrix(0.993 0 0 0.993 315.1933 558.93)">
			</image>
		</g>
		<path class="st6" d="M546.5,212.3c0,0,14.4-65.9,35.2-65.9c11.7,0-6.4,51.6,0,82.1c5.6,26.6,2.8,59.7-12.1,61.6
			S546.5,212.3,546.5,212.3z"/>
		<path class="st1" d="M587.1,300.7c-5.3,37.1-61.2,51.5-82.7,36.5c-33.6-23.5-30.2-62.4-32.7-68.8s-16.9-23.7-19.1-25.3
			s-57.3-23.1-52-35.7s60.3,8,66.2,12s26.5,27.1,26.5,27.1L469,230.8c0,0-14.2-31.7-15.7-36.3s-43.4-42.5-35.7-53.6
			s51.7,22.8,58.5,32s21.3,37.3,21.3,37.3l-8-8c0,0-6.2-33.5-7.1-38.5S449,115.3,457,105.7s49.6,43.7,53.6,51.1s10.8,36.6,10.8,36.6
			s-1.5-25.6-2.8-30.5s-19.1-48.3-12.9-55.1s37,41.9,41.6,53S596.2,237.5,587.1,300.7z"/>
		<g class="st2">
			
				<image style="overflow:visible;enable-background:new    ;" width="262" height="313" xlink:href="B81F5F8D.png"  transform="matrix(0.9962 0 0 0.9962 363.98 68.0273)">
			</image>
		</g>
	</g>
</g>
</svg>
