<?xml version="1.0" encoding="utf-8"?>
<!-- Generator: Adobe Illustrator 22.1.0, SVG Export Plug-In . SVG Version: 6.00 Build 0)  -->
<svg version="1.1" id="Layer_1" xmlns="http://www.w3.org/2000/svg" xmlns:xlink="http://www.w3.org/1999/xlink" x="0px" y="0px"
	 viewBox="0 0 545.5 802" style="enable-background:new 0 0 545.5 802;" xml:space="preserve">
<style type="text/css">
	.st0{fill:#FFFFFF;}
	.st1{fill:#E0B451;}
	.st2{opacity:0.5;}
	.st3{fill:#F0A183;}
	.st4{fill:url(#SVGID_1_);}
	.st5{fill:#33363D;}
	.st6{fill:#9E5E4A;}
	.st7{fill:#3A312B;}
	.st8{fill:#C6866D;}
	.st9{fill:#F7C961;}
	.st10{fill:#F6EEE6;}
</style>
<title>2nd</title>
<g>
	<g id="Layer_1_1_">
		<ellipse class="st0" cx="272.8" cy="338.1" rx="272.8" ry="338.1"/>
		<path class="st1" d="M439.7,511.6c-1,18.4-4.8,36.4-2.9,54.9c1.3,13.3,3.1,24.5-3.5,36.8c-5.9,11.1-15.4,20.3-25.2,27.9
			c-23.2,18.1-51.2,30-79.9,35.5c-27.8,5.3-56.3,4.8-83.9-1.6c-27.1-6.4-59.2-18.8-76.3-42s-14.9-53.3-20.5-80.1
			c-4-19.8-14.4-34.8-22.8-52.6c-6.7-14.2-3.2-35,6.2-40c29.1-15.6,63.5-4.2,92.9,6.2c20.6,7.3,41.1,13.3,63,14.8
			c22.3,1.7,43.9-1.7,65.9-4.7c16.4-2.3,33.1-4.3,49.7-2.3c10.2,1.2,24.8,3.4,32,11.9C441.8,485.2,440.4,501.1,439.7,511.6z"/>
		<g class="st2">
			
				<image style="overflow:visible;enable-background:new    ;" width="393" height="301" xlink:href="68BC2138.png"  transform="matrix(0.9967 0 0 0.9967 84.7028 406.48)">
			</image>
		</g>
		<path class="st3" d="M193.6,449.7c-3.5,19.8,19.3,151.5,29.5,168.8s69.1,28.7,109.8,5.5c11.9-6.8,12.5-172,12.5-172L193.6,449.7z"
			/>
		
			<linearGradient id="SVGID_1_" gradientUnits="userSpaceOnUse" x1="603.1266" y1="146.9373" x2="537.3666" y2="282.3273" gradientTransform="matrix(1 2.000000e-02 2.000000e-02 -1 -293.43 730.32)">
			<stop  offset="0" style="stop-color:#D65959;stop-opacity:0"/>
			<stop  offset="1" style="stop-color:#D64762"/>
		</linearGradient>
		<path class="st4" d="M194.3,449.9c-3.5,19.8,19.3,151.5,29.5,168.8s69.1,28.7,109.8,5.5c11.9-6.8,12.5-172,12.5-172L194.3,449.9z"
			/>
		<path class="st3" d="M140.9,132.4c-42.9,43-60.6,109.9-30.9,232.9s97.9,183.1,214.7,165.9c105.9-15.6,125.3-75.5,132-109
			s-4.4-65.5-6.8-96.2c-2-25.5,5-114.9-38.7-183.9C360.2,61.2,207.1,66,140.9,132.4z"/>
		<path class="st5" d="M127.8,382.7c39.5,4.7,66.7-27.8,63.2-63s-39.1-58.4-21-92.2s52-14.5,78.1-20.2c27.9-6.1,28.7-24.1,55.1-30.2
			c30.2-6.9,65.7,36,120.3,27.5C481.3,195.7,498,130.5,475,77c-18.4-42.8-70.8-54.5-110.4-47.7s-64.5,34.5-97.1,42.5
			c-22.1,5.4-69.8-4.6-98.6,5.9c-17.6,6.6-33.4,17.5-45.8,31.7c0,0,7.4-33.8-3.6-33.8s-4,36-4,36s-30.5-3.8-28.9,5.5
			s26.5,3.4,26.5,3.4s-72.3,28.8-78,91.8S80.4,377,127.8,382.7z"/>
		<path class="st5" d="M27.8,249.7c-2.5-23.6,1.7-48.5,14.1-69c13.6-22.5,36.2-36,58.3-49c0,0,0-0.1,0-0.1
			c-44.5,21.8-77.4,55.5-76.3,108.2c1.1,56.9,39.4,101.6,82.9,133.8c0.6,0.4,1.3-0.4,0.7-0.9C68.2,342.5,33.2,300.7,27.8,249.7z"/>
		<path class="st5" d="M449.4,41c-0.9-0.6-1.8-1.2-2.8-1.7C447.5,39.9,448.5,40.5,449.4,41z"/>
		<path class="st5" d="M446.6,39.3l-0.5-0.3L446.6,39.3z"/>
		<path class="st5" d="M367.6,33.9c-0.1,0-0.1,0.1-0.1,0.2c0,0.1,0.1,0.1,0.2,0.1c21.1-7.3,44.6-6.4,66.1-0.3
			c4.3,1.2,8.5,3,12.4,5.2C423.4,25.9,395.2,23.5,367.6,33.9z"/>
		<path class="st5" d="M487.7,91.3c-7.5-21.8-20.7-38.6-37.1-49.4c15.2,10.2,26.7,27,33.7,44c19.1,46.6-4.3,107.6-58,106.3
			c-0.7,0-0.6,1,0.1,1C478.4,195.3,503.7,138.1,487.7,91.3z"/>
		<path class="st5" d="M450.6,41.8c-0.4-0.3-0.8-0.5-1.2-0.8L450.6,41.8z"/>
		<path class="st5" d="M193.3,305.7c-3.2-9.2-7.6-18-12.9-26.1c-9.6-15-15.5-27.2-14.7-45.6c0-0.5-0.6-0.4-0.7,0
			c-1.4,18.8,1.8,28.5,11.8,44.1c15.9,24.7,25.4,52.4,11.8,80.4c-0.2,0.4,0,0.8,0.4,1c0.4,0.2,0.8,0,1-0.3
			C199,342.2,199.4,323.9,193.3,305.7z"/>
		<path class="st3" d="M161.9,376.3c0,0-30.6-36.4-70-28.6s-32.1,73.6,9.5,99.8c39.3,24.7,66.1,8.8,66.1,8.8L161.9,376.3z"/>
		<path class="st6" d="M85.8,377.9c-0.1,0-0.2,0.2-0.2,0.3c0,0.1,0.2,0.2,0.3,0.2c34.2-1.5,49.6,31.7,52.3,36.9
			c-1.8-1-3.7-1.8-5.6-2.5c-10.7-3.9-20.5-2-30.1,3.4c-0.4,0.2-0.1,0.9,0.4,0.7c8.7-3.7,18.6-2,27,1.6c7.8,3.3,15.1,8.1,20,14.5
			C150,433.5,140.8,364.2,85.8,377.9z"/>
		<g class="st2">
			
				<image style="overflow:visible;enable-background:new    ;" width="182" height="168" xlink:href="68BC2139.png"  transform="matrix(0.994 0 0 0.994 198.5917 232.48)">
			</image>
		</g>
		<g class="st2">
			
				<image style="overflow:visible;enable-background:new    ;" width="152" height="170" xlink:href="68BC213F.png"  transform="matrix(0.9934 0 0 0.9934 333.55 219.5392)">
			</image>
		</g>
		<path class="st7" d="M301.9,333.5c0.5,7.5-3.3,13.8-8.5,14.2s-9.9-5.4-10.4-12.8s3.3-13.8,8.5-14.2S301.4,326.1,301.9,333.5z"/>
		<path class="st7" d="M411,321.6c0.5,7.5-3.3,13.8-8.5,14.2s-9.9-5.4-10.4-12.8s3.3-13.8,8.5-14.2S410.5,314.1,411,321.6z"/>
		<path class="st6" d="M269.2,349.5c-3.9-0.7-20.1,5.6-22.7,9.1c-0.2,0.3-0.2,0.7,0.1,1c0.1,0.1,0.2,0.1,0.3,0.1
			c4.2,0.9,20.5-5.2,23-8.4c0.4-0.5,0.4-1.2-0.1-1.6C269.6,349.6,269.4,349.6,269.2,349.5z"/>
		<path class="st6" d="M274.9,356.1c-3.9,0.8-13.8,10.3-14.9,14.5c-0.1,0.4,0.1,0.7,0.4,0.9c0.1,0,0.2,0,0.3,0
			c4.2-0.8,14.3-10,15.5-13.9c0.2-0.6-0.1-1.3-0.7-1.5C275.3,356.1,275.1,356,274.9,356.1z"/>
		<path class="st6" d="M419.3,333.5c3.2-1.6,18.6,0.6,21.7,3.3c0.3,0.2,0.4,0.7,0.2,1c0,0.1-0.1,0.1-0.2,0.2
			c-3.4,1.9-18.8,0-21.7-2.5c-0.5-0.4-0.6-1.2-0.2-1.7C419.1,333.6,419.2,333.5,419.3,333.5z"/>
		<path class="st6" d="M416,341.2c3.5-0.2,14.4,6.6,16.4,10.3c0.2,0.3,0.1,0.7-0.2,0.9c-0.1,0-0.1,0.1-0.2,0.1
			c-3.8,0.3-14.8-6.2-16.7-9.6C414.9,342.2,415.3,341.2,416,341.2z"/>
		<path class="st6" d="M313.1,431.2c-5.8,1.1-26,6-24.5-16.5c0.1-1.1-0.9-1.9-1.2-0.9c-6.9,24.7,15.8,27.6,26.5,18.7
			C315.1,431.6,314.6,430.9,313.1,431.2z"/>
		<path class="st5" d="M280.7,252.8c-8.9,5.7-26.7,2.7-28.4,16.5c-1.4,11.4,23.3,18.8,41.7,8.5c20.6-11.5,22.7-35.5,13.8-39.7
			C294.4,231.7,288.4,247.8,280.7,252.8z"/>
		<path class="st5" d="M387.3,232c-10.4,7.4-2.8,27,16.3,33.8c14.3,5.1,31.6-2.6,30.8-13.1c-0.8-10.1-16.9-6.5-22.4-9.8
			C405,238.8,395.9,225.9,387.3,232z"/>
		<path class="st6" d="M377.6,276.7c0.4-2.2-15.8,33-13.9,60.3c1.3,19.1,9.8,27,21.7,27.1c13,0.1,25.7-13.5,21.6-20.5
			c-5.2-8.7-18.3,2.4-27.7-7.1C370.3,327.3,372.2,303.4,377.6,276.7z"/>
		<path class="st6" d="M343.1,490.3c-6.3-2.6-13.4,1.7-15,8c-1.8,7.2,4,13.7,11.4,14.9c2,0.3,2.2-0.9,0.3-1.8
			c-3.3-1.7-6.5-3.4-7.7-7.2s0.3-8.1,4-9.8c3.1-1.6,7-0.4,8.7,2.7c0.1,0.3,0.2,0.5,0.3,0.8c0.9,2.7-0.4,4.7-3.4,4.7
			c-1.6,0-3.9-2.3-4.5-3.9c-0.1-0.2-0.3-0.3-0.5-0.2c-0.1,0-0.2,0.1-0.2,0.2c-1.3,5.4,5.9,10.1,10.3,6.4
			C352.1,501,348.4,492.6,343.1,490.3z"/>
		<path class="st6" d="M391.4,413.4c-4.9-4.1-10.1-6.7-16.6-6.8c-4.2,0-7.4,1.8-11.4,2.4c-9.5,1.6-12.7-1.5-18.8-6.6
			c-12-10-30.5-2.6-42.6,4.4c-0.3,0.2-0.4,0.7-0.2,1c0.2,0.2,0.5,0.4,0.8,0.3c10.7-2,18.2-6.3,29.1-4.9c6.5,0.9,8,3.3,14,8
			c1.4,1.3,3,2.4,4.8,3.2c2.5,1.2,5.2,1.6,7.9,1.3c12.1-1.3,19.3-8.2,32.1-1.2C391.3,415,392.1,414,391.4,413.4z"/>
		<path class="st8" d="M269.8,663.2c0,0,26-9.6,34-21.1s9.3-33.5,5.9-40.8s-17.5-10.1-28,7.9S269.8,663.2,269.8,663.2z"/>
		<g class="st2">
			
				<image style="overflow:visible;enable-background:new    ;" width="115" height="141" xlink:href="68BC213A.png"  transform="matrix(0.9913 0 0 0.9913 233.55 559.593)">
			</image>
		</g>
		<path class="st9" d="M462.1,600.8c-1.3,3-4.4,7-8.7,11.6c-2,2.1-4.2,4.2-6.7,6.5c-5.7,5.3-12.6,11.2-20.5,17.2c-2,1.5-4,3-6,4.5
			h-0.1c-6,4.5-12.7,9.1-19.5,13.5c-2,1.3-4,2.5-6,3.8c-13.2,8.3-26.9,15.6-41,22c-1.6,0.7-3.2,1.5-4.8,2.1
			c-16.3,6.9-32.5,11.7-46.8,13c-1.2,0.1-2.4,0.2-3.6,0.2c-1.9,0.1-3.8,0.1-5.7,0c-10.8-0.4-24-3-38.5-7.1c-1.5-0.4-3-0.9-4.5-1.3
			c-17.2-5.3-34.1-11.7-50.5-19.1c-2.2-1-4.4-1.9-6.6-2.9c-14.2-6.5-28.1-13.5-40.7-20.6c-1.9-1-3.7-2.1-5.5-3.2
			c-9.3-5.4-17.9-10.8-25.2-15.9c-3.8-2.7-7.1-5.2-10.2-7.7c-9.9-7.9-16.1-15.1-16.8-20.4c-3.9-26.3,15-54.2,17.9-72.5
			c2.9-18.3-9.6-60.5,19.5-71.9c1.4-0.5,4.1,0.5,15.1,9.9c1,0.8,2,1.8,3.1,2.7c3.5,3,7.6,6.8,12.6,11.4c2,2,3.8,4.2,5.3,6.5
			c1,1.7,2.2,3.6,3.3,5.7c7.4,13.6,15.5,35.1,25,57.8c1.9,4.4,3.8,8.9,5.8,13.4c12.8,29.5,28.1,58.9,47,73.9c1.8,1.5,3.7,2.8,5.7,4
			c6.2,4,13.3,6.1,20.6,6.2c7.3,0,14.5-1.3,21.3-4c2.4-1,4.8-2.1,7.1-3.3c16.5-9.3,28.8-26.4,38.9-44.9c1.9-3.5,3.7-6.9,5.5-10.4
			c9.4-18.8,17.1-37.9,25-51.3c1.9-3.2,3.8-6.2,5.6-9.1c1.6-2.5,3.3-5,4.8-7.2c5.5-8,11.6-15.6,18.2-22.7c1.2-1.2,2.3-2.4,3.4-3.4
			c8.5-8.2,15.1-12.3,19.3-14.3c3-1.3,4.7-1.6,5-1.4c0,0,0.1,0,0.1,0.1c25.3,21.7,13.1,60.9,14.6,69.6S471.7,579.1,462.1,600.8z"/>
		<path class="st1" d="M136.5,533.3c-12.6,28.2-29.9,61.5-15.1,91.8c-3.8-2.7-7.1-5.2-10.2-7.7c-7.6-23.7,2.5-52.3,12.4-73.9
			c5.5-12.2,11.1-23,12.7-36.5c1-8.2,0.8-16.4,2.4-24.5c1.5-7.6,4-14.3,8.4-19.8c1,0.8,2,1.8,3.1,2.7
			C139.7,485.3,146,511.9,136.5,533.3z"/>
		<path class="st1" d="M453.4,612.4c-2,2.1-4.2,4.2-6.7,6.5c0.1-11.1-1.2-21.8-5.3-32.9c-4.6-12.3-11.4-22.8-15.3-35.2
			c-3.8-11.9-2.1-23.8-0.8-35.8c1-8.9,3.3-28.8-0.9-41.4c3-1.3,4.7-1.6,5-1.4c0,0,0.1,0,0.1,0.1c6.2,15,2.7,40.5,1.2,50.7
			c-2.4,16,0.2,28.1,7.7,41.7c4.2,7.3,7.6,15,10.3,23C451.4,595.6,453,603.9,453.4,612.4z"/>
		<path class="st1" d="M426.3,636.1c-2,1.5-4,3-6,4.5c5-31.2-12.7-54.2-17.1-84.8c-2.9-19.6,3.8-44.3-1.3-64.6
			c1.2-1.2,2.3-2.4,3.4-3.4c8.3,19.2,1.2,49,3.8,67C412.9,581.5,432,609.1,426.3,636.1z"/>
		<path class="st1" d="M303.7,636.8c0.1,19.4-0.8,38.9-1.8,58.2c-1.2,0.1-2.4,0.2-3.6,0.2c-2.5-18.2-2.1-36.7-1.8-55.1
			C299.1,639.1,301.4,638,303.7,636.8z"/>
		<path class="st1" d="M400.6,654.1c-2,1.3-4,2.5-6,3.8c-0.2-10.7-0.4-21.3-1.6-32c-2.1-18.2-10.3-33.3-13.7-50.8
			c-2.5-13,0.7-27.7,0.4-40.8c-0.1-4.4-0.4-8.8-0.9-13.1c1.6-2.5,3.3-5,4.8-7.2c0.4,2.3,0.7,4.7,1,7c2.2,17.4-1.3,35.6,1.8,52.6
			c2.9,15.5,10.1,29.7,12.4,45.6C400.3,630.7,401,642.4,400.6,654.1z"/>
		<path class="st1" d="M353.6,679.9c-1.6,0.7-3.2,1.5-4.8,2.1c-1.8-29.6-2.8-58.9-6-88.5c-0.1-0.5-0.1-1.2-0.2-1.7
			c1.9-3.5,3.7-6.9,5.5-10.4c0.1,2.8,0.4,5.6,0.6,8.5C351.2,620,353.3,649.8,353.6,679.9z"/>
		<path class="st1" d="M254.2,688.1c-1.5-0.4-3-0.9-4.5-1.3c-3.1-16.6-2.7-33.7-1-50.5c0.1-0.8,0.2-1.6,0.3-2.3
			c1.8,1.5,3.7,2.8,5.7,4C253.1,654.7,254.2,671.3,254.2,688.1z"/>
		<path class="st1" d="M148.2,601.8c-0.7,14.3,1.5,28.3,3.8,42.4c-1.9-1-3.7-2.1-5.5-3.2c-6.2-26.4-5.8-54,4.4-79.4
			c4.8-12,8.6-21.4,9.9-34.5c0.8-7.6,0.9-15.2,2-22.7s2.3-14.7,5.1-21.2c1,1.7,2.2,3.6,3.3,5.7c-5.8,20.8-1.9,44.1-9.7,64.5
			C154.9,570.4,149,583.2,148.2,601.8z"/>
		<path class="st1" d="M201.5,578.7c-2.1,30.4-6.5,58.9-2.2,89c-2.2-1-4.4-1.9-6.6-2.9c-5.6-30.7,1.6-62.2,3-93.1
			c0.4-8.3,0.4-16.6,0.5-25c1.9,4.4,3.8,8.9,5.8,13.4C202,566.2,201.9,572.5,201.5,578.7z"/>
		<path class="st10" d="M325.4,531.9c22.5-9.6,30.4-14.6,54.6-18.8c0.9,0,1.6,0.7,1.6,1.5c0,0.5-0.2,1-0.6,1.3
			c-21,12.8-30.7,13.1-53.9,20.6c-1.3,0.4-2.7-0.4-3.1-1.7C323.6,533.7,324.2,532.4,325.4,531.9z"/>
		<path class="st10" d="M321.7,583.4c21.1,12.4,29.8,15.8,47.5,32.9c0.6,0.6,0.5,1.6-0.1,2.2c-0.4,0.4-1,0.5-1.5,0.3
			c-22.7-9.3-28.7-17-48.6-31.2c-1.1-0.8-1.3-2.4-0.5-3.5C319.2,583.1,320.6,582.8,321.7,583.4z"/>
		<path class="st10" d="M332.4,558.7c24.4-1.1,51.5-3.6,75.7,1.1c0.8,0.3,1.3,1.1,1,2c-0.2,0.5-0.5,0.9-1,1
			c-24.1,4.6-51.2,2-75.7,0.9c-1.4-0.1-2.4-1.3-2.3-2.7C330.3,559.8,331.2,558.8,332.4,558.7z"/>
		<path class="st10" d="M215,507.1c-19.5-14.7-26.1-21.5-48.6-31.2c-0.8-0.3-1.7,0.2-2,1c-0.2,0.5-0.1,1.1,0.3,1.5
			c17.3,17.4,26.7,20,47.5,32.8c1.1,0.8,2.7,0.5,3.5-0.7C216.4,509.4,216.1,507.8,215,507.1z"/>
		<path class="st10" d="M206.3,557.9c-23.4,7-32.7,8.3-53.9,20.7c-0.7,0.5-0.9,1.5-0.4,2.2c0.3,0.4,0.8,0.7,1.4,0.6
			c24.3-3.6,31.9-9.6,54.6-18.8c1.3-0.5,1.9-2,1.4-3.3C208.8,558.2,207.5,557.6,206.3,557.9z"/>
		<path class="st10" d="M201.7,531.4c-23.5-6.8-49.2-15.7-73.7-16.9c-0.9,0-1.5,0.8-1.5,1.6c0,0.5,0.3,1,0.8,1.3
			c22.3,10.2,49.3,14.2,73.3,18.8c1.3,0.3,2.7-0.5,3-1.8S203.1,531.8,201.7,531.4L201.7,531.4z"/>
		<g class="st2">
			
				<image style="overflow:visible;enable-background:new    ;" width="235" height="218" xlink:href="68BC213B.png"  transform="matrix(0.9954 0 0 0.9954 84.589 489.48)">
			</image>
		</g>
		<g class="st2">
			
				<image style="overflow:visible;enable-background:new    ;" width="177" height="162" xlink:href="68BC2136.png"  transform="matrix(0.9938 0 0 0.9938 302.5963 509.48)">
			</image>
		</g>
		<path class="st3" d="M155.5,633.6c2.1-24,26-76.7,39.3-86.6s21.2,2.8,25.7,5.3s13.1-2,20,1c6.9,3,13.8,9.8,16.6,11.7
			s13.1-1.6,21.5,3.8s9.3,14.6,12.4,17.7s13.1-2.5,18.7,14.9c2.6,8-10.7,15.9-19.4,32c-14.6,27-32.4,64.3-57.4,69.8
			C192.8,711.8,150.6,690.9,155.5,633.6z"/>
		<g class="st2">
			
				<image style="overflow:visible;enable-background:new    ;" width="229" height="236" xlink:href="68BC2137.png"  transform="matrix(0.9956 0 0 0.9956 119.55 506.4953)">
			</image>
		</g>
		<path class="st6" d="M298.6,622.5c-10.4,9.7-19.8,23.2-23.7,37c-0.1,0.2,0.1,0.5,0.3,0.5c0.2,0,0.4,0,0.5-0.2
			c3.9-5.9,7.1-12.3,10.8-18.3c5.2-1.7,10.3-3.7,13.9-8c0.2-0.2,0-0.6-0.3-0.4c-4.2,2.3-8.3,4.6-12.6,6.8
			c3.7-5.8,7.7-11.4,11.4-17.1c0.1-0.1,0.1-0.3-0.1-0.4C298.8,622.4,298.7,622.4,298.6,622.5z"/>
	</g>
</g>
</svg>
