<?xml version="1.0" encoding="utf-8"?>
<!-- Generator: Adobe Illustrator 22.1.0, SVG Export Plug-In . SVG Version: 6.00 Build 0)  -->
<svg version="1.1" id="Layer_1" xmlns="http://www.w3.org/2000/svg" xmlns:xlink="http://www.w3.org/1999/xlink" x="0px" y="0px"
	 viewBox="0 0 549.5 807.2" style="enable-background:new 0 0 549.5 807.2;" xml:space="preserve">
<style type="text/css">
	.st0{fill:#FFFFFF;}
	.st1{fill:#C6866D;}
	.st2{opacity:0.5;}
	.st3{fill:#F0A183;}
	.st4{fill:#33363D;}
	.st5{fill:#9E5E4A;}
	.st6{fill:#3A312B;}
	.st7{fill:#D69487;}
	.st8{fill:#F7C961;}
	.st9{fill:#E0B451;}
	.st10{fill:#F6EEE6;}
</style>
<title>3rd</title>
<g>
	<g id="Layer_1_1_">
		<ellipse class="st0" cx="274.5" cy="340.3" rx="274.5" ry="340.3"/>
		<path class="st1" d="M194.8,452.6c-3.5,19.9,19.4,152.4,29.7,169.9s69.6,28.9,110.5,5.5c12-6.8,12.6-173.1,12.6-173.1L194.8,452.6
			z"/>
		<g class="st2">
			
				<image style="overflow:visible;enable-background:new    ;" width="228" height="263" xlink:href="8D57DE4.png"  transform="matrix(0.9956 0 0 0.9956 157.53 416.1468)">
			</image>
		</g>
		<path class="st3" d="M154.6,119.5C108.5,159.7,86,225.6,107,351.1s85.3,190.8,203.8,181.7c107.4-8.2,131.2-66.9,140.2-100
			s0.2-66.1,0-97c-0.2-25.8,13.2-115-25.8-187.4C379.7,63.5,225.7,57.5,154.6,119.5z"/>
		<path class="st4" d="M123.6,369.8c39.3,7.5,68.9-23.2,67.9-58.7s-35.1-61.4-14.5-94s53.2-10.9,79.9-14.8
			c28.4-4.1,30.6-22.2,57.5-26.4c30.8-4.8,63.4,40.8,118.8,36.2c58.6-4.9,80-69.1,60.7-124.5c-15.4-44.3-67.3-59.7-107.4-55.7
			s-67.2,30.1-100.5,35.8c-22.6,3.9-69.8-9.5-99.4-1c-18.2,5.4-34.7,15.3-48.2,28.6c0,0,9.8-33.4-1.3-34.1S130.5,97,130.5,97
			s-30.4-6-29.4,3.5s26.4,5.3,26.4,5.3s-74.6,23.7-84.8,86.7S76.5,360.8,123.6,369.8z"/>
		<path class="st4" d="M32.6,229.2c-0.8-23.9,5.2-48.6,19-68.3c15.2-21.6,38.9-33.6,62-45c0,0,0-0.1,0-0.1
			C67.4,134.7,32,166.1,29.4,219.1c-2.9,57.2,32.3,104.8,73.7,140.1c0.5,0.5,1.4-0.3,0.8-0.8C66.6,325.2,34.4,280.8,32.6,229.2z"/>
		<path class="st4" d="M470.7,49.6c-0.9-0.7-1.8-1.3-2.7-1.9C468.9,48.3,469.8,49,470.7,49.6z"/>
		<path class="st4" d="M468,47.7l-0.4-0.3L468,47.7z"/>
		<path class="st4" d="M389,36.7c-0.1,0-0.1,0.1-0.1,0.2c0,0.1,0.1,0.1,0.2,0.1l0,0c21.7-5.8,45.3-3.3,66.4,4.4
			c4.3,1.6,8.3,3.6,12.1,6.1C445.6,32.6,417.5,28.1,389,36.7z"/>
		<path class="st4" d="M505.6,102.7c-5.9-22.4-18-40.2-33.8-52.3c14.5,11.3,24.9,28.9,30.7,46.6c15.9,48.2-11.9,107.7-65.7,102.6
			c-0.6-0.1-0.6,1,0,1C488.9,206.5,518.4,150.9,505.6,102.7z"/>
		<path class="st4" d="M471.8,50.5c-0.4-0.3-0.8-0.6-1.2-0.8C471.1,49.9,471.4,50.2,471.8,50.5z"/>
		<path class="st4" d="M194.9,297.2c-2.6-9.5-6.3-18.6-11.1-27.1c-8.5-15.7-13.6-28.4-11.5-46.9c0-0.5-0.6-0.5-0.7,0
			c-2.7,18.8-0.2,28.8,8.7,45.1c14.2,26,21.8,54.4,6.1,81.6c-0.2,0.4-0.1,0.8,0.2,1s0.8,0.1,1-0.2
			C197.9,334.3,199.7,315.8,194.9,297.2z"/>
		<path class="st3" d="M158.3,365.8c0,0-28.1-38.6-68.3-33.6s-37.4,71.6,2.5,100.9c37.6,27.6,65.8,13.5,65.8,13.5L158.3,365.8z"/>
		<path class="st5" d="M81.8,362.1c-0.3,0-0.2,0.5,0.1,0.5c34.4,0.9,47.6,35.3,49.9,40.8c-1.8-1.1-3.6-2.1-5.5-2.9
			c-10.4-4.6-20.4-3.4-30.5,1.2c-0.4,0.2-0.1,0.9,0.3,0.8c9-3.1,18.8-0.7,26.9,3.5c7.6,3.9,14.6,9.2,19,16
			C142.4,422.4,138,352.1,81.8,362.1z"/>
		<g class="st2">
			
				<image style="overflow:visible;enable-background:new    ;" width="183" height="169" xlink:href="8D57DE5.png"  transform="matrix(0.9941 0 0 0.9941 198.5714 231.07)">
			</image>
		</g>
		<g class="st2">
			
				<image style="overflow:visible;enable-background:new    ;" width="154" height="170" xlink:href="8D57DE3.png"  transform="matrix(0.9935 0 0 0.9935 335.53 226.1219)">
			</image>
		</g>
		<path class="st6" d="M301.9,332.8c0,7.5-4.3-5.4-9.5-5.4s-9.5,12.9-9.5,5.4s4.3-13.6,9.5-13.6S301.9,325.3,301.9,332.8z"/>
		<path class="st6" d="M412.3,328.5c0,7.5-4.3-5.4-9.5-5.4s-9.5,12.9-9.5,5.4s4.3-13.6,9.5-13.6S412.3,321,412.3,328.5z"/>
		<path class="st5" d="M268,346.5c-3.9-1-20.6,4.2-23.5,7.5c-0.3,0.3-0.3,0.7,0,1c0.1,0.1,0.2,0.1,0.3,0.2c4.2,1.2,21-3.8,23.7-6.8
			c0.4-0.5,0.4-1.2,0-1.6C268.3,346.7,268.1,346.6,268,346.5z"/>
		<path class="st5" d="M273.2,353.5c-4,0.5-14.6,9.3-16,13.5c-0.2,0.3,0,0.7,0.3,0.9c0.1,0,0.2,0.1,0.4,0.1
			c4.3-0.5,15.1-9,16.5-12.8c0.2-0.6,0-1.3-0.6-1.5C273.6,353.5,273.4,353.5,273.2,353.5z"/>
		<path class="st5" d="M419.7,341c3.3-1.4,18.6,1.9,21.5,4.8c0.3,0.3,0.3,0.7,0.1,1c0,0.1-0.1,0.1-0.2,0.1c-3.5,1.6-18.9-1.4-21.6-4
			c-0.5-0.4-0.6-1.2-0.2-1.7C419.4,341.2,419.6,341.1,419.7,341z"/>
		<path class="st5" d="M415.9,348.5c3.6,0,14,7.6,15.8,11.5c0.2,0.3,0.1,0.7-0.3,0.9c-0.1,0-0.1,0.1-0.2,0.1
			c-3.8,0-14.4-7.3-16.1-10.9C414.8,349.5,415.1,348.5,415.9,348.5z"/>
		<path class="st5" d="M335,443.4c-6,0-26.8,1.1-21.1-20.8c0.3-1-0.5-2-1-1.1c-11.4,23.1,10.6,30.2,22.8,23.4
			C337,444.2,336.5,443.4,335,443.4z"/>
		<path class="st4" d="M289.5,253.4c-10.1,3.3-26.7-4.1-31.8,8.9c-4.2,10.7,18,24.2,38.5,18.8c23-6,31.1-28.8,23.5-35.2
			C308.1,236.3,298.3,250.5,289.5,253.4z"/>
		<path class="st4" d="M403,240.3c-10.9,6.7-4.5,27,14.2,35c14,6,31.9-0.6,31.8-11.2c-0.1-10.2-16.6-7.6-21.9-11.2
			C420.5,248.2,412.1,234.7,403,240.3z"/>
		<path class="st5" d="M381.9,281.1c0.6-2.2-18.2,32-18.2,59.6c0,19.3,8,27.8,19.9,28.8c13,1,26.8-11.7,23.1-19
			c-4.5-9.1-18.6,1.1-27.3-9.1C370.9,331.4,374.6,307.5,381.9,281.1z"/>
		<path class="st5" d="M332.1,493.1c-6.1-3-13.6,0.7-15.6,7c-2.3,7.1,3,14,10.4,15.8c2,0.5,2.2-0.7,0.5-1.8
			c-3.2-1.9-6.3-3.8-7.2-7.8s0.9-8.1,4.7-9.5c3.3-1.4,7.1,0,8.5,3.3c0.1,0.3,0.2,0.6,0.3,0.9c0.7,2.8-0.8,4.7-3.7,4.5
			c-1.6-0.1-3.8-2.6-4.2-4.2c-0.1-0.2-0.3-0.3-0.5-0.3c-0.1,0-0.2,0.1-0.3,0.3c-1.7,5.3,5.2,10.6,9.9,7.2
			C340.5,504.5,337.3,495.7,332.1,493.1z"/>
		<path class="st6" d="M358.3,428.8c-0.5,0.5-1.1,1-1.7,1.4c-13.3,9.2-33.8,1.3-32.7-16.4c0.4-4.9,1.9-9.6,4.2-13.9
			c2.1-4,4.8-7.5,8.1-10.5c2.8-2.7,6.3-4.6,10.1-5.5c3.9-1.3,8.3-1,13.1,2.3c2.7,1.8,4.9,4.2,6.3,7
			C371.6,404.3,367.7,420.9,358.3,428.8z"/>
		<path class="st7" d="M358.3,428.8c-0.5,0.5-1.1,1-1.7,1.4c-13.3,9.2-33.8,1.3-32.7-16.4c0.4-4.9,1.9-9.6,4.2-13.9
			c6-0.8,12.1,0.4,17.4,3.3C354.5,408.2,359.9,418.7,358.3,428.8z"/>
		<path class="st0" d="M365.7,393.2c-9.7-2.2-19.6-3.5-29.5-3.8c2.8-2.7,6.3-4.6,10.1-5.5c3.9-1.3,8.3-1,13.1,2.3
			C362,387.9,364.2,390.4,365.7,393.2z"/>
		<path class="st8" d="M465,604.6c-1.3,3-4.4,7-8.8,11.7c-2,2-4.2,4.3-6.7,6.5c-5.7,5.3-12.7,11.2-20.7,17.3c-2,1.5-4,3-6.1,4.5l0,0
			c-6.2,4.5-12.7,9.1-19.6,13.6c-2,1.3-4,2.6-6.1,3.8c-13.2,8.3-27,15.7-41.2,22.2c-1.7,0.7-3.3,1.5-4.9,2.1
			c-16.4,7-32.7,11.8-47.1,13l-3.6,0.2c-2,0-3.9,0.1-5.8,0c-10.8-0.4-24.2-3-38.8-7.2c-1.5-0.4-3-0.9-4.5-1.3
			c-17.3-5.4-34.3-11.8-50.8-19.2c-2.2-1-4.4-1.9-6.6-2.9c-14.3-6.5-28.3-13.7-41-20.8c-1.9-1-3.6-2.1-5.5-3.1
			c-9.4-5.4-18-10.8-25.3-16.1c-3.7-2.7-7.2-5.2-10.3-7.8c-9.9-8-16.2-15.2-17-20.6c-3.9-26.4,15.1-54.6,18.1-72.9
			c3-18.4-9.8-60.9,19.6-72.3c4.8-1.8,10.2,1.1,18.4,6.3c0.9,0.6,1.8,1.2,2.7,1.8c5.7,3.7,12.5,8.2,21.1,12.9c1,0.5,2,1,3.1,1.6
			c10.7,5.6,21.9,10.2,33.5,13.7c0.9,0.3,1.9,0.6,2.8,0.8c14.6,4.3,29.6,7.3,44.8,9c1.1,0.2,2.2,0.3,3.4,0.4c4.8,0.5,9.8,1,15,1.3
			c8.1,0.5,15.8,0.8,23,0.8h1.7c12.1,0,24.3-0.8,36.3-2.3l3.7-0.5c11.2-1.6,22.3-4.1,33.2-7.4c1.3-0.4,2.5-0.8,3.7-1.2
			c7.3-2.4,14.4-5.2,21.4-8.5c0.8-0.4,1.7-0.8,2.5-1.2c7.4-3.7,14.6-7.7,21.6-12.1l3.7-2.3c7.3-4.5,11.8-6.7,14.9-4.1
			c25.5,21.8,2.1,71.8,3.7,80.6S474.8,582.7,465,604.6z"/>
		<path class="st9" d="M137.3,536.6c-12.7,28.4-30.1,62-15.2,92.4c-3.7-2.7-7.2-5.2-10.3-7.8c-7.7-23.9,2.6-52.6,12.4-74.4
			c5.5-12.3,11.2-23.2,12.8-36.8c1-8.2,0.8-16.5,2.4-24.6c1.8-9.4,5.2-17.3,11.6-23.7c0.9,0.6,1.8,1.2,2.7,1.8
			C139.4,484.2,147.7,513.6,137.3,536.6z"/>
		<path class="st9" d="M456.3,616.3c-2,2-4.2,4.3-6.7,6.5c0.1-11.2-1.2-21.9-5.4-33.1c-4.6-12.4-11.4-23-15.4-35.4
			c-3.8-12-2.1-23.9-0.8-36c1.1-10.4,4-35.6-3.5-47.2l3.7-2.3c11.2,12.8,6.8,45.5,5,57.4c-2.4,16.1,0.2,28.3,7.8,42
			c4.2,7.4,7.7,15.1,10.4,23.1C454.3,599.4,456,607.8,456.3,616.3z"/>
		<path class="st9" d="M428.9,640.2c-2,1.5-4,3-6.1,4.5c5-31.4-12.8-54.5-17.3-85.3c-3.4-23.1,6.4-53.4-5.1-75.1
			c0.8-0.4,1.7-0.8,2.5-1.2c15.4,18.1,5.5,54.4,8.5,75.2C415.5,585.2,434.8,612.9,428.9,640.2z"/>
		<path class="st9" d="M303.9,699.4l-3.6,0.2c-4.5-33.2,0.5-67.3-3.1-100.6c-3.6-32.9-3.9-62.8,3.3-94.9h1.7
			c-3.3,31.7-2,63.2,1.4,94.9C307.1,632.1,305.5,666.2,303.9,699.4z"/>
		<path class="st9" d="M403.2,658.3c-2,1.3-4,2.6-6.1,3.8c-0.2-10.8-0.4-21.5-1.7-32.2c-2.1-18.4-10.4-33.6-13.8-51.2
			c-2.5-13,0.7-27.9,0.4-41.1c-0.3-15-2.8-29.4-6.6-43.7c1.3-0.4,2.5-0.8,3.7-1.2c4.1,10.1,6.7,20.7,7.9,31.5
			c2.2,17.5-1.3,35.8,1.8,52.9c2.9,15.6,10.2,29.9,12.5,45.9C402.9,634.8,403.5,646.5,403.2,658.3z"/>
		<path class="st9" d="M355.9,684.3c-1.7,0.7-3.3,1.5-4.9,2.1c-1.7-29.8-2.8-59.3-6-89.1c-3.4-31.1-6.2-64-6.5-95.5l3.7-0.5
			c6.9,30.2,6.1,61.6,8.7,92.4C353.4,623.9,355.5,654,355.9,684.3z"/>
		<path class="st9" d="M256.5,640.3c-1.8,17.5-0.6,34.7-0.7,52.2c-1.5-0.4-3-0.9-4.5-1.3c-3.2-16.7-2.7-33.9-1-50.8
			c1.8-17.2,7-33.9,5.1-51.3c-3.1-29.8-8.1-59.2,3.6-87.3c1.1,0.2,2.2,0.3,3.4,0.4c-3.4,17.1-4.8,34.6-4,52
			c0.8,14.4,4.3,28.8,4.3,43.1S257.9,626,256.5,640.3z"/>
		<path class="st9" d="M149.1,605.6c-0.7,14.4,1.5,28.5,3.8,42.7c-1.9-1-3.6-2.1-5.5-3.1c-6.3-26.6-5.8-54.3,4.5-80
			c4.9-12.1,8.7-21.5,10-34.7c0.8-7.6,0.9-15.3,2-22.9c1.6-11.6,3.6-22.3,10.9-31c1,0.5,2,1,3.1,1.6c-13.8,23.8-5.7,53.5-15.4,78.7
			C155.9,574,150,586.9,149.1,605.6z"/>
		<path class="st9" d="M214.3,492.7c-4.1,15-9.1,29.2-10.3,45.1c-1.1,14.8-0.1,29.8-1.2,44.6c-2.1,30.6-6.6,59.3-2.3,89.6
			c-2.2-1-4.4-1.9-6.6-2.9c-5.6-30.8,1.6-62.6,3-93.7c1.3-28.6-1.9-58.7,14.5-83.4C212.4,492.2,213.3,492.5,214.3,492.7z"/>
		<g class="st2">
			
				<image style="overflow:visible;enable-background:new    ;" width="277" height="164" xlink:href="8D57DEC.png"  transform="matrix(0.9939 0 0 0.9939 76.8745 479.07)">
			</image>
		</g>
		<g class="st2">
			
				<image style="overflow:visible;enable-background:new    ;" width="194" height="137" xlink:href="8D57DEF.png"  transform="matrix(0.9927 0 0 0.9927 288.738 513.07)">
			</image>
		</g>
		<path class="st10" d="M462,453.6c-4.3-3.5-51.2-22.6-58-24.3c-0.8-0.2-1.4,1-0.6,1.4c5.7,2.6,51.5,24.7,57.6,25.4
			c0.8,0,1.4-0.7,1.4-1.6C462.4,454.2,462.3,453.9,462,453.6z"/>
		<path class="st10" d="M468.2,416.2c-12.9-0.8-44.5-0.4-57.7,1.8c-1,0.2-0.7,1.7,0.2,1.7c13,0.3,45.1,2.2,57.9,0.2
			C470.9,419.5,470.2,416.3,468.2,416.2z"/>
		<path class="st10" d="M527.9,444.2c9.2-5.1,15.9-14.5,13.4-25.7c-3-13.6-19.3-18-19.3-18s-1.8-24.6-26-26.7
			c-12.8-1.1-24.9,5.1-30.7,16.4c-0.4,1,0.2,2.2,1.2,2.5c0.8,0.3,1.6,0,2.1-0.5c13.1-20,50.7-14.6,48.7,12.9
			c-0.1,1.2,16-0.6,18.3,16.7c1.3,9.5-7.3,18.9-13,20.4c-2,0.8,15.5,20.5,0.9,35.2c-7.5,7.6-26.8,5.6-34.3-1.8
			c-0.5-0.5-12.3,13.5-24.9,10.8c-8.7-1.8-15.2-9.5-15.6-19.4c0-0.7-0.6-1.3-1.3-1.3s-1.3,0.6-1.3,1.3l0,0
			c-1.7,13,5.8,26.5,19.5,27.5c15,1.1,23.2-12.8,23.2-12.8c0.5-0.1,22.7,14.7,39.5,1C540.2,473.1,535.2,451.9,527.9,444.2z"/>
		<path class="st3" d="M450.7,588.4c0,0,27.8,1.9,39.9-5.4s22.3-27,22.2-35c-0.1-8-11.9-16.5-29-4.3S450.7,588.4,450.7,588.4z"/>
		<path class="st3" d="M357.9,514.2c11.8-21.2,55.5-59.8,71.7-63.4s18.3,11.3,21.4,15.4s12.8,3.6,18,9.1s8.6,14.7,10.5,17.5
			s12.7,3.9,18.2,12.4c5.5,8.5,2.5,17.3,4.1,21.3s13.1,3.1,11.1,21.4c-0.9,8.4-16.3,10.2-31,21.4c-24.6,18.8-56.2,45.8-81.4,40.5
			C360.1,601.3,329.9,564.9,357.9,514.2z"/>
		<g class="st2">
			
				<image style="overflow:visible;enable-background:new    ;" width="240" height="234" xlink:href="8D57DED.png"  transform="matrix(0.9957 0 0 0.9957 310.5428 414.07)">
			</image>
		</g>
		<path class="st5" d="M494.8,563.8c-13.6,4.4-28,12.6-37.3,23.6c-0.2,0.2-0.2,0.5,0,0.6c0.1,0.1,0.4,0.2,0.5,0
			c6.1-3.7,11.7-8.2,17.7-12c5.4,0.7,11,1,16.1-1.3c0.3-0.1,0.2-0.6-0.1-0.5c-4.8,0.3-9.6,0.7-14.4,0.8c5.8-3.7,11.8-7.1,17.7-10.7
			c0.1-0.1,0.2-0.2,0.1-0.4C495.1,563.8,494.9,563.8,494.8,563.8L494.8,563.8z"/>
	</g>
</g>
</svg>
