<svg xmlns="http://www.w3.org/2000/svg" xmlns:xlink="http://www.w3.org/1999/xlink" viewBox="0 0 170.2 217.1"><defs><style>.cls-1{fill:#fff;}.cls-2{fill:#e0b451;}.cls-3{fill:#f0a183;}.cls-4{fill:url(#linear-gradient);}.cls-5{fill:#33363d;}.cls-6{fill:#9e5e4a;}.cls-7{opacity:0.5;}.cls-8{isolation:isolate;}.cls-9{fill:#3a312b;}.cls-10{fill:#f7c961;}.cls-11{fill:#f6eee6;}</style><linearGradient id="linear-gradient" x1="-1082.03" y1="-6.49" x2="-1082.39" y2="-7.08" gradientTransform="translate(63233.49 650.51) scale(58.35 71.84)" gradientUnits="userSpaceOnUse"><stop offset="0" stop-color="#d65959" stop-opacity="0"/><stop offset="1" stop-color="#d64762"/></linearGradient></defs><title>5nd</title><g id="Layer_2" data-name="Layer 2"><g id="Layer_1-2" data-name="Layer 1"><g id="_2nd" data-name=" 2nd"><g id="Layer_1-3" data-name="Layer 1"><ellipse id="Ellipse_258" data-name="Ellipse 258" class="cls-1" cx="85.1" cy="105.5" rx="85.1" ry="105.5"/><path id="Tracé_4109" data-name="Tracé 4109" class="cls-2" d="M137.2,159.7c-.3,5.7-1.5,11.4-.9,17.1.4,4.1,1,7.6-1.1,11.5-1.8,3.5-4.8,6.3-7.9,8.7a59,59,0,0,1-24.9,11.1,62.54,62.54,0,0,1-26.2-.5c-8.5-2-18.5-5.9-23.8-13.1s-4.7-16.6-6.4-25c-1.2-6.2-4.5-10.9-7.1-16.4-2.1-4.4-1-10.9,1.9-12.5,9.1-4.9,19.8-1.3,29,1.9a73.43,73.43,0,0,0,19.7,4.6c7,.5,13.7-.5,20.6-1.5,5.1-.7,10.3-1.4,15.5-.7,3.2.4,7.7,1.1,10,3.7C137.8,151.4,137.3,156.4,137.2,159.7Z"/><path id="Tracé_4110" data-name="Tracé 4110" class="cls-3" d="M60.4,140.3c-1.1,6.2,6,47.3,9.2,52.7s21.6,9,34.3,1.7c3.7-2.1,3.9-53.7,3.9-53.7Z"/><path id="Tracé_4111" data-name="Tracé 4111" class="cls-4" d="M60.6,140.4c-1.1,6.2,6,47.3,9.2,52.7s21.6,9,34.3,1.7c3.7-2.1,3.9-53.7,3.9-53.7Z"/><path id="Tracé_4112" data-name="Tracé 4112" class="cls-3" d="M43.9,41.4C30.5,54.8,25,75.7,34.3,114s30.5,57.1,67,51.7c33-4.9,39.1-23.6,41.2-34s-1.4-20.4-2.1-30c-.6-8,1.6-35.8-12.1-57.4C112.3,19.1,64.6,20.6,43.9,41.4Z"/><path id="Tracé_4113" data-name="Tracé 4113" class="cls-5" d="M39.8,119.4c12.3,1.5,20.8-8.7,19.7-19.7S47.3,81.5,52.9,70.9s16.2-4.5,24.4-6.3c8.7-1.9,9-7.5,17.2-9.4C103.9,53,115,66.4,132,63.8,150,61,155.2,40.7,148.1,24,142.4,10.6,126,7,113.7,9.1S93.6,19.9,83.4,22.4c-6.9,1.7-21.8-1.4-30.8,1.9a36.51,36.51,0,0,0-14.3,9.9s2.3-10.5-1.1-10.5S36,34.9,36,34.9s-9.5-1.2-9,1.7,8.3,1.1,8.3,1.1S12.8,46.7,11,66.4,25.1,117.7,39.8,119.4Z"/><path id="Tracé_4114" data-name="Tracé 4114" class="cls-5" d="M8.6,77.9A34.31,34.31,0,0,1,13,56.4c4.2-7,11.3-11.2,18.2-15.3h0C17.3,47.9,7.1,58.4,7.4,74.9c.4,17.8,12.3,31.7,25.8,41.7.2.1.4-.1.2-.3C21.2,106.9,10.3,93.9,8.6,77.9Z"/><path id="Tracé_4115" data-name="Tracé 4115" class="cls-5" d="M140.2,12.8a4.05,4.05,0,0,0-.9-.5A4.05,4.05,0,0,0,140.2,12.8Z"/><path id="Tracé_4116" data-name="Tracé 4116" class="cls-5" d="M139.3,12.3l-.1-.1Z"/><path id="Tracé_4117" data-name="Tracé 4117" class="cls-5" d="M114.6,10.6h0a35.27,35.27,0,0,1,20.6,0,16.82,16.82,0,0,1,3.9,1.6C132.1,8.1,123.3,7.4,114.6,10.6Z"/><path id="Tracé_4118" data-name="Tracé 4118" class="cls-5" d="M152.1,28.5a29.24,29.24,0,0,0-11.6-15.4c4.7,3.2,8.3,8.4,10.5,13.7,6,14.5-1.3,33.6-18.1,33.1a.15.15,0,1,0,0,.3C149.2,61,157.1,43.1,152.1,28.5Z"/><path id="Tracé_4119" data-name="Tracé 4119" class="cls-5" d="M140.5,13.1a.52.52,0,0,0-.4-.2Z"/><path id="Tracé_4120" data-name="Tracé 4120" class="cls-5" d="M60.3,95.4a38.17,38.17,0,0,0-4-8.1c-3-4.7-4.8-8.5-4.6-14.2,0-.1-.2-.1-.2,0-.4,5.9.6,8.9,3.7,13.8,4.9,7.7,7.9,16.3,3.7,25.1a.19.19,0,0,0,.1.3.37.37,0,0,0,.3-.1A21.35,21.35,0,0,0,60.3,95.4Z"/><path id="Tracé_4121" data-name="Tracé 4121" class="cls-3" d="M50.5,117.4s-9.5-11.3-21.8-8.9-10,23,3,31.1c12.2,7.7,20.6,2.8,20.6,2.8Z"/><path id="Tracé_4122" data-name="Tracé 4122" class="cls-6" d="M26.7,117.9h0c-.1.1-.1.2,0,.2h0c10.7-.5,15.5,9.9,16.3,11.5a14.17,14.17,0,0,0-1.8-.8,11.11,11.11,0,0,0-9.4,1c-.1.1,0,.3.1.2,2.7-1.2,5.8-.6,8.4.5a15.53,15.53,0,0,1,6.2,4.5C46.8,135.3,43.9,113.7,26.7,117.9Z"/><g id="Groupe_329" data-name="Groupe 329" class="cls-7"><image id="Rectangle_562" data-name="Rectangle 562" class="cls-8" width="184" height="171" transform="translate(62.01 72.48) scale(0.31)" xlink:href="3C31666D.png"/></g><g id="Groupe_330" data-name="Groupe 330" class="cls-7"><image id="Rectangle_563" data-name="Rectangle 563" class="cls-8" width="155" height="174" transform="translate(104.07 68.49) scale(0.3)" xlink:href="3C31666F.png"/></g><path id="Tracé_4123" data-name="Tracé 4123" class="cls-9" d="M94.1,104.1c.2,2.3-1,4.3-2.7,4.4s-3.1-1.7-3.2-4,1-4.3,2.7-4.4S94,101.8,94.1,104.1Z"/><path id="Tracé_4124" data-name="Tracé 4124" class="cls-9" d="M128.2,100.4c.2,2.3-1,4.3-2.7,4.4s-3.1-1.7-3.2-4,1-4.3,2.7-4.4S128,98,128.2,100.4Z"/><path id="Tracé_4125" data-name="Tracé 4125" class="cls-6" d="M84,109.1c-1.2-.2-6.3,1.8-7.1,2.8a.19.19,0,0,0,0,.3H77c1.3.3,6.4-1.6,7.2-2.6a.45.45,0,0,0,0-.5Z"/><path id="Tracé_4126" data-name="Tracé 4126" class="cls-6" d="M85.7,111.1c-1.2.2-4.3,3.2-4.7,4.5a.37.37,0,0,0,.1.3h.1c1.3-.2,4.5-3.1,4.8-4.3a.37.37,0,0,0-.2-.5Z"/><path id="Tracé_4127" data-name="Tracé 4127" class="cls-6" d="M130.8,104.1c1-.5,5.8.2,6.8,1a.19.19,0,0,1,0,.3h0c-1,.6-5.9,0-6.8-.8-.2,0-.2-.3,0-.5Z"/><path id="Tracé_4128" data-name="Tracé 4128" class="cls-6" d="M129.8,106.5c1.1-.1,4.5,2.1,5.1,3.2.1.1,0,.2-.1.3h-.1c-1.2.1-4.6-1.9-5.2-3-.1-.2-.1-.4.1-.5Z"/><path id="Tracé_4129" data-name="Tracé 4129" class="cls-6" d="M97.6,134.6c-1.8.4-8.1,1.9-7.6-5.1,0-.3-.3-.6-.4-.3-2.1,7.7,4.9,8.6,8.3,5.8C98.3,134.7,98.1,134.5,97.6,134.6Z"/><path id="Tracé_4130" data-name="Tracé 4130" class="cls-5" d="M87.5,78.9c-2.8,1.8-8.3.9-8.9,5.1-.4,3.5,7.3,5.9,13,2.7,6.4-3.6,7.1-11.1,4.3-12.4C91.8,72.3,90,77.4,87.5,78.9Z"/><path id="Tracé_4131" data-name="Tracé 4131" class="cls-5" d="M120.8,72.4c-3.2,2.3-.9,8.4,5.1,10.5,4.5,1.6,9.9-.8,9.6-4.1-.2-3.1-5.3-2-7-3C126.3,74.5,123.5,70.5,120.8,72.4Z"/><path id="Tracé_4132" data-name="Tracé 4132" class="cls-6" d="M117.8,86.4c.1-.7-4.9,10.3-4.3,18.8.4,6,3.1,8.4,6.8,8.5,4.1,0,8-4.2,6.7-6.4-1.6-2.7-5.7.7-8.6-2.2S116.1,94.7,117.8,86.4Z"/><path id="Tracé_4133" data-name="Tracé 4133" class="cls-6" d="M107,153a3.56,3.56,0,0,0-4.6,2.2c0,.1-.1.2-.1.3-.6,2.2,1.2,4.3,3.5,4.7.6.1.7-.3.1-.6a3.89,3.89,0,0,1-2.4-2.3,2.58,2.58,0,0,1,1.2-3.1,2,2,0,0,1,2.7.9.35.35,0,0,0,.1.2,1,1,0,0,1-.4,1.4,1.27,1.27,0,0,1-.6.1c-.5,0-1.2-.7-1.4-1.2,0-.1-.1-.1-.2-.1a.1.1,0,0,0-.1.1,2.12,2.12,0,0,0,1.7,2.4,1.67,1.67,0,0,0,1.5-.4C109.8,156.3,108.7,153.7,107,153Z"/><path id="Tracé_4134" data-name="Tracé 4134" class="cls-6" d="M122.1,129a7.79,7.79,0,0,0-5.2-2.1,15.53,15.53,0,0,0-3.6.8c-3,.5-4-.5-5.9-2.1-3.8-3.1-9.5-.8-13.3,1.4a.37.37,0,0,0-.1.3c.1.1.1.1.2.1,3.3-.6,5.7-2,9.1-1.5,2,.3,2.5,1,4.4,2.5a7.84,7.84,0,0,0,1.5,1,4.29,4.29,0,0,0,2.5.4c3.8-.4,6-2.6,10-.4C122,129.5,122.3,129.2,122.1,129Z"/><path id="Tracé_4136" data-name="Tracé 4136" class="cls-10" d="M144.1,187.5a13.59,13.59,0,0,1-2.7,3.6c-.6.6-1.3,1.3-2.1,2a78.07,78.07,0,0,1-6.4,5.4c-.6.5-1.2.9-1.9,1.4h0c-1.9,1.4-3.9,2.8-6.1,4.2-.6.4-1.2.8-1.9,1.2a105.25,105.25,0,0,1-12.8,6.9c-.5.2-1,.5-1.5.7A49.67,49.67,0,0,1,94.1,217c-.4,0-.7.1-1.1.1H91.2a54,54,0,0,1-12-2.2c-.5-.1-.9-.3-1.4-.4a141.18,141.18,0,0,1-15.7-6l-2.1-.9c-4.4-2-8.8-4.2-12.7-6.4a9.5,9.5,0,0,1-1.7-1c-2.9-1.7-5.6-3.4-7.9-5-1.2-.8-2.2-1.6-3.2-2.4-3.1-2.5-5-4.7-5.2-6.4-1.2-8.2,4.7-16.9,5.6-22.6s-3-18.9,6.1-22.4c.4-.2,1.3.1,4.7,3.1a8.74,8.74,0,0,0,1,.8q1.65,1.35,3.9,3.6a10,10,0,0,1,1.6,2,14.51,14.51,0,0,1,1,1.8c2.3,4.2,4.9,10.9,7.8,18l1.8,4.2c4,9.2,8.8,18.4,14.6,23a9.39,9.39,0,0,0,1.8,1.2,12.25,12.25,0,0,0,6.4,1.9,18.38,18.38,0,0,0,6.6-1.2,14.72,14.72,0,0,0,2.2-1c5.2-2.9,9-8.2,12.1-14,.6-1.1,1.2-2.1,1.7-3.2,2.9-5.9,5.3-11.8,7.8-16,.6-1,1.2-1.9,1.8-2.8a21,21,0,0,1,1.5-2.2,55.39,55.39,0,0,1,5.7-7.1l1.1-1.1a24.18,24.18,0,0,1,6-4.5,2.93,2.93,0,0,1,1.6-.4h0c7.9,6.8,4.1,19,4.5,21.7C139,171.8,147.1,180.7,144.1,187.5Z"/><path id="Tracé_4137" data-name="Tracé 4137" class="cls-2" d="M42.5,166.4c-3.9,8.8-9.3,19.2-4.7,28.7-1.2-.8-2.2-1.6-3.2-2.4-2.4-7.4.8-16.3,3.9-23.1,1.7-3.8,3.5-7.2,4-11.4.3-2.5.2-5.1.7-7.6a15.49,15.49,0,0,1,2.6-6.2,8.74,8.74,0,0,0,1,.8C43.5,151.4,45.5,159.8,42.5,166.4Z"/><path id="Tracé_4138" data-name="Tracé 4138" class="cls-2" d="M141.4,191.1c-.6.6-1.3,1.3-2.1,2a27.87,27.87,0,0,0-1.7-10.3c-1.4-3.8-3.6-7.1-4.8-11-1.2-3.7-.6-7.4-.2-11.2.3-2.8,1-9-.3-12.9a2.93,2.93,0,0,1,1.6-.4h0c1.9,4.7.8,12.6.4,15.8a19,19,0,0,0,2.4,13,38.55,38.55,0,0,1,3.2,7.2A26.29,26.29,0,0,1,141.4,191.1Z"/><path id="Tracé_4139" data-name="Tracé 4139" class="cls-2" d="M132.9,198.5c-.6.5-1.2.9-1.9,1.4,1.6-9.7-4-16.9-5.3-26.4-.9-6.1,1.2-13.8-.4-20.2l1.1-1.1c2.6,6,.4,15.3,1.2,20.9C128.8,181.5,134.7,190.1,132.9,198.5Z"/><path id="Tracé_4140" data-name="Tracé 4140" class="cls-2" d="M94.7,198.7c0,6.1-.3,12.1-.5,18.2-.4,0-.7.1-1.1.1-.8-5.7-.6-11.4-.5-17.2C93.3,199.4,94,199.1,94.7,198.7Z"/><path id="Tracé_4141" data-name="Tracé 4141" class="cls-2" d="M125,204.1c-.6.4-1.2.8-1.9,1.2,0-3.3-.2-6.7-.5-10-.7-5.7-3.2-10.4-4.3-15.9-.8-4.1.2-8.6.1-12.7a27.28,27.28,0,0,0-.3-4.1,21,21,0,0,1,1.5-2.2c.1.7.2,1.5.3,2.2.7,5.4-.4,11.1.5,16.4.9,4.8,3.2,9.2,3.9,14.2A56.54,56.54,0,0,1,125,204.1Z"/><path id="Tracé_4142" data-name="Tracé 4142" class="cls-2" d="M110.3,212.2c-.5.2-1,.5-1.5.7-.5-9.2-.9-18.4-1.9-27.6a.75.75,0,0,0-.1-.5c.6-1.1,1.2-2.1,1.7-3.2a21.12,21.12,0,0,0,.2,2.6C109.5,193.5,110.2,202.8,110.3,212.2Z"/><path id="Tracé_4143" data-name="Tracé 4143" class="cls-2" d="M79.3,214.7c-.5-.1-.9-.3-1.4-.4a52.27,52.27,0,0,1-.3-15.8c0-.2.1-.5.1-.7a9.39,9.39,0,0,0,1.8,1.2C78.9,204.3,79.3,209.5,79.3,214.7Z"/><path id="Tracé_4144" data-name="Tracé 4144" class="cls-2" d="M46.2,187.8A64.85,64.85,0,0,0,47.4,201a9.5,9.5,0,0,1-1.7-1c-1.9-8.2-1.8-16.8,1.4-24.8,1.5-3.7,2.7-6.7,3.1-10.8.2-2.4.3-4.7.6-7.1a24.51,24.51,0,0,1,1.6-6.6,14.51,14.51,0,0,1,1,1.8c-1.8,6.5-.6,13.8-3,20.1C48.3,178,46.4,182,46.2,187.8Z"/><path id="Tracé_4145" data-name="Tracé 4145" class="cls-2" d="M62.8,180.6c-.7,9.5-2,18.4-.7,27.8l-2.1-.9c-1.7-9.6.5-19.4.9-29,.1-2.6.1-5.2.2-7.8l1.8,4.2A36.57,36.57,0,0,1,62.8,180.6Z"/><path id="Tracé_4146" data-name="Tracé 4146" class="cls-11" d="M101.5,166c7-3,9.5-4.6,17-5.8a.47.47,0,0,1,.5.5.52.52,0,0,1-.2.4c-6.5,4-9.6,4.1-16.8,6.4a.88.88,0,0,1-1-.5.78.78,0,0,1,.5-1Z"/><path id="Tracé_4147" data-name="Tracé 4147" class="cls-11" d="M100.3,182c6.6,3.9,9.3,4.9,14.8,10.3a.43.43,0,0,1-.1.7.75.75,0,0,1-.5.1c-7.1-2.9-9-5.3-15.2-9.7a.79.79,0,0,1-.1-1.1,1,1,0,0,1,1.1-.3Z"/><path id="Tracé_4148" data-name="Tracé 4148" class="cls-11" d="M103.7,174.3c7.6-.3,16.1-1.1,23.6.3a.42.42,0,0,1,.3.6.32.32,0,0,1-.3.3c-7.5,1.4-16,.6-23.6.3a.81.81,0,0,1-.7-.9C103,174.7,103.3,174.4,103.7,174.3Z"/><path id="Tracé_4149" data-name="Tracé 4149" class="cls-11" d="M67,158.2c-6.1-4.6-8.1-6.7-15.2-9.7a.42.42,0,0,0-.6.3c-.1.2,0,.3.1.5,5.4,5.4,8.3,6.2,14.8,10.2a.8.8,0,0,0,1.1-.2.73.73,0,0,0-.2-1.1Z"/><path id="Tracé_4150" data-name="Tracé 4150" class="cls-11" d="M64.3,174.1c-7.3,2.2-10.2,2.6-16.8,6.4a.49.49,0,0,0-.1.7.76.76,0,0,0,.4.2c7.6-1.1,10-3,17-5.9a.73.73,0,0,0,.4-1,.75.75,0,0,0-.9-.4Z"/><path id="Tracé_4151" data-name="Tracé 4151" class="cls-11" d="M62.9,165.8c-7.3-2.1-15.4-4.9-23-5.3a.47.47,0,0,0-.5.5.52.52,0,0,0,.2.4c7,3.2,15.4,4.4,22.9,5.9a.78.78,0,0,0,.9-.6c.2-.3-.1-.8-.5-.9Z"/><g id="Groupe_333" data-name="Groupe 333" class="cls-7"><image id="Rectangle_566" data-name="Rectangle 566" class="cls-8" width="180" height="164" transform="translate(94.31 159.05) scale(0.31)" xlink:href="3C31666A.png"/></g></g></g></g></g></svg>