<?xml version="1.0" encoding="utf-8"?>
<!-- Generator: Adobe Illustrator 22.1.0, SVG Export Plug-In . SVG Version: 6.00 Build 0)  -->
<svg version="1.1" id="Layer_1" xmlns="http://www.w3.org/2000/svg" xmlns:xlink="http://www.w3.org/1999/xlink" x="0px" y="0px"
	 viewBox="0 0 551.3 810.5" style="enable-background:new 0 0 551.3 810.5;" xml:space="preserve">
<style type="text/css">
	.st0{fill:#FFFFFF;}
	.st1{fill:#C6866D;}
	.st2{opacity:0.5;}
	.st3{fill:#F0A183;}
	.st4{opacity:0.8;fill:url(#SVGID_1_);enable-background:new    ;}
	.st5{fill:#33363D;}
	.st6{fill:#9E5E4A;}
	.st7{fill:#3A312B;}
	.st8{fill:#D69487;}
	.st9{fill:#F7C961;}
	.st10{fill:#E0B451;}
	.st11{fill:url(#Tracé_4111_1_);}
	.st12{fill:#F6EEE6;}
</style>
<title>4th</title>
<g>
	<g id="Layer_1_1_">
		<ellipse class="st0" cx="275.6" cy="341.7" rx="275.6" ry="341.7"/>
		<path class="st1" d="M195.6,454.5c-3.5,20,19.5,153.1,29.9,170.6s69.8,29,111,5.5c12-6.8,12.6-173.8,12.6-173.8L195.6,454.5z"/>
		<g class="st2">
			
				<image style="overflow:visible;enable-background:new    ;" width="228" height="263" xlink:href="50D68974.png"  transform="matrix(0.9956 0 0 0.9956 158.32 418.5067)">
			</image>
		</g>
		<path class="st3" d="M155.2,120c-46.3,40.3-68.9,106.5-47.7,232.5S193.2,544.1,312.1,535c107.9-8.2,131.7-67.2,140.8-100.5
			s0.2-66.4,0-97.5c-0.2-25.9,13.3-115.4-25.9-188.2C381.3,63.8,226.7,57.7,155.2,120z"/>
		
			<linearGradient id="SVGID_1_" gradientUnits="userSpaceOnUse" x1="552.2012" y1="366.0384" x2="511.9911" y2="582.7584" gradientTransform="matrix(1 0 0 -1 -261.88 706.25)">
			<stop  offset="0" style="stop-color:#D65959;stop-opacity:0"/>
			<stop  offset="1" style="stop-color:#D64762"/>
		</linearGradient>
		<path class="st4" d="M155.2,112.6c-46.3,40.3-68.9,106.5-47.7,232.5s85.7,191.5,204.6,182.5c107.9-8.2,131.7-67.2,140.8-100.5
			s0.2-66.4,0-97.5c-0.2-25.9,13.3-115.4-25.9-188.2C381.3,56.5,226.7,50.4,155.2,112.6z"/>
		<path class="st5" d="M124.1,371.4c39.5,7.6,69.2-23.3,68.2-59s-35.3-61.7-14.6-94.4s53.4-10.9,80.2-14.8
			c28.5-4.2,30.7-22.3,57.7-26.5c30.9-4.8,63.7,40.9,119.3,36.3c58.8-4.9,80.3-69.4,61-125c-15.5-44.4-67.5-60-107.9-55.9
			s-67.5,30.2-100.9,35.9c-22.7,3.9-70.1-9.6-99.8-1c-18.3,5.4-34.9,15.3-48.4,28.7c0,0,9.8-33.5-1.3-34.3s-6.5,36-6.5,36
			s-30.5-6-29.5,3.5s26.5,5.4,26.5,5.4s-74.9,23.9-85.1,87S76.8,362.3,124.1,371.4z"/>
		<path class="st5" d="M32.8,230.2c-0.8-24,5.2-48.8,19.1-68.6c15.3-21.7,39.1-33.7,62.2-45.3c0,0,0-0.1,0-0.1
			c-46.4,18.9-82,50.4-84.6,103.7c-2.9,57.5,32.5,105.2,74,140.7c0.5,0.5,1.4-0.3,0.8-0.8C66.9,326.6,34.6,282,32.8,230.2z"/>
		<path class="st5" d="M472.6,49.8c-0.9-0.7-1.8-1.3-2.7-1.9C470.9,48.5,471.8,49.2,472.6,49.8z"/>
		<path class="st5" d="M470,47.9l-0.4-0.3L470,47.9z"/>
		<path class="st5" d="M390.7,36.8c-0.1,0-0.1,0.1-0.1,0.2c0,0.1,0.1,0.1,0.2,0.1c21.8-5.9,45.5-3.3,66.7,4.4
			c4.3,1.6,8.4,3.6,12.2,6.1C447.5,32.7,419.3,28.3,390.7,36.8z"/>
		<path class="st5" d="M507.7,103.1c-6-22.5-18.1-40.3-33.9-52.5c14.6,11.4,25,29.1,30.8,46.8c16,48.4-12,108.1-66,103
			c-0.7-0.1-0.6,1,0,1C490.9,207.4,520.5,151.5,507.7,103.1z"/>
		<path class="st5" d="M473.8,50.7c-0.4-0.3-0.8-0.6-1.2-0.9L473.8,50.7z"/>
		<path class="st5" d="M195.7,298.5c-2.6-9.5-6.3-18.7-11.2-27.3c-8.6-15.8-13.7-28.5-11.5-47c0-0.5-0.6-0.5-0.7,0
			c-2.7,18.9-0.2,28.9,8.7,45.3c14.2,26.1,21.9,54.6,6.1,81.9c-0.2,0.4,0,0.8,0.4,1c0.3,0.1,0.7,0.1,0.9-0.2
			C198.8,335.6,200.5,317.2,195.7,298.5z"/>
		<path class="st3" d="M159,367.4c0,0-28.2-38.8-68.5-33.8S52.9,405.5,93,434.9c37.8,27.7,66,13.6,66,13.6L159,367.4z"/>
		<path class="st6" d="M82.1,363.6c-0.3,0-0.2,0.5,0.1,0.5c34.6,0.9,47.8,35.5,50.1,41c-1.8-1.1-3.6-2.1-5.5-2.9
			c-10.5-4.6-20.5-3.4-30.6,1.2c-0.4,0.2-0.1,0.9,0.3,0.8c9-3.1,18.8-0.7,27.1,3.6c7.6,3.9,14.6,9.2,19.1,16.1
			C143,424.2,138.6,353.6,82.1,363.6z"/>
		<g class="st2">
			
				<image style="overflow:visible;enable-background:new    ;" width="183" height="170" xlink:href="50D68975.png"  transform="matrix(0.9941 0 0 0.9941 200.3582 231.43)">
			</image>
		</g>
		<g class="st2">
			
				<image style="overflow:visible;enable-background:new    ;" width="154" height="170" xlink:href="50D6897A.png"  transform="matrix(0.9935 0 0 0.9935 337.32 227.4819)">
			</image>
		</g>
		<path class="st6" d="M269.1,348c-3.9-1-20.7,4.3-23.5,7.6c-0.3,0.3-0.3,0.7,0,1c0.1,0.1,0.2,0.1,0.3,0.2
			c4.2,1.2,21.1-3.8,23.8-6.8c0.4-0.5,0.4-1.2,0-1.7C269.5,348.1,269.3,348,269.1,348z"/>
		<path class="st6" d="M274.4,355c-4,0.5-14.6,9.4-16.1,13.5c-0.2,0.3,0,0.8,0.3,0.9c0.1,0.1,0.2,0.1,0.4,0.1
			c4.3-0.5,15.2-9.1,16.6-12.9c0.3-0.6,0-1.3-0.6-1.6C274.8,355,274.6,355,274.4,355z"/>
		<path class="st6" d="M421.4,342.5c3.3-1.4,18.7,1.9,21.6,4.9c0.3,0.3,0.3,0.7,0.1,1c0,0.1-0.1,0.1-0.2,0.1
			c-3.5,1.6-19-1.4-21.7-4.1c-0.5-0.5-0.5-1.2-0.1-1.7C421.2,342.6,421.3,342.5,421.4,342.5z"/>
		<path class="st6" d="M417.7,350c3.6,0.1,14,7.7,15.8,11.6c0.2,0.5,0,1-0.5,1c-3.8,0-14.5-7.3-16.2-10.9
			C416.5,351,416.9,350,417.7,350z"/>
		<path class="st6" d="M310.6,427.9c-5.6,2.2-24.8,10.5-27.2-12.2c-0.1-1.1-1.2-1.7-1.3-0.7c-2.6,25.7,20.5,24.7,29.6,14
			C312.7,427.9,312,427.3,310.6,427.9z"/>
		<path class="st5" d="M287.5,251.3c-9.4,5.1-27.1,0.9-29.8,14.6c-2.2,11.4,22.2,20.6,41.5,11.6c21.6-10.1,25.4-34.1,16.7-39
			C302.8,231,295.7,246.8,287.5,251.3z"/>
		<path class="st5" d="M396.4,237.9c-11,6.7-4.7,27,14,35.2c14,6.1,32-0.4,32-11c0-10.2-16.6-7.7-21.9-11.4
			C413.8,246,405.6,232.4,396.4,237.9z"/>
		<path class="st6" d="M383.5,282.3c0.6-2.2-18.3,32.1-18.3,59.8c0,19.3,8,28,20,28.9c13.1,1,26.9-11.8,23.2-19.1
			c-4.6-9.1-18.7,1.1-27.4-9.1C372.5,332.8,376.1,308.8,383.5,282.3z"/>
		<path class="st6" d="M333.5,495.2c-6.1-3-13.6,0.7-15.7,7c-2.3,7.1,3,14.1,10.4,15.9c2,0.5,2.2-0.8,0.5-1.8
			c-3.3-1.9-6.3-3.8-7.2-7.8c-1-3.9,1-8,4.7-9.6c3.3-1.4,7.1,0.1,8.5,3.3c0.1,0.3,0.2,0.6,0.3,0.9c0.7,2.8-0.8,4.7-3.7,4.5
			c-1.6-0.1-3.8-2.7-4.2-4.2c-0.1-0.2-0.3-0.3-0.5-0.3c-0.1,0-0.2,0.1-0.3,0.3c-1.7,5.3,5.2,10.6,10,7.2
			C341.9,506.6,338.8,497.8,333.5,495.2z"/>
		<path class="st7" d="M303.1,334.2c0,7.5-4.3,13.7-9.6,13.7s-9.6-6.1-9.6-13.7s4.3-13.7,9.6-13.7S303.1,326.6,303.1,334.2z"/>
		<path class="st7" d="M414,329.9c0,7.5-4.3,13.7-9.6,13.7s-9.6-6.1-9.6-13.7s4.3-13.6,9.6-13.6S414,322.4,414,329.9z"/>
		<path class="st0" d="M320.7,404.5l-1.1,1c-1.6,1.4-4.1,1.3-5.5-0.3l-53.7-58.6c-1.5-1.6-1.3-4.1,0.3-5.5c0,0,0,0,0.1-0.1l3.5-3.1
			c1.6-1.4,4.1-1.3,5.5,0.3c0,0,0,0,0.1,0.1l51.3,60.7C322.5,400.7,322.3,403.1,320.7,404.5z"/>
		<path class="st0" d="M269.3,323.4c5.7,6.5,5,16.5-1.5,22.2c-6.5,5.7-16.5,5-22.2-1.5c-5.7-6.5-5-16.4,1.5-22.1
			C253.6,316.1,263.6,316.8,269.3,323.4C269.3,323.3,269.3,323.3,269.3,323.4z"/>
		<path class="st8" d="M265.8,326.4c4.1,4.6,3.6,11.6-1,15.7c-4.6,4.1-11.6,3.6-15.7-1s-3.6-11.6,1-15.7c0,0,0,0,0,0
			C254.8,321.3,261.8,321.8,265.8,326.4z"/>
		<path class="st8" d="M318,402.2l-0.5,0.5c-0.7,0.6-2.4-0.1-3.8-1.6l-50.8-56.8c-1.4-1.6-1.9-3.4-1.2-4.1l1.6-1.4
			c0.8-0.7,2.5,0.1,3.9,1.7l49.7,57.8C318.3,399.8,318.8,401.5,318,402.2z"/>
		<path class="st6" d="M378,420.8c-5.2-4.6-9.7-4.5-16-5.7c-11-2-16.8-8.8-26.9-12.3c-12.6-4.4-24.3,1.1-34.2,9.7
			c-0.1,0.1-0.1,0.3,0,0.4c0.1,0.1,0.2,0.1,0.3,0.1c7.1-3.9,14.8-6.9,22.9-6.7c9.7,0.2,15.2,5.6,23,10.5c9.3,5.8,20,1.9,30.2,5.7
			C378.3,422.7,378.7,421.4,378,420.8z"/>
		<path class="st9" d="M467,607.2c-1.3,3-4.4,7-8.8,11.7c-2,2.1-4.2,4.3-6.7,6.6c-5.8,5.4-12.8,11.3-20.8,17.4c-2,1.5-4,3-6.1,4.5
			l0,0c-6.2,4.6-12.8,9.2-19.7,13.6c-2,1.3-4,2.6-6.1,3.9c-13.3,8.3-27.1,15.8-41.4,22.3c-1.7,0.7-3.3,1.5-4.9,2.1
			c-16.5,7-32.8,11.8-47.3,13.1l-3.6,0.3c-2,0-3.9,0.1-5.8,0c-10.9-0.4-24.3-3-38.9-7.2c-1.5-0.4-3-0.9-4.5-1.3
			c-17.4-5.4-34.4-11.8-51-19.3c-2.2-1-4.4-1.9-6.6-2.9c-14.4-6.6-28.4-13.7-41.2-20.8c-1.9-1-3.7-2.1-5.5-3.2
			c-9.4-5.4-18-10.9-25.4-16.1c-3.8-2.7-7.2-5.3-10.3-7.8c-10-8.1-16.3-15.3-17-20.6c-3.9-26.5,15.1-54.8,18.1-73.2
			s-9.8-61.2,19.8-72.6c4.8-1.8,10.3,1.1,18.4,6.3c0.9,0.6,1.8,1.2,2.7,1.8c5.7,3.7,12.5,8.3,21.2,13c1,0.5,2,1,3.1,1.6
			c10.8,5.6,22,10.2,33.6,13.8l2.8,0.8c14.7,4.3,29.8,7.3,45,9c1.1,0.2,2.3,0.3,3.4,0.4c4.8,0.5,9.8,1,15,1.3
			c8.1,0.5,15.8,0.8,23.2,0.8h1.7c12.2,0,24.3-0.8,36.4-2.3l3.8-0.5c11.3-1.6,22.4-4.1,33.3-7.4c1.3-0.4,2.5-0.8,3.7-1.2
			c7.3-2.4,14.5-5.2,21.5-8.5l2.5-1.2c7.4-3.7,14.7-7.7,21.7-12.1c1.3-0.8,2.6-1.6,3.8-2.3c7.4-4.5,11.9-6.7,14.9-4.1
			c25.7,21.9,2.1,72.1,3.7,80.9S476.7,585.2,467,607.2z"/>
		<path class="st10" d="M137.9,538.9c-12.8,28.5-30.2,62.2-15.3,92.8c-3.8-2.7-7.2-5.3-10.3-7.8c-7.7-24,2.6-52.9,12.5-74.7
			c5.6-12.3,11.2-23.3,12.9-37c1-8.2,0.8-16.6,2.4-24.7c1.9-9.4,5.2-17.4,11.6-23.8c0.9,0.6,1.8,1.2,2.7,1.8
			C140,486.3,148.3,515.7,137.9,538.9z"/>
		<path class="st10" d="M458.2,618.9c-2,2.1-4.2,4.3-6.7,6.6c0.1-11.3-1.2-22-5.4-33.2c-4.6-12.4-11.5-23.1-15.5-35.6
			c-3.8-12.1-2.1-24-0.8-36.2c1.1-10.4,4.1-35.8-3.5-47.4c1.3-0.8,2.6-1.6,3.8-2.3c11.3,12.8,6.8,45.7,5,57.7
			c-2.4,16.2,0.2,28.5,7.8,42.1c4.2,7.4,7.7,15.2,10.5,23.3C456.2,601.9,457.8,610.3,458.2,618.9z"/>
		<path class="st10" d="M430.7,642.9c-2,1.5-4,3-6.1,4.5c5-31.6-12.9-54.7-17.3-85.7c-3.4-23.2,6.5-53.6-5.1-75.4l2.5-1.2
			c15.4,18.2,5.5,54.6,8.6,75.5C417.2,587.7,436.6,615.5,430.7,642.9z"/>
		<path class="st10" d="M305.1,702.3l-3.6,0.3c-4.6-33.3,0.5-67.5-3.1-101.1c-3.6-33.1-3.9-63,3.3-95.2h1.7
			c-3.3,31.8-2,63.5,1.4,95.2C308.3,634.8,306.7,668.9,305.1,702.3z"/>
		<path class="st10" d="M404.9,661c-2,1.3-4,2.6-6.1,3.9c-0.2-10.8-0.4-21.6-1.7-32.3c-2.1-18.4-10.5-33.7-13.9-51.4
			c-2.5-13.1,0.7-28,0.4-41.3c-0.3-15.1-2.9-29.5-6.6-43.9c1.3-0.4,2.5-0.8,3.7-1.2c4.1,10.1,6.7,20.8,7.9,31.7
			c2.2,17.6-1.3,35.9,1.8,53.1c2.9,15.7,10.2,30,12.5,46.1C404.6,637.4,405.2,649.2,404.9,661z"/>
		<path class="st10" d="M357.4,687.2c-1.7,0.7-3.3,1.5-4.9,2.1c-1.7-29.9-2.8-59.6-6-89.4c-3.4-31.2-6.3-64.2-6.5-95.9l3.8-0.5
			c6.9,30.4,6.1,61.8,8.8,92.8C354.9,626.5,357,656.7,357.4,687.2z"/>
		<path class="st10" d="M257.5,643c-1.8,17.5-0.6,34.8-0.6,52.4c-1.5-0.4-3-0.9-4.5-1.3c-3.2-16.8-2.7-34.1-1-51
			c1.8-17.3,7-34,5.2-51.5c-3.2-29.9-8.1-59.4,3.6-87.7c1.1,0.2,2.3,0.3,3.4,0.4c-3.4,17.2-4.8,34.7-4,52.2
			c0.8,14.4,4.3,28.9,4.3,43.3S259,628.6,257.5,643z"/>
		<path class="st10" d="M149.8,608.1c-0.7,14.4,1.5,28.6,3.8,42.9c-1.9-1-3.7-2.1-5.5-3.2c-6.3-26.7-5.8-54.5,4.5-80.3
			c4.9-12.2,8.8-21.6,10-34.9c0.8-7.7,0.9-15.3,2-23c1.6-11.7,3.6-22.4,11-31.1c1,0.5,2,1,3.1,1.6c-13.8,23.9-5.7,53.7-15.5,79
			C156.6,576.4,150.6,589.3,149.8,608.1z"/>
		<path class="st10" d="M215.1,494.8c-4.1,15.1-9.1,29.3-10.3,45.3c-1.1,14.9-0.1,29.9-1.2,44.8c-2.1,30.8-6.6,59.6-2.3,90
			c-2.2-1-4.4-1.9-6.6-2.9c-5.6-31,1.6-62.9,3-94.1c1.3-28.7-1.9-58.9,14.6-83.8L215.1,494.8z"/>
		<g class="st2">
			
				<image style="overflow:visible;enable-background:new    ;" width="278" height="164" xlink:href="50D6897B.png"  transform="matrix(0.9939 0 0 0.9939 77.6676 481.43)">
			</image>
		</g>
		<g class="st2">
			
				<image style="overflow:visible;enable-background:new    ;" width="195" height="138" xlink:href="50D6897C.png"  transform="matrix(0.9928 0 0 0.9928 289.5265 515.43)">
			</image>
		</g>
		<g class="st2">
			
				<image style="overflow:visible;enable-background:new    ;" width="100" height="166" xlink:href="50D68979.png"  transform="matrix(0.99 0 0 0.99 169.32 189.76)">
			</image>
		</g>
		<g class="st2">
			
				<image style="overflow:visible;enable-background:new    ;" width="93" height="132" xlink:href="50D68978.png"  transform="matrix(0.9892 0 0 0.9892 192.32 185.6397)">
			</image>
		</g>
		<g class="st2">
			
				<image style="overflow:visible;enable-background:new    ;" width="89" height="121" xlink:href="50D68967.png"  transform="matrix(0.9888 0 0 0.9888 158.32 178.6098)">
			</image>
		</g>
	</g>
</g>
<g id="_2nd" transform="translate(-324 -656)">
	<g id="Layer_1_2_" transform="translate(324 656)">
		<ellipse id="Ellipse_258" class="st0" cx="283.9" cy="339.9" rx="281.7" ry="349.3"/>
		<path id="Tracé_4109" class="st10" d="M456.4,519.4c-1,18.9-5,37.7-3,56.6c1.3,13.6,3.3,25.2-3.6,38.1
			c-6,11.6-15.9,20.9-26.2,28.8c-24.2,18.5-52.6,31.1-82.4,36.8c-28.8,5.6-58.3,5-86.7-1.7c-28.1-6.6-61.2-19.5-78.8-43.4
			s-15.6-55-21.2-82.8c-4-20.5-14.9-36.1-23.5-54.3c-7-14.6-3.3-36.1,6.3-41.4c30.1-16.2,65.6-4.3,96,6.3
			c21.2,7.6,42.4,13.6,65.2,15.2c23.2,1.7,45.4-1.7,68.2-5c16.9-2.3,34.1-4.6,51.3-2.3c10.6,1.3,25.5,3.6,33.1,12.2
			C458.4,491.9,456.8,508.4,456.4,519.4z"/>
		<path id="Tracé_4110" class="st3" d="M202.2,455.1c-3.6,20.5,19.9,156.6,30.5,174.5c10.6,17.9,71.5,29.8,113.6,5.6
			c12.3-7,12.9-177.8,12.9-177.8L202.2,455.1z"/>
		
			<linearGradient id="Tracé_4111_1_" gradientUnits="userSpaceOnUse" x1="-893.0745" y1="292.467" x2="-894.2382" y2="290.5196" gradientTransform="matrix(58.3496 0 0 71.8444 52434.5625 -20411.5273)">
			<stop  offset="0" style="stop-color:#D65959;stop-opacity:0"/>
			<stop  offset="1" style="stop-color:#D64762"/>
		</linearGradient>
		<path id="Tracé_4111" class="st11" d="M202.8,455.5c-3.6,20.5,19.9,156.6,30.5,174.5s71.5,29.8,113.6,5.6
			c12.2-7,12.9-177.8,12.9-177.8L202.8,455.5z"/>
		<path id="Tracé_4112" class="st3" d="M147.5,127.7c-44.4,44.4-62.6,113.6-31.8,240.4s101,189,221.8,171.2
			C446.8,523,467,461.1,474,426.7s-4.6-67.5-7-99.3c-2-26.5,5.3-118.5-40.1-190C374,53.9,216.1,58.8,147.5,127.7z"/>
		<path id="Tracé_4113" class="st5" d="M134,385.9c40.7,5,68.9-28.8,65.2-65.2s-40.4-60.3-21.9-95.4s53.6-14.9,80.8-20.9
			c28.8-6.3,29.8-24.8,56.9-31.1c31.1-7.3,67.9,37.1,124.2,28.5c59.6-9.3,76.8-76.5,53.3-131.8c-18.9-44.4-73.2-56.3-113.9-49.3
			c-40.7,7-66.5,35.8-100.3,44c-22.8,5.6-72.2-4.6-102,6.3c-18.2,7-34.4,18.2-47.3,32.8c0,0,7.6-34.8-3.6-34.8s-4,37.1-4,37.1
			s-31.5-4-29.8,5.6s27.5,3.6,27.5,3.6s-74.5,29.8-80.5,95C32.6,275.4,85.3,380.3,134,385.9z"/>
		<path id="Tracé_4114" class="st5" d="M30.7,248.5c-2.6-24.5,1.7-50,14.6-71.2c13.9-23.2,37.4-37.1,60.3-50.7l0,0
			c-46,22.5-79.8,57.3-78.8,111.9c1.3,58.9,40.7,105,85.4,138.1c0.7,0.3,1.3-0.3,0.7-1C72.4,344.5,36.3,301.5,30.7,248.5z"/>
		<path id="Tracé_4115" class="st5" d="M466.4,33c-1-0.7-2-1.3-3-1.7C464.4,32,465.4,32.7,466.4,33z"/>
		<path id="Tracé_4116" class="st5" d="M463.4,31.3l-0.3-0.3L463.4,31.3z"/>
		<path id="Tracé_4117" class="st5" d="M381.6,25.7C381.6,25.7,381.6,26,381.6,25.7C381.6,26,381.6,26,381.6,25.7
			C381.9,26,381.9,26,381.6,25.7c21.9-7.3,46.4-6.3,68.2,0c4.6,1.3,8.9,3,12.9,5.3C439.5,17.4,410.4,15.1,381.6,25.7z"/>
		<path id="Tracé_4118" class="st5" d="M505.8,85c-6.6-20.9-20.2-38.7-38.4-51c15.6,10.6,27.5,27.8,34.8,45.4
			c19.9,48-4.3,111.2-59.9,109.6c-0.7,0-0.7,1,0,1C496.2,192.6,522.3,133.3,505.8,85z"/>
		<path id="Tracé_4119" class="st5" d="M467.4,34c-0.3-0.3-0.7-0.7-1.3-0.7L467.4,34z"/>
		<path id="Tracé_4120" class="st5" d="M201.8,306.5c-3.3-9.6-7.9-18.5-13.2-26.8c-9.9-15.6-15.9-28.1-15.2-47c0-0.3-0.7-0.3-0.7,0
			c-1.3,19.5,2,29.5,12.2,45.7c16.2,25.5,26.2,54,12.2,83.1c-0.3,0.3,0,1,0.3,1c0.3,0,0.7,0,1-0.3
			C207.5,344.2,208.1,325.3,201.8,306.5z"/>
		<path id="Tracé_4121" class="st3" d="M169.4,379.3c0,0-31.5-37.4-72.2-29.5c-40.7,7.9-33.1,76.1,9.9,103
			c40.4,25.5,68.2,9.3,68.2,9.3L169.4,379.3z"/>
		<path id="Tracé_4122" class="st6" d="M90.6,381C90.6,381,90.3,381.3,90.6,381c-0.3,0.3-0.3,0.7,0,0.7l0,0
			c35.4-1.7,51.3,32.8,54,38.1c-2-1-4-2-6-2.6c-10.9-4-21.2-2-31.1,3.3c-0.3,0.3,0,1,0.3,0.7c8.9-4,19.2-2,27.8,1.7
			c7.9,3.3,15.2,8.3,20.5,14.9C157.1,438.6,147.5,367.1,90.6,381z"/>
		<g id="Groupe_329" transform="translate(76.125 89.134)" class="st2">
			
				<image style="overflow:visible;enable-background:new    ;" width="184" height="171" id="Rectangle_562" xlink:href="3C31666D.png"  transform="matrix(0.3058 0 0 0.3058 174.1847 280.6425)">
			</image>
		</g>
		<g id="Groupe_330" transform="translate(127.884 84.149)" class="st2">
			
				<image style="overflow:visible;enable-background:new    ;" width="155" height="174" id="Rectangle_563" xlink:href="3C31666F.png"  transform="matrix(0.3033 0 0 0.3033 164.4875 281.6414)">
			</image>
		</g>
		<path id="Tracé_4123" class="st7" d="M313.7,335.3c0.7,7.6-3.3,14.2-8.9,14.6c-5.3,0.3-10.3-5.6-10.6-13.2
			c-0.7-7.6,3.3-14.2,8.9-14.6C308.4,321.7,313.4,327.7,313.7,335.3z"/>
		<path id="Tracé_4124" class="st7" d="M426.6,323c0.7,7.6-3.3,14.2-8.9,14.6c-5.6,0.3-10.3-5.6-10.6-13.2
			c-0.7-7.6,3.3-14.2,8.9-14.6C421.3,309.1,426,315.1,426.6,323z"/>
		<path id="Tracé_4125" class="st6" d="M280.3,351.8c-4-0.7-20.9,6-23.5,9.3c-0.3,0.3-0.3,0.7,0,1h0.3c4.3,1,21.2-5.3,23.8-8.6
			c0.3-0.3,0.3-1.3,0-1.7C280.6,351.8,280.3,351.8,280.3,351.8L280.3,351.8z"/>
		<path id="Tracé_4126" class="st6" d="M285.9,358.5c-4,0.7-14.2,10.6-15.6,14.9c0,0.3,0,0.7,0.3,1h0.3
			c4.3-0.7,14.9-10.3,15.9-14.2c0.3-0.7,0-1.3-0.7-1.7C286.6,358.5,286.3,358.5,285.9,358.5z"/>
		<path id="Tracé_4127" class="st6" d="M435.2,335.3c3.3-1.7,19.2,0.7,22.5,3.3c0.3,0.3,0.3,0.7,0,1l0,0c-3.3,2-19.5,0-22.5-2.6
			C434.6,336.9,434.6,335.9,435.2,335.3C434.9,335.3,434.9,335.3,435.2,335.3L435.2,335.3z"/>
		<path id="Tracé_4128" class="st6" d="M431.9,343.2c3.6-0.3,14.9,7,16.9,10.6c0.3,0.3,0,0.7-0.3,1c0,0,0,0-0.3,0
			c-4,0.3-15.2-6.3-17.2-9.9c-0.3-0.7-0.3-1.3,0.3-1.7C431.6,343.2,431.6,343.2,431.9,343.2z"/>
		<path id="Tracé_4129" class="st6" d="M325.3,436.3c-6,1.3-26.8,6.3-25.2-16.9c0-1-1-2-1.3-1c-7,25.5,16.2,28.5,27.5,19.2
			C327.6,436.6,327,435.9,325.3,436.3z"/>
		<path id="Tracé_4130" class="st5" d="M291.9,251.8c-9.3,6-27.5,3-29.5,16.9c-1.3,11.6,24.2,19.5,43,8.9
			c21.2-11.9,23.5-36.7,14.2-41.1C306.1,230,300.2,246.9,291.9,251.8z"/>
		<path id="Tracé_4131" class="st5" d="M402.1,230.3c-10.6,7.6-3,27.8,16.9,34.8c14.9,5.3,32.8-2.6,31.8-13.6
			c-0.7-10.3-17.5-6.6-23.2-9.9C420.3,237.3,411.1,224,402.1,230.3z"/>
		<path id="Tracé_4132" class="st6" d="M392.2,276.7c0.3-2.3-16.2,34.1-14.2,62.2c1.3,19.9,10.3,27.8,22.5,28.1
			c13.6,0,26.5-13.9,22.2-21.2c-5.3-8.9-18.9,2.3-28.5-7.3C384.6,328.7,386.6,304.2,392.2,276.7z"/>
		<path id="Tracé_4133" class="st6" d="M356.4,497.2c-6.3-2.3-12.9,1-15.2,7.3c0,0.3-0.3,0.7-0.3,1c-2,7.3,4,14.2,11.6,15.6
			c2,0.3,2.3-1,0.3-2c-3.3-1.7-6.6-3.3-7.9-7.6c-1.3-4,0.3-8.3,4-10.3c3.3-1.7,7.3-0.3,8.9,3c0,0.3,0.3,0.7,0.3,0.7
			c1,1.7,0.3,3.6-1.3,4.6c-0.7,0.3-1.3,0.3-2,0.3c-1.7,0-4-2.3-4.6-4c0-0.3-0.3-0.3-0.7-0.3c0,0-0.3,0-0.3,0.3
			c-0.7,3.6,2,7.3,5.6,7.9c1.7,0.3,3.6,0,5-1.3C365.7,508.1,362.1,499.5,356.4,497.2z"/>
		<path id="Tracé_4134" class="st6" d="M406.4,417.7c-4.6-4.3-10.9-7-17.2-7c-4.3,0-7.6,1.7-11.9,2.6c-9.9,1.7-13.2-1.7-19.5-7
			c-12.6-10.3-31.5-2.6-44,4.6c-0.3,0.3-0.3,0.7-0.3,1c0.3,0.3,0.3,0.3,0.7,0.3c10.9-2,18.9-6.6,30.1-5c6.6,1,8.3,3.3,14.6,8.3
			c1.3,1.3,3.3,2.3,5,3.3c2.6,1.3,5.3,1.7,8.3,1.3c12.6-1.3,19.9-8.6,33.1-1.3C406.1,419.4,407.1,418.4,406.4,417.7z"/>
		<path id="Tracé_4136" class="st9" d="M479.3,611.4c-2.3,4.3-5.3,8.6-8.9,11.9c-2,2-4.3,4.3-7,6.6c-6,5.6-12.9,11.6-21.2,17.9
			c-2,1.7-4,3-6.3,4.6l0,0c-6.3,4.6-12.9,9.3-20.2,13.9c-2,1.3-4,2.6-6.3,4c-13.6,8.6-27.8,16.2-42.4,22.8c-1.7,0.7-3.3,1.7-5,2.3
			c-15.2,7-31.8,11.6-48.3,13.6c-1.3,0-2.3,0.3-3.6,0.3c-2,0-4,0-6,0c-13.6-1-26.8-3.3-39.7-7.3c-1.7-0.3-3-1-4.6-1.3
			c-17.9-5.6-35.1-12.3-52-19.9c-2.3-1-4.6-2-7-3c-14.6-6.6-29.1-13.9-42-21.2c-2-1-4-2-5.6-3.3c-9.6-5.6-18.5-11.3-26.2-16.6
			c-4-2.6-7.3-5.3-10.6-7.9c-10.3-8.3-16.6-15.6-17.2-21.2c-4-27.1,15.6-56,18.5-74.8c3-18.9-9.9-62.6,20.2-74.2
			c1.3-0.7,4.3,0.3,15.6,10.3c1,1,2,1.7,3.3,2.6c3.6,3,7.9,7,12.9,11.9c2,2,4,4.3,5.3,6.6c1,1.7,2.3,3.6,3.3,6
			c7.6,13.9,16.2,36.1,25.8,59.6c2,4.6,4,9.3,6,13.9c13.2,30.5,29.1,60.9,48.3,76.1c2,1.7,4,3,6,4c6.3,4,13.9,6.3,21.2,6.3
			c7.6,0,14.9-1.3,21.9-4c2.6-1,5-2,7.3-3.3c17.2-9.6,29.8-27.1,40.1-46.4c2-3.6,4-7,5.6-10.6c9.6-19.5,17.5-39.1,25.8-53
			c2-3.3,4-6.3,6-9.3c1.7-2.6,3.3-5.3,5-7.3c5.6-8.3,11.9-16.2,18.9-23.5c1.3-1.3,2.3-2.3,3.6-3.6c5.6-6,12.6-10.9,19.9-14.9
			c1.7-1,3.3-1.3,5.3-1.3l0,0l0,0c26.2,22.5,13.6,62.9,14.9,71.8C462.4,559.4,489.2,588.9,479.3,611.4z"/>
		<path id="Tracé_4137" class="st10" d="M142.9,541.5c-12.9,29.1-30.8,63.6-15.6,95c-4-2.6-7.3-5.3-10.6-7.9
			c-7.9-24.5,2.6-54,12.9-76.5c5.6-12.6,11.6-23.8,13.2-37.7c1-8.3,0.7-16.9,2.3-25.2c1.3-7.3,4.3-14.6,8.6-20.5c1,1,2,1.7,3.3,2.6
			C146.2,491.9,152.8,519.7,142.9,541.5z"/>
		<path id="Tracé_4138" class="st10" d="M470.3,623.3c-2,2-4.3,4.3-7,6.6c0.3-11.6-1.7-23.2-5.6-34.1
			c-4.6-12.6-11.9-23.5-15.9-36.4c-4-12.3-2-24.5-0.7-37.1c1-9.3,3.3-29.8-1-42.7c1.7-1,3.3-1.3,5.3-1.3l0,0l0,0
			c6.3,15.6,2.6,41.7,1.3,52.3c-2.6,14.9,0.3,30.1,7.9,43c4.3,7.6,7.9,15.6,10.6,23.8C468.4,605.8,470,614.7,470.3,623.3z"/>
		<path id="Tracé_4139" class="st10" d="M442.2,647.8c-2,1.7-4,3-6.3,4.6c5.3-32.1-13.2-56-17.5-87.4c-3-20.2,4-45.7-1.3-66.9
			c1.3-1.3,2.3-2.3,3.6-3.6c8.6,19.9,1.3,50.7,4,69.2C428.6,591.5,448.2,620,442.2,647.8z"/>
		<path id="Tracé_4140" class="st10" d="M315.7,648.5c0,20.2-1,40.1-1.7,60.3c-1.3,0-2.3,0.3-3.6,0.3c-2.6-18.9-2-37.7-1.7-56.9
			C311.1,650.8,313.4,649.8,315.7,648.5z"/>
		<path id="Tracé_4141" class="st10" d="M416,666.4c-2,1.3-4,2.6-6.3,4c0-10.9-0.7-22.2-1.7-33.1c-2.3-18.9-10.6-34.4-14.2-52.6
			c-2.6-13.6,0.7-28.5,0.3-42c0-4.6-0.3-9.3-1-13.6c1.7-2.6,3.3-5.3,5-7.3c0.3,2.3,0.7,5,1,7.3c2.3,17.9-1.3,36.8,1.7,54.3
			c3,15.9,10.6,30.5,12.9,47C415.7,642.2,416.4,654.1,416,666.4z"/>
		<path id="Tracé_4142" class="st10" d="M367.4,693.2c-1.7,0.7-3.3,1.7-5,2.3c-1.7-30.5-3-60.9-6.3-91.4c0-0.7,0-1.3-0.3-1.7
			c2-3.6,4-7,5.6-10.6c0,3,0.3,6,0.7,8.6C364.7,631.3,367,662.1,367.4,693.2z"/>
		<path id="Tracé_4143" class="st10" d="M264.7,701.5c-1.7-0.3-3-1-4.6-1.3c-3-17.2-3.3-34.8-1-52.3c0-0.7,0.3-1.7,0.3-2.3
			c2,1.7,4,3,6,4C263.4,667,264.7,684.2,264.7,701.5z"/>
		<path id="Tracé_4144" class="st10" d="M155.1,612.4c-0.7,14.9,1.7,29.1,4,43.7c-2-1-4-2-5.6-3.3c-6.3-27.1-6-55.6,4.6-82.1
			c5-12.3,8.9-22.2,10.3-35.8c0.7-7.9,1-15.6,2-23.5c0.7-7.6,2.6-14.9,5.3-21.9c1,1.7,2.3,3.6,3.3,6c-6,21.5-2,45.7-9.9,66.5
			C162.1,579.9,155.8,593.2,155.1,612.4z"/>
		<path id="Tracé_4145" class="st10" d="M210.1,588.6c-2.3,31.5-6.6,60.9-2.3,92c-2.3-1-4.6-2-7-3c-5.6-31.8,1.7-64.2,3-96
			c0.3-8.6,0.3-17.2,0.7-25.8c2,4.6,4,9.3,6,13.9C210.8,575.6,210.8,581.9,210.1,588.6z"/>
		<path id="Tracé_4146" class="st12" d="M338.2,540.2c23.2-9.9,31.5-15.2,56.3-19.2c1,0,1.7,0.7,1.7,1.7c0,0.7-0.3,1-0.7,1.3
			c-21.5,13.2-31.8,13.6-55.6,21.2c-1.3,0.3-2.6-0.3-3.3-1.7C336.3,541.9,336.9,540.5,338.2,540.2L338.2,540.2z"/>
		<path id="Tracé_4147" class="st12" d="M334.3,593.2c21.9,12.9,30.8,16.2,49,34.1c0.7,0.7,0.7,1.7-0.3,2.3c-0.3,0.3-1,0.3-1.7,0.3
			c-23.5-9.6-29.8-17.5-50.3-32.1c-1-1-1.3-2.6-0.3-3.6C331.9,592.9,333.3,592.9,334.3,593.2L334.3,593.2z"/>
		<path id="Tracé_4148" class="st12" d="M345.5,567.7c25.2-1,53.3-3.6,78.1,1c1,0.3,1.3,1,1,2c0,0.7-0.7,1-1,1
			c-24.8,4.6-53,2-78.1,1c-1.3,0-2.3-1.3-2.3-3C343.2,569,344.2,568,345.5,567.7z"/>
		<path id="Tracé_4149" class="st12" d="M224,514.4c-20.2-15.2-26.8-22.2-50.3-32.1c-1-0.3-1.7,0-2,1c-0.3,0.7,0,1,0.3,1.7
			c17.9,17.9,27.5,20.5,49,33.8c1.3,0.7,2.6,0.7,3.6-0.7C225.7,517,225.3,515.4,224,514.4L224,514.4z"/>
		<path id="Tracé_4150" class="st12" d="M215.1,567c-24.2,7.3-33.8,8.6-55.6,21.2c-0.7,0.7-1,1.7-0.3,2.3c0.3,0.3,1,0.7,1.3,0.7
			c25.2-3.6,33.1-9.9,56.3-19.5c1.3-0.7,2-2,1.3-3.3C217.7,567.4,216.4,566.7,215.1,567L215.1,567z"/>
		<path id="Tracé_4151" class="st12" d="M210.4,539.6c-24.2-7-51-16.2-76.1-17.5c-1,0-1.7,0.7-1.7,1.7c0,0.7,0.3,1,0.7,1.3
			c23.2,10.6,51,14.6,75.8,19.5c1.3,0.3,2.6-0.7,3-2C212.8,541.5,211.8,539.9,210.4,539.6L210.4,539.6z"/>
		<g id="Groupe_333" transform="translate(115.999 195.337)" class="st2">
			
				<image style="overflow:visible;enable-background:new    ;" width="180" height="164" id="Rectangle_566" xlink:href="3C31666A.png"  transform="matrix(0.3055 0 0 0.3055 166.6113 261.0103)">
			</image>
		</g>
	</g>
</g>
</svg>
