<?xml version="1.0" encoding="utf-8"?>
<!-- Generator: Adobe Illustrator 22.1.0, SVG Export Plug-In . SVG Version: 6.00 Build 0)  -->
<svg version="1.1" id="Layer_1" xmlns="http://www.w3.org/2000/svg" xmlns:xlink="http://www.w3.org/1999/xlink" x="0px" y="0px"
	 viewBox="0 0 551.3 810.5" style="enable-background:new 0 0 551.3 810.5;" xml:space="preserve">
<style type="text/css">
	.st0{fill:none;}
	.st1{fill:#FFFFFF;}
	.st2{fill:#C6866D;}
	.st3{opacity:0.5;}
	.st4{fill:#F0A183;}
	.st5{opacity:0.5;fill:url(#Tracé_4072_1_);enable-background:new    ;}
	.st6{fill:#33363D;}
	.st7{fill:#9E5E4A;}
	.st8{fill:#3A312B;}
	.st9{fill:#D69487;}
	.st10{fill:#F7C961;}
	.st11{fill:#E0B451;}
	.st12{fill:url(#Rectangle_558_1_);}
	.st13{fill:url(#Rectangle_559_1_);}
</style>
<pattern  y="810.5" width="294" height="170" patternUnits="userSpaceOnUse" id="pattern" viewBox="0 -170 294 170" style="overflow:visible;">
	<g>
		<rect y="-170" class="st0" width="294" height="170"/>
		
			<image style="overflow:visible;enable-background:new    ;" width="294" height="170" xlink:href="71D150CB.png"  transform="matrix(1 0 0 -1 0 0)">
		</image>
	</g>
</pattern>
<pattern  y="810.5" width="204" height="143" patternUnits="userSpaceOnUse" id="pattern-2" viewBox="0 -143 204 143" style="overflow:visible;">
	<g>
		<rect y="-143" class="st0" width="204" height="143"/>
		
			<image style="overflow:visible;enable-background:new    ;" width="204" height="143" xlink:href="71D150C9.png"  transform="matrix(1 0 0 -1 0 0)">
		</image>
	</g>
</pattern>
<title>4th</title>
<g id="Layer_1_3_" transform="translate(0 0)">
	<ellipse id="Ellipse_257" class="st1" cx="276.4" cy="343.8" rx="278.4" ry="345.1"/>
	<path id="Tracé_4070" class="st2" d="M195.5,457.7C192,478,215.2,612.3,225.7,630c10.4,17.7,70.6,29.3,112.1,5.6
		c12.1-6.9,12.8-175.5,12.8-175.5L195.5,457.7z"/>
	<g id="Groupe_322" transform="translate(59.674 155.695)" class="st3">
		
			<image style="overflow:visible;enable-background:new    ;" width="240" height="278" id="Rectangle_555" xlink:href="71D150CF.png"  transform="matrix(0.9324 0 0 0.9324 101.1686 268.0686)">
		</image>
	</g>
	<path id="Tracé_4071" class="st4" d="M154.7,119.9c-46.8,40.7-69.6,107.6-48.2,234.9s86.5,193.5,206.7,184.3
		c108.9-8.3,133-67.9,142.2-101.5s0.2-67,0-98.4c-0.2-26.1,13.4-116.6-26.1-190.1C383.1,63.1,226.9,57,154.7,119.9z"/>
	
		<linearGradient id="Tracé_4072_1_" gradientUnits="userSpaceOnUse" x1="-366.3394" y1="1265.7043" x2="-366.9072" y2="1266.6953" gradientTransform="matrix(132.2911 0 0 -169.2472 48745.8086 214514.8281)">
		<stop  offset="0" style="stop-color:#D69487;stop-opacity:0"/>
		<stop  offset="1" style="stop-color:#D69487"/>
	</linearGradient>
	<path id="Tracé_4072" class="st5" d="M154.7,119.6c-46.8,40.7-69.6,107.6-48.2,234.9S193.1,548,313.2,538.8
		c108.9-8.3,133-67.9,142.2-101.5s0.2-67,0-98.4c-0.2-26.1,13.4-116.6-26.1-190.1C383.1,62.9,226.9,56.8,154.7,119.6z"/>
	<path id="Tracé_4073" class="st6" d="M123.3,373.8c39.9,7.6,69.9-23.5,68.9-59.6c-1-36-35.6-62.3-14.8-95.4s54-11,81-15
		c28.8-4.2,31-22.5,58.3-26.8c31.2-4.9,64.3,41.4,120.5,36.7c59.4-4.9,81.1-70.1,61.6-126.2C483.2,42.6,430.6,26.9,389.9,31
		s-68.1,30.5-101.9,36.3c-22.9,3.9-70.8-9.7-100.8-1c-18.4,5.5-35.2,15.5-48.9,29c0,0,9.9-33.8-1.3-34.6
		c-11.2-0.8-6.6,36.4-6.6,36.4s-30.8-6.1-29.8,3.6s26.8,5.4,26.8,5.4s-75.7,24.1-86,87.9S75.5,364.6,123.3,373.8z"/>
	<path id="Tracé_4074" class="st6" d="M31.1,231.2c-0.8-24.2,5.2-49.3,19.3-69.3c15.4-21.9,39.5-34.1,62.8-45.7v-0.1
		c-46.9,19-82.8,50.9-85.5,104.7c-2.9,58.1,32.8,106.2,74.8,142.1c0.6,0.5,1.4-0.3,0.8-0.8C65.6,328.6,32.9,283.5,31.1,231.2z"/>
	<path id="Tracé_4075" class="st6" d="M475.3,49c-0.9-0.7-1.8-1.3-2.7-1.9C473.6,47.7,474.4,48.3,475.3,49z"/>
	<path id="Tracé_4076" class="st6" d="M472.6,47.1l-0.4-0.3L472.6,47.1z"/>
	<path id="Tracé_4077" class="st6" d="M392.5,35.9c-0.1,0-0.1,0.3,0.1,0.2c22-5.9,45.9-3.3,67.3,4.4c4.3,1.6,8.4,3.7,12.3,6.2
		C450,31.7,421.4,27.2,392.5,35.9z"/>
	<path id="Tracé_4078" class="st6" d="M510.8,102.9c-5.2-21-17.3-39.7-34.3-53c14.7,11.5,25.2,29.4,31.1,47.2
		c16.1,48.9-12.1,109.2-66.7,104c-0.7-0.1-0.6,1,0,1.1C493.8,208.2,523.7,151.7,510.8,102.9z"/>
	<path id="Tracé_4079" class="st6" d="M476.5,49.8c-0.4-0.3-0.8-0.6-1.2-0.9L476.5,49.8z"/>
	<path id="Tracé_4080" class="st6" d="M195.6,300.1c-2.6-9.6-6.4-18.9-11.3-27.5c-8.7-15.9-13.8-28.8-11.7-47.5
		c0-0.5-0.6-0.5-0.7,0c-2.7,19.1-0.2,29.2,8.8,45.7c14.4,26.3,22.1,55.2,6.2,82.7c-0.2,0.3-0.2,0.8,0.2,1.1c0.3,0.2,0.8,0.2,1.1-0.2
		c0,0,0,0,0-0.1C198.7,337.7,200.5,319,195.6,300.1z"/>
	<path id="Tracé_4081" class="st4" d="M158.5,369.7c0,0-28.5-39.2-69.2-34.1c-40.7,5.1-37.9,72.6,2.5,102.3
		c38.2,28,66.7,13.7,66.7,13.7V369.7z"/>
	<path id="Tracé_4082" class="st7" d="M80.9,365.9c-0.1,0.1-0.2,0.2-0.1,0.4c0,0.1,0.1,0.1,0.2,0.1c34.9,0.9,48.2,35.8,50.6,41.4
		c-1.8-1.1-3.6-2.1-5.6-3c-10.6-4.7-20.7-3.5-30.9,1.2c-0.4,0.2-0.1,0.9,0.3,0.8c9.1-3.1,19-0.7,27.3,3.6
		c7.7,3.7,14.4,9.3,19.3,16.2C142.3,427.2,137.9,355.9,80.9,365.9z"/>
	<g id="Groupe_323" transform="translate(75.109 86.753)" class="st3">
		
			<image style="overflow:visible;enable-background:new    ;" width="191" height="177" id="Rectangle_556" xlink:href="71D150C8.png"  transform="matrix(0.931 0 0 0.931 127.9041 148.7431)">
		</image>
	</g>
	<g id="Groupe_324" transform="translate(125.872 85.038)" class="st3">
		
			<image style="overflow:visible;enable-background:new    ;" width="160" height="178" id="Rectangle_557" xlink:href="71D150C6.png"  transform="matrix(0.9304 0 0 0.9304 215.6731 145.8294)">
		</image>
	</g>
	<path id="Tracé_4083" class="st7" d="M269.7,350.2c-3.9-1-20.9,4.3-23.8,7.6c-0.3,0.3-0.3,0.7,0,1c0.1,0.1,0.2,0.1,0.3,0.2
		c4.2,1.2,21.3-3.8,24-6.9c0.5-0.5,0.4-1.2,0-1.7C270.1,350.3,269.9,350.2,269.7,350.2L269.7,350.2z"/>
	<path id="Tracé_4084" class="st7" d="M275.1,357.3c-4,0.5-14.8,9.5-16.2,13.6c-0.1,0.4,0.1,0.8,0.4,0.9c0.1,0,0.2,0,0.3,0
		c4.4-0.5,15.3-9.1,16.7-13c0.2-0.6-0.1-1.3-0.7-1.5C275.4,357.3,275.3,357.2,275.1,357.3L275.1,357.3z"/>
	<path id="Tracé_4085" class="st7" d="M423.6,344.6c3.3-1.4,18.9,1.9,21.9,4.9c0.3,0.3,0.3,0.7,0.1,1c-0.1,0.1-0.1,0.1-0.2,0.1
		c-3.5,1.6-19.2-1.4-21.9-4.1c-0.5-0.5-0.6-1.2-0.1-1.7C423.4,344.7,423.5,344.7,423.6,344.6L423.6,344.6z"/>
	<path id="Tracé_4086" class="st7" d="M419.8,352.3c3.6,0.1,14.2,7.7,16,11.7c0.2,0.5,0,1-0.5,1c-3.9,0-14.6-7.3-16.3-11
		C418.6,353.2,419,352.2,419.8,352.3z"/>
	<path id="Tracé_4087" class="st7" d="M311.1,444c-5.8,1.8-25.7,8.8-26.5-14.2c0-1.1-1.1-1.8-1.3-0.8
		c-4.5,25.7,18.9,26.3,28.8,16.2C313.2,444.2,312.5,443.6,311.1,444z"/>
	<path id="Tracé_4088" class="st6" d="M288.4,252.5c-9.4,5.2-27.4,0.9-30.1,14.8c-2.2,11.5,22.4,20.8,41.9,11.7
		c21.8-10.2,25.7-34.5,16.9-39.4C303.8,232,296.6,248,288.4,252.5z"/>
	<path id="Tracé_4089" class="st6" d="M398.4,239c-11.1,6.8-4.8,27.3,14.1,35.6c14.2,6.2,32.4-0.4,32.3-11.2
		c0-10.3-16.8-7.8-22.1-11.5C415.9,247.2,407.6,233.3,398.4,239z"/>
	<path id="Tracé_4090" class="st7" d="M385.3,283.8c0.6-2.2-18.5,32.4-18.5,60.4c0,19.5,8.1,28.2,20.2,29.2
		c13.2,1,27.2-11.9,23.4-19.3c-4.6-9.2-18.8,1.1-27.7-9.2C374.2,334.8,377.9,310.6,385.3,283.8z"/>
	<path id="Tracé_4091" class="st7" d="M334.8,498.8c-5.9-2.6-12.8,0.1-15.4,6c-0.2,0.4-0.3,0.7-0.4,1.1c-2.3,7.2,3.1,14.2,10.5,16
		c2,0.5,2.3-0.7,0.5-1.8c-3.3-2-6.4-3.9-7.3-7.9c-1.1-3.9,0.9-8.1,4.7-9.7c3.3-1.4,7.2,0.1,8.6,3.4c0.1,0.3,0.2,0.6,0.3,0.9
		c0.7,1.7-0.1,3.6-1.7,4.4c-0.6,0.3-1.3,0.3-2,0.2c-1.6-0.1-3.8-2.7-4.3-4.3c-0.1-0.2-0.3-0.3-0.5-0.3c-0.1,0-0.2,0.1-0.3,0.3
		c-0.8,3.6,1.4,7.3,5,8.1c1.7,0.4,3.5,0.1,5-0.8C343.3,510.4,340.1,501.5,334.8,498.8z"/>
	<path id="Tracé_4092" class="st8" d="M271.2,327.6c-0.8,0.3-1,0.9-0.2,0.9c16.9,0.7,23.1,8.3,24.6,9.4c-6.2,0.3-12,3-16.1,7.6
		c-0.3,0.3-0.2,0.7,0,0.9c0.2,0.2,0.4,0.2,0.6,0.2c9-3.5,18.9-4.1,28.3-1.9C312.3,345.9,300.4,318.5,271.2,327.6z"/>
	<path id="Tracé_4093" class="st8" d="M428.2,320.6c0.8,0.1,1.1,0.7,0.3,0.9c-15.3,3.3-19.8,11.7-21,13c5.8-0.7,11.6,1.2,16,5
		c0.5,0.4,0.2,1.3-0.4,1.2c-8.8-2-18-1.2-26.2,2.5C393.5,344.9,399.9,316.1,428.2,320.6z"/>
	<path id="Tracé_4094" class="st8" d="M361.8,429.9c-1.2,0.6-2.6,1-4,1.2c-5.9,0.8-11.9-1.7-17.6-2.8c-8.6-1.5-16.2,0.6-24.6-0.1
		c-7-0.6-13.9-4.1-13.3-12.1c0.5-2.9,1.5-5.7,3.1-8.2c2.6-4.7,6.4-8.6,10.9-11.6c8.1-5.1,17.9-6.8,27.2-4.7c4.6,1,8.7,3.3,12,6.6
		C366.1,407.7,372.2,425,361.8,429.9z"/>
	<path id="Tracé_4095" class="st9" d="M361.8,429.9c-1.2,0.6-2.6,1-4,1.2c-5.9,0.8-11.9-1.7-17.6-2.8c-8.6-1.5-16.2,0.6-24.6-0.1
		c-7-0.6-13.9-4.1-13.3-12.1c0.5-2.9,1.5-5.7,3.1-8.2c10.5-5.3,22.8-5.8,33.7-1.5C347.5,409.7,359.8,419.4,361.8,429.9z"/>
	<path id="Tracé_4096" class="st1" d="M355.6,398c-13-2-26.2-2.6-39.3-1.9c8.1-5.1,17.9-6.8,27.2-4.7
		C348,392.5,352.2,394.8,355.6,398z"/>
	<path id="Tracé_4097" class="st10" d="M469.6,611.9c-2.3,4.4-5.3,8.4-8.9,11.9c-2,2.1-4.3,4.3-6.8,6.6c-5.8,5.4-12.9,11.4-21,17.6
		c-2,1.5-4,3.1-6.2,4.6l0,0c-6.2,4.6-12.9,9.2-19.9,13.8c-2,1.3-4.1,2.6-6.2,3.9c-13.4,8.4-27.4,15.9-41.8,22.5
		c-1.7,0.7-3.3,1.5-5,2.2c-15.1,6.8-31.3,11.3-47.8,13.2l-3.6,0.2c-2,0-3.9,0.1-5.8,0c-13.3-0.9-26.5-3.3-39.3-7.3
		c-1.5-0.4-3-0.9-4.6-1.3c-17.5-5.5-34.7-12-51.5-19.5c-2.2-0.9-4.4-1.9-6.7-3c-14.5-6.6-28.7-13.8-41.6-21.1
		c-1.9-1.1-3.7-2.1-5.5-3.2c-9.5-5.5-18.2-11-25.7-16.3c-3.7-2.7-7.3-5.3-10.4-7.9c-10.1-8.1-16.4-15.4-17.2-20.8
		c-3.9-26.8,15.3-55.4,18.3-74c3.1-18.6-9.9-61.8,20-73.4c4.9-1.9,10.3,1.1,18.6,6.4c0.9,0.6,1.8,1.2,2.8,1.9
		c5.7,3.7,12.7,8.4,21.4,13.1l3.2,1.6c10.9,5.6,22.3,10.3,34,13.9l2.8,0.9c14.9,4.3,30,7.4,45.4,9.1c1.1,0.2,2.3,0.3,3.5,0.4
		c4.9,0.5,9.9,0.9,15.2,1.3c8.2,0.5,16,0.8,23.4,0.8h1.7c12.3-0.1,24.5-0.9,36.7-2.4l3.7-0.5c11.4-1.6,22.7-4.1,33.7-7.5
		c1.3-0.4,2.5-0.8,3.7-1.2c7.4-2.4,14.7-5.3,21.7-8.6l2.5-1.2c7.5-3.7,14.8-7.8,21.9-12.3c1.3-0.8,2.6-1.6,3.7-2.3
		c7.5-4.5,12-6.8,15.1-4.2c25.9,22.2,2.2,72.9,3.7,81.7S479.5,589.7,469.6,611.9z"/>
	<path id="Tracé_4098" class="st11" d="M137.2,543c-12.9,28.8-30.5,62.9-15.4,93.8c-3.7-2.7-7.3-5.3-10.4-7.9
		c-7.8-24.2,2.6-53.4,12.6-75.5c5.6-12.5,11.3-23.5,13-37.3c0.9-8.3,0.8-16.7,2.4-25c1.3-9,5.4-17.4,11.7-24
		c0.9,0.6,1.8,1.2,2.8,1.9C139.4,489.8,147.7,519.6,137.2,543z"/>
	<path id="Tracé_4099" class="st11" d="M460.7,623.8c-2,2.1-4.3,4.3-6.8,6.6c0.3-11.4-1.5-22.8-5.5-33.6
		c-4.7-12.6-11.6-23.3-15.6-35.9c-3.9-12.2-2.1-24.3-0.8-36.5c1.1-10.5,4.1-36.1-3.5-47.9c1.3-0.8,2.6-1.6,3.7-2.3
		c11.4,12.9,6.8,46.2,5,58.2c-2.6,14.7,0.2,29.8,7.9,42.6c4.3,7.5,7.8,15.3,10.6,23.5C458.8,606.6,460.4,615.2,460.7,623.8z"/>
	<path id="Tracé_4100" class="st11" d="M433,648c-2,1.5-4,3.1-6.2,4.6c5.1-31.9-13-55.2-17.5-86.5c-3.4-23.5,6.6-54.1-5.2-76.1
		l2.5-1.2c15.6,18.4,5.6,55.2,8.7,76.2C419.4,592.3,438.9,620.4,433,648z"/>
	<path id="Tracé_4101" class="st11" d="M306.2,708.1l-3.6,0.2c-4.6-33.6,0.5-68.2-3.1-102.1c-3.7-33.4-3.9-63.7,3.3-96.2h1.7
		c-2.9,32-2.5,64.3,1.4,96.2C309.4,639.8,307.8,674.3,306.2,708.1z"/>
	<path id="Tracé_4102" class="st11" d="M406.9,666.3c-2,1.3-4.1,2.6-6.2,3.9c-0.2-10.9-0.4-21.8-1.7-32.6
		c-2.2-18.6-10.5-34.1-14-51.9c-2.6-13.2,0.7-28.3,0.4-41.7c-0.5-15-2.7-29.9-6.7-44.4c1.3-0.4,2.5-0.8,3.7-1.2
		c4.1,10.2,6.8,21,8,32c2.2,17.8-1.3,36.3,1.8,53.6c2.9,15.8,10.3,30.3,12.6,46.6C406.6,642.5,407.2,654.4,406.9,666.3z"/>
	<path id="Tracé_4103" class="st11" d="M358.9,692.7c-1.7,0.7-3.3,1.5-5,2.2c-1.7-30.2-2.8-60.2-6.1-90.4
		c-3.4-31.5-6.3-64.9-6.6-96.9l3.7-0.5c7,30.7,6.2,62.4,8.8,93.6C356.4,631.5,358.5,662,358.9,692.7z"/>
	<path id="Tracé_4104" class="st11" d="M258.1,648.1c-1.9,17.7-0.6,35.2-0.6,52.9c-1.5-0.4-3-0.9-4.6-1.3
		c-2.8-17-3.2-34.4-1.1-51.6c1.8-17.5,7.1-34.4,5.2-52c-3.2-30.2-8.2-60,3.7-88.5c1.1,0.2,2.3,0.3,3.5,0.4c-3.5,17.3-4.8,35-4,52.7
		c0.8,14.6,4.4,29.2,4.4,43.7C264.5,619,259.6,633.6,258.1,648.1z"/>
	<path id="Tracé_4105" class="st11" d="M149.2,612.9c-0.7,14.6,1.5,28.9,3.8,43.3c-1.9-1.1-3.7-2.1-5.5-3.2
		c-6.3-27-5.9-55.1,4.5-81.1c4.9-12.3,8.8-21.8,10.1-35.2c0.8-7.7,0.9-15.5,2-23.2c1.6-11.8,3.7-22.7,11.1-31.4l3.2,1.6
		c-14,24.1-5.7,54.2-15.6,79.8C156.1,580.9,150.1,593.9,149.2,612.9z"/>
	<path id="Tracé_4106" class="st11" d="M215.3,498.5c-4.2,15.2-9.2,29.6-10.4,45.7c-1.1,15-0.1,30.2-1.2,45.2
		c-2.2,31.1-6.7,60.2-2.3,90.8c-2.2-0.9-4.4-1.9-6.7-3c-5.7-31.3,1.6-63.5,3.1-95.1c1.3-29-2-59.5,14.7-84.6L215.3,498.5z"/>
	<g id="Groupe_325" transform="translate(29.491 179.361)" class="st3">
		
			<pattern  id="Rectangle_558_1_" xlink:href="#pattern" patternTransform="matrix(0.9331 0 0 -0.9308 -626.6631 -12793.7617)"  class="st3">
		</pattern>
		<rect id="Rectangle_558" x="49" y="308.9" class="st12" width="274.3" height="158.2"/>
	</g>
	<g id="Groupe_326" transform="translate(108.036 191.709)" class="st3">
		
			<pattern  id="Rectangle_559_1_" xlink:href="#pattern-2" patternTransform="matrix(0.9317 0 0 -0.9297 346.1203 -12668.2393)"  class="st3">
		</pattern>
		<rect id="Rectangle_559" x="184.8" y="330.3" class="st13" width="190.1" height="133"/>
	</g>
	<path id="Tracé_4107" class="st7" d="M509.6,197.4c0,0,13.5-61.7,33-61.7c11,0-6,48.3,0,76.9c5.3,24.9,2.7,55.9-11.3,57.6
		C517.3,272,509.6,197.4,509.6,197.4z"/>
	<path id="Tracé_4108" class="st2" d="M547.6,280.2c-5,34.7-57.3,48.2-77.4,34.1c-31.5-22-28.3-58.4-30.6-64.4
		c-2.3-6-15.9-22.2-17.9-23.6c-2-1.4-53.6-21.6-48.7-33.4c4.9-11.8,56.5,7.5,62,11.2c5.5,3.7,24.8,25.4,24.8,25.4l-22.8-14.7
		c0,0-13.3-29.7-14.7-34c-1.4-4.3-40.6-39.8-33.4-50.2c7.2-10.4,48.4,21.3,54.8,30c6.3,8.6,19.9,34.9,19.9,34.9l-7.5-7.5
		c0,0-5.8-31.4-6.7-36c-0.9-4.7-31.1-45.3-23.6-54.2c7.5-8.9,46.4,40.9,50.2,47.9c3.8,6.9,10.1,34.3,10.1,34.3s-1.4-23.9-2.6-28.5
		s-17.9-45.3-12.1-51.6c5.8-6.3,34.6,39.2,38.9,49.6C514.5,159.8,556.2,221.1,547.6,280.2z"/>
	<g id="Groupe_327" transform="translate(124.843 23.3)" class="st3">
		
			<image style="overflow:visible;enable-background:new    ;" width="262" height="313" id="Rectangle_560" xlink:href="71D150C7.png"  transform="matrix(0.9327 0 0 0.9327 213.8933 39.0783)">
		</image>
	</g>
</g>
</svg>
