<svg height="512" viewBox="0 0 64 64" width="512" xmlns="http://www.w3.org/2000/svg"><path d="m31.99 9.05-.87-.87c-2.34-2.34-5.41-4.52-8.48-4.52a12.005 12.005 0 0 0 -8.49 20.49l17.85 16.85v-31.96z" fill="#e50000"/><path d="m49.81 7.14a11.947 11.947 0 0 0 -8.46-3.49c-3.08 0-6.16 2.18-8.51 4.54l-.84.85v31.96l17.86-16.89a11.993 11.993 0 0 0 -.05-16.97z" fill="#f00"/><path d="m58.6 26.8a3.105 3.105 0 0 0 -3.552 2.313l-2.738 10.207-.014.015a2.938 2.938 0 0 0 -.568-.82 3 3 0 0 0 -3.728-.415l-9.325 5.957a10 10 0 0 0 -4.675 8.466v9.477h13v-4.515a6 6 0 0 1 1.757-4.242l7.485-7.485a3.989 3.989 0 0 0 1.035-1.794l3.6-13.454a3 3 0 0 0 -2.277-3.71z" fill="#ffbcab"/><path d="m25.326 44.059-9.315-5.95a3 3 0 0 0 -3.739.406 2.938 2.938 0 0 0 -.568.82l-.014-.015-2.738-10.205a3.105 3.105 0 0 0 -3.552-2.315 3 3 0 0 0 -2.28 3.71l3.6 13.454a3.989 3.989 0 0 0 1.035 1.794l7.485 7.485a6 6 0 0 1 1.76 4.242v4.515h13v-9.477a10 10 0 0 0 -4.674-8.464z" fill="#ffbcab"/><path d="m20.574 47.181-.312.36a1 1 0 0 1 -1.352.148l-6.638-4.932a2.981 2.981 0 0 1 -.862-2.292z" fill="#ff9478"/><path d="m42.736 47.181.312.36a1 1 0 0 0 1.352.148l6.638-4.932a2.977 2.977 0 0 0 .862-2.292z" fill="#ff9478"/><path d="m30 15v4h-4v4h4v4h2v-12z" fill="#d1d3d4"/><path d="m34 19v-4h-2v12h2v-4h4v-4z" fill="#f1f2f2"/></svg>