<svg xmlns="http://www.w3.org/2000/svg" viewBox="0 0 448.28 415.88"><defs><style>.cls-1{fill:#ccc;}.cls-2,.cls-4{fill:#b3b3b3;}.cls-3{fill:#999;}.cls-4{opacity:0.43;}.cls-5{fill:#c4c4c4;}.cls-6,.cls-9{fill:#666;}.cls-19,.cls-7{fill:#fff;}.cls-8{fill:#f8ada8;}.cls-9{opacity:0.25;}.cls-10{fill:#0e62a8;}.cls-11{fill:#71bc9a;}.cls-12{fill:#252551;}.cls-13{fill:#1c1a3f;}.cls-14{fill:#8dc9b0;}.cls-15{fill:#a3d8bf;}.cls-16,.cls-17{fill:#66b28e;}.cls-17{opacity:0.68;}.cls-18{fill:#23234c;}.cls-19{opacity:0.12;}.cls-20{fill:#f2f2f2;}</style></defs><title>Fight</title><g id="Layer_2" data-name="Layer 2"><g id="OBJECTS"><path class="cls-1" d="M236.2,29.63a34.51,34.51,0,0,0,5.66,0,17,17,0,0,1-.55-3.88,5.51,5.51,0,0,1,1.27-3.63c.15-.17-3-1.16-3.26-1.2-1.06-.11-2.24-.28-2.49.79s.42,2.71.3,3.87A17.92,17.92,0,0,1,236.2,29.63Z"/><path class="cls-2" d="M244.5,19.28a3.74,3.74,0,0,0-1.86-1,10.19,10.19,0,0,0-4.14-.45c-1.62.13-4.23.52-4.71,2.34-1.16,4.31,6.2,3.72,8.59,3.46C244.6,23.38,246.43,21.3,244.5,19.28Z"/><path class="cls-3" d="M243.28,20.25c-.66.12-1.29.39-1.95.51a9,9,0,0,1-4.42-.32c-.49-.16-1-.55-1.49-.41a.18.18,0,0,0-.14.19c-.08,1.22,2.62,1.57,3.46,1.67a7.59,7.59,0,0,0,4.87-.86A.43.43,0,0,0,243.28,20.25Z"/><path class="cls-1" d="M240.48,60a34.51,34.51,0,0,0-5.66,0,16.51,16.51,0,0,1,.55,3.88,5.55,5.55,0,0,1-1.27,3.64c-.15.16,3,1.16,3.27,1.19,1.06.12,2.23.28,2.48-.79s-.41-2.71-.3-3.86A17.79,17.79,0,0,1,240.48,60Z"/><path class="cls-2" d="M232.18,70.33a3.76,3.76,0,0,0,1.86,1,10.37,10.37,0,0,0,4.14.45c1.62-.14,4.23-.52,4.72-2.34,1.15-4.32-6.21-3.72-8.6-3.46C232.08,66.23,230.25,68.32,232.18,70.33Z"/><path class="cls-3" d="M233.4,69.36c.66-.12,1.29-.38,1.95-.51a8.94,8.94,0,0,1,2.31-.11,9.73,9.73,0,0,1,2.12.43c.48.17,1,.55,1.48.42a.2.2,0,0,0,.14-.19c.08-1.22-2.62-1.58-3.46-1.67a7.54,7.54,0,0,0-4.87.85A.43.43,0,0,0,233.4,69.36Z"/><path class="cls-1" d="M236.2,29.63a34.51,34.51,0,0,0,5.66,0,17,17,0,0,1-.55-3.88,5.51,5.51,0,0,1,1.27-3.63c.15-.17-3-1.16-3.26-1.2-1.06-.11-2.24-.28-2.49.79s.42,2.71.3,3.87A17.92,17.92,0,0,1,236.2,29.63Z"/><path class="cls-2" d="M244.5,19.28a3.74,3.74,0,0,0-1.86-1,10.19,10.19,0,0,0-4.14-.45c-1.62.13-4.23.52-4.71,2.34-1.16,4.31,6.2,3.72,8.59,3.46C244.6,23.38,246.43,21.3,244.5,19.28Z"/><path class="cls-3" d="M243.28,20.25c-.66.12-1.29.39-1.95.51a9,9,0,0,1-4.42-.32c-.49-.16-1-.55-1.49-.41a.18.18,0,0,0-.14.19c-.08,1.22,2.62,1.57,3.46,1.67a7.59,7.59,0,0,0,4.87-.86A.43.43,0,0,0,243.28,20.25Z"/><path class="cls-1" d="M240.48,60a34.51,34.51,0,0,0-5.66,0,16.51,16.51,0,0,1,.55,3.88,5.55,5.55,0,0,1-1.27,3.64c-.15.16,3,1.16,3.27,1.19,1.06.12,2.23.28,2.48-.79s-.41-2.71-.3-3.86A17.79,17.79,0,0,1,240.48,60Z"/><path class="cls-2" d="M232.18,70.33a3.76,3.76,0,0,0,1.86,1,10.37,10.37,0,0,0,4.14.45c1.62-.14,4.23-.52,4.72-2.34,1.15-4.32-6.21-3.72-8.6-3.46C232.08,66.23,230.25,68.32,232.18,70.33Z"/><path class="cls-3" d="M233.4,69.36c.66-.12,1.29-.38,1.95-.51a8.94,8.94,0,0,1,2.31-.11,9.73,9.73,0,0,1,2.12.43c.48.17,1,.55,1.48.42a.2.2,0,0,0,.14-.19c.08-1.22-2.62-1.58-3.46-1.67a7.54,7.54,0,0,0-4.87.85A.43.43,0,0,0,233.4,69.36Z"/><path class="cls-1" d="M223.16,47a34.63,34.63,0,0,0,0-5.67,16.61,16.61,0,0,1-3.89.56,5.56,5.56,0,0,1-3.63-1.27c-.16-.15-1.16,3-1.19,3.26-.12,1.06-.28,2.24.79,2.49s2.71-.42,3.86-.3A17.92,17.92,0,0,1,223.16,47Z"/><path class="cls-2" d="M212.82,38.65a3.77,3.77,0,0,0-1,1.85,10.24,10.24,0,0,0-.45,4.15c.13,1.62.52,4.22,2.34,4.71,4.32,1.16,3.72-6.2,3.46-8.59C216.91,38.55,214.83,36.72,212.82,38.65Z"/><path class="cls-3" d="M213.78,39.87c.13.66.39,1.28.52,2a8.86,8.86,0,0,1,.11,2.3,9,9,0,0,1-.44,2.12c-.16.48-.54,1-.41,1.49a.21.21,0,0,0,.19.14c1.22.07,1.58-2.62,1.67-3.46a7.51,7.51,0,0,0-.85-4.87A.43.43,0,0,0,213.78,39.87Z"/><path class="cls-1" d="M253.52,42.67a33.43,33.43,0,0,0,0,5.66,16,16,0,0,1,3.88-.55A5.51,5.51,0,0,1,261,49.05c.17.15,1.16-3,1.19-3.27.12-1.06.28-2.23-.78-2.48s-2.72.41-3.87.3A18.48,18.48,0,0,1,253.52,42.67Z"/><path class="cls-2" d="M263.87,51a3.83,3.83,0,0,0,1-1.86,10.22,10.22,0,0,0,.45-4.15c-.13-1.61-.52-4.22-2.34-4.71-4.31-1.15-3.72,6.2-3.46,8.59C259.77,51.06,261.85,52.89,263.87,51Z"/><path class="cls-3" d="M262.9,49.75c-.12-.66-.39-1.29-.51-2a8.52,8.52,0,0,1-.12-2.31,9,9,0,0,1,.44-2.12c.16-.48.54-1,.41-1.48a.2.2,0,0,0-.19-.15c-1.22-.07-1.58,2.63-1.67,3.46a7.62,7.62,0,0,0,.85,4.88A.43.43,0,0,0,262.9,49.75Z"/><path class="cls-1" d="M226.1,35.59a36,36,0,0,0,4-4A16.37,16.37,0,0,1,227,29.25a5.48,5.48,0,0,1-1.67-3.46c0-.23-2.93,1.28-3.16,1.46-.83.67-1.77,1.38-1.2,2.32s2.21,1.62,2.95,2.52A18,18,0,0,1,226.1,35.59Z"/><path class="cls-2" d="M224.65,22.4a3.8,3.8,0,0,0-2,.6,10.28,10.28,0,0,0-3.25,2.61c-1.05,1.24-2.62,3.36-1.68,5,2.23,3.86,7-1.76,8.52-3.63S227.44,22.46,224.65,22.4Z"/><path class="cls-3" d="M224.47,24c-.38.55-.64,1.18-1,1.74a8.39,8.39,0,0,1-1.55,1.71,8.71,8.71,0,0,1-1.81,1.19c-.45.23-1.06.3-1.34.76a.2.2,0,0,0,0,.23c.81.92,3-.73,3.62-1.26a7.56,7.56,0,0,0,2.85-4.05A.43.43,0,0,0,224.47,24Z"/><path class="cls-1" d="M250.59,54a33.66,33.66,0,0,0-4,4,16.49,16.49,0,0,1,3.14,2.35,5.56,5.56,0,0,1,1.67,3.47c0,.22,2.92-1.28,3.15-1.47.83-.66,1.78-1.38,1.2-2.31s-2.21-1.63-2.95-2.52A18.62,18.62,0,0,1,250.59,54Z"/><path class="cls-2" d="M252,67.21a3.82,3.82,0,0,0,2-.59A10.12,10.12,0,0,0,257.31,64c1.05-1.23,2.62-3.35,1.68-5-2.23-3.87-7,1.75-8.52,3.62S249.25,67.15,252,67.21Z"/><path class="cls-3" d="M252.21,65.66c.38-.55.64-1.18,1-1.74a9,9,0,0,1,1.55-1.71A9.13,9.13,0,0,1,256.59,61c.45-.22,1.07-.3,1.34-.76a.22.22,0,0,0,0-.23c-.82-.92-3,.74-3.63,1.27a7.54,7.54,0,0,0-2.85,4A.43.43,0,0,0,252.21,65.66Z"/><path class="cls-1" d="M229.12,57.05a34.34,34.34,0,0,0-4-4,16.74,16.74,0,0,1-2.35,3.13,5.53,5.53,0,0,1-3.47,1.67c-.22,0,1.28,2.92,1.47,3.15.66.84,1.38,1.78,2.31,1.21s1.62-2.22,2.52-2.95A18.17,18.17,0,0,1,229.12,57.05Z"/><path class="cls-2" d="M215.94,58.5a3.79,3.79,0,0,0,.59,2,10.27,10.27,0,0,0,2.62,3.25c1.23,1,3.35,2.62,5,1.68,3.87-2.24-1.75-7-3.63-8.53S216,55.71,215.94,58.5Z"/><path class="cls-3" d="M217.48,58.68c.56.38,1.19.63,1.74,1a8.39,8.39,0,0,1,1.71,1.55,8.69,8.69,0,0,1,1.2,1.8c.22.46.29,1.07.75,1.34a.2.2,0,0,0,.24,0c.91-.81-.74-3-1.27-3.63a7.61,7.61,0,0,0-4-2.84A.43.43,0,0,0,217.48,58.68Z"/><path class="cls-1" d="M247.56,32.56a34.43,34.43,0,0,0,4,4,16.13,16.13,0,0,1,2.36-3.14,5.54,5.54,0,0,1,3.46-1.67c.23,0-1.28-2.92-1.46-3.15-.67-.83-1.38-1.78-2.32-1.2s-1.62,2.21-2.52,2.95A18.31,18.31,0,0,1,247.56,32.56Z"/><path class="cls-2" d="M260.75,31.11a3.82,3.82,0,0,0-.6-2,10.39,10.39,0,0,0-2.61-3.25c-1.24-1-3.36-2.62-5-1.67-3.87,2.23,1.76,7,3.63,8.52S260.68,33.9,260.75,31.11Z"/><path class="cls-3" d="M259.2,30.94c-.55-.38-1.18-.64-1.74-1a8.87,8.87,0,0,1-2.9-3.36c-.23-.45-.3-1.07-.76-1.34a.21.21,0,0,0-.24,0c-.91.81.74,3,1.27,3.63a7.49,7.49,0,0,0,4,2.84A.43.43,0,0,0,259.2,30.94Z"/><path class="cls-1" d="M256.18,51.68a19.83,19.83,0,0,1-5.1,6.77,17.14,17.14,0,0,1-6.47,3.72,18.28,18.28,0,0,1-7.51.38,24.52,24.52,0,0,1-4.63-1.08,19.8,19.8,0,0,1-6.69-3.78,15.06,15.06,0,0,1-5.28-10.91A17.18,17.18,0,0,1,222,40.1c2-4.81,7.15-9.19,12-11.1a18.29,18.29,0,0,1,10.53-.82,16.37,16.37,0,0,1,5.88,2.57A17.66,17.66,0,0,1,256.18,51.68Z"/><path class="cls-2" d="M254.79,46a1.41,1.41,0,0,0-2.33-.62,4.72,4.72,0,0,0-1.26,2.77,2.59,2.59,0,0,0,.21,1.53,1.5,1.5,0,0,0,1.9.65c.95-.41,1.32-1.66,1.41-2.66A2.58,2.58,0,0,0,254.79,46Z"/><path class="cls-2" d="M251.32,37.81a2.72,2.72,0,0,0-.45-1.15l-.18-.38a1.55,1.55,0,0,0-1.8-.86,1.61,1.61,0,0,0-1,2,3.14,3.14,0,0,0,.53,1.16,1.87,1.87,0,0,0,1.52,1A1.49,1.49,0,0,0,251.32,37.81Z"/><path class="cls-2" d="M249.12,42.12a.83.83,0,0,0,0-.35,1,1,0,0,0-.46-.58.9.9,0,0,0-1,0,1.05,1.05,0,0,0-.51,1.06,1.23,1.23,0,0,0,.59.85.87.87,0,0,0,.45.12.83.83,0,0,0,.55-.2A.89.89,0,0,0,249.12,42.12Z"/><path class="cls-2" d="M228,41.13a2,2,0,0,0-1.66,1.07,3,3,0,0,0-.24,2,2,2,0,0,0,1,1.57,1.6,1.6,0,0,0,2-.47,2.44,2.44,0,0,0,.38-1.21C229.84,42.91,229.42,41.15,228,41.13Z"/><path class="cls-2" d="M233.55,52.79a1.76,1.76,0,0,0-.92-1.1,1.47,1.47,0,0,0-1-.19,1.26,1.26,0,0,0-.66.28.93.93,0,0,0-.15.13h0v0l-.08.09,0,0-.06.07a1.23,1.23,0,0,0-.19.42,1.41,1.41,0,0,0,.14,1.08,1.86,1.86,0,0,0,1.56.9,1.31,1.31,0,0,0,.73-.17,1.28,1.28,0,0,0,.41-.39,1,1,0,0,0,.24-.45A1.46,1.46,0,0,0,233.55,52.79Z"/><path class="cls-2" d="M238.83,45.89a1.58,1.58,0,0,0-.59-.31,1.4,1.4,0,0,0-1.75,1.33,1.74,1.74,0,0,0,1.25,1.72,1.15,1.15,0,0,0,1-.2,1.5,1.5,0,0,0,.27-.29c.05,0,.1-.12.15-.18a1.23,1.23,0,0,0,.19-.44,1.93,1.93,0,0,0,.06-.49A1.47,1.47,0,0,0,238.83,45.89Z"/><path class="cls-2" d="M244.71,56.38a1.48,1.48,0,0,0-1.28-.74,1.56,1.56,0,0,0-.67.18,2.91,2.91,0,0,0-1.15.11A2.77,2.77,0,0,0,240,57.19a2,2,0,0,0,.61,2.7,2.47,2.47,0,0,0,2.29,0C244.05,59.33,245.54,57.76,244.71,56.38Z"/><path class="cls-2" d="M235,33.91a1.66,1.66,0,0,0-.77-1,1.86,1.86,0,0,0-1.27-.17A2.87,2.87,0,0,0,231.21,34a2.47,2.47,0,0,0-.39,2.06,1.53,1.53,0,0,0,1.06,1.06,1.4,1.4,0,0,0,.41,0,2.35,2.35,0,0,0,2.07-.86,2.71,2.71,0,0,0,.61-1.1A3,3,0,0,0,235,33.91Z"/><path class="cls-2" d="M226.65,49.77v0a1.42,1.42,0,0,0-.18-1,1.66,1.66,0,0,0-1.09-.82,1.51,1.51,0,0,0-.79,0,1.47,1.47,0,0,0-.67.39,1.53,1.53,0,0,0-.38,1.46,2.42,2.42,0,0,0,.56,1.09,2.13,2.13,0,0,0,.47.37,1.48,1.48,0,0,0,1.18.15A1.28,1.28,0,0,0,226.65,49.77Z"/><path class="cls-2" d="M243.33,32.87a2,2,0,0,0-.54-.86,2.48,2.48,0,0,0-1.25-.65,1.68,1.68,0,0,0-1.56.41,1.66,1.66,0,0,0-.42,1.56c.33,1.52,2.44,2.94,3.74,1.58A1.51,1.51,0,0,0,243.33,32.87Z"/><path class="cls-4" d="M256.18,51.68a19.83,19.83,0,0,1-5.1,6.77,17.14,17.14,0,0,1-6.47,3.72,18.28,18.28,0,0,1-7.51.38,24.52,24.52,0,0,1-4.63-1.08,20.44,20.44,0,0,0,8.51-5,27,27,0,0,0,6.9-11.91,21.13,21.13,0,0,0,.93-8.16A12.45,12.45,0,0,0,245.53,29a12.19,12.19,0,0,0-1-.79,16.37,16.37,0,0,1,5.88,2.57A17.66,17.66,0,0,1,256.18,51.68Z"/><path class="cls-1" d="M400.77,19.3a56.76,56.76,0,0,0,9.22.06,26.71,26.71,0,0,1-.9-6.33,9,9,0,0,1,2.07-5.91c.24-.27-4.84-1.89-5.32-1.95-1.73-.19-3.64-.45-4,1.29s.68,4.41.49,6.29A30,30,0,0,1,400.77,19.3Z"/><path class="cls-2" d="M414.28,2.45a6.09,6.09,0,0,0-3-1.65,16.85,16.85,0,0,0-6.75-.74c-2.64.22-6.88.85-7.68,3.82-1.88,7,10.1,6.05,14,5.63C414.44,9.12,417.42,5.73,414.28,2.45Z"/><path class="cls-3" d="M412.3,4c-1.08.2-2.1.63-3.18.83a13.86,13.86,0,0,1-3.75.18,14.1,14.1,0,0,1-3.46-.71c-.78-.26-1.57-.88-2.41-.67a.33.33,0,0,0-.24.31c-.12,2,4.27,2.57,5.64,2.72,2.48.28,5.83.11,7.94-1.38A.7.7,0,0,0,412.3,4Z"/><path class="cls-1" d="M407.74,68.75a55.78,55.78,0,0,0-9.23,0,26.56,26.56,0,0,1,.9,6.32,9,9,0,0,1-2.06,5.91c-.25.27,4.84,1.89,5.31,1.95,1.73.19,3.64.45,4-1.28s-.68-4.42-.49-6.3A29.41,29.41,0,0,1,407.74,68.75Z"/><path class="cls-2" d="M394.22,85.6a6.09,6.09,0,0,0,3,1.65A16.68,16.68,0,0,0,404,88c2.64-.22,6.88-.85,7.68-3.81,1.88-7-10.1-6.06-14-5.64C394.06,78.93,391.08,82.32,394.22,85.6Z"/><path class="cls-3" d="M396.2,84c1.08-.19,2.1-.63,3.18-.83a14.35,14.35,0,0,1,3.76-.18,14.12,14.12,0,0,1,3.45.71c.78.26,1.58.88,2.42.67a.33.33,0,0,0,.23-.31c.12-2-4.27-2.57-5.64-2.72-2.48-.27-5.83-.11-7.93,1.39A.7.7,0,0,0,396.2,84Z"/><path class="cls-1" d="M400.77,19.3a56.76,56.76,0,0,0,9.22.06,26.71,26.71,0,0,1-.9-6.33,9,9,0,0,1,2.07-5.91c.24-.27-4.84-1.89-5.32-1.95-1.73-.19-3.64-.45-4,1.29s.68,4.41.49,6.29A30,30,0,0,1,400.77,19.3Z"/><path class="cls-2" d="M414.28,2.45a6.09,6.09,0,0,0-3-1.65,16.85,16.85,0,0,0-6.75-.74c-2.64.22-6.88.85-7.68,3.82-1.88,7,10.1,6.05,14,5.63C414.44,9.12,417.42,5.73,414.28,2.45Z"/><path class="cls-3" d="M412.3,4c-1.08.2-2.1.63-3.18.83a13.86,13.86,0,0,1-3.75.18,14.1,14.1,0,0,1-3.46-.71c-.78-.26-1.57-.88-2.41-.67a.33.33,0,0,0-.24.31c-.12,2,4.27,2.57,5.64,2.72,2.48.28,5.83.11,7.94-1.38A.7.7,0,0,0,412.3,4Z"/><path class="cls-1" d="M407.74,68.75a55.78,55.78,0,0,0-9.23,0,26.56,26.56,0,0,1,.9,6.32,9,9,0,0,1-2.06,5.91c-.25.27,4.84,1.89,5.31,1.95,1.73.19,3.64.45,4-1.28s-.68-4.42-.49-6.3A29.41,29.41,0,0,1,407.74,68.75Z"/><path class="cls-2" d="M394.22,85.6a6.09,6.09,0,0,0,3,1.65A16.68,16.68,0,0,0,404,88c2.64-.22,6.88-.85,7.68-3.81,1.88-7-10.1-6.06-14-5.64C394.06,78.93,391.08,82.32,394.22,85.6Z"/><path class="cls-3" d="M396.2,84c1.08-.19,2.1-.63,3.18-.83a14.35,14.35,0,0,1,3.76-.18,14.12,14.12,0,0,1,3.45.71c.78.26,1.58.88,2.42.67a.33.33,0,0,0,.23-.31c.12-2-4.27-2.57-5.64-2.72-2.48-.27-5.83-.11-7.93,1.39A.7.7,0,0,0,396.2,84Z"/><path class="cls-1" d="M379.53,47.51a55.66,55.66,0,0,0,.05-9.22,26.63,26.63,0,0,1-6.32.9,9.06,9.06,0,0,1-5.92-2.07c-.27-.24-1.89,4.84-1.94,5.32-.19,1.72-.46,3.64,1.28,4.05s4.42-.68,6.3-.5A29.54,29.54,0,0,1,379.53,47.51Z"/><path class="cls-2" d="M362.68,34A6.18,6.18,0,0,0,361,37a16.63,16.63,0,0,0-.73,6.75c.22,2.63.85,6.88,3.81,7.67,7,1.89,6.06-10.1,5.64-14C369.35,33.83,366,30.85,362.68,34Z"/><path class="cls-3" d="M364.25,36c.2,1.07.63,2.1.83,3.18a13.86,13.86,0,0,1,.19,3.75,15,15,0,0,1-.71,3.45c-.26.79-.89,1.58-.67,2.42a.34.34,0,0,0,.31.24c2,.11,2.57-4.28,2.72-5.64.27-2.48.11-5.83-1.39-7.94A.7.7,0,0,0,364.25,36Z"/><path class="cls-1" d="M429,40.54a56.77,56.77,0,0,0-.05,9.22,27.15,27.15,0,0,1,6.32-.9,9,9,0,0,1,5.92,2.07c.27.25,1.89-4.84,1.94-5.32.19-1.72.46-3.64-1.28-4s-4.42.68-6.3.5A29.67,29.67,0,0,1,429,40.54Z"/><path class="cls-2" d="M445.82,54.06a6.18,6.18,0,0,0,1.66-3,16.63,16.63,0,0,0,.73-6.75c-.21-2.63-.85-6.88-3.81-7.67-7-1.88-6.06,10.1-5.64,14C439.15,54.22,442.54,57.2,445.82,54.06Z"/><path class="cls-3" d="M444.25,52.07c-.2-1.07-.63-2.09-.83-3.17a14,14,0,0,1-.19-3.76,15,15,0,0,1,.71-3.45c.27-.79.89-1.58.67-2.42a.31.31,0,0,0-.31-.23c-2-.12-2.56,4.27-2.72,5.63-.27,2.49-.1,5.83,1.39,7.94A.7.7,0,0,0,444.25,52.07Z"/><path class="cls-1" d="M384.3,29a55.85,55.85,0,0,0,6.56-6.49,26.58,26.58,0,0,1-5.1-3.83A9,9,0,0,1,383,13.05c0-.37-4.76,2.08-5.14,2.38-1.35,1.09-2.9,2.25-2,3.77s3.61,2.65,4.81,4.11A29.39,29.39,0,0,1,384.3,29Z"/><path class="cls-2" d="M382,7.53a6.27,6.27,0,0,0-3.31,1,16.74,16.74,0,0,0-5.29,4.26c-1.71,2-4.27,5.46-2.73,8.12C374.25,27.18,382,18,384.5,15,386.78,12.14,386.49,7.63,382,7.53Z"/><path class="cls-3" d="M381.66,10.05c-.62.9-1,1.93-1.66,2.84a13.93,13.93,0,0,1-2.53,2.78,14.39,14.39,0,0,1-2.94,1.94c-.74.37-1.74.49-2.18,1.24a.32.32,0,0,0,0,.38c1.32,1.49,4.84-1.2,5.91-2.06,1.95-1.56,4.2-4.05,4.63-6.59A.7.7,0,0,0,381.66,10.05Z"/><path class="cls-1" d="M424.2,59a55.85,55.85,0,0,0-6.56,6.49,27.39,27.39,0,0,1,5.11,3.83A9,9,0,0,1,425.47,75c0,.36,4.75-2.09,5.13-2.39,1.35-1.08,2.9-2.25,2-3.77s-3.61-2.64-4.8-4.1A29.33,29.33,0,0,1,424.2,59Z"/><path class="cls-2" d="M426.55,80.52a6.19,6.19,0,0,0,3.31-1,16.63,16.63,0,0,0,5.29-4.26c1.71-2,4.27-5.46,2.74-8.12-3.64-6.3-11.43,2.86-13.89,5.91C421.72,75.91,422,80.42,426.55,80.52Z"/><path class="cls-3" d="M426.84,78c.62-.9,1-1.93,1.66-2.84A14.21,14.21,0,0,1,431,72.38,14.39,14.39,0,0,1,434,70.44c.74-.37,1.74-.49,2.18-1.24a.32.32,0,0,0,0-.38c-1.32-1.49-4.84,1.2-5.91,2.06-1.95,1.56-4.2,4.05-4.63,6.6A.7.7,0,0,0,426.84,78Z"/><path class="cls-1" d="M389.23,64a55.75,55.75,0,0,0-6.48-6.56,26.39,26.39,0,0,1-3.84,5.11,9,9,0,0,1-5.64,2.72c-.37,0,2.09,4.76,2.39,5.14,1.08,1.35,2.25,2.89,3.77,2s2.64-3.6,4.1-4.8A30.25,30.25,0,0,1,389.23,64Z"/><path class="cls-2" d="M367.76,66.33a6.1,6.1,0,0,0,1,3.31A16.72,16.72,0,0,0,373,74.93c2,1.71,5.47,4.27,8.13,2.73,6.29-3.64-2.86-11.42-5.91-13.88C372.36,61.5,367.86,61.79,367.76,66.33Z"/><path class="cls-3" d="M370.28,66.62c.9.62,1.93,1,2.83,1.66a14.21,14.21,0,0,1,2.79,2.52,14.46,14.46,0,0,1,1.94,3c.37.74.49,1.74,1.23,2.18a.35.35,0,0,0,.39-.05C381,74.55,378.25,71,377.39,70c-1.56-2-4-4.2-6.59-4.64A.7.7,0,0,0,370.28,66.62Z"/><path class="cls-1" d="M419.27,24.08a55.76,55.76,0,0,0,6.48,6.56,26.7,26.7,0,0,1,3.84-5.11,9,9,0,0,1,5.64-2.72c.37,0-2.08-4.76-2.39-5.13-1.08-1.36-2.24-2.9-3.76-2s-2.65,3.6-4.11,4.8A29.26,29.26,0,0,1,419.27,24.08Z"/><path class="cls-2" d="M440.74,21.72a6.12,6.12,0,0,0-1-3.31,16.72,16.72,0,0,0-4.25-5.29c-2-1.71-5.47-4.26-8.12-2.73-6.3,3.64,2.85,11.43,5.91,13.88C436.14,26.55,440.64,26.26,440.74,21.72Z"/><path class="cls-3" d="M438.22,21.43c-.9-.62-1.92-1-2.83-1.65a14.26,14.26,0,0,1-2.79-2.53,14.82,14.82,0,0,1-1.94-2.94c-.37-.75-.48-1.75-1.23-2.19a.34.34,0,0,0-.39.06c-1.49,1.32,1.21,4.83,2.07,5.9,1.56,2,4,4.2,6.59,4.64A.7.7,0,0,0,438.22,21.43Z"/><path class="cls-1" d="M433.3,55.22a32.33,32.33,0,0,1-8.3,11,27.94,27.94,0,0,1-10.55,6,29.76,29.76,0,0,1-12.22.62,40.07,40.07,0,0,1-7.54-1.76A32.2,32.2,0,0,1,383.8,65c-5.1-4.47-8.56-11-8.6-17.78a27.62,27.62,0,0,1,2.39-10.86c3.31-7.84,11.66-15,19.57-18.09a29.75,29.75,0,0,1,17.16-1.34,26.6,26.6,0,0,1,9.57,4.18C434.32,28.49,438.48,43.54,433.3,55.22Z"/><path class="cls-2" d="M431,45.93a2.29,2.29,0,0,0-3.79-1,7.64,7.64,0,0,0-2.05,4.5,4.28,4.28,0,0,0,.33,2.5A2.49,2.49,0,0,0,428.64,53c1.54-.68,2.14-2.72,2.28-4.34A4.18,4.18,0,0,0,431,45.93Z"/><path class="cls-2" d="M425.39,32.62a4.54,4.54,0,0,0-.73-1.87l-.3-.61a2.5,2.5,0,0,0-2.93-1.4A2.63,2.63,0,0,0,419.71,32a5.34,5.34,0,0,0,.87,1.89,3.07,3.07,0,0,0,2.48,1.54A2.43,2.43,0,0,0,425.39,32.62Z"/><path class="cls-2" d="M421.81,39.66a1.26,1.26,0,0,0,0-.58,1.64,1.64,0,0,0-.74-.95,1.51,1.51,0,0,0-1.55,0,1.73,1.73,0,0,0-.83,1.73,2,2,0,0,0,1,1.38,1.49,1.49,0,0,0,2.19-1.58Z"/><path class="cls-2" d="M387.42,38a3.23,3.23,0,0,0-2.7,1.74,5,5,0,0,0-.4,3.35A3.35,3.35,0,0,0,386,45.67a2.58,2.58,0,0,0,3.3-.77,4,4,0,0,0,.62-2C390.41,40.94,389.72,38.08,387.42,38Z"/><path class="cls-2" d="M396.44,57a2.82,2.82,0,0,0-1.5-1.81,2.49,2.49,0,0,0-1.58-.31,2.17,2.17,0,0,0-1.09.46l-.24.21h0l0,0-.12.15-.05.06a.38.38,0,0,0-.09.13,1.83,1.83,0,0,0-.33.67,2.4,2.4,0,0,0,.24,1.76,3,3,0,0,0,1.07,1.07,3.3,3.3,0,0,0,1.47.4,2.25,2.25,0,0,0,1.19-.28,2.16,2.16,0,0,0,.67-.64,1.76,1.76,0,0,0,.38-.73A2.28,2.28,0,0,0,396.44,57Z"/><path class="cls-2" d="M405.05,45.79a2.84,2.84,0,0,0-1-.51,2.28,2.28,0,0,0-2.86,2.18,2.85,2.85,0,0,0,2,2.8,1.93,1.93,0,0,0,1.63-.33,2.19,2.19,0,0,0,.44-.47,2.79,2.79,0,0,0,.24-.31,1.84,1.84,0,0,0,.31-.7,3,3,0,0,0,.1-.8A2.43,2.43,0,0,0,405.05,45.79Z"/><path class="cls-2" d="M414.62,62.87a2.32,2.32,0,0,0-3.16-.91,4.83,4.83,0,0,0-1.88.18,4.6,4.6,0,0,0-2.71,2,3.26,3.26,0,0,0,1,4.41,4.05,4.05,0,0,0,3.74-.09C413.55,67.68,416,65.12,414.62,62.87Z"/><path class="cls-2" d="M398.77,26.28a2.71,2.71,0,0,0-1.24-1.61,3,3,0,0,0-2.08-.28,4.7,4.7,0,0,0-2.82,2,4.06,4.06,0,0,0-.63,3.36,2.49,2.49,0,0,0,1.73,1.73,2.46,2.46,0,0,0,.67.08,3.82,3.82,0,0,0,3.37-1.4,4.43,4.43,0,0,0,1-1.79A4.65,4.65,0,0,0,398.77,26.28Z"/><path class="cls-2" d="M385.22,52.1v0a2.35,2.35,0,0,0-.29-1.69,2.73,2.73,0,0,0-1.77-1.34,2.39,2.39,0,0,0-1.3,0,2.28,2.28,0,0,0-1.08.63,2.47,2.47,0,0,0-.63,2.37,3.76,3.76,0,0,0,.92,1.78,3.4,3.4,0,0,0,.75.61,2.48,2.48,0,0,0,1.94.25A2.14,2.14,0,0,0,385.22,52.1Z"/><path class="cls-2" d="M412.37,24.58a3.21,3.21,0,0,0-.87-1.39,3.92,3.92,0,0,0-2.05-1.07,2.75,2.75,0,0,0-2.54.67,2.7,2.7,0,0,0-.67,2.54c.54,2.47,4,4.79,6.09,2.57A2.44,2.44,0,0,0,412.37,24.58Z"/><path class="cls-4" d="M433.3,55.22a32.33,32.33,0,0,1-8.3,11,27.94,27.94,0,0,1-10.55,6,29.76,29.76,0,0,1-12.22.62,40.07,40.07,0,0,1-7.54-1.76A33.33,33.33,0,0,0,408.55,63a44.08,44.08,0,0,0,11.24-19.39,34.73,34.73,0,0,0,1.51-13.3A20.31,20.31,0,0,0,416,18.23a19.42,19.42,0,0,0-1.64-1.29,26.6,26.6,0,0,1,9.57,4.18C434.32,28.49,438.48,43.54,433.3,55.22Z"/><path class="cls-1" d="M208.53,346.5a29,29,0,0,0,2.43-4,13.7,13.7,0,0,1-3-1.26,4.58,4.58,0,0,1-2.06-2.45c-.06-.18-2.1,1.63-2.24,1.83-.54.71-1.16,1.48-.5,2.11s2.12.86,2.9,1.43A15.1,15.1,0,0,1,208.53,346.5Z"/><path class="cls-2" d="M204.66,336.16a3.07,3.07,0,0,0-1.52.9,8.59,8.59,0,0,0-2.09,2.77c-.59,1.21-1.42,3.25-.33,4.37,2.6,2.66,5.3-2.86,6.14-4.68S206.92,335.64,204.66,336.16Z"/><path class="cls-3" d="M204.83,337.44c-.19.53-.27,1.09-.46,1.62a7.61,7.61,0,0,1-.9,1.69,7.39,7.39,0,0,1-1.22,1.34c-.32.27-.8.46-.92.88a.17.17,0,0,0,.07.19c.84.57,2.24-1.21,2.67-1.77a6.26,6.26,0,0,0,1.46-3.85A.36.36,0,0,0,204.83,337.44Z"/><path class="cls-1" d="M232.08,356.35a28.47,28.47,0,0,0-2.43,4,13.28,13.28,0,0,1,3,1.25,4.6,4.6,0,0,1,2.06,2.46,12.57,12.57,0,0,0,2.25-1.83c.53-.71,1.15-1.48.49-2.12s-2.12-.85-2.9-1.43A15.44,15.44,0,0,1,232.08,356.35Z"/><path class="cls-2" d="M236,366.69a3.16,3.16,0,0,0,1.51-.9,8.7,8.7,0,0,0,2.09-2.77c.59-1.22,1.42-3.25.33-4.37-2.6-2.66-5.3,2.85-6.13,4.68S233.69,367.21,236,366.69Z"/><path class="cls-3" d="M235.78,365.4c.2-.52.27-1.08.47-1.61a7.11,7.11,0,0,1,.9-1.7,6.93,6.93,0,0,1,1.21-1.33c.32-.28.8-.46.93-.89a.17.17,0,0,0-.08-.18c-.84-.57-2.24,1.21-2.67,1.77a6.26,6.26,0,0,0-1.46,3.85A.36.36,0,0,0,235.78,365.4Z"/><path class="cls-1" d="M208.53,346.5a29,29,0,0,0,2.43-4,13.7,13.7,0,0,1-3-1.26,4.58,4.58,0,0,1-2.06-2.45c-.06-.18-2.1,1.63-2.24,1.83-.54.71-1.16,1.48-.5,2.11s2.12.86,2.9,1.43A15.1,15.1,0,0,1,208.53,346.5Z"/><path class="cls-2" d="M204.66,336.16a3.07,3.07,0,0,0-1.52.9,8.59,8.59,0,0,0-2.09,2.77c-.59,1.21-1.42,3.25-.33,4.37,2.6,2.66,5.3-2.86,6.14-4.68S206.92,335.64,204.66,336.16Z"/><path class="cls-3" d="M204.83,337.44c-.19.53-.27,1.09-.46,1.62a7.61,7.61,0,0,1-.9,1.69,7.39,7.39,0,0,1-1.22,1.34c-.32.27-.8.46-.92.88a.17.17,0,0,0,.07.19c.84.57,2.24-1.21,2.67-1.77a6.26,6.26,0,0,0,1.46-3.85A.36.36,0,0,0,204.83,337.44Z"/><path class="cls-1" d="M232.08,356.35a28.47,28.47,0,0,0-2.43,4,13.28,13.28,0,0,1,3,1.25,4.6,4.6,0,0,1,2.06,2.46,12.57,12.57,0,0,0,2.25-1.83c.53-.71,1.15-1.48.49-2.12s-2.12-.85-2.9-1.43A15.44,15.44,0,0,1,232.08,356.35Z"/><path class="cls-2" d="M236,366.69a3.16,3.16,0,0,0,1.51-.9,8.7,8.7,0,0,0,2.09-2.77c.59-1.22,1.42-3.25.33-4.37-2.6-2.66-5.3,2.85-6.13,4.68S233.69,367.21,236,366.69Z"/><path class="cls-3" d="M235.78,365.4c.2-.52.27-1.08.47-1.61a7.11,7.11,0,0,1,.9-1.7,6.93,6.93,0,0,1,1.21-1.33c.32-.28.8-.46.93-.89a.17.17,0,0,0-.08-.18c-.84-.57-2.24,1.21-2.67,1.77a6.26,6.26,0,0,0-1.46,3.85A.36.36,0,0,0,235.78,365.4Z"/><path class="cls-1" d="M215.38,363.2a28.1,28.1,0,0,0-4-2.43,14.17,14.17,0,0,1-1.25,3,4.6,4.6,0,0,1-2.46,2.06,12.9,12.9,0,0,0,1.83,2.24c.71.54,1.48,1.15,2.12.5s.85-2.12,1.43-2.9A14.63,14.63,0,0,1,215.38,363.2Z"/><path class="cls-2" d="M205,367.07a3.14,3.14,0,0,0,.9,1.52,8.7,8.7,0,0,0,2.77,2.09c1.22.59,3.25,1.42,4.37.32,2.66-2.59-2.86-5.29-4.68-6.13S204.52,364.81,205,367.07Z"/><path class="cls-3" d="M206.33,366.9c.52.19,1.08.27,1.61.46a7.49,7.49,0,0,1,1.7.9,7.68,7.68,0,0,1,1.33,1.22c.28.32.46.8.89.92a.16.16,0,0,0,.18-.07c.57-.85-1.21-2.25-1.77-2.67a6.26,6.26,0,0,0-3.85-1.46A.36.36,0,0,0,206.33,366.9Z"/><path class="cls-1" d="M225.23,339.65a29,29,0,0,0,4,2.43,13.75,13.75,0,0,1,1.25-3A4.64,4.64,0,0,1,233,337c.18-.06-1.64-2.1-1.83-2.25-.71-.53-1.48-1.15-2.12-.49s-.85,2.12-1.42,2.9A15.5,15.5,0,0,1,225.23,339.65Z"/><path class="cls-2" d="M235.57,335.77a3.08,3.08,0,0,0-.9-1.51,8.45,8.45,0,0,0-2.77-2.09c-1.22-.59-3.25-1.42-4.37-.33-2.66,2.6,2.86,5.3,4.68,6.13S236.09,338,235.57,335.77Z"/><path class="cls-3" d="M234.29,336c-.53-.2-1.09-.27-1.62-.47a6.87,6.87,0,0,1-1.69-.9,7.34,7.34,0,0,1-1.34-1.21c-.27-.32-.46-.8-.88-.93a.18.18,0,0,0-.19.08c-.57.84,1.21,2.24,1.77,2.67a6.38,6.38,0,0,0,3.85,1.46A.36.36,0,0,0,234.29,336Z"/><path class="cls-1" d="M208.5,356.27a29.77,29.77,0,0,0-1.14-4.58,13.47,13.47,0,0,1-3,1.25,4.61,4.61,0,0,1-3.19-.28,12,12,0,0,0-.29,2.88c.12.87.23,1.86,1.14,1.84s2.11-.89,3.06-1A15.23,15.23,0,0,1,208.5,356.27Z"/><path class="cls-2" d="M198.45,351.7a3.11,3.11,0,0,0-.44,1.7,8.36,8.36,0,0,0,.49,3.44c.43,1.28,1.28,3.3,2.85,3.32,3.72,0,1.73-5.77,1-7.64S199.67,349.73,198.45,351.7Z"/><path class="cls-3" d="M199.48,352.48c.23.51.57,1,.81,1.47a6.88,6.88,0,0,1,.56,1.84,7.74,7.74,0,0,1,.09,1.8c0,.42-.24.89,0,1.28a.18.18,0,0,0,.18.08c1-.2.74-2.44.64-3.14a6.32,6.32,0,0,0-1.69-3.76A.36.36,0,0,0,199.48,352.48Z"/><path class="cls-1" d="M232.11,346.58a29.94,29.94,0,0,0,1.14,4.57,13.91,13.91,0,0,1,3-1.24,4.61,4.61,0,0,1,3.19.28,11.51,11.51,0,0,0,.29-2.88c-.12-.88-.23-1.86-1.14-1.84s-2.11.89-3.06,1A14.65,14.65,0,0,1,232.11,346.58Z"/><path class="cls-2" d="M242.17,351.15a3.12,3.12,0,0,0,.43-1.71,8.48,8.48,0,0,0-.48-3.43c-.44-1.28-1.29-3.31-2.86-3.32-3.72-.05-1.73,5.76-1,7.64S240.94,353.12,242.17,351.15Z"/><path class="cls-3" d="M241.14,350.36c-.24-.5-.58-.95-.82-1.46a7.52,7.52,0,0,1-.56-1.84,7.74,7.74,0,0,1-.09-1.8c0-.42.24-.89,0-1.28a.16.16,0,0,0-.18-.08c-1,.19-.74,2.44-.64,3.14a6.27,6.27,0,0,0,1.69,3.75A.36.36,0,0,0,241.14,350.36Z"/><path class="cls-1" d="M225.15,363.23a27.88,27.88,0,0,0-4.58,1.14,13.28,13.28,0,0,1,1.25,3,4.61,4.61,0,0,1-.28,3.19,12.54,12.54,0,0,0,2.88.29c.88-.12,1.86-.23,1.84-1.15s-.89-2.1-1-3.05A15.23,15.23,0,0,1,225.15,363.23Z"/><path class="cls-2" d="M220.58,373.28a3.12,3.12,0,0,0,1.71.44,8.31,8.31,0,0,0,3.43-.49c1.28-.44,3.3-1.28,3.32-2.85.05-3.72-5.76-1.73-7.64-1S218.61,372.05,220.58,373.28Z"/><path class="cls-3" d="M221.36,372.25c.51-.23,1-.57,1.47-.81a7,7,0,0,1,1.84-.56,7.74,7.74,0,0,1,1.8-.09c.42,0,.89.24,1.28,0a.17.17,0,0,0,.08-.18c-.19-1-2.44-.74-3.14-.64a6.27,6.27,0,0,0-3.75,1.69A.35.35,0,0,0,221.36,372.25Z"/><path class="cls-1" d="M215.46,339.61a28.9,28.9,0,0,0,4.58-1.13,13.47,13.47,0,0,1-1.25-3,4.61,4.61,0,0,1,.28-3.19,11.46,11.46,0,0,0-2.88-.29c-.88.12-1.86.23-1.84,1.14s.89,2.1,1,3.06A15.13,15.13,0,0,1,215.46,339.61Z"/><path class="cls-2" d="M220,329.56a3.11,3.11,0,0,0-1.7-.44,8.68,8.68,0,0,0-3.44.49c-1.28.44-3.3,1.29-3.32,2.86,0,3.72,5.77,1.73,7.64,1S222,330.79,220,329.56Z"/><path class="cls-3" d="M219.25,330.59c-.51.24-1,.58-1.47.82a7.26,7.26,0,0,1-1.84.56,7.74,7.74,0,0,1-1.8.09c-.42,0-.89-.25-1.28,0a.16.16,0,0,0-.08.18c.19,1,2.44.73,3.14.64a6.32,6.32,0,0,0,3.76-1.69A.36.36,0,0,0,219.25,330.59Z"/><path class="cls-1" d="M232.81,341.58a16.45,16.45,0,0,1,2.68,6.53,14.14,14.14,0,0,1-.09,6.21,15.16,15.16,0,0,1-2.92,5.54,20.52,20.52,0,0,1-2.74,2.85,16.38,16.38,0,0,1-5.55,3.18,12.51,12.51,0,0,1-10.06-.86,14.12,14.12,0,0,1-4.15-3.89c-2.58-3.5-3.54-9-2.84-13.32a15.23,15.23,0,0,1,3.89-7.89,13.58,13.58,0,0,1,4.34-3.12A14.72,14.72,0,0,1,232.81,341.58Z"/><path class="cls-2" d="M228.14,340.15a1.17,1.17,0,0,0-1.43,1.4,3.91,3.91,0,0,0,1.44,2.08,2.18,2.18,0,0,0,1.19.5,1.26,1.26,0,0,0,1.28-1.08,2.61,2.61,0,0,0-1.31-2.14A2.17,2.17,0,0,0,228.14,340.15Z"/><path class="cls-2" d="M220.81,339.16a2.27,2.27,0,0,0-1-.17l-.35,0a1.29,1.29,0,0,0-1.38.92,1.34,1.34,0,0,0,1,1.59,2.66,2.66,0,0,0,1.05.12,1.59,1.59,0,0,0,1.33-.69A1.24,1.24,0,0,0,220.81,339.16Z"/><path class="cls-2" d="M223,342.56a.64.64,0,0,0-.26-.13.86.86,0,0,0-.61.07.79.79,0,0,0-.41.69.88.88,0,0,0,.55.81,1,1,0,0,0,.85-.06.75.75,0,0,0,.29-.27.81.81,0,0,0,.09-.48A.76.76,0,0,0,223,342.56Z"/><path class="cls-2" d="M213.28,357.26a1.63,1.63,0,0,0,.06,1.64,2.53,2.53,0,0,0,1.37,1.05,1.7,1.7,0,0,0,1.54-.05,1.31,1.31,0,0,0,.52-1.65,1.93,1.93,0,0,0-.7-.79C215.33,356.7,213.9,356.25,213.28,357.26Z"/><path class="cls-2" d="M224,358.25a1.46,1.46,0,0,0-1.18.19,1.25,1.25,0,0,0-.55.61,1,1,0,0,0-.08.6.41.41,0,0,0,0,.16h0v0l0,.09,0,0,0,.07a1,1,0,0,0,.21.32,1.18,1.18,0,0,0,.83.35,1.46,1.46,0,0,0,.76-.19,1.8,1.8,0,0,0,.56-.54,1.1,1.1,0,0,0,.08-1.06.89.89,0,0,0-.23-.35A1.12,1.12,0,0,0,224,358.25Z"/><path class="cls-2" d="M221.29,351.53a1.31,1.31,0,0,0-.47.29,1.15,1.15,0,0,0,.21,1.82,1.43,1.43,0,0,0,1.76-.16,1,1,0,0,0,.19-1.12,1.34,1.34,0,0,0-.07-.18,1.09,1.09,0,0,0-.23-.32,1.85,1.85,0,0,0-.32-.25A1.22,1.22,0,0,0,221.29,351.53Z"/><path class="cls-2" d="M231.3,351.78a1.25,1.25,0,0,0-1.08.61,1.29,1.29,0,0,0-.15.55,2.47,2.47,0,0,0-.41.87,2.36,2.36,0,0,0,.19,1.73,1.66,1.66,0,0,0,2.2.71,2,2,0,0,0,.93-1.67C233.13,353.51,232.64,351.78,231.3,351.78Z"/><path class="cls-2" d="M211.08,349.2a1.39,1.39,0,0,0-1,.12,1.52,1.52,0,0,0-.66.85,2.39,2.39,0,0,0,.15,1.76,2,2,0,0,0,1.31,1.15,1.28,1.28,0,0,0,1.21-.31,1.15,1.15,0,0,0,.21-.27,1.94,1.94,0,0,0,.26-1.85,2.29,2.29,0,0,0-.53-.9A2.37,2.37,0,0,0,211.08,349.2Z"/><path class="cls-2" d="M218.88,361.9h0a1.16,1.16,0,0,0-.82-.32A1.39,1.39,0,0,0,217,362a1.28,1.28,0,0,0-.34.57,1.26,1.26,0,0,0,0,.64,1.29,1.29,0,0,0,.88.9,2.07,2.07,0,0,0,1,.06A1.52,1.52,0,0,0,219,364a1.24,1.24,0,0,0,.62-.78A1.08,1.08,0,0,0,218.88,361.9Z"/><path class="cls-2" d="M213.88,342.78a1.71,1.71,0,0,0-.84,0,2.07,2.07,0,0,0-1,.63,1.39,1.39,0,0,0-.37,1.29,1.38,1.38,0,0,0,.94,1c1.23.41,3.14-.49,2.72-2A1.24,1.24,0,0,0,213.88,342.78Z"/><path class="cls-4" d="M232.81,341.58a16.45,16.45,0,0,1,2.68,6.53,14.14,14.14,0,0,1-.09,6.21,15.16,15.16,0,0,1-2.92,5.54,20.52,20.52,0,0,1-2.74,2.85,17.06,17.06,0,0,0,0-8.22,22.55,22.55,0,0,0-5.59-10,17.87,17.87,0,0,0-5.45-4.14,10.39,10.39,0,0,0-6.71-.81,10.52,10.52,0,0,0-1,.39,13.58,13.58,0,0,1,4.34-3.12A14.72,14.72,0,0,1,232.81,341.58Z"/><path class="cls-1" d="M383.74,324.79a48,48,0,0,0,4-6.63,22.4,22.4,0,0,1-5-2.06,7.51,7.51,0,0,1-3.37-4c-.09-.29-3.44,2.68-3.68,3-.88,1.16-1.89,2.43-.81,3.47s3.47,1.4,4.75,2.34A24.62,24.62,0,0,1,383.74,324.79Z"/><path class="cls-2" d="M377.38,307.83a5.2,5.2,0,0,0-2.48,1.47,14,14,0,0,0-3.42,4.55c-1,2-2.34,5.32-.54,7.16,4.25,4.37,8.69-4.68,10.05-7.67C382.26,310.57,381.09,307,377.38,307.83Z"/><path class="cls-3" d="M377.67,309.93c-.32.87-.45,1.79-.76,2.65a11.6,11.6,0,0,1-1.48,2.78,11.84,11.84,0,0,1-2,2.19c-.52.45-1.31.76-1.52,1.45a.3.3,0,0,0,.13.31c1.38.93,3.68-2,4.37-2.9,1.26-1.67,2.57-4.16,2.4-6.32A.59.59,0,0,0,377.67,309.93Z"/><path class="cls-1" d="M422.36,340.93a47,47,0,0,0-4,6.63,22.33,22.33,0,0,1,4.94,2.06,7.57,7.57,0,0,1,3.38,4c.09.29,3.43-2.68,3.67-3,.88-1.16,1.89-2.43.81-3.47s-3.47-1.4-4.74-2.34A24.23,24.23,0,0,1,422.36,340.93Z"/><path class="cls-2" d="M428.71,357.89a5.18,5.18,0,0,0,2.49-1.47,14,14,0,0,0,3.42-4.55c1-2,2.33-5.32.54-7.16-4.26-4.37-8.69,4.68-10.06,7.67C423.83,355.15,425,358.75,428.71,357.89Z"/><path class="cls-3" d="M428.43,355.79c.31-.86.44-1.79.75-2.65a12,12,0,0,1,1.48-2.78,12.2,12.2,0,0,1,2-2.19c.53-.45,1.32-.76,1.52-1.45a.31.31,0,0,0-.12-.31c-1.39-.93-3.68,2-4.38,2.9-1.26,1.67-2.57,4.16-2.4,6.32A.6.6,0,0,0,428.43,355.79Z"/><path class="cls-1" d="M383.74,324.79a48,48,0,0,0,4-6.63,22.4,22.4,0,0,1-5-2.06,7.51,7.51,0,0,1-3.37-4c-.09-.29-3.44,2.68-3.68,3-.88,1.16-1.89,2.43-.81,3.47s3.47,1.4,4.75,2.34A24.62,24.62,0,0,1,383.74,324.79Z"/><path class="cls-2" d="M377.38,307.83a5.2,5.2,0,0,0-2.48,1.47,14,14,0,0,0-3.42,4.55c-1,2-2.34,5.32-.54,7.16,4.25,4.37,8.69-4.68,10.05-7.67C382.26,310.57,381.09,307,377.38,307.83Z"/><path class="cls-3" d="M377.67,309.93c-.32.87-.45,1.79-.76,2.65a11.6,11.6,0,0,1-1.48,2.78,11.84,11.84,0,0,1-2,2.19c-.52.45-1.31.76-1.52,1.45a.3.3,0,0,0,.13.31c1.38.93,3.68-2,4.37-2.9,1.26-1.67,2.57-4.16,2.4-6.32A.59.59,0,0,0,377.67,309.93Z"/><path class="cls-1" d="M422.36,340.93a47,47,0,0,0-4,6.63,22.33,22.33,0,0,1,4.94,2.06,7.57,7.57,0,0,1,3.38,4c.09.29,3.43-2.68,3.67-3,.88-1.16,1.89-2.43.81-3.47s-3.47-1.4-4.74-2.34A24.23,24.23,0,0,1,422.36,340.93Z"/><path class="cls-2" d="M428.71,357.89a5.18,5.18,0,0,0,2.49-1.47,14,14,0,0,0,3.42-4.55c1-2,2.33-5.32.54-7.16-4.26-4.37-8.69,4.68-10.06,7.67C423.83,355.15,425,358.75,428.71,357.89Z"/><path class="cls-3" d="M428.43,355.79c.31-.86.44-1.79.75-2.65a12,12,0,0,1,1.48-2.78,12.2,12.2,0,0,1,2-2.19c.53-.45,1.32-.76,1.52-1.45a.31.31,0,0,0-.12-.31c-1.39-.93-3.68,2-4.38,2.9-1.26,1.67-2.57,4.16-2.4,6.32A.6.6,0,0,0,428.43,355.79Z"/><path class="cls-1" d="M395,352.17a47.28,47.28,0,0,0-6.62-4,22.81,22.81,0,0,1-2.06,4.94,7.57,7.57,0,0,1-4,3.38c-.3.09,2.68,3.44,3,3.68,1.16.87,2.42,1.89,3.46.81s1.41-3.48,2.35-4.75A24.57,24.57,0,0,1,395,352.17Z"/><path class="cls-2" d="M378,358.52a5.12,5.12,0,0,0,1.48,2.49,13.88,13.88,0,0,0,4.55,3.42c2,1,5.32,2.34,7.16.54,4.37-4.26-4.68-8.69-7.67-10.06C380.76,353.65,377.16,354.81,378,358.52Z"/><path class="cls-3" d="M380.12,358.24c.86.32,1.78.44,2.65.76a11.75,11.75,0,0,1,2.78,1.47,12.55,12.55,0,0,1,2.19,2c.45.53.75,1.32,1.45,1.52a.26.26,0,0,0,.3-.12c.94-1.38-2-3.68-2.9-4.37-1.67-1.26-4.15-2.58-6.31-2.4A.59.59,0,0,0,380.12,358.24Z"/><path class="cls-1" d="M411.12,313.55a46.82,46.82,0,0,0,6.63,4,22.3,22.3,0,0,1,2.05-4.94,7.59,7.59,0,0,1,4-3.38c.29-.09-2.68-3.44-3-3.68-1.16-.87-2.43-1.89-3.47-.81s-1.4,3.48-2.34,4.75A24.63,24.63,0,0,1,411.12,313.55Z"/><path class="cls-2" d="M428.08,307.2a5.18,5.18,0,0,0-1.47-2.49,14,14,0,0,0-4.56-3.42c-2-1-5.32-2.34-7.16-.54-4.36,4.26,4.69,8.69,7.67,10.06C425.34,312.07,428.94,310.91,428.08,307.2Z"/><path class="cls-3" d="M426,307.48c-.86-.32-1.78-.44-2.64-.76a11.82,11.82,0,0,1-2.79-1.47,12.49,12.49,0,0,1-2.18-2c-.46-.53-.76-1.32-1.46-1.52a.26.26,0,0,0-.3.12c-.94,1.38,2,3.68,2.9,4.37,1.67,1.26,4.15,2.58,6.31,2.4A.59.59,0,0,0,426,307.48Z"/><path class="cls-1" d="M383.68,340.8a46.18,46.18,0,0,0-1.86-7.5,22.46,22.46,0,0,1-4.95,2,7.53,7.53,0,0,1-5.23-.46c-.27-.14-.54,4.33-.48,4.73.2,1.43.38,3.05,1.88,3s3.45-1.47,5-1.7A24.66,24.66,0,0,1,383.68,340.8Z"/><path class="cls-2" d="M367.2,333.31a5.14,5.14,0,0,0-.72,2.8,14,14,0,0,0,.8,5.63c.72,2.1,2.11,5.42,4.69,5.45,6.09.07,2.83-9.46,1.68-12.54C372.59,331.8,369.22,330.08,367.2,333.31Z"/><path class="cls-3" d="M368.89,334.6c.38.83.95,1.57,1.33,2.4a11.93,11.93,0,0,1,.93,3,12.76,12.76,0,0,1,.14,3c-.05.69-.4,1.46-.05,2.1a.28.28,0,0,0,.3.13c1.64-.32,1.21-4,1-5.15-.3-2.07-1.12-4.75-2.77-6.16A.59.59,0,0,0,368.89,334.6Z"/><path class="cls-1" d="M422.41,324.92a47.24,47.24,0,0,0,1.86,7.5,22.66,22.66,0,0,1,5-2,7.56,7.56,0,0,1,5.24.46c.27.14.53-4.33.48-4.73-.21-1.43-.39-3.05-1.88-3s-3.45,1.47-5,1.7A24.66,24.66,0,0,1,422.41,324.92Z"/><path class="cls-2" d="M438.89,332.41a5.14,5.14,0,0,0,.72-2.8,13.87,13.87,0,0,0-.8-5.63c-.72-2.1-2.11-5.42-4.68-5.45-6.1-.07-2.83,9.46-1.69,12.54C433.51,333.92,436.88,335.64,438.89,332.41Z"/><path class="cls-3" d="M437.2,331.12c-.38-.83-.94-1.57-1.33-2.4a12,12,0,0,1-1.06-6c.05-.69.39-1.46,0-2.1a.28.28,0,0,0-.3-.13c-1.64.32-1.2,4-1,5.15.29,2.07,1.12,4.75,2.77,6.16A.59.59,0,0,0,437.2,331.12Z"/><path class="cls-1" d="M411,352.22a47,47,0,0,0-7.5,1.87,22.46,22.46,0,0,1,2,5,7.59,7.59,0,0,1-.46,5.23c-.14.27,4.32.53,4.72.48,1.44-.2,3-.38,3-1.88s-1.46-3.45-1.7-5A25.33,25.33,0,0,1,411,352.22Z"/><path class="cls-2" d="M403.49,368.71a5.16,5.16,0,0,0,2.8.71,13.92,13.92,0,0,0,5.64-.8c2.09-.72,5.41-2.11,5.44-4.68.08-6.1-9.45-2.83-12.53-1.68C402,363.32,400.26,366.69,403.49,368.71Z"/><path class="cls-3" d="M404.78,367c.83-.39,1.57-.95,2.41-1.34a11.66,11.66,0,0,1,3-.92,12.15,12.15,0,0,1,2.95-.14c.7.05,1.47.39,2.11,0a.28.28,0,0,0,.12-.29c-.31-1.65-4-1.21-5.14-1.05-2.07.29-4.76,1.12-6.16,2.77A.59.59,0,0,0,404.78,367Z"/><path class="cls-1" d="M395.1,313.5a47.39,47.39,0,0,0,7.51-1.87,22.46,22.46,0,0,1-2-4.95,7.59,7.59,0,0,1,.45-5.23c.15-.27-4.32-.53-4.72-.48-1.44.2-3.05.38-3,1.88s1.46,3.45,1.7,5A24.74,24.74,0,0,1,395.1,313.5Z"/><path class="cls-2" d="M402.6,297a5.13,5.13,0,0,0-2.8-.71,13.94,13.94,0,0,0-5.64.8c-2.09.72-5.41,2.11-5.44,4.68-.08,6.1,9.46,2.83,12.53,1.68C404.11,302.4,405.83,299,402.6,297Z"/><path class="cls-3" d="M401.31,298.7c-.83.39-1.57.95-2.41,1.34a11.66,11.66,0,0,1-3,.92,12.15,12.15,0,0,1-2.95.14c-.69-.05-1.46-.39-2.1,0a.27.27,0,0,0-.13.29c.32,1.65,4,1.21,5.14,1,2.08-.29,4.76-1.12,6.16-2.77A.59.59,0,0,0,401.31,298.7Z"/><path class="cls-1" d="M423.55,316.72a27,27,0,0,1,4.4,10.7,23.55,23.55,0,0,1-.15,10.2,25,25,0,0,1-4.79,9.07,33.18,33.18,0,0,1-4.5,4.68,26.93,26.93,0,0,1-9.1,5.21,20.48,20.48,0,0,1-16.49-1.41,23.15,23.15,0,0,1-6.81-6.38c-4.23-5.74-5.8-14.82-4.65-21.84A24.89,24.89,0,0,1,387.84,314,22.29,22.29,0,0,1,395,308.9C404.73,304.53,417.36,308,423.55,316.72Z"/><path class="cls-2" d="M415.89,314.37a1.92,1.92,0,0,0-2.34,2.3,6.36,6.36,0,0,0,2.36,3.41,3.63,3.63,0,0,0,1.94.83,2.07,2.07,0,0,0,2.1-1.78c.18-1.41-1-2.71-2.14-3.51A3.54,3.54,0,0,0,415.89,314.37Z"/><path class="cls-2" d="M403.88,312.75a3.57,3.57,0,0,0-1.66-.28l-.57-.05a2.1,2.1,0,0,0-2.27,1.52,2.2,2.2,0,0,0,1.58,2.6,4.29,4.29,0,0,0,1.74.19,2.58,2.58,0,0,0,2.17-1.12A2,2,0,0,0,403.88,312.75Z"/><path class="cls-2" d="M407.42,318.33a1,1,0,0,0-.43-.22,1.38,1.38,0,0,0-1,.12,1.29,1.29,0,0,0-.67,1.13,1.45,1.45,0,0,0,.89,1.33,1.66,1.66,0,0,0,1.41-.1,1.17,1.17,0,0,0,.46-.45,1.26,1.26,0,0,0,.16-.78A1.27,1.27,0,0,0,407.42,318.33Z"/><path class="cls-2" d="M391.52,342.42a2.7,2.7,0,0,0,.1,2.69,4.2,4.2,0,0,0,2.24,1.73,2.84,2.84,0,0,0,2.54-.08,2.16,2.16,0,0,0,.85-2.71,3.3,3.3,0,0,0-1.14-1.29C394.89,341.51,392.54,340.78,391.52,342.42Z"/><path class="cls-2" d="M409.08,344.06a2.38,2.38,0,0,0-1.94.31,2.11,2.11,0,0,0-.91,1,1.83,1.83,0,0,0-.13,1,2.56,2.56,0,0,0,0,.27h0v0l.06.15a.25.25,0,0,0,0,.07l0,.12a1.64,1.64,0,0,0,.35.52,2,2,0,0,0,1.37.58,2.54,2.54,0,0,0,1.23-.32,2.67,2.67,0,0,0,.92-.88,2,2,0,0,0,.3-1,1.8,1.8,0,0,0-.17-.76,1.29,1.29,0,0,0-.37-.58A1.82,1.82,0,0,0,409.08,344.06Z"/><path class="cls-2" d="M404.66,333a2.18,2.18,0,0,0-.78.48,1.9,1.9,0,0,0,.35,3,2.36,2.36,0,0,0,2.89-.27,1.58,1.58,0,0,0,.46-1.31,1.7,1.7,0,0,0-.15-.52,1.88,1.88,0,0,0-.12-.3,1.54,1.54,0,0,0-.37-.53,3,3,0,0,0-.53-.41A2,2,0,0,0,404.66,333Z"/><path class="cls-2" d="M421.07,333.45a2,2,0,0,0-1.76,1,2.13,2.13,0,0,0-.26.9,4.23,4.23,0,0,0-.67,1.43,3.86,3.86,0,0,0,.32,2.83,2.72,2.72,0,0,0,3.6,1.17,3.41,3.41,0,0,0,1.54-2.74C424.08,336.29,423.27,333.45,421.07,333.45Z"/><path class="cls-2" d="M387.91,329.21a2.26,2.26,0,0,0-1.69.2,2.55,2.55,0,0,0-1.09,1.39,4,4,0,0,0,.24,2.89,3.37,3.37,0,0,0,2.15,1.89,2.08,2.08,0,0,0,2-.51,2.19,2.19,0,0,0,.35-.44,3.25,3.25,0,0,0,.43-3,3.82,3.82,0,0,0-.87-1.48A3.9,3.9,0,0,0,387.91,329.21Z"/><path class="cls-2" d="M400.72,350h0a2,2,0,0,0-1.35-.52,2.32,2.32,0,0,0-1.72.71,2,2,0,0,0-.56.94,2.15,2.15,0,0,0,0,1,2.07,2.07,0,0,0,1.45,1.47,3.16,3.16,0,0,0,1.67.1,3.09,3.09,0,0,0,.77-.28,2.07,2.07,0,0,0,1-1.29A1.77,1.77,0,0,0,400.72,350Z"/><path class="cls-2" d="M392.51,318.68a2.66,2.66,0,0,0-1.37,0,3.35,3.35,0,0,0-1.65,1,2.31,2.31,0,0,0-.6,2.12,2.24,2.24,0,0,0,1.54,1.57c2,.67,5.15-.8,4.46-3.29A2,2,0,0,0,392.51,318.68Z"/><path class="cls-4" d="M423.55,316.72a27,27,0,0,1,4.4,10.7,23.55,23.55,0,0,1-.15,10.2,25,25,0,0,1-4.79,9.07,33.18,33.18,0,0,1-4.5,4.68,27.78,27.78,0,0,0,.06-13.47,36.76,36.76,0,0,0-9.16-16.41,29,29,0,0,0-8.93-6.78,17.06,17.06,0,0,0-11-1.34c-.34.09-1,.36-1.63.64A22.29,22.29,0,0,1,395,308.9C404.73,304.53,417.36,308,423.55,316.72Z"/><path class="cls-1" d="M305.29,123.27a84.63,84.63,0,0,0,14,.08,40.41,40.41,0,0,1-1.36-9.58,13.68,13.68,0,0,1,3.13-9c.37-.41-7.33-2.86-8.06-2.94-2.61-.29-5.51-.7-6.13,1.94-.59,2.48,1,6.69.75,9.54A45.67,45.67,0,0,1,305.29,123.27Z"/><path class="cls-2" d="M325.77,97.74a9.33,9.33,0,0,0-4.58-2.5A25.33,25.33,0,0,0,311,94.12c-4,.33-10.43,1.29-11.63,5.78-2.85,10.64,15.3,9.18,21.2,8.54C326,107.85,330.52,102.71,325.77,97.74Z"/><path class="cls-3" d="M322.76,100.13c-1.63.3-3.18,1-4.81,1.26a21.69,21.69,0,0,1-5.69.28,22.4,22.4,0,0,1-5.24-1.08c-1.18-.4-2.38-1.34-3.66-1a.48.48,0,0,0-.35.46c-.18,3,6.47,3.9,8.54,4.13,3.76.41,8.83.16,12-2.1A1.07,1.07,0,0,0,322.76,100.13Z"/><path class="cls-1" d="M347.1,130.4a85.28,85.28,0,0,0,12.42,6.41,40.53,40.53,0,0,1,3.13-9.15,13.7,13.7,0,0,1,6.86-6.57c.52-.19-5.24-5.88-5.85-6.28-2.19-1.44-4.59-3.12-6.34-1s-2.13,6.43-3.67,8.84A44.42,44.42,0,0,1,347.1,130.4Z"/><path class="cls-2" d="M376.94,117a9.32,9.32,0,0,0-2.95-4.32,25.35,25.35,0,0,0-8.61-5.63c-3.7-1.52-9.87-3.59-13-.13-7.37,8.19,9.47,15.12,15,17.23C372.57,126.06,378.92,123.53,376.94,117Z"/><path class="cls-3" d="M373.17,117.7c-1.59-.47-3.26-.58-4.86-1a21.63,21.63,0,0,1-5.19-2.34,22.33,22.33,0,0,1-4.18-3.33c-.88-.89-1.52-2.28-2.8-2.57a.52.52,0,0,0-.53.26c-1.53,2.6,4,6.4,5.74,7.55,3.17,2.07,7.8,4.15,11.67,3.58A1.07,1.07,0,0,0,373.17,117.7Z"/><path class="cls-1" d="M375.63,154.77a84.75,84.75,0,0,0,6.54,12.35,40.19,40.19,0,0,1,7.79-5.73,13.65,13.65,0,0,1,9.38-1.48c.54.13-.95-7.82-1.22-8.5-1-2.43-2-5.18-4.61-4.48-2.47.66-5.41,4.07-8.05,5.17A45.11,45.11,0,0,1,375.63,154.77Z"/><path class="cls-2" d="M407.81,160.74a9.31,9.31,0,0,0,0-5.23A25.43,25.43,0,0,0,404,146c-2.18-3.36-6.06-8.58-10.59-7.51-10.72,2.52-.84,17.82,2.51,22.72C399,165.73,405.68,167.28,407.81,160.74Z"/><path class="cls-3" d="M404.28,159.21c-1-1.29-2.34-2.34-3.39-3.64a21.37,21.37,0,0,1-2.93-4.88,22.21,22.21,0,0,1-1.53-5.12c-.21-1.23.06-2.74-.84-3.7a.48.48,0,0,0-.58-.09c-2.74,1.26-.36,7.54.41,9.47,1.42,3.51,4,7.86,7.54,9.6A1.07,1.07,0,0,0,404.28,159.21Z"/><path class="cls-1" d="M391,203.75a84.43,84.43,0,0,0,.89,13.94,40.63,40.63,0,0,1,9.46-2,13.7,13.7,0,0,1,9.16,2.5c.43.35,2.35-7.51,2.38-8.24.1-2.62.31-5.55-2.37-6-2.52-.41-6.6,1.48-9.46,1.4A45.1,45.1,0,0,1,391,203.75Z"/><path class="cls-2" d="M417.89,222.41a9.31,9.31,0,0,0,2.18-4.74,25.43,25.43,0,0,0,.4-10.29c-.6-3.95-2-10.31-6.57-11.19-10.81-2.11-8.09,15.9-7,21.74C407.82,223.35,413.26,227.5,417.89,222.41Z"/><path class="cls-3" d="M415.3,219.57c-.42-1.6-1.17-3.1-1.59-4.71a21.53,21.53,0,0,1-.68-5.65,23.08,23.08,0,0,1,.71-5.3c.32-1.21,1.18-2.47.76-3.72a.48.48,0,0,0-.49-.32c-3,0-3.43,6.72-3.52,8.8-.15,3.78.45,8.82,2.93,11.85A1.07,1.07,0,0,0,415.3,219.57Z"/><path class="cls-1" d="M383.67,249.22a84.77,84.77,0,0,0-8.58,11,40.8,40.8,0,0,1,8.43,4.75,13.64,13.64,0,0,1,5.2,7.94c.1.55,6.74-4.07,7.25-4.6,1.82-1.89,3.9-4,2.19-6s-5.93-3.27-8-5.22A44.81,44.81,0,0,1,383.67,249.22Z"/><path class="cls-2" d="M391.44,281a9.26,9.26,0,0,0,4.78-2.12,25.1,25.1,0,0,0,7.11-7.43c2.17-3.37,5.33-9.05,2.5-12.74-6.71-8.74-16.59,6.55-19.68,11.62C383.28,275.05,384.61,281.76,391.44,281Z"/><path class="cls-3" d="M391.39,277.17c.75-1.47,1.17-3.1,1.92-4.58a22.15,22.15,0,0,1,7.29-8.18c1-.7,2.52-1.08,3-2.29a.48.48,0,0,0-.15-.56c-2.28-2-7,2.76-8.47,4.26-2.62,2.74-5.51,6.91-5.66,10.82A1.07,1.07,0,0,0,391.39,277.17Z"/><path class="cls-1" d="M338.23,279.84a85.38,85.38,0,0,0-13,5.19,41,41,0,0,1,4.88,8.36,13.66,13.66,0,0,1,.47,9.48c-.19.52,7.88-.11,8.58-.31,2.53-.71,5.36-1.43,4.95-4.11-.4-2.52-3.48-5.81-4.29-8.55A45,45,0,0,1,338.23,279.84Z"/><path class="cls-2" d="M328.89,311.21a9.35,9.35,0,0,0,5.19.59A25.19,25.19,0,0,0,344,309c3.57-1.8,9.17-5.12,8.59-9.73-1.37-10.93-17.63-2.73-22.85.08C324.86,301.94,322.61,308.4,328.89,311.21Z"/><path class="cls-3" d="M330.78,307.86c1.39-.89,2.58-2.08,4-3a21.44,21.44,0,0,1,5.16-2.4,21.9,21.9,0,0,1,5.26-1c1.25-.08,2.71.34,3.77-.44a.49.49,0,0,0,.15-.57c-1-2.86-7.46-1.16-9.46-.59-3.64,1-8.24,3.17-10.35,6.48A1.06,1.06,0,0,0,330.78,307.86Z"/><path class="cls-1" d="M284.74,287.06a84.45,84.45,0,0,0-13.94-1,40.18,40.18,0,0,1,.74,9.65,13.67,13.67,0,0,1-3.72,8.73c-.4.39,7.13,3.34,7.85,3.47,2.58.46,5.45,1.06,6.24-1.53.75-2.44-.58-6.75-.11-9.57A44.92,44.92,0,0,1,284.74,287.06Z"/><path class="cls-2" d="M262.63,311.18A9.26,9.26,0,0,0,267,314a25.22,25.22,0,0,0,10.13,1.78c4-.06,10.48-.6,12-5,3.55-10.43-14.67-10.16-20.59-9.92C263.05,301.08,258.21,305.91,262.63,311.18Z"/><path class="cls-3" d="M265.79,309c1.64-.19,3.23-.74,4.88-.94a21.34,21.34,0,0,1,5.7.1,22.61,22.61,0,0,1,5.15,1.41c1.16.48,2.29,1.5,3.58,1.26a.5.5,0,0,0,.39-.45c.38-3-6.2-4.3-8.25-4.67-3.73-.66-8.8-.74-12.14,1.3A1.07,1.07,0,0,0,265.79,309Z"/><path class="cls-1" d="M244.9,271.67a86,86,0,0,0-10.55-9.16,40.76,40.76,0,0,1-5.21,8.15,13.65,13.65,0,0,1-8.21,4.76c-.55.07,3.69,6.95,4.19,7.48,1.79,1.92,3.73,4.12,5.92,2.52s3.58-5.74,5.65-7.72A45.42,45.42,0,0,1,244.9,271.67Z"/><path class="cls-2" d="M212.73,277.69a9.25,9.25,0,0,0,1.84,4.89,25.43,25.43,0,0,0,7,7.51c3.24,2.35,8.75,5.82,12.59,3.19,9.09-6.21-5.63-16.93-10.52-20.29C219.13,269.87,212.36,270.82,212.73,277.69Z"/><path class="cls-3" d="M216.57,277.84c1.43.83,3,1.35,4.47,2.18a20.87,20.87,0,0,1,4.49,3.5,22,22,0,0,1,3.27,4.22c.64,1.08.94,2.58,2.12,3.16a.49.49,0,0,0,.57-.12c2.1-2.17-2.37-7.17-3.79-8.7-2.58-2.76-6.59-5.87-10.49-6.24A1.06,1.06,0,0,0,216.57,277.84Z"/><path class="cls-1" d="M228.91,239.77a84.65,84.65,0,0,0,.44-14,40.57,40.57,0,0,1-9.61,1.12,13.66,13.66,0,0,1-8.88-3.36c-.4-.39-3.05,7.25-3.15,8-.36,2.6-.84,5.49,1.78,6.18,2.47.65,6.72-.86,9.56-.5A45,45,0,0,1,228.91,239.77Z"/><path class="cls-2" d="M203.92,218.64a9.3,9.3,0,0,0-2.63,4.51,25.45,25.45,0,0,0-1.37,10.2c.22,4,1,10.45,5.47,11.77,10.57,3.13,9.57-15.06,9.09-21C214,218.66,209,214,203.92,218.64Z"/><path class="cls-3" d="M206.23,221.71c.26,1.63.87,3.2,1.13,4.84a20.86,20.86,0,0,1,.13,5.69,22.17,22.17,0,0,1-1.21,5.21c-.43,1.18-1.4,2.35-1.11,3.63a.5.5,0,0,0,.46.37c3,.26,4.06-6.37,4.34-8.43.51-3.75.39-8.83-1.79-12.08A1.06,1.06,0,0,0,206.23,221.71Z"/><path class="cls-1" d="M231.67,214.69a84,84,0,0,0,8.57-11,40.31,40.31,0,0,1-8.43-4.74A13.69,13.69,0,0,1,226.6,191c-.1-.55-6.73,4.08-7.24,4.6-1.82,1.9-3.9,4-2.19,6.05s5.94,3.26,8,5.21A45.56,45.56,0,0,1,231.67,214.69Z"/><path class="cls-2" d="M223.87,182.91A9.25,9.25,0,0,0,219.1,185a25.38,25.38,0,0,0-7.11,7.44c-2.17,3.37-5.32,9.06-2.49,12.74,6.72,8.74,16.59-6.56,19.68-11.63C232,188.86,230.71,182.16,223.87,182.91Z"/><path class="cls-3" d="M223.93,186.75c-.75,1.48-1.17,3.1-1.92,4.59a21.49,21.49,0,0,1-3.24,4.68,21.76,21.76,0,0,1-4,3.5c-1,.7-2.52,1.08-3,2.29a.48.48,0,0,0,.15.56c2.29,2,7-2.77,8.47-4.27,2.62-2.73,5.5-6.91,5.65-10.82A1.07,1.07,0,0,0,223.93,186.75Z"/><path class="cls-1" d="M270.78,137.05a85.11,85.11,0,0,0,10.84-8.83,41,41,0,0,1-7.15-6.52,13.66,13.66,0,0,1-3.27-8.91c0-.55-7.49,2.45-8.1,2.85-2.2,1.44-4.69,3-3.49,5.4s5,4.51,6.64,6.89A44.57,44.57,0,0,1,270.78,137.05Z"/><path class="cls-2" d="M270.36,104.32a9.25,9.25,0,0,0-5.13,1,25.1,25.1,0,0,0-8.6,5.65c-2.88,2.78-7.23,7.61-5.31,11.84,4.57,10,17.65-2.64,21.8-6.88C277,112,277.19,105.13,270.36,104.32Z"/><path class="cls-3" d="M269.55,108.08c-1.06,1.26-1.84,2.75-2.91,4a21.58,21.58,0,0,1-4.21,3.83,22.76,22.76,0,0,1-4.73,2.5c-1.17.45-2.69.48-3.47,1.54a.5.5,0,0,0,0,.59c1.77,2.44,7.46-1.11,9.21-2.25,3.17-2.07,6.92-5.49,7.94-9.27A1.06,1.06,0,0,0,269.55,108.08Z"/><path class="cls-1" d="M380.78,260.42c-8.78,10.15-20.51,17.37-32.78,22.8-18.15,8-38.13,12.47-57.92,10.91a91.68,91.68,0,0,1-31.65-8.27,78.33,78.33,0,0,1-21.81-15.05,40.92,40.92,0,0,1-9.3-12.87c-7.89-18.61-4.4-41.15,8.85-55.85.27-.29.54-.59.82-.88,7.11-7.49,12.87-15.46,16-25.44,3.32-10.5,4-21.83,8.87-31.81q.58-1.22,1.26-2.4c6.7-11.74,19.39-19.25,32.63-22s27-1,40.13,2.23c1.75.44,3.49.9,5.22,1.4,8.76,2.53,17.26,6,24.71,11.19,17.62,12.31,27.58,33.3,31.25,54.47C401.42,213.8,397.32,241.31,380.78,260.42Z"/><path class="cls-5" d="M380.78,260.42c-8.78,10.15-20.51,17.37-32.78,22.8-18.15,8-38.13,12.47-57.92,10.91a91.68,91.68,0,0,1-31.65-8.27c5.18-4.91,11.95-7.93,18.77-10.17,14.52-4.77,30-6.55,44.1-12.39C351,251.05,371.89,220,372.13,187.93a81.43,81.43,0,0,0-9.8-38.77,86.23,86.23,0,0,0-21.2-25.92c8.76,2.53,17.26,6,24.71,11.19,17.62,12.31,27.58,33.3,31.25,54.47C401.42,213.8,397.32,241.31,380.78,260.42Z"/><path class="cls-2" d="M353.46,215.74a6.12,6.12,0,0,0-8.73-1.92c-2.26,1.47-3.72,4.24-4.74,6.67a11.75,11.75,0,0,0-1,7.37,5.42,5.42,0,0,0,6.75,3.93,4.45,4.45,0,0,0,1.28-.61,6.56,6.56,0,0,0,1.63-1C352.37,227.27,356.19,220.4,353.46,215.74Z"/><path class="cls-2" d="M357.46,155.58a13.08,13.08,0,0,0-6.24-6.42,13.63,13.63,0,0,0-2-.74,6.5,6.5,0,0,0-5-.92c-4.42,1.14-5.3,5.7-3.83,9.47a17.93,17.93,0,0,0,6.32,8.3c3,2.11,7.79,3,10.71.26S358.88,158.64,357.46,155.58Z"/><path class="cls-2" d="M284.69,143.05c-3.61-1.18-6.81,1-9,3.7-2.07,2.51-3.73,5.44-3.68,8.8a9.14,9.14,0,0,0,.75,3.51,5.1,5.1,0,0,0,.41,1,5.64,5.64,0,0,0,3.59,2.92,5.52,5.52,0,0,0,1.8.3,6.74,6.74,0,0,0,2-.31,7.84,7.84,0,0,0,3-1.52,18.67,18.67,0,0,0,5.23-8.42C289.84,149.22,288.91,144.43,284.69,143.05Z"/><path class="cls-2" d="M241.12,220.49c-7,1.54-7,11.18-3.92,16.13,1.78,2.88,4.69,4.9,8.16,4.63a6.09,6.09,0,0,0,4.69-2.79,6.65,6.65,0,0,0,1.49-3.72C252.25,228.87,248.7,218.82,241.12,220.49Z"/><path class="cls-2" d="M264,253.52c-2.75-.58-5.78.17-7.34,2.68a6.48,6.48,0,0,0,.68,7.45c1.93,2.5,5.48,4.28,8.6,3.54l.45,0a5.28,5.28,0,0,0,4.61-5.22A9.09,9.09,0,0,0,264,253.52Z"/><path class="cls-2" d="M312.94,243.9c-.24-3.06-1.86-6-5.13-6.48a5.26,5.26,0,0,0-.88,0,5.87,5.87,0,0,0-2.7-.05c-4.62,1.05-9.31,4.69-10,9.61a7.68,7.68,0,0,0,3.48,7.53,9.08,9.08,0,0,0,7.85.39C310,253.09,313.31,248.83,312.94,243.9Z"/><path class="cls-2" d="M367.2,184.14a6.42,6.42,0,0,0-3.55-4.77,4.87,4.87,0,0,0-6.66,3.21c-.06.25-.11.5-.16.75a7,7,0,0,0,2.64,8.34,5.35,5.35,0,0,0,7.3-1.55C367.92,188.41,367.62,186,367.2,184.14Z"/><path class="cls-2" d="M268.12,177.51c-3.31-1.75-7-.37-9,2.6a10,10,0,0,0-1.41,6.23c.2,2.78.93,5.47,3.44,7a5.94,5.94,0,0,0,8.1-1.47C272.8,188.27,272.74,180,268.12,177.51Z"/><path class="cls-2" d="M317,161.22a4.52,4.52,0,0,0-4-2.34,4.66,4.66,0,0,0-3.35,1.62l.16-.21a3,3,0,0,0-.22.28,4.5,4.5,0,0,0-.41.54c.06-.09.13-.17.19-.25a4.43,4.43,0,0,0-.89,2.63,6.13,6.13,0,0,0,.29,1.9,6.42,6.42,0,0,0,1.24,2.17,5.83,5.83,0,0,0,.55.66,4.22,4.22,0,0,0,6.59-.85A6.35,6.35,0,0,0,317,161.22Z"/><path class="cls-2" d="M322.42,129.56a12.3,12.3,0,0,0-1.43-.67,7.29,7.29,0,0,0-4.87-3.26,6.13,6.13,0,0,0-5.75,1.54,5.72,5.72,0,0,0-1.17,6.12c2.13,5,10.08,6.68,14.08,2.93A4.28,4.28,0,0,0,322.42,129.56Z"/><path class="cls-2" d="M321.61,196.11c-1.39-2.26-4.92-3.64-7.29-1.91a9.19,9.19,0,0,0-4,6.59,12.13,12.13,0,0,0,.92,6.89c1.53,3.12,6.68,3.1,8.21,0,.4-.79.78-1.56,1.09-2.36a5.75,5.75,0,0,0,2-3.24A8,8,0,0,0,321.61,196.11Z"/><path class="cls-6" d="M295,190.66q-4.22-6-8.53-12c-1.31-1.8-2.64-3.58-4-5.33-1.2-1.52-2.61-4-4.69-4.34a.76.76,0,0,0-.91.52c-.46,1.84.9,3.7,1.78,5.24,1.23,2.12,2.49,4.2,3.8,6.27q2.69,4.22,5.42,8.38c-7.69,0-15.31-.48-23-1.23-2.85-.28-3.54,4.59-.68,5a139,139,0,0,0,28.53,1.45C294.57,194.56,296.23,192.41,295,190.66Z"/><path class="cls-6" d="M347.14,194.35a20.58,20.58,0,0,0-5.91-.69c-2-.1-4.06-.18-6.09-.16q-6.28.06-12.56.37c-1.41.07-3,1.53-2.35,3.08a49.51,49.51,0,0,0,6.47,10.92c2.5,3.32,5.29,6.82,8.66,9.29,2.52,1.85,4.95-2,3.15-4.08-2.48-2.9-5.31-5.41-7.64-8.46a72.16,72.16,0,0,1-4.19-6.28q4.23-.42,8.46-.78c2-.17,4.06-.4,6.09-.63a22.62,22.62,0,0,0,5.91-1A.84.84,0,0,0,347.14,194.35Z"/><path class="cls-7" d="M317.48,228.82l-.06.24c-1.05,4.34-5.86,6.87-10.35,7.26A20.44,20.44,0,0,1,295.62,234c-3.74-2-6.83-5.19-10.82-6.64-6.48-2.35-15.32-2.91-16.89-11.59-.89-5,2.88-8.86,7.39-10.42a11.78,11.78,0,0,1,7.83-.16c3.85,1.43,6.63,4.82,10.18,6.9,4.64,2.72,10.27,3.05,15.31,4.93S318.56,223.55,317.48,228.82Z"/><path class="cls-8" d="M317.42,229.06c-1.05,4.34-5.86,6.87-10.35,7.26A20.44,20.44,0,0,1,295.62,234c-3.74-2-6.83-5.19-10.82-6.64-6.48-2.35-15.32-2.91-16.89-11.59-.89-5,2.88-8.86,7.39-10.42a6.26,6.26,0,0,0-2.31,3.94,8,8,0,0,0,4.75,8c2.28,1.05,4.89,1.15,7.24,2,4,1.53,6.85,5.16,10.28,7.78A23.38,23.38,0,0,0,306,231.56a15.92,15.92,0,0,0,9.33-1.16A10.46,10.46,0,0,0,317.42,229.06Z"/><path class="cls-9" d="M267.56,188.24c-1.05,4.59-2.69,9.12-5.48,12.4-6,7.05-15.64,6.6-23.42,3.13a7.82,7.82,0,0,1-2.49-1.68c.27-.29.54-.59.82-.88,7.11-7.49,12.87-15.46,16-25.44,3.32-10.5,4-21.83,8.87-31.81.15.12.3.25.46.4,2.39,2.21,3.55,5.87,4.4,9.41C269.44,164.93,270.11,177,267.56,188.24Z"/><ellipse class="cls-10" cx="302.81" cy="402.38" rx="81" ry="10.5"/><path class="cls-7" d="M254.12,89.41c-16.26,7.55-28.26,25.84-27.49,43.89.07,1.8,2.86,2.36,3.26.45,3.56-17,11.9-30.78,26.47-40.5A2.22,2.22,0,0,0,254.12,89.41Z"/><path class="cls-7" d="M238.72,86.41a26.13,26.13,0,0,0-9.95,6.78c-2.4,2.58-5.13,6.07-5.26,9.71a.93.93,0,0,0,1.56.65c2.57-2,4.33-5.07,6.73-7.33a49,49,0,0,1,8.49-6.08C242.18,89,241,85.58,238.72,86.41Z"/><path class="cls-7" d="M205.13,282.35c-4.38-7.65-8.6-15.22-10.08-24a76.29,76.29,0,0,1-.65-15.18,71.58,71.58,0,0,0-1-13.54c-.16-1-1.54-.76-1.85,0A45.43,45.43,0,0,0,187.81,245a69.87,69.87,0,0,0,.87,16c1.62,9.1,5.49,18.11,12.4,24.41C203.21,287.41,206.63,285,205.13,282.35Z"/><path class="cls-7" d="M187.83,285.57c-4.66-6.49-7.86-15.15-7.3-23.21.1-1.48-2.38-1.84-2.63-.35-1.6,9.68-.38,18.07,5.72,26C185.48,290.46,189.68,288.15,187.83,285.57Z"/><path class="cls-7" d="M288.18,150.18c-1.91-5.36-4.8-8.33-9.23-11.67-1.07-.8-2.39,1-1.42,1.84,7.58,7,6.7,19.65,8.16,29,.27,1.72,3.2,1.71,3.48,0C290.22,162.94,290.37,156.34,288.18,150.18Z"/><path class="cls-7" d="M298.2,155.39a42.75,42.75,0,0,0-4-10.16c-.71-1.28-2.56-.15-1.95,1.14a34.68,34.68,0,0,1,3,9.83C295.55,158.1,298.69,157.33,298.2,155.39Z"/><path class="cls-7" d="M427.05,173.94c-2.14-2.18-5.11,1-3.28,3.28,5.74,7.14,5.77,17.79,5.22,26.49a90.15,90.15,0,0,1-6.66,27.64c-1,2.5,3.07,4.15,4.33,1.82A69.64,69.64,0,0,0,434.93,201C435.1,191.56,434,181,427.05,173.94Z"/><path class="cls-7" d="M444.72,196.37a.59.59,0,0,0-.92.12c-1.44,2.72-1,5.88-1.11,8.9a92.42,92.42,0,0,1-1.06,13.09,99.49,99.49,0,0,1-7.5,24.11c-1.07,2.4,2.17,4.45,3.6,2.11a65.06,65.06,0,0,0,9-25.18C447.62,213.23,449.5,201.52,444.72,196.37Z"/><ellipse class="cls-10" cx="103.32" cy="405.38" rx="81" ry="10.5"/><path class="cls-11" d="M135,399.44a10.49,10.49,0,0,1,1.28,2.81,3.74,3.74,0,0,1-.39,3c-1,1.43-3,1.66-4.69,1.5a35.31,35.31,0,0,1-7.74-1.9c-6-2-12.13-3.95-17.43-7.41a5.37,5.37,0,0,1-1.61-1.42c-.8-1.2-.59-2.79-.29-4.2a45.59,45.59,0,0,1,4.65-12.39,1.89,1.89,0,0,1,.62-.75,1.71,1.71,0,0,1,1-.15,20,20,0,0,1,6.83,1.88c3.76,1.62,7.88,3.34,10.24,6.78C130.14,391.13,132.58,395.27,135,399.44Z"/><path class="cls-11" d="M20.62,373.05a11.09,11.09,0,0,1-1,3,3.85,3.85,0,0,1-2.35,2c-1.71.41-3.37-.8-4.55-2.1a37.2,37.2,0,0,1-4.51-6.76c-3.16-5.62-6.37-11.32-8-17.58A5.36,5.36,0,0,1,0,349.39c.23-1.45,1.47-2.5,2.67-3.34a46.06,46.06,0,0,1,12-6.1,2.05,2.05,0,0,1,1-.14,1.81,1.81,0,0,1,.85.57,20.47,20.47,0,0,1,3.83,6.11c1.7,3.81,3.62,7.94,3,12.15C22.71,363.48,21.69,368.27,20.62,373.05Z"/><path class="cls-12" d="M159.18,314s-16.63,45.58-31.84,73.1a.75.75,0,0,1-.07.12l-19-6.89-.29-.11s15.47-48.53,21.86-65.09c0,0-9.06-12.87-18.56-28.28-1.34-2.18-2.69-4.41-4-6.65C99.9,267.7,93,254.59,90.7,245.73l14.71-.56h0l29.72-1.12,13.18,38.31Z"/><path class="cls-12" d="M117,248.65l-9.69,31.51-2.08,6.75L94.86,320.55s-49.8,33.13-71,38.48l-.38-.56L11.75,341.14,12,341h0c3.29-2.27,38.89-26.64,57.2-36.73,0,0-.14-9.43-.2-21.14-.07-16.09,0-36.48.91-42.63,0,0,20.87,1.67,35.5,4.7h0C110.3,246.19,114.48,247.35,117,248.65Z"/><path class="cls-13" d="M148.32,282.36c-10.83,2.09-24.57,3.68-27,3.88-3.23.27-6.58.46-10,.57-1.34-2.18-2.69-4.41-4-6.65l-2.08,6.75A155.52,155.52,0,0,1,69,283.1c-.07-16.09,0-36.48.91-42.63,0,0,20.87,1.67,35.5,4.7h0l29.72-1.12Z"/><path class="cls-7" d="M152.11,157.79l-12.57,47.09,9,63.95a85.92,85.92,0,0,1-15,4.94c-35.85,8.42-76-3.25-76-3.25,6.79-31.14,35.9-78.14,35.9-78.14-1.31-23.3,8.32-34.44,8.32-34.44,6.12-9.32,26.26-25.13,26.26-25.13l19.92.89L153.11,154Z"/><path class="cls-13" d="M118.87,94.63c-5.4,5.47-7.47,13.56-7.17,21.24s2.71,15.11,5.2,22.38a2.79,2.79,0,0,0,1.08,1.66c.6.33,1.56-.09,1.45-.76-.51.84.68,1.86,1.62,1.6a3.52,3.52,0,0,0,1.93-2.08c4.07-8.22,5.51-17.55,9.7-25.71,1.7-3.3,3.82-6.37,5.45-9.7,2.29-4.7,4.61-11.94-2-13.76C130.07,87.84,123.16,90.28,118.87,94.63Z"/><path class="cls-8" d="M169.09,115.74a81.08,81.08,0,0,1-8.49,21.45c-5.39,8.92-13.58,16.44-25.22,12.69,0,0-12.71-1.92-14.65-16.26a27.71,27.71,0,0,1-.23-3s.87-16.19,11.82-28.45Z"/><path class="cls-8" d="M117.48,130a10.68,10.68,0,0,1-1.57-8.31,5.13,5.13,0,0,1,.76-1.87c1.28-1.85,4.09-1.85,5.83-.48s2.57,3.69,2.92,6,1,7.74-1.46,8.68C121.91,134.75,118.52,131.5,117.48,130Z"/><path class="cls-13" d="M181.78,102.93a2.92,2.92,0,0,0-3.14-1.39,3.41,3.41,0,0,0,1-2.23,10.38,10.38,0,0,0-5.28-10.16c-3.15-1.69-6.94-1.59-10.49-1.1s-7.09,1.32-10.65,1a59.41,59.41,0,0,1-6.81-1.46c-4.32-1-9-1-13,1s-6.74,6.65-5.66,10.94c.22.85-.24,1.46.37,1.89,0-.06,0-.12.06-.14a.28.28,0,0,1,.18,0l-.18.16-.06,0a.11.11,0,0,0,0,.08,7.66,7.66,0,0,0-.84.87,14.67,14.67,0,0,0-2.16,3.94,44.7,44.7,0,0,0-2.06,6.67c.66-2.93,3.4-4.83,6.14-5.63,3.61-1.06,6,.09,9,2a58.87,58.87,0,0,0,6.34,3.33,66.6,66.6,0,0,0,13.34,4.46c4.9,1.07,10.11,1.56,14.88,0s9-5.58,9.57-10.57A5.57,5.57,0,0,0,181.78,102.93Z"/><path class="cls-13" d="M164.83,123.51a3.25,3.25,0,0,0-2.06-1.37l-2.49-.82c-1.53-.53-2.37,1.72-1.07,2.53a10.92,10.92,0,0,0,4.45,1.71A1.37,1.37,0,0,0,164.83,123.51Z"/><path class="cls-13" d="M145.8,116.17a16.1,16.1,0,0,0-3-1.68c-.95-.49-2-1.3-3.08-1a1.07,1.07,0,0,0-.77,1c.16,1.26,1.18,1.83,2.18,2.48a10,10,0,0,0,3.27,1.6C145.66,118.82,147,117.19,145.8,116.17Z"/><path class="cls-13" d="M160.3,127.67a1.7,1.7,0,0,0-2.61.44,3.23,3.23,0,0,0-1,1.73c-.2,1.07.07,2.52,1.3,2.84s2.12-.93,2.57-1.88S161.29,128.5,160.3,127.67Z"/><path class="cls-13" d="M141.48,119.79a1.7,1.7,0,0,0-2.61.44,3.27,3.27,0,0,0-1,1.73c-.21,1.07.07,2.53,1.29,2.84s2.13-.93,2.57-1.88S142.47,120.62,141.48,119.79Z"/><path class="cls-14" d="M160.6,137.19c-5.39,8.92-13.58,16.44-25.22,12.69,0,0-12.71-1.92-14.65-16.26l5.46-12.19Z"/><path class="cls-15" d="M160.06,135.68a25.68,25.68,0,0,1-5.62-1.78q-2.56-.92-5.1-1.94c-3.53-1.43-7-3-10.4-4.73-3.25-1.63-6.45-3.39-9.57-5.27-1.56-.94-3.08-1.94-4.61-2.92-1-.63-1.82-1.47-3-1.12a.07.07,0,0,0-.06.07c.07,1.28,1.23,1.83,2.21,2.52,1.49,1,3,2.06,4.54,3q4.77,3.06,9.78,5.68c3.2,1.68,6.48,3.19,9.8,4.59,1.68.7,3.38,1.38,5.08,2,2,.76,4.39,1.25,6.29,2.3S162.29,135.91,160.06,135.68Z"/><path class="cls-11" d="M152.35,140.12a48.3,48.3,0,0,1-13.54-4.1,44.92,44.92,0,0,1-5.75-3.39c-1.91-1.32-3.58-3-5.52-4.27-.42-.28-1,.28-.71.71,2.63,3.75,7.47,6.51,11.51,8.46a40.48,40.48,0,0,0,13.83,4C153,141.57,153.14,140.25,152.35,140.12Z"/><path class="cls-11" d="M146.71,146.24a37.58,37.58,0,0,1-17.44-7.48c-1.73-1.33-3.24-3-5-4.27-.38-.28-.91.28-.64.71,2.37,3.75,6.75,6.51,10.4,8.46a34.24,34.24,0,0,0,12.5,4C147.25,147.7,147.42,146.37,146.71,146.24Z"/><path class="cls-7" d="M166.77,121a7.88,7.88,0,0,0-7.05-2.06c-2.05.34-4.47,1.07-5.76,2.79l-.2.19a11.13,11.13,0,0,0-2.6-1.2,7.9,7.9,0,0,0-2-.45,10,10,0,0,0-2.75-7.07,7.87,7.87,0,0,0-7-2c-2.05.33-4.47,1.07-5.76,2.79a6,6,0,0,0-.78.82,19.41,19.41,0,0,0-5.38-2.85c-2-.71-4.2-1.7-6.31-1.29a.51.51,0,0,0,0,1,29.3,29.3,0,0,1,10.78,4.68,10.26,10.26,0,0,0,2,10.43,8.92,8.92,0,0,0,12.74.37,9.16,9.16,0,0,0,2.46-5.36c.46.17,1,.3,1.39.48.77.32,1.49.7,2.21,1.08-2,3.38-1,8.48,1.56,11.22a8.92,8.92,0,0,0,12.74.37C170.51,131.34,170.3,124.52,166.77,121Zm-21.13,5.1a7.49,7.49,0,0,1-10.56-.19A8.71,8.71,0,0,1,134,115.45c2.31-3.53,8.42-4.3,11.45-1.29S148.67,123.11,145.64,126.13Zm20.36,7.8a7.5,7.5,0,0,1-10.56-.19,8.73,8.73,0,0,1-1.05-10.5c2.31-3.53,8.42-4.3,11.45-1.29S169,130.9,166,133.93Z"/><path class="cls-7" d="M112.42,193.8c1.4-.71,2.84-.57,4.57-.52l6.76.18,16.06.43,10.35.28a88.38,88.38,0,0,1-.9,15.49c-.15.91-8,2.36-8.86,2.58-3.06.83-6.11,1.58-9.17,2.22a68.82,68.82,0,0,1-8.39,1.52c-2.69.23-5.42,1.56-8.11,1.38-3.88-.26-8.71-4-7.74-13.31a17.12,17.12,0,0,1,2-6.35C110.18,195.51,111.29,194.37,112.42,193.8Z"/><path class="cls-11" d="M193.64,207.7a9.71,9.71,0,0,1-4.91,5.8,22.09,22.09,0,0,1-5.2.7c-6.7.41-17.8.34-22.74-.35a10.16,10.16,0,0,0-2.52-.17l-1.78.1c-2.47.13-6.82.33-9.07.42h0a106.24,106.24,0,0,1,.29-21.47l8-.63.32,0c.44,0,3.9-11.54,18.89-14.27a11.88,11.88,0,0,1,8.36,1.88,8.58,8.58,0,0,1,4.14,7.24A9.63,9.63,0,0,1,193,192.3,20.49,20.49,0,0,1,194.5,200,21.33,21.33,0,0,1,193.64,207.7Z"/><path class="cls-16" d="M186.34,186.29c-2.58,3.26-7.12,3.22-10.54,5.31a14.5,14.5,0,0,0-6.39,7.85c-1.87,5.79,1.4,13.86,8.32,13.93a1,1,0,0,0,.27-1.95c-3.1-.75-5.69-2.4-6.77-5.57a10.65,10.65,0,0,1,2.23-10c2.27-2.69,5.27-4,8.54-5.05,2.14-.69,4.59-1.61,5.08-4.07C187.16,186.34,186.64,185.91,186.34,186.29Z"/><path class="cls-17" d="M183.53,214.2c-6.7.41-17.8.34-22.74-.35a10.16,10.16,0,0,0-2.52-.17l-1.78.1c-2.47.13-6.82.33-9.07.42q0-2.7.06-5.4c.06-2.62-.48-6.53.5-8.9,4.8,2.39,9,4.58,14.51,4.58,2.82,0,6.14-.88,7.07-3.54-.72,4.59,2.61,9.05,6.75,11.15A22.85,22.85,0,0,0,183.53,214.2Z"/><path class="cls-18" d="M156.49,213.78c-2.48.13-6.88.33-9.12.42a106.24,106.24,0,0,1,.29-21.47l8-.63c0,.26-.09.5-.11.67a77.52,77.52,0,0,0,.05,14.69C155.66,207.92,156.14,211.6,156.49,213.78Z"/><path class="cls-19" d="M177.63,179.68c-4.95-1-10.81,2.14-14.27,5.51-3,2.95,1.42,7.17,4.57,4.57a22.35,22.35,0,0,1,4.87-3.19c1.78-.82,3.72-1.15,5.46-2.06C180.21,183.48,179.84,180.15,177.63,179.68Z"/><path class="cls-20" d="M139.54,204.88l9,63.95a85.92,85.92,0,0,1-15,4.94q-3.12-28.23-4.86-56.59a77.42,77.42,0,0,1,.07-14.76c.7-5.38,2.49-10.55,4.33-15.66,3-8.3,5.5-17.4,9.46-25.29,1.25-2.51,2.44-3.44,5.26-3.86a36.54,36.54,0,0,1,4.35.18Z"/><path class="cls-7" d="M127.22,148c3.35-.71,6.92-.35,11.19-.08L155.09,149l39.59,2.53,25.53,1.63a56.31,56.31,0,0,1-.31,19.33c-.24,1.12-19.45,2-21.5,2.14q-11.13,1-22.29,1.65c-6.8.4-13.67.91-20.48.86-6.6,0-13.15,1.28-19.79.73-9.59-.81-22-6.07-20.71-17.67a12.9,12.9,0,0,1,4.1-7.71A16,16,0,0,1,127.22,148Z"/><path class="cls-18" d="M205.51,151.81a1.52,1.52,0,0,0-1.11.31,2.12,2.12,0,0,0-.45,1.27,148.56,148.56,0,0,0-1.18,21.2,21.48,21.48,0,0,0,11.6,1.36c1-6.14,2.31-14.15,1.2-20.38C214.61,150.15,209.28,151.82,205.51,151.81Z"/><path class="cls-11" d="M265.46,179.48a26.91,26.91,0,0,1-1,8.54,17.55,17.55,0,0,1-8.05,9.11,22.93,22.93,0,0,1-20,1.55A20.06,20.06,0,0,1,225,185.9a18.64,18.64,0,0,1-.57-3c-4.09.32-7.86-2-11.28-4.3a6.66,6.66,0,0,1-2.52-2.39,6.84,6.84,0,0,1-.38-3.43l.33-5q.51-8.07,1-16.16c13.42-.68,27.05-2.28,40.45-.45a15.12,15.12,0,0,1,6.34,1.92,12.09,12.09,0,0,1,4,4.91C265.61,164.54,265.57,172.17,265.46,179.48Z"/><path class="cls-16" d="M253.9,196.14c-7.3,3.93-16.05,1.59-21.78-3.93-2.73-2.63-5.19-6-5.66-9.84-.5-4.1,1.18-7.24,3.3-10.57.53-.82-.54-2-1.38-1.38-3.44,2.42-5.12,7.1-5.17,11.19-.05,5,2.62,9.36,6.09,12.83A21.54,21.54,0,0,0,241.94,201c5,.56,9-.6,12.47-4.17A.43.43,0,0,0,253.9,196.14Z"/><path class="cls-17" d="M224.84,183.51c0,.79.07,1.59.11,2.39a18.64,18.64,0,0,1-.57-3c-4.09.32-7.86-2-11.28-4.3a6.66,6.66,0,0,1-2.52-2.39,6.84,6.84,0,0,1-.38-3.43l.33-5a17.76,17.76,0,0,0,5.24,3.53,23,23,0,0,0,11.85,1.08C225,175.27,224.71,179.58,224.84,183.51Z"/><path class="cls-19" d="M245.94,168.45a29.53,29.53,0,0,0,.45,7.56c.43,2.74,1,5.47,1.56,8.17.68,3,1.82,6.37,4.69,7.46,2.46.94,5.34-.33,7-2.39a15,15,0,0,0,2.66-7.34,48,48,0,0,0-2-22.07c-.48-1.44-1.58-4.75-3.33-5.18-1.55-.38-4,1.76-5.12,2.74A17.14,17.14,0,0,0,245.94,168.45Z"/></g></g></svg>