<svg id="Capa_1" enable-background="new 0 0 512 512" height="512" viewBox="0 0 512 512" width="512" xmlns="http://www.w3.org/2000/svg"><g><path d="m264.258 0h-16.516c-13.661 0-24.774 11.113-24.774 24.774v16.516h16.516v-16.516c0-4.556 3.702-8.258 8.258-8.258h16.516c4.556 0 8.258 3.702 8.258 8.258v16.516h16.516v-16.516c0-13.661-11.113-24.774-24.774-24.774z" fill="#dad8db"/><path d="m412.903 49.548h-313.806c-6.02 0-11.663 1.61-16.524 4.423l-10.24 28.609v389.387c0 18.243 14.789 33.032 33.032 33.032h307.538l28.612-9.514c2.811-4.859 4.42-10.501 4.42-16.518v-396.386c.001-18.244-14.789-33.033-33.032-33.033z" fill="#f6d190"/><path d="m404.645 454.194h-289.032c-4.561 0-8.258-3.697-8.258-8.258v-355.097c0-4.561 3.697-8.258 8.258-8.258h289.032c4.561 0 8.258 3.697 8.258 8.258v355.097c0 4.56-3.697 8.258-8.258 8.258z" fill="#fff"/><path d="m321.564 33.032h-123.37c-4.838 0-8.759 3.922-8.759 8.759v5.265c0 14.512 11.765 26.277 26.277 26.277h88.334l24.406-7.272c1.207-3.017 1.871-6.31 1.871-9.757v-14.513c-.001-4.837-3.922-8.759-8.759-8.759z" fill="#eceaec"/><path d="m346.839 165.161h-41.29c-4.565 0-8.258-3.694-8.258-8.258s3.694-8.258 8.258-8.258h41.29c4.565 0 8.258 3.694 8.258 8.258s-3.694 8.258-8.258 8.258z" fill="#ffe07d"/><path d="m363.355 206.452h-57.806c-4.565 0-8.258-3.694-8.258-8.258 0-4.565 3.694-8.258 8.258-8.258h57.806c4.565 0 8.258 3.694 8.258 8.258s-3.694 8.258-8.258 8.258z" fill="#ff8086"/><path d="m363.355 247.742h-57.806c-4.565 0-8.258-3.694-8.258-8.258s3.694-8.258 8.258-8.258h57.806c4.565 0 8.258 3.694 8.258 8.258s-3.694 8.258-8.258 8.258z" fill="#6f6571"/><path d="m256 322.065h-99.097c-4.565 0-8.258-3.694-8.258-8.258s3.694-8.258 8.258-8.258h99.097c4.565 0 8.258 3.694 8.258 8.258s-3.694 8.258-8.258 8.258z" fill="#6f6571"/><path d="m280.774 363.355h-123.871c-4.565 0-8.258-3.694-8.258-8.258s3.694-8.258 8.258-8.258h123.871c4.565 0 8.258 3.694 8.258 8.258s-3.693 8.258-8.258 8.258z" fill="#6f6571"/><path d="m305.548 404.645h-148.645c-4.565 0-8.258-3.694-8.258-8.258s3.694-8.258 8.258-8.258h148.645c4.565 0 8.258 3.694 8.258 8.258s-3.693 8.258-8.258 8.258z" fill="#6f6571"/><path d="m322.064 346.839c-2.113 0-4.226-.806-5.839-2.419l-24.774-24.774c-3.226-3.226-3.226-8.452 0-11.677 3.226-3.226 8.452-3.226 11.677 0l18.935 18.935 35.452-35.452c3.226-3.226 8.452-3.226 11.677 0 3.226 3.226 3.226 8.452 0 11.677l-41.29 41.29c-1.612 1.613-3.725 2.42-5.838 2.42z" fill="#ff8086"/><path d="m125.412 495.484c-23.655 0-42.831-19.176-42.831-42.831v-398.669c-9.832 5.722-16.516 16.401-16.516 28.596v396.387c0 18.243 14.789 33.032 33.032 33.032h313.806c12.196 0 22.887-6.684 28.609-16.516h-316.1z" fill="#ecbd83"/><path d="m148.645 445.935c-18.243 0-33.032-14.789-33.032-33.032v-330.322h-8.258c-4.561 0-8.258 3.697-8.258 8.258v363.355c0 4.561 3.697 8.258 8.258 8.258h297.29c4.561 0 8.258-3.697 8.258-8.258v-8.258h-264.258z" fill="#faf5dc"/><path d="m198.194 49.548v-16.516h-7.757c-4.838 0-8.759 3.922-8.759 8.759v14.512c0 14.513 11.765 26.277 26.277 26.277h96.091c11.056 0 20.534-6.846 24.413-16.516h-113.749c-9.122.001-16.516-7.394-16.516-16.516z" fill="#dad8db"/><path d="m140.387 189.935h132.129v16.516h-132.129z" fill="#ffd064" transform="matrix(-.707 .707 -.707 -.707 492.579 192.354)"/><circle cx="253.166" cy="151.479" fill="#ffe07d" r="8.258"/><circle cx="159.737" cy="244.908" fill="#ffe07d" r="8.258"/><path d="m140.387 189.935h132.129v16.516h-132.129z" fill="#ffd064" transform="matrix(.707 .707 -.707 .707 200.612 -87.934)"/><circle cx="159.737" cy="151.479" fill="#ffe07d" r="8.258"/><circle cx="253.166" cy="244.908" fill="#ffe07d" r="8.258"/><path d="m140.387 189.935h132.129v16.516h-132.129z" fill="#ffd064" transform="matrix(0 1 -1 0 404.645 -8.258)"/><circle cx="206.452" cy="132.129" fill="#ffe07d" r="8.258"/><circle cx="206.452" cy="264.258" fill="#ffe07d" r="8.258"/><path d="m140.387 189.935h132.129v16.516h-132.129z" fill="#ffd064"/><path d="m247.742 198.194c0-22.804-18.486-41.29-41.29-41.29-8.24 0-15.916 2.414-22.36 6.573-11.39 7.351-14.591 20.154-14.591 34.718 0 22.804 14.148 38.89 36.952 38.89 14.578 0 27.392-5.154 34.739-16.563 4.145-6.439 6.55-14.103 6.55-22.328z" fill="#ff8086"/><path d="m218.839 227.097c-22.804 0-41.29-18.486-41.29-41.29 0-8.226 2.397-15.893 6.543-22.331-11.408 7.348-18.93 20.14-18.93 34.718 0 22.804 18.486 41.29 41.29 41.29 14.578 0 27.391-7.556 34.739-18.963-6.438 4.146-14.126 6.576-22.352 6.576z" fill="#e5646e"/><g fill="#ffe07d"><path d="m220.556 199.226c-4.565 0-8.29-3.698-8.29-8.258s3.653-8.258 8.218-8.258h.073c4.565 0 8.258 3.698 8.258 8.258s-3.694 8.258-8.259 8.258z"/><path d="m206.444 220.387c-4.565 0-8.29-3.698-8.29-8.258s3.661-8.258 8.226-8.258h.065c4.565 0 8.258 3.698 8.258 8.258s-3.695 8.258-8.259 8.258z"/><path d="m192.339 199.226c-4.565 0-8.298-3.698-8.298-8.258s3.661-8.258 8.226-8.258h.073c4.565 0 8.258 3.698 8.258 8.258s-3.695 8.258-8.259 8.258z"/><circle cx="140.387" cy="198.194" r="8.258"/><circle cx="272.516" cy="198.194" r="8.258"/></g></g></svg>