<svg xmlns="http://www.w3.org/2000/svg" viewBox="0 0 244.75 159.39"><defs><style>.cls-1{fill:#2a3743;}.cls-2{fill:#fff;}.cls-3{fill:#d1262d;}</style></defs><title>Asset 2</title><g id="Layer_2" data-name="Layer 2"><g id="Character"><path class="cls-1" d="M101.29,83.55a12.49,12.49,0,0,1-7.12-2A16.91,16.91,0,0,1,89,75.24a39.57,39.57,0,0,1-1.9-4.16A13.66,13.66,0,0,0,85.46,68a6.25,6.25,0,0,0-2.31-2,9.11,9.11,0,0,0-4-.7,13.47,13.47,0,0,0-4.11.8,43.79,43.79,0,0,0-5.11,2.11c-1.8.86-3.61,1.83-5.41,2.9a43.68,43.68,0,0,0-4.81,3.26,26.26,26.26,0,0,0-3.46,3.2,4.45,4.45,0,0,0-1.35,2.66c0,1,.72,1.82,2.15,2.45a24.72,24.72,0,0,0,5.16,1.55c2,.41,4.08.72,6.22,1s3.9.48,5.31.75a23.92,23.92,0,0,1,5.1,1.3A10.29,10.29,0,0,1,82,89.11a5.24,5.24,0,0,1,1.55,2.41,10.63,10.63,0,0,1,.4,3,21.85,21.85,0,0,1-.6,4.91,41.79,41.79,0,0,1-1.55,5.16c-.64,1.71-1.3,3.29-2,4.76a33.82,33.82,0,0,1-2,3.61,46.7,46.7,0,0,1-7.26,6.21,86.24,86.24,0,0,1-11.57,7,87.16,87.16,0,0,1-14.48,5.71,54.73,54.73,0,0,1-15.78,2.36A29.14,29.14,0,0,1,17.38,132a26,26,0,0,1-9.11-6.36A29.61,29.61,0,0,1,2.2,115.41,40.83,40.83,0,0,1,0,101.49,36.6,36.6,0,0,1,1.45,91.12,55.54,55.54,0,0,1,4.86,82.2a57.67,57.67,0,0,1,3.81-6.71,38,38,0,0,1,2.75-3.76l.8-.4a.53.53,0,0,1,.6.6l-.3.7c-.4.8-1,2-1.8,3.46A47.31,47.31,0,0,0,8.37,81.3a62.06,62.06,0,0,0-2.06,6.26,25.12,25.12,0,0,0-.9,6.61,31,31,0,0,0,2.3,12.53,26.6,26.6,0,0,0,5.82,8.56,22.34,22.34,0,0,0,7.66,4.91,22.59,22.59,0,0,0,8,1.55,58.2,58.2,0,0,0,14.93-1.9,85.41,85.41,0,0,0,13.33-4.66,80.91,80.91,0,0,0,10.72-5.76,63.16,63.16,0,0,0,7.21-5.31,7.27,7.27,0,0,0,2.15-2.75,11.26,11.26,0,0,0,.85-2.26,11.07,11.07,0,0,0-3.6-1.6q-3.31-.81-6.76-1.35t-7.27-1.36a45.52,45.52,0,0,1-4.91-1.25,9.12,9.12,0,0,1-3.25-1.75A6.2,6.2,0,0,1,50.74,89a14.41,14.41,0,0,1-.55-4.3,19.22,19.22,0,0,1,.5-4.21,24.83,24.83,0,0,1,1.91-5.11,26.91,26.91,0,0,1,5.16-7,49.9,49.9,0,0,1,8.06-6.67,54,54,0,0,1,9.42-5,24.54,24.54,0,0,1,9.22-2,7.3,7.3,0,0,1,3.8.9A8.59,8.59,0,0,1,90.82,58a19.12,19.12,0,0,1,1.85,3.2c.53,1.17,1.12,2.36,1.75,3.56a23.59,23.59,0,0,0,2.26,3.46,10.62,10.62,0,0,0,3.3,2.75,6.89,6.89,0,0,0,2.66,1,14.14,14.14,0,0,0,2,.2ZM29.45,139l10.12,6.92-5.11,10.52-10-6.92Zm16.63-3.1,10,7-5,10.52-10.11-7ZM62,11.22l10.12,6.91L67,28.65,57,21.74Zm16.63-3.1,10,7-5,10.52-10.11-7Z"/><path class="cls-1" d="M160.09,14.83a2.71,2.71,0,0,1,2.41,1.55,19.57,19.57,0,0,1,1.6,3.71c.47,1.43.92,2.92,1.35,4.46a12,12,0,0,0,1.66,3.7,8.64,8.64,0,0,0,2.95,2.66,13.63,13.63,0,0,0,4.86,1.45q3.21-4.21,6.86-8.47a81.85,81.85,0,0,1,6.87-7.16A91.24,91.24,0,0,1,205.18,4.66Q213.49,0,221,0a14.38,14.38,0,0,1,6.37,1.45A21.32,21.32,0,0,1,232.53,5,18.84,18.84,0,0,1,236,9.12a7.16,7.16,0,0,1,1.26,3.3,24.48,24.48,0,0,1-2.71,10.82,45.08,45.08,0,0,1-4.71,7.47,30.7,30.7,0,0,1-8.56,7.36A51.82,51.82,0,0,1,207,43.68q-8.72,2.2-21.84,2.2-9.52,0-14.33-1.5c-.73.87-1.43,1.76-2.1,2.66s-1.24,1.68-1.7,2.35l-1.11,1c-.66,0-1-.36-1-1.1a7.58,7.58,0,0,1,.85-3,20.57,20.57,0,0,1,1.86-3.2A25.58,25.58,0,0,1,163,40.17a12.85,12.85,0,0,1-3.31-4,26.56,26.56,0,0,1-1.65-4,38.91,38.91,0,0,1-1.25-4.76,1,1,0,0,0-1-.8c-.47,0-1.14.43-2,1.3s-1.82,1.9-2.85,3.11-2.09,2.47-3.16,3.8-2,2.51-2.9,3.51a21.6,21.6,0,0,1-4.76,3.71,66,66,0,0,1-7.47,3.9q3.92,1.31,8.07,2.81t7.26,2.6a68.91,68.91,0,0,0,7.16,2q4,.9,8.17,1.5t8.36,1c2.78.24,5.36.35,7.77.35l1,.3c-.47,1.27-.87,2.28-1.2,3s-.69,1.5-1,2.3-.69,1.54-1,2.21a4.44,4.44,0,0,1-.76,1.3,1.33,1.33,0,0,1-.85.2q-3.7-.19-5.71-.35c-1.33-.1-2.65-.18-4-.25s-2.25-.1-2.85-.1a32.62,32.62,0,0,0-7.36,1A30.84,30.84,0,0,0,147,69.53,94.4,94.4,0,0,1,123.53,80.3a80.3,80.3,0,0,1-22.24,3.25,4.64,4.64,0,0,1-4.91-4.91A5.42,5.42,0,0,1,98.88,74a10.48,10.48,0,0,1,5.81-1.86,95.7,95.7,0,0,0,14.68-1.5,53.78,53.78,0,0,0,13.17-4.11c1.61-.73,3.48-1.62,5.61-2.65s4-2,5.71-2.86l-4.45-1.75c-1.77-.7-3.65-1.37-5.61-2s-3.93-1.17-5.87-1.61a23.93,23.93,0,0,0-5.1-.65q-3.81,0-6.57.2c-1.83.14-3.39.3-4.66.5s-2.27.37-3,.5a9.62,9.62,0,0,1-1.7.2,1,1,0,0,1-1-.7c.61-1.67,1.11-3,1.51-3.85s.83-1.81,1.3-2.71.87-1.62,1.2-2.15l1.7-1A93.53,93.53,0,0,1,121,42.33q5.27-1.76,10.27-3.66a88.92,88.92,0,0,0,9.27-4.11A18.58,18.58,0,0,0,147,29.45q2.7-3.6,4.56-6.36c1.23-1.83,2.32-3.35,3.25-4.56a16.36,16.36,0,0,1,2.61-2.75A4.26,4.26,0,0,1,160.09,14.83Zm20,18.63q1.5.21,3.51.3c1.33.07,2.67.1,4,.1a103.86,103.86,0,0,0,14.08-.9,91.34,91.34,0,0,0,12-2.4A52.17,52.17,0,0,0,223.16,27a28.81,28.81,0,0,0,6.56-4.36c-.6-.93-1.32-2-2.15-3.2A24.85,24.85,0,0,0,224.71,16a16.43,16.43,0,0,0-3.56-2.71,8.73,8.73,0,0,0-4.35-1.1,23,23,0,0,0-4.61.6,39.32,39.32,0,0,0-5.91,1.81A64.27,64.27,0,0,0,200,17.48a37.62,37.62,0,0,0-5.91,3.76q-3.92,3-7.47,6.16C184.22,29.5,182.07,31.53,180.13,33.46Z"/><path class="cls-2" d="M105.17,85.55a12.49,12.49,0,0,1-7.12-2,16.91,16.91,0,0,1-5.21-6.36,39.57,39.57,0,0,1-1.9-4.16A13.66,13.66,0,0,0,89.34,70,6.25,6.25,0,0,0,87,68a9.11,9.11,0,0,0-4-.7,13.47,13.47,0,0,0-4.11.8,44.51,44.51,0,0,0-5.11,2.11c-1.8.86-3.61,1.83-5.41,2.9a43.68,43.68,0,0,0-4.81,3.26,26.26,26.26,0,0,0-3.46,3.2,4.45,4.45,0,0,0-1.35,2.66c0,1,.72,1.82,2.16,2.45a24.35,24.35,0,0,0,5.16,1.55c2,.41,4.07.72,6.21,1s3.9.48,5.31.75a24,24,0,0,1,5.11,1.3,10.35,10.35,0,0,1,3.15,1.85,5.24,5.24,0,0,1,1.55,2.41,10.62,10.62,0,0,1,.41,3,21.32,21.32,0,0,1-.61,4.91,40.13,40.13,0,0,1-1.55,5.16c-.63,1.71-1.3,3.29-2,4.76a32.12,32.12,0,0,1-2,3.61,46.7,46.7,0,0,1-7.26,6.21,85.61,85.61,0,0,1-11.57,7,86.82,86.82,0,0,1-14.48,5.71,54.73,54.73,0,0,1-15.78,2.36A29.14,29.14,0,0,1,21.26,134a26,26,0,0,1-9.11-6.36,29.59,29.59,0,0,1-6.06-10.27,40.82,40.82,0,0,1-2.21-13.92A37,37,0,0,1,5.33,93.12,55.54,55.54,0,0,1,8.74,84.2a57.67,57.67,0,0,1,3.81-6.71,38,38,0,0,1,2.75-3.76l.8-.4a.54.54,0,0,1,.61.6l-.31.7c-.4.8-1,2-1.8,3.46a47.31,47.31,0,0,0-2.35,5.21,62.06,62.06,0,0,0-2.06,6.26,25.12,25.12,0,0,0-.9,6.61A30.81,30.81,0,0,0,11.6,108.7a26.43,26.43,0,0,0,5.81,8.56,22.34,22.34,0,0,0,7.66,4.91,22.64,22.64,0,0,0,8,1.55A58.18,58.18,0,0,0,48,121.82a85.41,85.41,0,0,0,13.33-4.66A80.91,80.91,0,0,0,72,111.4a63.16,63.16,0,0,0,7.21-5.31,7.27,7.27,0,0,0,2.15-2.75,12.24,12.24,0,0,0,.86-2.26,11.12,11.12,0,0,0-3.61-1.6q-3.32-.81-6.76-1.35t-7.27-1.36a45.52,45.52,0,0,1-4.91-1.25,9.12,9.12,0,0,1-3.25-1.75A6.2,6.2,0,0,1,54.62,91a14.41,14.41,0,0,1-.55-4.3,19.22,19.22,0,0,1,.5-4.21,24.83,24.83,0,0,1,1.91-5.11,27.39,27.39,0,0,1,5.16-7,49.9,49.9,0,0,1,8.06-6.67,54,54,0,0,1,9.42-5,24.54,24.54,0,0,1,9.22-2,7.3,7.3,0,0,1,3.8.9A8.47,8.47,0,0,1,94.7,60a18.46,18.46,0,0,1,1.85,3.2c.54,1.17,1.12,2.36,1.75,3.56a23.59,23.59,0,0,0,2.26,3.46,10.73,10.73,0,0,0,3.3,2.75,6.89,6.89,0,0,0,2.66,1,14.26,14.26,0,0,0,2,.2ZM33.34,141l10.11,6.92-5.11,10.52-10-6.92ZM50,137.85l10,7-5,10.52-10.12-7ZM65.9,13.22,76,20.13,70.9,30.65l-10-6.91Zm16.63-3.1,10,7-5,10.52-10.12-7Z"/><path class="cls-2" d="M164,16.83a2.71,2.71,0,0,1,2.41,1.55,19.57,19.57,0,0,1,1.6,3.71c.47,1.43.92,2.92,1.36,4.46a11.81,11.81,0,0,0,1.65,3.7,8.74,8.74,0,0,0,2.95,2.66,13.63,13.63,0,0,0,4.86,1.45q3.21-4.21,6.86-8.47a81.85,81.85,0,0,1,6.87-7.16A91.24,91.24,0,0,1,209.06,6.66Q217.37,2,224.89,2a14.33,14.33,0,0,1,6.36,1.45A21.32,21.32,0,0,1,236.41,7a18.84,18.84,0,0,1,3.45,4.16,7.16,7.16,0,0,1,1.26,3.3,24.34,24.34,0,0,1-2.71,10.82,44.43,44.43,0,0,1-4.71,7.47,30.7,30.7,0,0,1-8.56,7.36,51.82,51.82,0,0,1-14.28,5.61q-8.72,2.2-21.84,2.2-9.53,0-14.33-1.5c-.73.87-1.43,1.76-2.1,2.66s-1.24,1.68-1.7,2.35l-1.11,1c-.66,0-1-.36-1-1.1a7.46,7.46,0,0,1,.86-3,19.79,19.79,0,0,1,1.85-3.2,25.94,25.94,0,0,1-4.61-2.91,12.85,12.85,0,0,1-3.31-4,26.56,26.56,0,0,1-1.65-4,38.91,38.91,0,0,1-1.25-4.76,1,1,0,0,0-1-.8c-.47,0-1.14.43-2,1.3s-1.82,1.9-2.85,3.11-2.09,2.47-3.16,3.8-2,2.51-2.9,3.51A21.37,21.37,0,0,1,144,44.08a66,66,0,0,1-7.47,3.9q3.91,1.31,8.07,2.81t7.26,2.6a68.43,68.43,0,0,0,7.17,2c2.63.6,5.36,1.1,8.16,1.5s5.59.72,8.37,1,5.36.35,7.76.35l1,.3c-.46,1.27-.87,2.28-1.2,3s-.69,1.5-1.05,2.3-.69,1.54-.95,2.21a4.77,4.77,0,0,1-.75,1.3,1.38,1.38,0,0,1-.86.2q-3.7-.19-5.71-.35c-1.33-.1-2.65-.18-3.95-.25s-2.26-.1-2.86-.1a32.69,32.69,0,0,0-7.36,1,30.84,30.84,0,0,0-8.77,3.71A94.4,94.4,0,0,1,127.41,82.3a80.24,80.24,0,0,1-22.24,3.25,4.64,4.64,0,0,1-4.91-4.91,5.42,5.42,0,0,1,2.5-4.65,10.48,10.48,0,0,1,5.81-1.86,95.7,95.7,0,0,0,14.68-1.5,53.78,53.78,0,0,0,13.17-4.11c1.61-.73,3.48-1.62,5.62-2.65s4-2,5.71-2.86l-4.46-1.75q-2.65-1-5.61-2c-2-.64-3.93-1.17-5.86-1.61a24.09,24.09,0,0,0-5.11-.65q-3.81,0-6.57.2c-1.83.14-3.39.3-4.65.5s-2.28.37-3,.5a9.62,9.62,0,0,1-1.7.2,1,1,0,0,1-1-.7c.6-1.67,1.1-3,1.5-3.85s.83-1.81,1.3-2.71.87-1.62,1.2-2.15l1.71-1a92.36,92.36,0,0,1,9.36-3.65q5.27-1.76,10.27-3.66a88.92,88.92,0,0,0,9.27-4.11,18.58,18.58,0,0,0,6.46-5.11q2.7-3.6,4.56-6.36t3.26-4.56a16,16,0,0,1,2.6-2.75A4.26,4.26,0,0,1,164,16.83Zm20,18.63q1.5.21,3.51.3c1.33.07,2.67.1,4,.1A103.71,103.71,0,0,0,205.6,35a91.34,91.34,0,0,0,12-2.4A51.89,51.89,0,0,0,227,29a28.81,28.81,0,0,0,6.56-4.36c-.6-.93-1.32-2-2.15-3.2A24.85,24.85,0,0,0,228.59,18,16.62,16.62,0,0,0,225,15.32a8.77,8.77,0,0,0-4.36-1.1,23,23,0,0,0-4.61.6,39.32,39.32,0,0,0-5.91,1.81,64.27,64.27,0,0,0-6.31,2.85,37.62,37.62,0,0,0-5.91,3.76q-3.91,3-7.47,6.16C188.1,31.5,186,33.53,184,35.46Z"/><path class="cls-3" d="M108.8,86.56a12.44,12.44,0,0,1-7.11-2,16.85,16.85,0,0,1-5.21-6.37,39.75,39.75,0,0,1-1.91-4.15A13.27,13.27,0,0,0,93,71a6.21,6.21,0,0,0-2.3-2,9.16,9.16,0,0,0-4-.7,13.17,13.17,0,0,0-4.11.8,43.32,43.32,0,0,0-5.11,2.1q-2.7,1.3-5.41,2.91a46.16,46.16,0,0,0-4.81,3.25,24.9,24.9,0,0,0-3.45,3.21,4.46,4.46,0,0,0-1.36,2.65q0,1.5,2.16,2.46a25,25,0,0,0,5.16,1.55q3,.6,6.21.95t5.31.75a24.59,24.59,0,0,1,5.11,1.31,10.23,10.23,0,0,1,3.15,1.85,5.27,5.27,0,0,1,1.56,2.4,11.07,11.07,0,0,1,.4,3.06,21.92,21.92,0,0,1-.6,4.91,41.17,41.17,0,0,1-1.56,5.16q-.94,2.55-2,4.76a33.7,33.7,0,0,1-2,3.6,46.26,46.26,0,0,1-7.27,6.21,84.59,84.59,0,0,1-11.57,7,87.93,87.93,0,0,1-14.47,5.71,54.82,54.82,0,0,1-15.78,2.35,29.06,29.06,0,0,1-11.37-2.2,26,26,0,0,1-9.12-6.36,29.84,29.84,0,0,1-6.06-10.27,40.92,40.92,0,0,1-2.21-13.93A36.65,36.65,0,0,1,9,94.12a54.49,54.49,0,0,1,3.4-8.91,57.88,57.88,0,0,1,3.81-6.72,36.74,36.74,0,0,1,2.76-3.75l.8-.4a.53.53,0,0,1,.6.6l-.3.7c-.4.8-1,2-1.81,3.46a50,50,0,0,0-2.35,5.2,62.26,62.26,0,0,0-2.05,6.27,24.61,24.61,0,0,0-.91,6.61,30.76,30.76,0,0,0,2.31,12.52A26.47,26.47,0,0,0,21,118.27a22.58,22.58,0,0,0,7.66,4.91,22.87,22.87,0,0,0,8,1.55,58.56,58.56,0,0,0,14.92-1.9,86.46,86.46,0,0,0,13.33-4.66,80.28,80.28,0,0,0,10.72-5.76,65.67,65.67,0,0,0,7.21-5.31A7.31,7.31,0,0,0,85,104.34a11.7,11.7,0,0,0,.85-2.25,11,11,0,0,0-3.61-1.61c-2.2-.53-4.46-1-6.76-1.35s-4.73-.82-7.26-1.35a47.33,47.33,0,0,1-4.91-1.25,9.1,9.1,0,0,1-3.26-1.76,6.07,6.07,0,0,1-1.8-2.8,14.16,14.16,0,0,1-.55-4.31,18.63,18.63,0,0,1,.5-4.21,24.17,24.17,0,0,1,1.9-5.11,27.74,27.74,0,0,1,5.16-7,49.34,49.34,0,0,1,8.06-6.66,53.3,53.3,0,0,1,9.42-5,24.39,24.39,0,0,1,9.22-2,7.36,7.36,0,0,1,3.81.9A8.52,8.52,0,0,1,98.33,61a18.55,18.55,0,0,1,1.85,3.21c.54,1.17,1.12,2.35,1.76,3.55a21.79,21.79,0,0,0,2.25,3.46,10.82,10.82,0,0,0,3.31,2.76,7.12,7.12,0,0,0,2.65,1,15.86,15.86,0,0,0,2.06.2ZM37,142l10.12,6.91L42,159.39l-10-6.91Zm16.63-3.11,10,7-5,10.52-10.12-7ZM69.53,14.23l10.12,6.91L74.54,31.66l-10-6.92Zm16.63-3.11,10,7-5,10.52-10.12-7Z"/><path class="cls-3" d="M167.61,17.83a2.7,2.7,0,0,1,2.4,1.56,18.85,18.85,0,0,1,1.6,3.7c.47,1.44.92,2.93,1.36,4.46a11.87,11.87,0,0,0,1.65,3.71,8.65,8.65,0,0,0,3,2.65,13.5,13.5,0,0,0,4.85,1.46q3.21-4.21,6.87-8.47a77.76,77.76,0,0,1,6.86-7.16A92,92,0,0,1,212.69,7.66Q221,3,228.52,3a14.2,14.2,0,0,1,6.36,1.45A21.58,21.58,0,0,1,240,8a19.42,19.42,0,0,1,3.46,4.16,7.26,7.26,0,0,1,1.25,3.31A24.34,24.34,0,0,1,242,26.25a44.92,44.92,0,0,1-4.7,7.46,30.78,30.78,0,0,1-8.57,7.37,51.82,51.82,0,0,1-14.28,5.61q-8.72,2.2-21.84,2.2-9.51,0-14.32-1.5c-.74.87-1.44,1.75-2.11,2.65s-1.23,1.69-1.7,2.36l-1.1,1c-.67,0-1-.37-1-1.1a7.33,7.33,0,0,1,.85-3,19.79,19.79,0,0,1,1.85-3.2,25.94,25.94,0,0,1-4.61-2.91,13,13,0,0,1-3.3-4,25.67,25.67,0,0,1-1.66-4,38.75,38.75,0,0,1-1.25-4.75,1,1,0,0,0-1-.81c-.47,0-1.14.44-2,1.31s-1.82,1.9-2.86,3.1-2.09,2.47-3.16,3.81-2,2.5-2.9,3.51a21.37,21.37,0,0,1-4.76,3.7A66.63,66.63,0,0,1,140.16,49c2.6.87,5.29,1.8,8.06,2.81s5.19,1.87,7.26,2.6a68.52,68.52,0,0,0,7.17,2c2.64.6,5.36,1.11,8.16,1.51s5.6.71,8.37,1,5.36.35,7.76.35l1,.3c-.47,1.27-.87,2.27-1.21,3s-.68,1.5-1.05,2.3-.68,1.54-.95,2.2a4.89,4.89,0,0,1-.75,1.31,1.43,1.43,0,0,1-.86.2c-2.47-.14-4.37-.25-5.7-.35s-2.66-.19-4-.26-2.26-.1-2.86-.1a32.77,32.77,0,0,0-7.36,1,30.8,30.8,0,0,0-8.77,3.7A94.24,94.24,0,0,1,131,83.3a80.26,80.26,0,0,1-22.24,3.26,4.64,4.64,0,0,1-4.91-4.91,5.44,5.44,0,0,1,2.5-4.66,10.51,10.51,0,0,1,5.82-1.85,96.83,96.83,0,0,0,14.67-1.51,53.42,53.42,0,0,0,13.18-4.1c1.6-.74,3.47-1.62,5.61-2.66s4-2,5.71-2.85c-1.2-.47-2.69-1-4.46-1.76s-3.64-1.36-5.61-2-3.93-1.17-5.86-1.6a23.39,23.39,0,0,0-5.11-.65c-2.54,0-4.73.06-6.56.2s-3.39.3-4.66.5-2.27.37-3,.5a10.56,10.56,0,0,1-1.7.2,1,1,0,0,1-1-.7c.6-1.67,1.1-3,1.5-3.86s.83-1.8,1.3-2.7.87-1.62,1.21-2.16c.66-.4,1.23-.73,1.7-1a90.2,90.2,0,0,1,9.37-3.66q5.25-1.74,10.26-3.65A88.92,88.92,0,0,0,148,37.57a18.69,18.69,0,0,0,6.46-5.11c1.81-2.4,3.32-4.52,4.56-6.36s2.32-3.36,3.26-4.56a16.46,16.46,0,0,1,2.6-2.76A4.28,4.28,0,0,1,167.61,17.83Zm20,18.64c1,.13,2.17.23,3.51.3s2.67.1,4,.1a103.6,103.6,0,0,0,14.07-.9,91,91,0,0,0,12-2.41A51.17,51.17,0,0,0,230.67,30a29.11,29.11,0,0,0,6.57-4.35c-.61-.94-1.32-2-2.16-3.21A25.38,25.38,0,0,0,232.23,19a17,17,0,0,0-3.56-2.7,8.74,8.74,0,0,0-4.36-1.1,23,23,0,0,0-4.61.6,39.23,39.23,0,0,0-5.91,1.8,65.49,65.49,0,0,0-6.31,2.86,37.57,37.57,0,0,0-5.91,3.75q-3.91,3-7.46,6.17T187.64,36.47Z"/></g></g></svg>