<svg xmlns="http://www.w3.org/2000/svg" width="155.84" height="155.828" viewBox="0 0 155.84 155.828">
  <path id="Icon_ionic-ios-send" data-name="Icon ionic-ios-send" d="M131.756,4.8,6.133,59.55a2.88,2.88,0,0,0,.1,5.236l33.981,19.2a5.479,5.479,0,0,0,6.262-.616l67-57.764c.445-.376,1.506-1.1,1.916-.684.445.445-.24,1.471-.616,1.916L56.813,92.128a5.461,5.461,0,0,0-.548,6.536l22.209,35.623a2.89,2.89,0,0,0,5.2-.068L135.623,8.6A2.88,2.88,0,0,0,131.756,4.8Z" transform="matrix(0.978, -0.208, 0.208, 0.978, -5.34, 23.85)" fill="#2a3743"/>
</svg>
