<svg xmlns="http://www.w3.org/2000/svg" viewBox="0 0 410.71 414.65"><defs><style>.cls-1{fill:#e0e0e0;}.cls-2{fill:#ebebeb;}.cls-3{fill:#f5f5f5;}.cls-4{fill:#e8505b;}.cls-5{opacity:0.5;}.cls-6{fill:#ffbe9d;}.cls-7{fill:#eb996e;}.cls-8{fill:#263238;}.cls-9{fill:#455a64;}.cls-10{opacity:0.4;}.cls-11{opacity:0.6;}.cls-12{fill:#fff;}.cls-13{fill:#fafafa;}.cls-14{opacity:0.3;}</style></defs><title>True</title><g id="Layer_2" data-name="Layer 2"><g id="Background_Complete" data-name="Background Complete"><path class="cls-1" d="M112.77,413.85c37.86-2.22,75.72-5.3,113.57-7.53,5.61-.33,11.35-.69,16.53-2.87,4.85-2,8.92-5.55,13.39-8.33s9.85-4.86,14.95-3.56,9.18,7.19,7,12c2.65-8.51,5.5-17.35,11.71-23.74s16.86-9.4,24.17-4.3c8.14,5.68,8.15,17.52,7.32,27.42,2.58-7.42,5.28-15.06,10.55-20.89s13.8-9.43,21.13-6.62c5.35,2.05,9.1,7.13,10.85,12.59s1.76,11.31,1.55,17l.18,9.12Z"/><path class="cls-2" d="M202.08,63.84c-1-7,8.85-12.66,16.22-13.26,3.51-.28,7.16.26,10.48-.9,7.21-2.52,10.09-11.83,17.13-14.8,5.26-2.22,11.31-.24,16.41,2.32s10.14,5.8,15.84,6.16c4.95.32,10.33-1.52,14.67.9,3.23,1.81,4.92,5.53,7.9,7.73s6.71,2.6,10.33,2.8,7.35.23,10.64,1.74,6,5,5.33,8.54Z"/><path class="cls-3" d="M19.07,16.39C18.6,13,23.35,10.26,26.91,10c1.7-.14,3.47.12,5.08-.44,3.49-1.21,4.89-5.72,8.29-7.16,2.55-1.07,5.48-.12,7.95,1.12s4.91,2.81,7.66,3c2.4.15,5-.74,7.11.43,1.56.88,2.38,2.68,3.82,3.74a9.17,9.17,0,0,0,5,1.36,13.93,13.93,0,0,1,5.15.84c1.6.73,2.91,2.41,2.58,4.13Z"/><path class="cls-2" d="M304,27.87c-.59-4.28,5.45-7.8,10-8.16,2.16-.18,4.41.15,6.46-.56,4.44-1.55,6.21-7.29,10.54-9.11,3.24-1.37,7-.15,10.11,1.43s6.25,3.57,9.75,3.79c3.05.2,6.37-.94,9,.56,2,1.11,3,3.4,4.86,4.75s4.14,1.6,6.36,1.73,4.53.14,6.56,1.07,3.7,3.07,3.28,5.26Z"/></g><g id="Background_Simple" data-name="Background Simple"><path class="cls-2" d="M19.11,91.14h0C34.58,66,60.36,48.61,89.64,44.68a101,101,0,0,1,34.24,1.18C157.42,53,186.61,78,198.71,110.09c7.12,18.86,9.1,40.59,22.61,55.57,17.57,19.49,47.41,20.1,73.64,19.29s56.09-.12,73.57,19.45c11,12.26,14.44,29.68,13.55,46.1-2.33,43.45-33,82.3-72,101.61s-84.91,21-127.59,12.55c-59.78-11.9-116.64-44.58-150.81-95.06C-.87,221.5-10.26,156.8,12.57,103.68A96.92,96.92,0,0,1,19.11,91.14Z"/></g><g id="Character"><path class="cls-4" d="M408.7,136.52s-78.87,38.81-100.78,46.33c-17.91,6.14-46.7,8.09-64.13,6.21a51.61,51.61,0,0,1-9.73-1.83c-13.77-4.38-83.26-18.78-83.26-18.78l-83.12-4.54,1.86-11.31,95.33,5.78S220,166,227.68,175.11c0,0,6.55,9.09,18.11,10.63S308.6,175,314.38,169.17s7.32-8.48,23.89-12.33,53.94-30.06,53.94-30.06l18.5,9.25"/><path class="cls-5" d="M408.7,136.52s-78.87,38.81-100.78,46.33c-17.91,6.14-46.7,8.09-64.13,6.21a51.61,51.61,0,0,1-9.73-1.83c-13.77-4.38-83.26-18.78-83.26-18.78l-83.12-4.54.71-4.33,1.15-7,95.33,5.78S220,166,227.68,175.11c0,0,6.55,9.09,18.11,10.63S308.6,175,314.38,169.17s7.32-8.48,23.89-12.33,53.94-30.06,53.94-30.06l18.5,9.25"/><path class="cls-6" d="M86.25,107.09l108.54.47a20.25,20.25,0,0,0,7.86-2.1c3.77-1.78,11.76-6.65,14.2-8.15a2.89,2.89,0,0,1,2.06-.41c.45.09.8.3.61.76-.26.61-7,6.42-7,6.42l12-3.79a2.39,2.39,0,0,1,2,.23c.27.17.47.4.42.68-.08.51-7.26,3.92-7.26,3.92l9.11-1.56a1.61,1.61,0,0,1,1.89,1.25,2.26,2.26,0,0,1,0,.26c-.05.85-13.05,5-13.05,5h12a1.8,1.8,0,0,1,1.61,2.59c-.68,1.35-18.74,1.82-18.92,3.84s5.14,2.44,6.94,5.17a2.38,2.38,0,0,1-1.13,3.82c-1.84-2.2-8.9-4-8.9-4l-11,.58h0L95.46,136.75,79.63,126.69l-6.09-11Z"/><path class="cls-6" d="M113,106.73l110.82,22a20.89,20.89,0,0,0,8.45-.58c4.21-1.07,13.33-4.47,16.13-5.52a3,3,0,0,1,2.18,0c.44.18.76.46.47.89s-8.45,5.16-8.45,5.16l13-1.48a2.51,2.51,0,0,1,2,.63.75.75,0,0,1,.3.78c-.19.51-8.2,2.56-8.2,2.56l9.62.22A1.66,1.66,0,0,1,261,133a2,2,0,0,1,0,.26c-.22.86-14.33,2.56-14.33,2.56l12.23,2.37a1.87,1.87,0,0,1,1.13,3c-1,1.24-19.51-1.86-20.1.17s4.77,3.51,6.07,6.66a2.49,2.49,0,0,1-1.91,3.69c-1.45-2.62-8.31-5.85-8.31-5.85l-11.32-1.58h0l-107.92-5.42-14.19-13.42-4-12.49Z"/><path class="cls-7" d="M152.53,114.43a6.1,6.1,0,0,0,.72.19l2.08.47,7.65,1.6,25.31,5,25.31,5,7.66,1.54,2.09.4a4.82,4.82,0,0,0,.74.11,3.73,3.73,0,0,0-.72-.21l-2.06-.5c-1.8-.42-4.41-1-7.64-1.7-6.45-1.4-15.39-3.24-25.28-5.18l-25.34-4.86-7.68-1.44-2.1-.37A3.36,3.36,0,0,0,152.53,114.43Z"/><path class="cls-8" d="M80.13,56.38a5.55,5.55,0,0,0,3.72,4.41c1.1.35,2.3.34,3.38.74s2.1,1.45,1.86,2.58c-.17.85-1,1.41-1.59,2s-1.22,1.49-.84,2.27,1.65.92,2.3,1.62a2.21,2.21,0,0,1-.14,2.76,9.68,9.68,0,0,1-2.34,1.87,3.85,3.85,0,0,0-1.79,2.32"/><path class="cls-8" d="M40.65,74c-3-6.18-.89-13.94,3.64-19.09S55.38,46.82,62,44.87c.95-.28,2.12-.48,2.79.24a1.87,1.87,0,0,1-.15,2.38,5.38,5.38,0,0,1-2.2,1.33A20.6,20.6,0,0,1,71,46.42,5.42,5.42,0,0,1,74,47a2.48,2.48,0,0,1,1.21,2.66,1.64,1.64,0,0,1-2.48.87,12.58,12.58,0,0,1,8.16,1.85c1.73,1.09,3.29,3,2.9,5-.24,1.17-1.1,2.12-1.48,3.26-.68,2.07.36,4.27,1.17,6.31a19.65,19.65,0,0,1,1.47,10,11.6,11.6,0,0,1-5.25,8.34"/><path class="cls-6" d="M53.29,54.3l1-.35A19.6,19.6,0,0,1,78.87,67.5l12.56,41.42L69.54,127.44l-6.7-17.39s-10.51,2.13-14.31-7.76c-1.83-4.78-4.81-14.93-7.4-24.15A19.73,19.73,0,0,1,53.29,54.3Z"/><path class="cls-7" d="M62.77,109.91a24.61,24.61,0,0,0,11.59-8.47s-.41,8.28-10.66,11Z"/><path class="cls-8" d="M64.29,59.91c.8-1.8,1.8-5.71,3.18-7.12s3.63-1,5.54-.44a6.4,6.4,0,0,1,4.28,3.95c2.67,7.16,3,13.93,5,21a2.69,2.69,0,0,1,.13,1.43c-.36,1.2-1.68,1.63-2.92,1.82-3,.47-4.63-1.75-6.09-4.42a31.78,31.78,0,0,1-1.1-5,13.51,13.51,0,0,0-7.59-11Z"/><path class="cls-6" d="M77.19,73.24c.14-.14,6.08-4.55,8.37,2.33s-5.07,7.76-5.15,7.56S77.19,73.24,77.19,73.24Z"/><path class="cls-7" d="M81.64,79.83s.15,0,.38.07a1.29,1.29,0,0,0,.9-.28,3.13,3.13,0,0,0,.48-3.12,4.11,4.11,0,0,0-.91-1.6,1.45,1.45,0,0,0-1.2-.62.64.64,0,0,0-.6.57c0,.22.06.34,0,.36s-.19-.06-.23-.36a.82.82,0,0,1,.13-.52,1,1,0,0,1,.6-.4,1.77,1.77,0,0,1,1.61.65,4.41,4.41,0,0,1,1.06,1.77c.41,1.4.14,2.94-.76,3.56a1.39,1.39,0,0,1-1.16.18C81.7,80,81.62,79.85,81.64,79.83Z"/><path class="cls-8" d="M67,61.43c-3.41-2.29-6.9-1.12-9.22.25s-4.3,3.32-6.69,4.58-5.52,1.7-7.67.07a7.35,7.35,0,0,1-2.47-5.28,14.61,14.61,0,0,1,3.41-10.7c.66-.76,1.66-1.51,2.58-1.11,1.14.5,1,2.15.62,3.34,0,0,11.55-4.36,18.64-1.95S67,61.43,67,61.43Z"/><path class="cls-9" d="M62.48,44.74c-.07,0-.13.49-.48,1.33a10.62,10.62,0,0,1-2.19,3.1,17.22,17.22,0,0,1-4.59,3.26,13.36,13.36,0,0,1-3.14,1.08c-1.14.26-2.35.45-3.58.8A8.26,8.26,0,0,0,45.17,56a7.47,7.47,0,0,0-2,2.88A6.51,6.51,0,0,0,42.78,62,6,6,0,0,0,47,66.93a4.23,4.23,0,0,0,1.06.16c.24,0,.37,0,.37,0S47.87,67,47,66.7a5.86,5.86,0,0,1-2.87-2.33A5.52,5.52,0,0,1,43.28,62a6,6,0,0,1,.41-2.88,6.92,6.92,0,0,1,1.87-2.63,7.71,7.71,0,0,1,3.11-1.58c1.18-.34,2.38-.53,3.54-.8a13.74,13.74,0,0,0,3.25-1.16,16.64,16.64,0,0,0,4.66-3.47,9.78,9.78,0,0,0,2.1-3.31,6,6,0,0,0,.24-1C62.49,44.87,62.5,44.74,62.48,44.74Z"/><path class="cls-9" d="M70.15,46.75c-.06,0-.17.51-.55,1.38a10.32,10.32,0,0,1-2.36,3.18,14.4,14.4,0,0,1-5.09,2.93A49.78,49.78,0,0,1,55,56a27.87,27.87,0,0,0-7.13,2.1,4.93,4.93,0,0,0-2.32,2.39,4.7,4.7,0,0,0-.14,2.9A5.69,5.69,0,0,0,48,66.58a5.36,5.36,0,0,0,1,.52c.24.1.37.13.38.11s-.47-.26-1.23-.82a5.69,5.69,0,0,1-2.21-3.15,4.12,4.12,0,0,1,.19-2.6,4.43,4.43,0,0,1,2.11-2.1,28.93,28.93,0,0,1,7-2,45.83,45.83,0,0,0,7.19-1.77,14.4,14.4,0,0,0,5.2-3.15,9.63,9.63,0,0,0,2.27-3.4,5.93,5.93,0,0,0,.3-1.08C70.16,46.89,70.17,46.76,70.15,46.75Z"/><path class="cls-8" d="M45.35,84.31c.26.14,1.13-1.15,2.8-1.74s3.18-.19,3.29-.45-.27-.42-.94-.62a4.48,4.48,0,0,0-2.73.12,4.29,4.29,0,0,0-2.13,1.63C45.27,83.83,45.22,84.26,45.35,84.31Z"/><path class="cls-8" d="M61.27,79.43c.27.13,1.13-1.15,2.8-1.74s3.19-.19,3.29-.46-.26-.41-.94-.61a4.51,4.51,0,0,0-2.72.11,4.39,4.39,0,0,0-2.14,1.64C61.19,79,61.15,79.37,61.27,79.43Z"/><path class="cls-8" d="M59.67,91a11.5,11.5,0,0,0-2.87.47c-.45.11-.88.17-1-.1A2.28,2.28,0,0,1,55.58,90c0-1.17.07-2.4.11-3.68.11-5.24,0-9.48-.19-9.48s-.47,4.24-.57,9.47c0,1.29,0,2.51,0,3.69a2.61,2.61,0,0,0,.37,1.74,1.14,1.14,0,0,0,.92.38,3.48,3.48,0,0,0,.76-.16A11.29,11.29,0,0,0,59.67,91Z"/><path class="cls-8" d="M65,90.44c-.28.08.36,1.89-.73,3.72s-3.09,2.32-3,2.58.55.2,1.37-.07a4.77,4.77,0,0,0,2.55-2,4.15,4.15,0,0,0,.5-3.08C65.47,90.76,65.11,90.38,65,90.44Z"/><path class="cls-8" d="M58.57,70.15c.33.39,1.92-.41,4-.87s3.8-.49,3.92-1c0-.24-.38-.56-1.17-.78a7,7,0,0,0-6,1.42C58.66,69.47,58.43,70,58.57,70.15Z"/><path class="cls-8" d="M43.74,77c.43.27,1.43-.53,2.81-1s2.64-.65,2.76-1.14c0-.24-.26-.55-.9-.73a4.35,4.35,0,0,0-4.5,1.76C43.57,76.41,43.54,76.86,43.74,77Z"/><path class="cls-4" d="M67.18,121.75c-.52,2.74-1.26,21.81.15,29.54,2.64,14.36,22.45,46,23.74,48.53.76,1.48,17.17,39.05,17.17,39.05s71.44-22.19,75-40.28c0,0-24.13-18-30.09-23.48-1.18-1.1-23-38.76-23-38.76l-13.19-22.8s-10.2-10-15.46-10H89.89Z"/><path class="cls-10" d="M183.26,198.59s-8.41.66-31.9,13.83-29.68,17-29.68,17l48.17-16.87S182.39,205.17,183.26,198.59Z"/><path class="cls-4" d="M102.7,103.59l13.14,1.17,37.73,7.73-16.3,30.37-41.61-4S85.58,119,89.32,114.64,102.7,103.59,102.7,103.59Z"/><polygon class="cls-10" points="133.61 142.51 105.24 139.64 105.24 139.64 139.33 152.12 133.61 142.51"/><path class="cls-8" d="M97.25,139.44c0,.14,7.42.95,16.6,1.81s16.65,1.43,16.66,1.29-7.42-.95-16.61-1.81S97.26,139.3,97.25,139.44Z"/><path class="cls-8" d="M89.91,121.83c.09,0,.2-1.11.68-2.82a20.32,20.32,0,0,1,7.82-11.12c1.46-1,2.47-1.5,2.43-1.59a2.35,2.35,0,0,0-.75.26,12.85,12.85,0,0,0-1.88,1,18.57,18.57,0,0,0-8,11.34,12.27,12.27,0,0,0-.32,2.12A2.35,2.35,0,0,0,89.91,121.83Z"/><path class="cls-8" d="M145.52,176.27a7.4,7.4,0,0,0-1.47-.29c-1-.15-2.31-.4-4-.77s-3.65-.89-5.81-1.58a61.31,61.31,0,0,1-13.34-6.2c-1.92-1.21-3.6-2.37-5-3.42s-2.44-1.93-3.16-2.56a9.33,9.33,0,0,0-1.17-.94,7.49,7.49,0,0,0,1,1.09c.69.68,1.73,1.61,3.07,2.7a54.54,54.54,0,0,0,4.93,3.53,60.6,60.6,0,0,0,6.52,3.57,59.58,59.58,0,0,0,6.93,2.68,56.42,56.42,0,0,0,5.88,1.49c1.7.32,3.08.53,4.05.61A9.19,9.19,0,0,0,145.52,176.27Z"/><path class="cls-8" d="M141.55,169.37c0-.17-3.53-.21-7.74-1.2s-7.42-2.49-7.48-2.34a8.16,8.16,0,0,0,2,1.09,31.5,31.5,0,0,0,10.86,2.53A8.88,8.88,0,0,0,141.55,169.37Z"/><path class="cls-8" d="M101.67,201.55a9.21,9.21,0,0,0,1.36.65c.88.39,2.19.9,3.81,1.49a88.67,88.67,0,0,0,26.46,5.1c1.73.06,3.13.07,4.09,0a10,10,0,0,0,1.5-.09,7.18,7.18,0,0,0-1.5-.11c-1,0-2.35-.09-4.07-.2A107,107,0,0,1,120,206.74a105.71,105.71,0,0,1-13-3.4c-1.63-.54-2.95-1-3.86-1.33A7.07,7.07,0,0,0,101.67,201.55Z"/><path class="cls-3" d="M67,149.09,87.84,142c3,11.73,11,21.4,21.11,30.22L83.12,186.14a288.65,288.65,0,0,1-13.66-27.38A31,31,0,0,1,67,149.09Z"/><polygon class="cls-1" points="83.22 139.64 84.98 145.21 82.13 146.56 80.46 140.65 83.22 139.64"/><path class="cls-4" d="M87.55,168a28.54,28.54,0,0,0-3.83-.14l-4.88-9.75,5.61-2.8,1.2,2.41-2.59,1.3Z"/><path class="cls-4" d="M72.17,164.76l-.14,0c-.41-1.16-.87-2.3-1.37-3.42a8.11,8.11,0,0,1,1.44-.93,6.76,6.76,0,0,1,6.37-.16L77,162.72a3.56,3.56,0,0,0-3.34.05C72.57,163.3,72.1,164,72.17,164.76Z"/><path class="cls-4" d="M81.75,167.39c1.35.22,2.45.15,3.78.48l.81,1.6-3,1.5-1.83-3.65Z"/><path class="cls-4" d="M73.67,168.18h.18l6.35,1.92,1,2-4.37,2.19a2.86,2.86,0,0,0-.15-.41,16.52,16.52,0,0,0-1.14-2l.21-.1-.34-.11Z"/><path class="cls-8" d="M75.52,166.05a3.11,3.11,0,0,0,.84.3c.54.17,1.33.37,2.32.6a67.57,67.57,0,0,0,7.84,1.29,66,66,0,0,0,7.93.34c1,0,1.83-.06,2.4-.11a2.92,2.92,0,0,0,.87-.12,26.42,26.42,0,0,0-3.27-.14c-2-.05-4.81-.18-7.88-.49s-5.82-.77-7.81-1.13A25.77,25.77,0,0,0,75.52,166.05Z"/><path class="cls-6" d="M124.57,234.33c.55,1.65,43.49,66.1,80.38,79.32l16-2.48,84.8-25.05-9.36-23.68h0l-79.29,17.07-36.45-41.29-11-28.48Z"/><polygon class="cls-9" points="300.76 287.61 265.43 298.02 257.11 270.89 295.99 261.69 300.76 287.61"/><path class="cls-4" d="M299.38,287.32l.65.11s20.63,21.73,25.52,20l-21.38-49.92L291.09,263l1.21,1.65C297.13,271.3,299.18,279.13,299.38,287.32Z"/><g class="cls-11"><path class="cls-12" d="M296,267.74a2.22,2.22,0,0,1,1.72-2.41,2.14,2.14,0,0,1,2.4,1.69,2.33,2.33,0,0,1-1.84,2.54,2.22,2.22,0,0,1-2.3-2"/></g><g class="cls-11"><path class="cls-12" d="M304.17,257.49l-4,1.87,22,47.16s1.92,1.81,3.37.89Z"/></g><path class="cls-8" d="M300.12,288.35c.24-.11-.17-1.38.1-2.91s1-2.61.83-2.8-1.45.79-1.74,2.65S299.92,288.5,300.12,288.35Z"/><path class="cls-8" d="M304.53,292.66c.26-.05.22-1.28.9-2.55s1.66-2,1.55-2.21-1.56.2-2.37,1.79S304.29,292.75,304.53,292.66Z"/><path class="cls-8" d="M312.07,293c-.05-.24-1.41-.06-2.48,1.14s-1.11,2.56-.86,2.58.66-1,1.55-2S312.15,293.2,312.07,293Z"/><path class="cls-8" d="M299.75,287.87a5.07,5.07,0,0,0-1.09-2.49,12.49,12.49,0,0,0-1.92-2.28,12.11,12.11,0,0,0-1.38-1.1,3.2,3.2,0,0,0-.91-.51,1.14,1.14,0,0,0-1.34.45,1.41,1.41,0,0,0-.1,1.3,3.06,3.06,0,0,0,.53.88,9.12,9.12,0,0,0,1.2,1.33,9.49,9.49,0,0,0,2.5,1.66,4.56,4.56,0,0,0,2.66.6c0-.15-1-.38-2.36-1.18a11.17,11.17,0,0,1-2.22-1.69,11,11,0,0,1-1.05-1.25c-.37-.47-.56-.92-.39-1.15s.1-.11.31-.07a2.66,2.66,0,0,1,.66.37,14.23,14.23,0,0,1,1.32,1,14.58,14.58,0,0,1,2,2C299.15,287,299.62,287.93,299.75,287.87Z"/><path class="cls-8" d="M300,287.4a4.36,4.36,0,0,0-2.7.38,8.83,8.83,0,0,0-2.59,1.51,9,9,0,0,0-1.24,1.29,2.22,2.22,0,0,0-.58,2.13,1.25,1.25,0,0,0,1.14.75,3.56,3.56,0,0,0,1-.14,5.65,5.65,0,0,0,1.68-.72,6.17,6.17,0,0,0,2.13-2.17c.87-1.53.73-2.67.64-2.66a23.36,23.36,0,0,1-1.19,2.3,6.15,6.15,0,0,1-2,1.8,5.35,5.35,0,0,1-1.46.57c-.57.15-1.08.14-1.11-.08a1.58,1.58,0,0,1,.44-1.23,9.06,9.06,0,0,1,1.09-1.2,10,10,0,0,1,2.29-1.55C299,287.68,300,287.55,300,287.4Z"/><path class="cls-13" d="M261.33,270.63a3.52,3.52,0,0,0,.22,1c.22.75.49,1.66.8,2.73l2.71,9c1,3.45,2,6.57,2.69,9,.33,1.06.61,2,.85,2.72a3.56,3.56,0,0,0,.37,1,4.23,4.23,0,0,0-.18-1c-.15-.66-.38-1.61-.68-2.77-.6-2.33-1.49-5.53-2.55-9.05s-2.08-6.68-2.86-9c-.39-1.14-.71-2.06-.95-2.69A4.41,4.41,0,0,0,261.33,270.63Z"/><path class="cls-13" d="M264.58,270.63a4.4,4.4,0,0,0,.23,1c.22.75.48,1.66.8,2.73l2.71,9c1,3.45,2,6.57,2.69,9l.84,2.72a4.61,4.61,0,0,0,.37,1,3.86,3.86,0,0,0-.17-1c-.15-.66-.38-1.61-.69-2.77-.6-2.33-1.49-5.53-2.54-9.05s-2.08-6.68-2.86-9c-.39-1.14-.72-2.06-1-2.69A4.41,4.41,0,0,0,264.58,270.63Z"/><path class="cls-6" d="M117.85,231.92c-1.65,1.1-58.26,58.6-59.36,63s-20.93,92.5-20.93,92.5l19.27,5.51s27-52.86,27-54.51,9.14-26,9.14-26l34.36-30.17,35.8-32.48Z"/><polygon class="cls-9" points="30.97 393.8 43.13 359.04 70.02 368.1 54.81 405.04 30.97 393.8"/><path class="cls-4" d="M32,392.85l-.47.46S1.86,397.4.43,402.39l53,11.75,3.15-13.84H54.54C46.34,400.37,38.79,397.47,32,392.85Z"/><g class="cls-11"><path class="cls-12" d="M49.88,401.53a2.22,2.22,0,0,1,.95,2.81,2.13,2.13,0,0,1-2.77,1,2.34,2.34,0,0,1-1-3,2.22,2.22,0,0,1,3-.69"/></g><g class="cls-11"><path class="cls-12" d="M53.44,414.14l.81-4.32L3.12,400.17s-2.59.5-2.69,2.22Z"/></g><path class="cls-8" d="M30.74,392.85c0,.26,1.22.66,2.31,1.78s1.53,2.35,1.79,2.3.21-1.63-1.14-2.95S30.74,392.6,30.74,392.85Z"/><path class="cls-8" d="M24.67,393.92c-.11.23.91.92,1.55,2.21s.63,2.51.89,2.55.75-1.38-.07-3S24.73,393.67,24.67,393.92Z"/><path class="cls-8" d="M20,399.87c.22.11.87-1.11.52-2.67S19.12,394.8,19,395s.42,1.12.69,2.41S19.79,399.79,20,399.87Z"/><path class="cls-8" d="M31.35,392.83a5.21,5.21,0,0,0,2.66.57,11.91,11.91,0,0,0,3-.24,11.74,11.74,0,0,0,1.7-.47,3.13,3.13,0,0,0,.94-.44,1.17,1.17,0,0,0,.43-1.35,1.51,1.51,0,0,0-1-.85,3.38,3.38,0,0,0-1-.08,10,10,0,0,0-1.78.2,9.87,9.87,0,0,0-2.8,1.06c-1.49.87-2.12,1.74-2,1.81s.87-.56,2.33-1.22A10.8,10.8,0,0,1,36.4,391a9.42,9.42,0,0,1,1.63-.14c.59,0,1.07.08,1.16.36,0,.11,0,.15-.13.29a2.63,2.63,0,0,1-.69.32,11,11,0,0,1-1.58.49,14.24,14.24,0,0,1-2.78.42A19.34,19.34,0,0,0,31.35,392.83Z"/><path class="cls-8" d="M31.61,393.27c.08.06.8-.75,1.27-2.41a8.84,8.84,0,0,0,.28-3,9.34,9.34,0,0,0-.32-1.76,2.24,2.24,0,0,0-1.4-1.72,1.27,1.27,0,0,0-1.27.49,3.76,3.76,0,0,0-.49.92,6.09,6.09,0,0,0-.4,1.78,6.26,6.26,0,0,0,.53,3c.73,1.6,1.74,2.15,1.78,2.07a24.06,24.06,0,0,1-1.17-2.31,6.15,6.15,0,0,1-.29-2.68,5.67,5.67,0,0,1,.39-1.52c.21-.55.52-1,.72-.85s.62.58.73,1.07a8.54,8.54,0,0,1,.34,1.59,9.92,9.92,0,0,1-.07,2.76C32,392.29,31.48,393.2,31.61,393.27Z"/><path class="cls-13" d="M67.77,371.68a4.11,4.11,0,0,0-1-.42l-2.68-.94-8.89-3.05-8.88-3.06-2.71-.91a4.74,4.74,0,0,0-1-.27,3.59,3.59,0,0,0,.94.46c.62.27,1.53.63,2.65,1.06,2.24.87,5.36,2,8.84,3.21S61.7,370,64,370.67l2.74.79A4.64,4.64,0,0,0,67.77,371.68Z"/><path class="cls-13" d="M65.87,374.32a4.14,4.14,0,0,0-1-.41l-2.68-1-8.89-3-8.88-3.06c-1.06-.35-2-.65-2.7-.91a3.82,3.82,0,0,0-1-.26,5,5,0,0,0,.94.46c.62.26,1.53.62,2.65,1.06,2.25.86,5.37,2,8.84,3.21s6.64,2.21,8.94,2.9c1.16.35,2.09.62,2.74.79A4.64,4.64,0,0,0,65.87,374.32Z"/><path class="cls-8" d="M169.58,209.74s30.25,37.95,37.48,41c2.31,1-6,10.69-6,10.69L197,256.74c-13.06,6.87-23.17,15.87-33.57,28.52l-18-16.94L130.2,288.39l-43.15-26.7,21.19-22.82s28.55-25.73,54.31-32.63C162.55,206.24,165.53,206.22,169.58,209.74Z"/><path class="cls-9" d="M123.28,244a2.66,2.66,0,0,0,.35.47l1.08,1.29c1,1.11,2.34,2.69,4.07,4.64,3.47,3.89,8.32,9.21,13.82,15s10.59,10.85,14.42,14.4c1.92,1.76,3.48,3.18,4.61,4.11l1.29,1.07a2,2,0,0,0,.48.34,2.67,2.67,0,0,0-.41-.42l-1.23-1.15c-1.08-1-2.6-2.43-4.49-4.22-3.75-3.61-8.81-8.73-14.3-14.49s-10.38-11-13.91-14.86l-4.2-4.53-1.15-1.22A3.15,3.15,0,0,0,123.28,244Z"/><path class="cls-9" d="M163,284.66s.16-.12.42-.39l1.1-1.19c.95-1,2.35-2.52,4.12-4.31s3.93-3.87,6.4-6.09,5.3-4.55,8.36-6.88,6.08-4.37,8.88-6.18,5.39-3.3,7.6-4.51,4-2.16,5.27-2.79l1.44-.74a3,3,0,0,0,.49-.29,2.07,2.07,0,0,0-.53.19l-1.49.66c-1.29.57-3.12,1.47-5.35,2.65s-4.85,2.66-7.69,4.43-5.86,3.85-8.94,6.17-5.87,4.7-8.36,6.93-4.62,4.35-6.35,6.19-3.1,3.35-4,4.44l-1,1.25A2.4,2.4,0,0,0,163,284.66Z"/><path class="cls-13" d="M146.41,211.54a4.1,4.1,0,0,0,.4.52L148,213.5l4.53,5.27c3.82,4.45,9.05,10.63,14.69,17.57s10.61,13.35,14.18,18l4.22,5.52,1.16,1.49a4.52,4.52,0,0,0,.43.5,3.31,3.31,0,0,0-.35-.57c-.28-.39-.63-.91-1.08-1.54-.94-1.35-2.34-3.27-4.09-5.62-3.49-4.72-8.42-11.15-14.07-18.1s-10.92-13.11-14.81-17.49c-2-2.2-3.54-4-4.66-5.16L146.89,212A2.57,2.57,0,0,0,146.41,211.54Z"/><path class="cls-13" d="M149.71,211.34a4.17,4.17,0,0,0,.4.5l1.23,1.39,4.57,5.05c3.85,4.26,9.13,10.19,14.82,16.85s10.73,12.81,14.35,17.28l4.27,5.29c.48.59.87,1.07,1.18,1.43a3.15,3.15,0,0,0,.43.48,2.23,2.23,0,0,0-.35-.54l-1.1-1.49c-1-1.29-2.37-3.14-4.14-5.4-3.55-4.53-8.54-10.71-14.24-17.38s-11-12.57-14.95-16.77c-2-2.11-3.56-3.79-4.69-4.94l-1.3-1.32A3.55,3.55,0,0,0,149.71,211.34Z"/><path class="cls-9" d="M115.51,278c.12.08,3.88-5,8.4-11.38s8.09-11.59,8-11.68-3.87,5-8.4,11.38S115.39,277.91,115.51,278Z"/><path class="cls-4" d="M64.46,167.12c.11,1.15,2.1,3.92,4.56,5.36a86.21,86.21,0,0,0,8.5,4.58c5.55,2.69,48.92,18.24,48.92,18.24l-3.82-8.51.94-5.56c-12-2.59-44.77-12.38-53.23-18-1.74-1.16-2.9-3.7-1.35-5.46l-.19-.6s-.81-.18-3.38,4.2A9.16,9.16,0,0,0,64.46,167.12Z"/><g class="cls-14"><path d="M64.46,167.12c.11,1.15,2.1,3.92,4.56,5.36a86.21,86.21,0,0,0,8.5,4.58c5.55,2.69,48.92,18.24,48.92,18.24l-3.82-8.51.94-5.56c-12-2.59-44.77-12.38-53.23-18-1.74-1.16-2.9-3.7-1.35-5.46l-.19-.6s-.81-.18-3.38,4.2A9.16,9.16,0,0,0,64.46,167.12Z"/></g><path class="cls-4" d="M189.7,187.07l-42.07-5.17-5.15,2.79,9.82,11.44s53.23,4.46,66,12.08c12.24,7.28,15.69,25.64,35.1,27.44s68.46-18.61,78.21-14l5.78-15.23s-29.24.54-50.86,8.34-28.45,9.56-39.51,0-20.5-18.7-39.69-23.27C195.62,188.66,189.7,187.07,189.7,187.07Z"/><g class="cls-14"><path d="M189.7,187.07l-42.07-5.17-5.15,2.79,9.82,11.44s53.23,4.46,66,12.08c12.24,7.28,15.69,25.64,35.1,27.44s68.46-18.61,78.21-14l5.78-15.23s-29.24.54-50.86,8.34-28.45,9.56-39.51,0-20.5-18.7-39.69-23.27C195.62,188.66,189.7,187.07,189.7,187.07Z"/></g><path class="cls-9" d="M226.53,87.89c0,.15,16.17.26,36.11.26s36.11-.11,36.11-.26-16.16-.26-36.11-.26S226.53,87.75,226.53,87.89Z"/><path class="cls-9" d="M273.18,105.09c0,.14,7.89.26,17.61.26s17.61-.12,17.61-.26-7.88-.26-17.61-.26S273.18,104.94,273.18,105.09Z"/><path class="cls-9" d="M249.4,96.74c0,.14,32.34.26,72.24.26s72.24-.12,72.24-.26-32.34-.26-72.24-.26S249.4,96.59,249.4,96.74Z"/><path class="cls-9" d="M120.33,341.23c0,.15,16.16.26,36.11.26s36.11-.11,36.11-.26-16.17-.26-36.11-.26S120.33,341.09,120.33,341.23Z"/><path class="cls-9" d="M143.19,350.08c0,.14,32.35.26,72.24.26s72.25-.12,72.25-.26-32.34-.26-72.25-.26S143.19,349.93,143.19,350.08Z"/></g><g id="Plant"><path class="cls-4" d="M376.15,396.09c-.65-2.52,1-5,2.86-6.88s4.07-3.48,5-5.9c1.57-3.92-.54-9,2.13-12.27,1.57-1.92,4.39-2.57,5.78-4.62a10.63,10.63,0,0,0,1.25-3.68,37.42,37.42,0,0,1,9.28-17.37,32.35,32.35,0,0,1-3.64,16.74c-1.08,2.06-2.4,4.07-2.76,6.36-.58,3.73,1.5,7.57.58,11.23-1.05,4.19-5.75,7-6,11.3-.19,3.64,3,6.84,2.75,10.48a9.82,9.82,0,0,1-1.62,4.32c-2.82,4.68-7,7.91-13.23,7.81l-7.68.26Z"/><g class="cls-14"><path d="M376.15,396.09c-.65-2.52,1-5,2.86-6.88s4.07-3.48,5-5.9c1.57-3.92-.54-9,2.13-12.27,1.57-1.92,4.39-2.57,5.78-4.62a10.63,10.63,0,0,0,1.25-3.68,37.42,37.42,0,0,1,9.28-17.37,32.35,32.35,0,0,1-3.64,16.74c-1.08,2.06-2.4,4.07-2.76,6.36-.58,3.73,1.5,7.57.58,11.23-1.05,4.19-5.75,7-6,11.3-.19,3.64,3,6.84,2.75,10.48a9.82,9.82,0,0,1-1.62,4.32c-2.82,4.68-7,7.91-13.23,7.81l-7.68.26Z"/></g><path class="cls-8" d="M369.35,414.08a6.07,6.07,0,0,1-2.11-.05,12.48,12.48,0,0,1-2.5-.63,10.32,10.32,0,0,1-3.08-1.69,4.22,4.22,0,0,1-1.27-1.69,7.47,7.47,0,0,1-.36-2.29c0-.81,0-1.64-.18-2.49a7.07,7.07,0,0,0-.94-2.47c-.91-1.59-2.41-3.1-2.9-5.26a17.45,17.45,0,0,1,.21-6.73c.36-2.31.7-4.82-.18-7.22s-2.51-4.57-3.35-7.28-.45-5.68-.63-8.58a11.35,11.35,0,0,0-1-4.27c-.62-1.36-1.48-2.64-2.15-4.07-1.37-2.9-1.61-6.18-2-9.39-.18-1.62-.37-3.26-.55-4.91a24.05,24.05,0,0,0-.86-4.91,42.7,42.7,0,0,0-1.83-4.76,15.2,15.2,0,0,1-.9-2.48,24,24,0,0,1-.24-2.64,30.56,30.56,0,0,1,.2-5.32c.21-1.78.53-3.53.72-5.31l0-.31,0-.35.32.16a12,12,0,0,1,4.14,3.49,18.83,18.83,0,0,1,2.54,4.68,58.25,58.25,0,0,1,2.39,10.06,27.11,27.11,0,0,0,3.16,9.29c.84,1.37,1.86,2.62,2.75,4a10.73,10.73,0,0,1,1.9,4.38c.46,3.25-1.33,6.1-1,9a9.88,9.88,0,0,0,1.4,4c.7,1.23,1.52,2.37,2.3,3.52a21.74,21.74,0,0,1,2.06,3.54,11.26,11.26,0,0,1,.94,3.85c.19,2.59-.18,5.05,0,7.37a17.09,17.09,0,0,0,1.9,6.31c.93,1.9,2,3.6,2.83,5.26a27,27,0,0,1,1.16,2.45,12,12,0,0,1,.68,2.43,15,15,0,0,1,.05,4.38,11.06,11.06,0,0,1-2.19,5.6,6,6,0,0,1-.63.67,3,3,0,0,1-.5.43l-.44.31a10.34,10.34,0,0,0,1.49-1.47,11.24,11.24,0,0,0,2.08-5.56,15.07,15.07,0,0,0-.09-4.32,12.64,12.64,0,0,0-.68-2.37c-.33-.8-.74-1.6-1.17-2.42-.88-1.64-1.92-3.34-2.87-5.25a17.23,17.23,0,0,1-2-6.42c-.21-2.37.15-4.84,0-7.37a11,11,0,0,0-.93-3.72,21.56,21.56,0,0,0-2-3.47c-.78-1.14-1.61-2.28-2.32-3.54a10.36,10.36,0,0,1-1.47-4.15c-.37-3.06,1.41-5.94.94-9a10.44,10.44,0,0,0-1.84-4.19c-.87-1.31-1.9-2.56-2.77-4a27.87,27.87,0,0,1-3.23-9.45,57.1,57.1,0,0,0-2.37-10,18.19,18.19,0,0,0-2.48-4.56,11.35,11.35,0,0,0-4-3.35l.36-.2c0,.1,0,.21,0,.31-.19,1.8-.51,3.56-.72,5.32a29.61,29.61,0,0,0-.2,5.23c0,.86.1,1.76.23,2.57a16,16,0,0,0,.87,2.39A45.87,45.87,0,0,1,346,340a24.84,24.84,0,0,1,.86,5c.19,1.66.37,3.3.55,4.92.36,3.23.61,6.45,1.92,9.25.65,1.39,1.51,2.67,2.15,4.08a11.88,11.88,0,0,1,1,4.42c.17,3-.22,5.87.58,8.49s2.47,4.8,3.32,7.28.53,5.1.17,7.39a16.93,16.93,0,0,0-.25,6.61c.44,2.06,1.9,3.56,2.83,5.19a7.16,7.16,0,0,1,1,2.57,22.44,22.44,0,0,1,.16,2.52,7.9,7.9,0,0,0,.33,2.23,4.15,4.15,0,0,0,1.19,1.62,10.24,10.24,0,0,0,3,1.69,12.46,12.46,0,0,0,2.46.67,9.09,9.09,0,0,0,1.56.15Z"/><path class="cls-8" d="M345.08,323.56a2.46,2.46,0,0,1,.07.24c0,.18.1.41.17.69.15.6.33,1.52.62,2.66s1,2.42,1.6,4,1.24,3.4,1.82,5.45,1.11,4.33,1.65,6.76a28.44,28.44,0,0,0,2.46,7.51c.63,1.24,1.34,2.51,1.9,3.89a18.06,18.06,0,0,1,1.11,4.41,89,89,0,0,0,1.65,9.29c1.54,6.3,3,12.3,4.35,17.76l3.64,14.47,2.41,9.78c.27,1.12.48,2,.63,2.66.06.28.12.51.16.7a.71.71,0,0,1,0,.24.74.74,0,0,1-.08-.23c-.06-.18-.12-.41-.2-.69q-.27-1-.72-2.64c-.62-2.33-1.49-5.65-2.57-9.73s-2.34-9-3.74-14.45-2.83-11.46-4.39-17.76a87.62,87.62,0,0,1-1.65-9.33,17.26,17.26,0,0,0-1.07-4.3c-.54-1.35-1.24-2.61-1.87-3.87a28.83,28.83,0,0,1-2.45-7.62c-.53-2.44-1-4.71-1.59-6.76s-1.15-3.86-1.74-5.44-1.24-2.88-1.53-4.06-.41-2.07-.53-2.69l-.12-.7A.93.93,0,0,1,345.08,323.56Z"/><path class="cls-4" d="M368,414.1c-5-3-6.45-12-4.36-17.49s5.76-10.43,6.32-16.24c.44-4.46-1-9.05,0-13.41,1.41-5.89,7.16-10.46,7.09-16.51,0-3.4-2-6.6-1.81-10,.19-4.17,3.38-7.47,5.36-11.14,3-5.61,3.23-12.25,4.27-18.55s3.43-13,9-16.13c.83,5.35,2.23,9,1.79,16.25-.16,2.6-3.18,7.57-3.59,13.27-.25,3.41-.42,6.82-.62,10.23a33,33,0,0,1-1.61,9.8c-.91,2.38-2.38,4.54-3.05,7-1.28,4.62.4,9.62-.63,14.3-.87,4-3.62,7.38-4.18,11.4-.78,5.65,2.87,11.52,1,16.91-.93,2.67-3.13,4.82-3.75,7.58-.49,2.14,0,4.41-.4,6.56-.7,3.47-7.31,6.16-10.85,5.94"/><path class="cls-8" d="M392.5,300a1.36,1.36,0,0,1,0,.3l-.12.88c-.11.77-.24,1.9-.5,3.37s-1,3.13-1.65,5.13-1.28,4.3-1.84,6.87-1.05,5.43-1.55,8.49a35.75,35.75,0,0,1-2.58,9.61c-.7,1.6-1.49,3.21-2.08,4.92a21.79,21.79,0,0,0-1.06,5.42,109.18,109.18,0,0,1-1.47,11.69c-1.54,7.92-3,15.46-4.34,22.33s-2.67,13-3.73,18.18-1.95,9.33-2.56,12.26c-.31,1.41-.55,2.53-.72,3.32-.09.36-.15.64-.2.86s-.08.3-.09.29,0-.1,0-.3.09-.51.15-.87c.15-.8.36-1.92.63-3.34.57-2.94,1.39-7.12,2.41-12.29s2.26-11.36,3.63-18.2l4.29-22.32a111.33,111.33,0,0,0,1.48-11.66,22.22,22.22,0,0,1,1.09-5.53c.61-1.74,1.41-3.36,2.12-4.95a35.42,35.42,0,0,0,2.58-9.48c.52-3.07,1-5.92,1.62-8.5a71.16,71.16,0,0,1,1.92-6.88c.64-2,1.42-3.66,1.72-5.09s.45-2.59.59-3.35c.07-.36.13-.65.17-.87A1.25,1.25,0,0,1,392.5,300Z"/><path class="cls-4" d="M118,375.29a7.6,7.6,0,0,0-5,3.23,13.35,13.35,0,0,0-2.13,5.67c-.63,3.9.45,8.3,1.91,12,4-1.89,6-6.52,7-8.94,1.44-3.82,1.72-11.59-1.74-11.93"/><path class="cls-4" d="M107.4,401.35a6.48,6.48,0,0,0-.36-6.49,8.57,8.57,0,0,0-5.58-3.62,3.59,3.59,0,0,0-3,.45,2.76,2.76,0,0,0-.8,2.69,5.51,5.51,0,0,0,1.45,2.53c2.27,2.5,4.92,4.5,8.3,4.44"/><path class="cls-8" d="M108.23,414.06a4.29,4.29,0,0,0,.11-.81c0-.57.12-1.31.2-2.2a22.69,22.69,0,0,0-.29-7.3,14,14,0,0,0-3.37-6.45,9.54,9.54,0,0,0-1.72-1.41,4.15,4.15,0,0,0-.53-.3c-.12-.07-.18-.1-.19-.09a14.92,14.92,0,0,1,2.29,1.94,14.35,14.35,0,0,1,3.24,6.38,24.34,24.34,0,0,1,.37,7.22c-.06.93-.1,1.68-.11,2.21A5.61,5.61,0,0,0,108.23,414.06Z"/><path class="cls-8" d="M117.3,381.19a2.07,2.07,0,0,0-.13.33l-.33,1c-.28.83-.67,2-1.15,3.53-.94,3-2.19,7.16-3.46,11.78s-2.33,8.83-3,11.89c-.36,1.53-.64,2.77-.82,3.63q-.14.6-.21,1a1.67,1.67,0,0,0-.05.35,3.09,3.09,0,0,0,.11-.34c.06-.25.15-.58.25-1l.92-3.6c.77-3.05,1.86-7.25,3.13-11.87s2.48-8.78,3.38-11.79c.44-1.48.79-2.69,1-3.56.12-.4.21-.72.28-1A1.9,1.9,0,0,0,117.3,381.19Z"/><path class="cls-4" d="M112.25,405.18a15.14,15.14,0,0,1,11-8.45c1.2-.22,2.68-.16,3.34.87s.06,2.4-.68,3.38a12.94,12.94,0,0,1-13.63,4.54"/><path class="cls-8" d="M121.69,400.16a3.75,3.75,0,0,0-.75.11,6.77,6.77,0,0,0-.88.19c-.33.1-.73.17-1.14.33a13.21,13.21,0,0,0-1.34.53,15.7,15.7,0,0,0-1.48.74,15.69,15.69,0,0,0-5.47,5.19,14.11,14.11,0,0,0-.8,1.44,11.22,11.22,0,0,0-.58,1.33,9.83,9.83,0,0,0-.37,1.13,6.93,6.93,0,0,0-.22.87,3.45,3.45,0,0,0-.12.75c.06,0,.25-1.06.9-2.68a13.1,13.1,0,0,1,.6-1.29,16.19,16.19,0,0,1,.81-1.41,17.65,17.65,0,0,1,2.39-2.87,17.83,17.83,0,0,1,3-2.23,15.51,15.51,0,0,1,1.45-.75A10,10,0,0,1,119,401C120.63,400.39,121.71,400.22,121.69,400.16Z"/></g><g id="Speech_Bubble" data-name="Speech Bubble"><path class="cls-12" d="M119.16,72.41l4.29-14.34c-4.18-4.91-5.57-9.27-6.63-16.11A36.1,36.1,0,1,1,135,68l-2.27-1.73Z"/><path class="cls-4" d="M146.28,31.75h2.22L153.35,25V20.56s3.43-.21,3,5.59,0,4.33,0,4.33,7.29,0,7.9.66c.44.46.64,7.71.71,11.63a4.25,4.25,0,0,1-3,4.29,3.56,3.56,0,0,1-.79.1c-1.81,0-11.11-1.48-11.11-1.48h-3.83Z"/><polygon class="cls-4" points="139.92 30.53 141.28 45.73 145.09 45.73 145.09 30.84 139.92 30.53"/><path class="cls-8" d="M152.47,0h.63L155,.06c.4,0,.86,0,1.36.06l1.63.23,1.9.27,2.12.53a34.06,34.06,0,0,1,10.3,4.48A36.37,36.37,0,0,1,189,33a37.43,37.43,0,0,1,.1,5c-.06.84,0,1.69-.16,2.54L188.5,43A36.51,36.51,0,0,1,185,53.17a39,39,0,0,1-6.62,9.11,38.44,38.44,0,0,1-9.53,6.85,34.7,34.7,0,0,1-11.62,3.56,22.88,22.88,0,0,1-3.1.27A27.38,27.38,0,0,1,151,73a36.09,36.09,0,0,1-6.27-.79A36.61,36.61,0,0,1,132.26,67l.38,0-12.73,5.11-.75.3.21-.78q1.93-7,3.74-13.61l.07.34a36.53,36.53,0,0,1-6.79-15.55,32.67,32.67,0,0,1-.5-8,26.58,26.58,0,0,1,.36-3.82c.1-.63.2-1.25.29-1.86s.3-1.21.45-1.81a36.4,36.4,0,0,1,14.2-20.7,34.72,34.72,0,0,1,8.45-4.46l1.9-.68,1.81-.46L145,.64c.53-.1,1-.15,1.52-.23,1-.12,1.81-.28,2.55-.32L150.94,0l1.15,0h.38a1.31,1.31,0,0,1-.38.06L151,.16l-1.86.12c-.73.06-1.57.25-2.52.39a36.2,36.2,0,0,0-28.95,26.84c-.14.59-.32,1.17-.42,1.78s-.19,1.21-.28,1.82a26,26,0,0,0-.34,3.76,32.88,32.88,0,0,0,.52,7.81,35.81,35.81,0,0,0,6.7,15.21l.11.15,0,.19c-1.2,4.39-2.44,8.94-3.71,13.61l-.54-.48,12.72-5.12.2-.08.18.12a36,36,0,0,0,18.35,5.91,28.55,28.55,0,0,0,3.07,0,23.52,23.52,0,0,0,3-.26,34,34,0,0,0,11.37-3.48,37.61,37.61,0,0,0,9.34-6.68,38.53,38.53,0,0,0,6.5-8.9,36.23,36.23,0,0,0,3.42-9.91q.19-1.27.39-2.52c.12-.83.11-1.67.17-2.49a37.83,37.83,0,0,0-.08-4.89A35.93,35.93,0,0,0,172,6a34.45,34.45,0,0,0-10.13-4.56L159.78.9,157.9.59,156.29.32c-.5,0-.95-.07-1.35-.1L153.1.09A3.08,3.08,0,0,1,152.47,0Z"/></g></g></svg>