<svg xmlns="http://www.w3.org/2000/svg" viewBox="0 0 462.22 438.28"><defs><style>.cls-1{fill:none;}.cls-2{fill:#f5f5f5;}.cls-3{fill:#e0e0e0;}.cls-4{fill:#ebebeb;}.cls-5{fill:#ffbe9d;}.cls-6{fill:#eb996e;}.cls-7{fill:#e8505b;}.cls-8{fill:#fafafa;}.cls-9{fill:#263238;}.cls-10{fill:#fff;}.cls-11{opacity:0.3;}.cls-12{opacity:0.2;}</style></defs><title>Win</title><g id="Layer_2" data-name="Layer 2"><g id="Background_Complete" data-name="Background Complete"><polygon class="cls-1" points="237.42 195.09 237.42 195.1 237.45 195.1 237.42 195.09"/><polygon class="cls-1" points="237.34 195.1 237.41 195.1 237.36 195.07 237.34 195.1"/><polygon class="cls-1" points="237.25 195.04 237.21 195.1 237.33 195.1 237.25 195.04"/><polygon class="cls-1" points="237.15 195.03 237.17 195.02 237.14 195.01 237.15 195.03"/><polygon class="cls-1" points="237.13 194.87 237.13 194.88 237.15 194.9 237.13 194.87"/><polygon class="cls-1" points="237.4 195.03 237.38 195.04 237.4 195.06 237.4 195.03"/><polygon class="cls-1" points="237.1 195.06 237.09 195 236.76 194.9 237.06 195.09 237.1 195.06"/><polygon class="cls-1" points="237.11 195 237.1 195.06 237.15 195.03 237.11 195"/><polygon class="cls-1" points="237.38 195 237.33 195.01 237.36 195.03 237.38 195"/><polygon class="cls-1" points="237.34 195.07 237.32 195.06 237.34 195.09 237.34 195.07"/><path class="cls-2" d="M209.23,1.15l14,97.42.4,0L237.25,194l13.51-95.5.21,0L264.42,2.67a209,209,0,0,0-55.19-1.52Z"/><path class="cls-2" d="M363.89,48a208,208,0,0,0-46.63-29.32L277.47,106.3l.22.1-40.22,88.4Z"/><path class="cls-2" d="M143.94,167.72h0l92.59,27.11h-.37l.89.26h0l0,0h0l.06,0v0h0v0l0,0,0-.06.07.06h-.12l.06.05,0,0v0h0l.06,0v0l0,0h0l-.05,0,.37.16-.31-.2,93.13,27.26-.06.2L433.89,253a208,208,0,0,0,4.95-45.22c0-4.33-.15-8.63-.41-12.9H334.52V195l-97,.1h0l0,0,0-.09.42-.12-.35.22.86-.25H238l189.16-56A206.72,206.72,0,0,0,401.4,88.75L237.9,194.83h-.33l.14-.16-.25.16h0v0l0,0,.09-.52-.18.39,0,.13-.11.08,0-.08h-.08v-.13l-.15-.34.06.43,0,0h0l-.2-.12.1.11h-.32L64.34,83.87a206.91,206.91,0,0,0-28.29,52.27Zm93.48,27.37h0Zm-.08,0,0,0,0,0Zm.06-.07v0l0,0Zm0,0v0l0,0Zm0,.07v0Zm-.19,0v0h0Zm0-.16,0,0,0,0Zm0,.13,0,0-.05,0Zm0,0v.06l0,0-.3-.19Z"/><path class="cls-2" d="M173.48,121.45v0L237,194.75l-40.3-88.3,0,0L154.68,14.51a207.53,207.53,0,0,0-49.57,28.07Z"/><path class="cls-2" d="M319.1,247.8l-.06.08-81.38-52.4,63.46,73.2-.15.14,75.5,87.29a208.16,208.16,0,0,0,36.41-47.77Z"/><polygon class="cls-2" points="237.39 195.31 237.38 195.3 237.39 195.31 237.39 195.31"/><polygon class="cls-2" points="237.16 195.12 237.15 195.15 237.11 195.13 237.12 195.2 237.13 195.19 237.13 195.2 237.19 195.18 237.16 195.16 237.18 195.13 237.2 195.13 237.19 195.12 237.21 195.1 237.11 195.1 237.16 195.12"/><polygon class="cls-2" points="237.08 195.21 237.09 195.12 237.07 195.1 236.69 195.32 237.08 195.21"/><path class="cls-2" d="M236.85,195.51l-81.18,52.67-.19-.3L52.79,314.34a208.74,208.74,0,0,0,39.92,48.29L185.9,254.68Z"/><path class="cls-2" d="M144,222.66l93-27.56-213.28.23q-.37,6.15-.38,12.4a208.4,208.4,0,0,0,5.78,48.83L144,222.68Z"/><path class="cls-2" d="M237,195.84,145.45,397A206,206,0,0,0,206.15,414Z"/><polygon class="cls-2" points="237.41 195.15 237.39 195.16 237.41 195.19 237.41 195.15"/><path class="cls-2" d="M237.51,195.82l30.86,216.31A206.11,206.11,0,0,0,327.06,392Z"/><polygon class="cls-2" points="237.16 195.47 237.26 196.2 237.36 195.5 237.26 195.26 237.16 195.47"/><polygon class="cls-2" points="237.37 195.17 237.36 195.18 237.38 195.19 237.37 195.17"/><path class="cls-3" d="M169.67,408.88l-.69-.24-2-.74-3.27-1.23-2.08-.79c-.73-.29-1.5-.64-2.33-1l-5.47-2.35c-2-.89-4.11-1.95-6.4-3s-4.69-2.4-7.24-3.73-5.18-2.89-7.95-4.49-5.56-3.46-8.52-5.32c-1.49-.91-2.92-2-4.42-3s-3-2.08-4.54-3.19l-4.58-3.47c-.77-.59-1.56-1.17-2.33-1.78l-2.31-1.9c-1.54-1.28-3.13-2.55-4.69-3.89l-4.68-4.17c-1.6-1.38-3.11-2.91-4.67-4.41s-3.17-3-4.67-4.63l-4.64-4.85-4.52-5.14a227,227,0,0,1-17.15-22.76A226.6,226.6,0,0,1,46.6,297.92l-2.88-6.22q-1.3-3.12-2.58-6.2c-.89-2-1.6-4.11-2.36-6.14s-1.53-4-2.15-6.05-1.29-4-1.93-6-1.12-3.94-1.67-5.87c-.27-1-.54-1.92-.81-2.87s-.46-1.92-.69-2.86c-.45-1.89-.89-3.76-1.33-5.59s-.73-3.66-1.09-5.44-.73-3.52-1-5.25c-.5-3.46-1.12-6.76-1.42-9.94s-.76-6.21-.91-9.09-.47-5.58-.5-8.12-.18-4.91-.2-7.08.05-4.17.06-6c0-.89,0-1.74,0-2.53s.08-1.53.12-2.22c.08-1.37.14-2.53.19-3.48s.1-1.64.13-2.14.06-.72.06-.72,0,.25,0,.73,0,1.21-.07,2.14-.09,2.11-.14,3.48q0,1-.09,2.22c0,.79,0,1.63,0,2.53,0,1.78,0,3.77,0,5.94s.16,4.54.24,7.07.33,5.24.53,8.12.59,5.89.95,9.06S28,236,28.55,239.4c.24,1.73.64,3.46,1,5.24s.7,3.59,1.1,5.43.89,3.68,1.34,5.57c.23.94.45,1.9.7,2.85l.81,2.86c.56,1.93,1.08,3.89,1.68,5.86s1.28,3.94,1.94,5.94,1.41,4,2.15,6,1.47,4.1,2.36,6.12l2.58,6.19,2.88,6.19A228.88,228.88,0,0,0,61,322.5a230.2,230.2,0,0,0,17.1,22.71l4.51,5.13,4.62,4.85c1.5,1.62,3.11,3.11,4.65,4.62s3.06,3,4.66,4.4l4.66,4.18c1.56,1.34,3.15,2.61,4.68,3.89l2.3,1.9c.77.61,1.56,1.19,2.32,1.78l4.56,3.48c1.52,1.1,3,2.14,4.52,3.19s2.92,2.09,4.41,3c2.94,1.86,5.7,3.77,8.49,5.33s5.35,3.21,7.91,4.52,4.9,2.7,7.21,3.76,4.4,2.16,6.37,3.07l5.45,2.39c.82.35,1.59.7,2.32,1l2.07.81L167,407.8l2,.79C169.45,408.77,169.67,408.88,169.67,408.88Z"/><path class="cls-3" d="M117.1,384c6.2-9,5.41-21.47.27-31.08s-14-16.73-23.25-22.44c-3.56,9.77-3.59,22.25,1,31.57S108,377.62,117.1,384"/><path class="cls-4" d="M117.14,384c-2-10.72-11.35-19-21.78-22.16s-21.71-2-32.31.57c4.39,9.43,13.2,18.27,23,21.58s20.12,1.91,31,0"/><path class="cls-3" d="M71.13,339.18c6.53-6.65,7.68-17.29,4.75-26.14s-9.32-16.12-16.31-22.28c-4.43,7.71-6.27,18.22-3.73,26.73s8.58,15,15.29,21.69"/><path class="cls-4" d="M71.16,339.18c-.08-9.32-6.79-17.66-15.12-21.84s-18-4.81-27.29-4.23c2.32,8.58,8.45,17.32,16.27,21.54s16.67,4.54,26.14,4.53"/><path class="cls-3" d="M41.26,288.81c6.8-3.31,10.57-11.13,10.73-18.69s-2.75-14.86-6.42-21.47c-5.47,4.69-9.74,12.23-10.11,19.43s2.49,13.79,5.8,20.73"/><path class="cls-4" d="M41.29,288.82c2.47-7.15-.4-15.35-5.63-20.81s-12.45-8.56-19.72-10.64c-.55,7.19,1.76,15.53,6.59,20.89s11.51,8,18.76,10.56"/><path class="cls-3" d="M27.37,237.48c6.5-1.59,11.23-7.67,12.78-14.18s.38-13.38-1.56-19.79c-5.62,3-10.71,8.77-12.38,14.94s-.42,12.41,1.16,19"/><path class="cls-4" d="M27.39,237.5c3.47-5.73,2.52-13.37-1-19.07s-9.18-9.74-15.09-12.89c-1.82,6.13-1.37,13.78,1.82,19.32s8.47,9.07,14.27,12.64"/><path class="cls-4" d="M24.88,197s-14.71-21.09,7.84-32.71C32.72,164.32,46.09,183.9,24.88,197Z"/><path class="cls-3" d="M297.09,407.38s.23-.11.67-.29l2-.8L303,405l2.07-.82c.73-.31,1.49-.66,2.31-1l5.44-2.41c2-.92,4.08-2,6.36-3.1s4.65-2.44,7.19-3.8,5.14-2.93,7.89-4.56,5.53-3.5,8.47-5.37c1.48-.92,2.9-2,4.38-3s3-2.1,4.51-3.22l4.54-3.49c.77-.6,1.55-1.18,2.32-1.8l2.28-1.91c1.53-1.29,3.11-2.57,4.66-3.92s3.08-2.77,4.64-4.19,3.09-2.92,4.64-4.43,3.14-3,4.63-4.64l4.59-4.88,4.49-5.15a228,228,0,0,0,17-22.79,229.22,229.22,0,0,0,13.77-24.87l2.85-6.21,2.55-6.2c.87-2,1.57-4.11,2.33-6.13s1.51-4,2.12-6.05,1.28-4,1.91-6,1.1-3.93,1.65-5.86c.27-1,.53-1.92.8-2.87s.45-1.91.68-2.85q.66-2.83,1.31-5.58c.4-1.83.72-3.65,1.08-5.43s.72-3.52.95-5.25c.5-3.45,1.12-6.74,1.41-9.92s.75-6.2.9-9.07.47-5.58.5-8.12.18-4.89.21-7.07,0-4.16,0-5.95c0-.89,0-1.73,0-2.53s-.07-1.53-.11-2.21c-.06-1.37-.11-2.54-.15-3.48l-.09-2.14c0-.48,0-.73,0-.73s0,.24.07.72.07,1.21.13,2.14.13,2.11.21,3.48c0,.69.08,1.43.13,2.22s0,1.64.05,2.53c0,1.79.06,3.78.09,5.95s-.1,4.54-.16,7.09-.28,5.25-.46,8.12-.52,5.91-.86,9.09-.89,6.49-1.38,9.95c-.23,1.73-.62,3.47-.94,5.26s-.67,3.6-1.06,5.44-.87,3.7-1.31,5.6c-.22.94-.43,1.9-.68,2.86s-.52,1.91-.79,2.87c-.54,1.93-1.05,3.91-1.64,5.88s-1.26,4-1.91,6-1.39,4-2.11,6.07-1.45,4.11-2.33,6.15l-2.55,6.21-2.85,6.23a226.13,226.13,0,0,1-13.8,24.94,227.45,227.45,0,0,1-17,22.84l-4.5,5.16-4.62,4.88c-1.49,1.64-3.1,3.13-4.64,4.65s-3,3-4.65,4.43l-4.66,4.2c-1.56,1.35-3.14,2.62-4.68,3.91l-2.29,1.91c-.77.62-1.56,1.2-2.33,1.8L351.86,378c-1.51,1.11-3,2.15-4.52,3.21s-2.92,2.1-4.41,3c-2.95,1.87-5.7,3.78-8.49,5.36s-5.36,3.21-7.93,4.53-4.91,2.7-7.22,3.76-4.4,2.17-6.38,3.07l-5.47,2.37c-.82.35-1.59.7-2.32,1l-2.08.79-3.25,1.25-2,.75C297.33,407.31,297.09,407.38,297.09,407.38Z"/><path class="cls-3" d="M349.54,382.23c-6.24-8.93-5.52-21.43-.42-31.07s13.88-16.8,23.14-22.55c3.61,9.75,3.7,22.23-.88,31.57s-12.8,15.64-21.84,22.05"/><path class="cls-4" d="M349.5,382.23c1.9-10.74,11.26-19.06,21.68-22.27s21.69-2.07,32.3.41c-4.34,9.45-13.1,18.34-22.94,21.7s-20.11,2-31,.16"/><path class="cls-3" d="M395.3,337.2c-6.57-6.61-7.77-17.25-4.88-26.11s9.24-16.17,16.2-22.36c4.46,7.68,6.35,18.18,3.85,26.71s-8.5,15-15.17,21.76"/><path class="cls-4" d="M395.26,337.2c0-9.32,6.71-17.7,15-21.92s18-4.89,27.27-4.35c-2.28,8.59-8.36,17.35-16.16,21.62s-16.65,4.62-26.12,4.65"/><path class="cls-3" d="M424.91,286.68c-6.81-3.27-10.62-11.08-10.82-18.63s2.68-14.88,6.31-21.5c5.5,4.66,9.8,12.18,10.21,19.38s-2.42,13.8-5.7,20.75"/><path class="cls-4" d="M424.89,286.69c-2.51-7.13.32-15.35,5.52-20.83s12.41-8.62,19.67-10.74c.59,7.19-1.68,15.54-6.49,20.92s-11.47,8.06-18.7,10.65"/><path class="cls-3" d="M438.55,235.29c-6.51-1.56-11.26-7.62-12.84-14.12s-.46-13.38,1.46-19.8c5.63,3,10.75,8.72,12.45,14.88s.48,12.41-1.07,19"/><path class="cls-4" d="M438.53,235.3c-3.5-5.71-2.58-13.35.9-19.07s9.14-9.78,15-13c1.85,6.12,1.43,13.77-1.72,19.33s-8.44,9.11-14.22,12.7"/><path class="cls-4" d="M440.84,194.83s14.61-21.17-8-32.67C432.85,162.16,419.58,181.81,440.84,194.83Z"/></g><g id="Character"><path class="cls-5" d="M189.5,190.73l-25.38-37.55,9.21-89.64.75.05c3.85-.05,13.58-9,15-12S187.46,26,186.84,26.16C180.66,28,181.4,35,181.4,35l-.73-6c-1.83-8.76-8.2-4.82-8.2-4.82-2.86-5.52-8.6-1.16-8.6-1.16-1.59-4.69-6-.56-6-.56s0-1.5-4.76-3.36c-2.6-1-5.28,2.55-7.16,6a19.39,19.39,0,0,0-2.28,10.32l-2.47,26.06-20.8,105.79,56,79,36.39-36.83Z"/><path class="cls-6" d="M167.09,53.72a10.8,10.8,0,0,1,2.62-3.15,23.95,23.95,0,0,1,12.38-6l-.35.42c0-2.86-.38-5.31-.45-7.1A8.88,8.88,0,0,1,181.4,35a15.56,15.56,0,0,1,.41,2.79,63.31,63.31,0,0,1,.77,7.13v.36l-.36.06a26.47,26.47,0,0,0-3.73,1A27.15,27.15,0,0,0,170.12,51C168.2,52.61,167.2,53.82,167.09,53.72Z"/><path class="cls-6" d="M151.73,28.51a4.13,4.13,0,0,1,.62,1.37,6,6,0,0,1,.16,4.14c-.33.92-1.29,1.51-1.48,2.29a2.83,2.83,0,0,0,.78,2.58,4.12,4.12,0,0,0,5.91-.33,6.17,6.17,0,0,0,1.11-3.33c.09-1.19.09-2.38.08-3.5a53.53,53.53,0,0,0-.44-5.95,9.66,9.66,0,0,0-1-3.79,9.35,9.35,0,0,0-.93-1.12s.59.12,1.21.92a8.91,8.91,0,0,1,1.35,3.9,45.16,45.16,0,0,1,.62,6,33.31,33.31,0,0,1,0,3.59,6.81,6.81,0,0,1-1.27,3.8,4.91,4.91,0,0,1-7.19.34,3.53,3.53,0,0,1-.88-3.34,3.26,3.26,0,0,1,.88-1.33,3.7,3.7,0,0,0,.73-1A6.17,6.17,0,0,0,152,30,5.81,5.81,0,0,1,151.73,28.51Z"/><path class="cls-6" d="M157.72,39.12c.07,0,.16.38.59.9a3.61,3.61,0,0,0,2.42,1.26,4.2,4.2,0,0,0,3.6-1.6,8.24,8.24,0,0,0,1.77-4.78,21.06,21.06,0,0,0-1.33-9.53c-.88-2.35-1.76-3.65-1.65-3.73s1.17,1.14,2.22,3.49A19.35,19.35,0,0,1,167,35a8.71,8.71,0,0,1-2,5.24,4.77,4.77,0,0,1-4.29,1.68A3.8,3.8,0,0,1,158,40.21C157.64,39.56,157.68,39.12,157.72,39.12Z"/><path class="cls-6" d="M165.23,39.61c.06,0,.24.28.69.7a4.22,4.22,0,0,0,2.3,1,4.41,4.41,0,0,0,3.47-1,6.93,6.93,0,0,0,2.23-4c.58-3.31-.52-6.43-.9-8.67a16.31,16.31,0,0,1-.57-3.68,15.46,15.46,0,0,1,1.17,3.54c.3,1.11.69,2.41,1,3.92a13.25,13.25,0,0,1,.16,5.06,7.39,7.39,0,0,1-2.59,4.42,4.91,4.91,0,0,1-4.07,1,4.13,4.13,0,0,1-2.45-1.4C165.26,40,165.19,39.63,165.23,39.61Z"/><path class="cls-6" d="M174,38.84c.07,0,.15.38.34,1.06a7.6,7.6,0,0,0,1.26,2.6,3.59,3.59,0,0,0,3.59,1.33c1.42-.39,2.33-2.19,2.2-4a57.86,57.86,0,0,0-1-9.81,36,36,0,0,1-.75-4.05A13.29,13.29,0,0,1,181,29.88a43.75,43.75,0,0,1,1.26,9.93c.13,2-.89,4.29-2.87,4.8a4.19,4.19,0,0,1-4.29-1.74A6.57,6.57,0,0,1,174,40,2.34,2.34,0,0,1,174,38.84Z"/><path class="cls-6" d="M151.16,167.27a14.14,14.14,0,0,1,1.43-2.54,47.62,47.62,0,0,1,4.26-5.59,48.72,48.72,0,0,1,5-4.92,12.63,12.63,0,0,1,2.35-1.72,23.72,23.72,0,0,1-2.11,2c-1.31,1.22-3.07,2.94-4.88,5s-3.3,4-4.35,5.46A20.29,20.29,0,0,1,151.16,167.27Z"/><polygon class="cls-7" points="240.85 229.06 188.46 182.59 145.5 217.55 206.4 292.63 240.85 229.06"/><path class="cls-8" d="M154.33,226.58a2.85,2.85,0,0,1,.34-.45l1.07-1.24c.91-1.08,2.33-2.56,4.12-4.36a166,166,0,0,1,15-12.93,175.83,175.83,0,0,1,16.29-11.23c2.17-1.31,4-2.27,5.25-2.91.63-.31,1.14-.53,1.48-.68a1.93,1.93,0,0,1,.53-.2,2.56,2.56,0,0,1-.49.3l-1.43.76c-1.23.69-3,1.7-5.15,3.05-4.28,2.67-10.05,6.62-16.16,11.32a190.74,190.74,0,0,0-15,12.79c-1.82,1.75-3.27,3.19-4.23,4.23l-1.14,1.17A2.12,2.12,0,0,1,154.33,226.58Z"/><path class="cls-8" d="M202.74,195.66a2.31,2.31,0,0,1-.49.34l-1.44.89c-1.27.75-3.08,1.86-5.3,3.26-4.45,2.8-10.46,6.86-16.78,11.79s-11.72,9.79-15.52,13.42c-1.9,1.81-3.41,3.3-4.45,4.35l-1.21,1.18c-.28.27-.43.41-.44.39s.11-.17.37-.46l1.14-1.25c1-1.09,2.47-2.62,4.34-4.47a178,178,0,0,1,32.35-25.26c2.25-1.37,4.1-2.43,5.39-3.13l1.5-.8A2.71,2.71,0,0,1,202.74,195.66Z"/><path class="cls-6" d="M165.49,53.28a42.32,42.32,0,0,0-6-4,41.31,41.31,0,0,0-6.8-2.42,6.81,6.81,0,0,1,2.14.23,20.28,20.28,0,0,1,4.89,1.73A19.92,19.92,0,0,1,164,51.7,6.81,6.81,0,0,1,165.49,53.28Z"/><path class="cls-6" d="M175.1,63.92a64.87,64.87,0,0,1-8,1.52,65.6,65.6,0,0,1-8.1,1,65.36,65.36,0,0,1,8-1.52A65.6,65.6,0,0,1,175.1,63.92Z"/><path class="cls-5" d="M211,141a40,40,0,0,1,39.78-36.85h2.07c22.33,1.26,33.73,20.93,31.86,43.21l-4,103H229.51l.46-33.51s-21.47-3.3-21.78-24.75C208,181.67,209.47,160.31,211,141Z"/><path class="cls-6" d="M229.79,216.76a52.11,52.11,0,0,0,28.1-8.29s-6.58,15.46-28,13.57Z"/><path class="cls-9" d="M215.62,157.41c.38.4,2.7-1.32,6-1.32s5.71,1.65,6.07,1.24c.18-.18-.21-.9-1.27-1.66a8.37,8.37,0,0,0-4.86-1.49,8,8,0,0,0-4.77,1.55C215.77,156.51,215.43,157.23,215.62,157.41Z"/><path class="cls-9" d="M248.31,155.76c.39.4,2.71-1.32,6-1.32s5.72,1.65,6.08,1.24c.17-.17-.21-.89-1.27-1.66a8.45,8.45,0,0,0-4.87-1.49,8.15,8.15,0,0,0-4.77,1.55C248.47,154.86,248.13,155.59,248.31,155.76Z"/><path class="cls-9" d="M236.12,176.5c0-.18-2-.53-5.36-.95-.84-.09-1.64-.25-1.78-.83a4.31,4.31,0,0,1,.55-2.49q1.18-3.06,2.48-6.42c3.44-9.14,5.93-16.65,5.56-16.78s-3.46,7.16-6.9,16.29c-.82,2.26-1.62,4.4-2.37,6.46a4.91,4.91,0,0,0-.43,3.3,2.11,2.11,0,0,0,1.39,1.23,5.69,5.69,0,0,0,1.43.2C234,176.68,236.11,176.69,236.12,176.5Z"/><path class="cls-9" d="M245.83,178.77c-.54,0-.54,3.55-3.6,6.09s-6.87,2.16-6.89,2.66c-.05.23.85.7,2.46.74a8.93,8.93,0,0,0,5.76-2,7.78,7.78,0,0,0,2.78-5.11C246.47,179.63,246.07,178.74,245.83,178.77Z"/><path class="cls-3" d="M248.28,142.34c.3.9,3.61.56,7.46,1.12s7,1.69,7.49.9c.24-.38-.28-1.23-1.52-2.13a13.07,13.07,0,0,0-11.39-1.54C248.88,141.22,248.15,141.91,248.28,142.34Z"/><path class="cls-3" d="M214.84,143.92c.72.74,3.49-.07,6.83-.15s6.18.42,6.82-.38c.28-.38-.17-1.13-1.42-1.82a11,11,0,0,0-5.57-1.15,10.87,10.87,0,0,0-5.43,1.58C214.9,142.79,214.52,143.56,214.84,143.92Z"/><path class="cls-5" d="M281.48,163.23c.37-.15,14.74-4.39,14.3,10.28s-15.08,11.21-15.09,10.79S281.48,163.23,281.48,163.23Z"/><path class="cls-6" d="M284.05,178.87c.06,0,.25.19.67.4a2.55,2.55,0,0,0,1.91.1c1.57-.53,2.95-3,3.1-5.59a8.44,8.44,0,0,0-.61-3.68,2.92,2.92,0,0,0-1.86-2,1.3,1.3,0,0,0-1.53.66c-.21.4-.12.7-.2.72s-.31-.26-.17-.86a1.63,1.63,0,0,1,.6-.9,1.88,1.88,0,0,1,1.42-.33,3.6,3.6,0,0,1,2.61,2.35,8.75,8.75,0,0,1,.76,4.12c-.18,2.95-1.78,5.67-3.92,6.22a2.75,2.75,0,0,1-2.32-.45C284.06,179.23,284,178.9,284.05,178.87Z"/><path class="cls-6" d="M231.29,136.22a14.42,14.42,0,0,1,2.57.37c1.57.28,3.74.69,6.15,1a34.9,34.9,0,0,0,6.19.2c1.58-.1,2.56-.27,2.58-.19a8.64,8.64,0,0,1-2.55.56,27.09,27.09,0,0,1-6.28-.06,50.58,50.58,0,0,1-6.17-1.13A12,12,0,0,1,231.29,136.22Z"/><path class="cls-6" d="M231.66,131.81c.07-.14,2.89,1.37,6.66,2.36s7,1.1,7,1.27a7.18,7.18,0,0,1-2.09.05,25.24,25.24,0,0,1-5-.82,25.54,25.54,0,0,1-4.74-1.77A6.65,6.65,0,0,1,231.66,131.81Z"/><path class="cls-6" d="M245.75,177.51c0-.06.26-.19.74-.2a3.49,3.49,0,0,1,3.06,1.82c.21.42.24.72.18.74s-.59-1-1.73-1.62A9.31,9.31,0,0,0,245.75,177.51Z"/><path class="cls-6" d="M248.94,174.29a4.66,4.66,0,0,1,2.21-.11,8.59,8.59,0,0,1,7.4,6.89,4.66,4.66,0,0,1,.05,2.21c-.09,0-.07-.85-.41-2.13a8.93,8.93,0,0,0-7.1-6.61C249.79,174.3,249,174.38,248.94,174.29Z"/><path class="cls-3" d="M209.35,115.09a25.71,25.71,0,0,0,3-3.66c.92-1.57,1.28-3.41,2.08-5.05a10.78,10.78,0,0,1,13.13-5.16,15.37,15.37,0,0,1,21.16-6.4c1.26.71,2.52,1.62,4,1.61a9.27,9.27,0,0,0,3.43-1.14,12,12,0,0,1,16.62,10,9.06,9.06,0,0,1,10.61,10.94A10.32,10.32,0,0,1,294,133.55c2.39,1.55,3.08,5,2,7.63a10.43,10.43,0,0,1-6.26,5.47,20.65,20.65,0,0,1-2.33.66c-.79,2.48-1.56,4.93-2.09,7.26-.91,4-2.67,16.17-2.67,16.17h0c-3.37,0-4.62-2.7-4.11-6l.63-13.08s-11.47-8.14-6-23a8.41,8.41,0,0,0,1.18-4.11c-.93-5.18-5.79-4.34-8.68-4a22.16,22.16,0,0,0-8.08,3.19,34,34,0,0,1-7.85,3.79c-4.53,1.25-9.42.3-13.78-1.49-2.52-1-5.11-2.38-7.82-2-5.74.7-8.75,8.38-14.51,8.86-3.88.32-7.36-3.18-7.94-7S206.79,118,209.35,115.09Z"/><path class="cls-10" d="M210.13,114.2s-.06.23-.08.67a3.08,3.08,0,0,0,.59,1.77,3.47,3.47,0,0,0,2.51,1.47,5.55,5.55,0,0,0,3.76-1.2,15.61,15.61,0,0,0,3.23-3.8,13.54,13.54,0,0,1,4.05-4.32,9,9,0,0,1,6.55-.75,15.86,15.86,0,0,1,6.31,3.47l-.41.15a10.11,10.11,0,0,1,14.57-7.08,11.41,11.41,0,0,1,3.34,2.67c.94,1,1.78,2.08,2.73,3a6.62,6.62,0,0,0,3.19,1.8,7.42,7.42,0,0,0,3.47-.32c1.11-.31,2.18-.7,3.26-.94a9.58,9.58,0,0,1,8.15,1.87,9.37,9.37,0,0,1,2.52,3.19,9.27,9.27,0,0,1,.8,2.45c0,.29.07.52.08.67a.7.7,0,0,1,0,.23,11.85,11.85,0,0,0-1.06-3.26,9.21,9.21,0,0,0-7.36-5,9,9,0,0,0-3,.21c-1,.24-2.1.64-3.23,1a8.06,8.06,0,0,1-3.68.35,7.05,7.05,0,0,1-3.43-1.9c-2-1.8-3.42-4.29-6-5.52a9.6,9.6,0,0,0-13.84,6.71l-.09.43-.33-.28a15.31,15.31,0,0,0-6.1-3.39,8.5,8.5,0,0,0-6.21.67,13.12,13.12,0,0,0-3.95,4.16,15.41,15.41,0,0,1-3.36,3.83,5.76,5.76,0,0,1-4,1.19,3.65,3.65,0,0,1-2.63-1.62,3,3,0,0,1-.53-1.88A1.86,1.86,0,0,1,210.13,114.2Z"/><path class="cls-10" d="M279.35,143.3s.54.12,1.53.22A9.43,9.43,0,0,0,285,143a7.61,7.61,0,0,0,4.35-4.05,7.16,7.16,0,0,0,.63-3.49,6.33,6.33,0,0,0-1.42-3.49,6.14,6.14,0,0,0-4-2.32l-.54-.07.4-.37A5.72,5.72,0,0,0,286,124a5.34,5.34,0,0,0-2.51-3.59,6.08,6.08,0,0,0-2.86-.9c-.71,0-1.1,0-1.1,0s.09,0,.27-.09a4.73,4.73,0,0,1,.83-.09,5.85,5.85,0,0,1,3,.79,5.64,5.64,0,0,1,2.78,3.79,6.14,6.14,0,0,1-1.76,5.62l-.14-.43a6.69,6.69,0,0,1,4.38,2.49,6.91,6.91,0,0,1,1.52,3.78,7.49,7.49,0,0,1-.71,3.73,7.85,7.85,0,0,1-4.66,4.19,8.87,8.87,0,0,1-4.25.38,8.52,8.52,0,0,1-1.13-.26C279.47,143.37,279.34,143.32,279.35,143.3Z"/><path class="cls-7" d="M173.39,437c0-.44,0,3.13,0,0,0-25.2,9.67-82,9.67-82,1.09-8,23.2-109.57,23.2-109.57l24-10.66h0a15.5,15.5,0,0,0,20.34,7.78L282,228.71l45,24.84L336.25,309s-30,69.18-29,74.19-6.59,34-6.59,34l.26,19.9Z"/><g class="cls-11"><path d="M210.75,403c6.16,8.9,10.05,15.2,19,18.16,17.1,5.68,22.61,2.55,30.92-1.84,6.87-3.62,11.49-11.66,16.07-17.94,12-16.35,17.55-25.91,28.18-42.12l4.4,3.09c-7.28,21.24-1.43,10-12.67,29.46-6.49,11.22-13.78,22.27-23.87,30.42s-23.42,13.1-36.13,10.56c-11.55-2.3-21.1-10.31-29.22-18.84-11.29-11.87-23.46-36.63-24.34-53C183.15,362.14,202.78,391.51,210.75,403Z"/></g><path class="cls-9" d="M193.84,303.14a1.46,1.46,0,0,1,.06-.48c.08-.36.18-.81.29-1.35.27-1.16.63-2.86,1-5,.82-4.2,1.81-10,2.75-16.5s1.7-12.34,2.29-16.58c.3-2.06.54-3.76.72-5,.1-.54.17-1,.23-1.36a1.6,1.6,0,0,1,.12-.47,1.83,1.83,0,0,1,0,.49c0,.37-.08.82-.13,1.37-.15,1.27-.33,3-.56,5-.5,4.26-1.2,10.14-2.15,16.62s-2,12.31-2.9,16.5c-.46,2.09-.87,3.78-1.2,4.93l-.38,1.33A2.28,2.28,0,0,1,193.84,303.14Z"/><path class="cls-9" d="M173.39,435.33a3.87,3.87,0,0,1,0-.75c0-.54.09-1.24.16-2.13.16-1.9.4-4.56.68-7.82.64-6.66,1.5-15.76,2.46-25.81s1.93-19.14,2.61-25.79c.35-3.25.64-5.9.84-7.81.11-.88.2-1.58.26-2.12a4,4,0,0,1,.13-.73,5.16,5.16,0,0,1,0,.74c0,.54-.1,1.25-.16,2.14-.17,1.9-.4,4.56-.69,7.82-.63,6.65-1.5,15.75-2.45,25.81s-1.94,19.13-2.61,25.78c-.35,3.26-.64,5.91-.85,7.81-.11.88-.19,1.59-.26,2.12A3.67,3.67,0,0,1,173.39,435.33Z"/><path class="cls-8" d="M269.33,298.65a4,4,0,0,1-.75,0l-2.14,0c-1.86,0-4.55-.1-7.88-.22-6.65-.26-15.84-.71-26-1.63a193,193,0,0,1-25.76-3.71,41.25,41.25,0,0,1-7.51-2.42,10.26,10.26,0,0,1-2.46-1.53c0-.06.84.6,2.54,1.35a46.15,46.15,0,0,0,7.52,2.24,215.68,215.68,0,0,0,25.71,3.56c10.11.91,19.29,1.42,25.94,1.77l7.87.39,2.14.11A3.86,3.86,0,0,1,269.33,298.65Z"/><path class="cls-8" d="M263.83,309.32a3.88,3.88,0,0,1-.71.05l-2,.06c-1.76,0-4.31.07-7.47.05-6.31,0-15-.24-24.63-1.13-4.8-.47-9.35-1.09-13.47-1.78s-7.8-1.51-10.84-2.35c-1.53-.38-2.9-.8-4.1-1.18s-2.23-.69-3.05-1l-1.91-.71a2.81,2.81,0,0,1-.65-.28,5.86,5.86,0,0,1,.69.18l1.93.61c.84.29,1.87.6,3.08.92s2.57.75,4.1,1.1c3,.8,6.73,1.51,10.83,2.24s8.65,1.26,13.44,1.73c9.57.89,18.28,1.16,24.59,1.28l7.46.12,2,0A3,3,0,0,1,263.83,309.32Z"/><path class="cls-9" d="M222.64,221c.05.08-1.49,1.1-3.75,3a49.4,49.4,0,0,0-3.77,3.58A47.51,47.51,0,0,0,207.68,238a50.71,50.71,0,0,0-2.21,4.71c-1.11,2.75-1.59,4.54-1.68,4.51a5.79,5.79,0,0,1,.26-1.27,32.85,32.85,0,0,1,1.08-3.37,41,41,0,0,1,2.13-4.8,47.39,47.39,0,0,1,3.37-5.49,49.51,49.51,0,0,1,4.14-4.93,42.61,42.61,0,0,1,3.88-3.53,32.4,32.4,0,0,1,2.87-2.08A6.38,6.38,0,0,1,222.64,221Z"/><path class="cls-5" d="M137.08,264.54s-.89-4.14-.32-5.22a8.32,8.32,0,0,1,2.38-2.24s.92-6.61,2.39-8.68c1.65-2.32,8.06-2,8.06-2s1.16-1.54,2.12-3.07,14.1-2.54,16.41-2.48,3.12,6.31,3.12,6.31,5-.93,5.85-.36,7.46,12.12,8,14.61-2.73,10-2.73,10c-.73,1.78-5.61,11.84-5.61,11.84L180.3,288l59.17,70.12s13.6-21.33,29.6-50.69c17.49-32.11,27.05-56.07,45.93-56.62l21.25,57.73c-4.45,10.86-62.13,99.26-71.21,107.69s-19.5,11.19-38.46,4.39c-13.79-5-63.25-94.11-73.22-112.28h0l-10.87-17.26-8.05-14.82s-.12-5.44-.47-7.73S137.08,264.54,137.08,264.54Z"/><path class="cls-6" d="M164.31,244.85a3.58,3.58,0,0,1,1.31,2.08,6.47,6.47,0,0,0,1,2.32,6.31,6.31,0,0,0,2.67,1.55,8.2,8.2,0,0,1,4.33,4,6.78,6.78,0,0,1,.57,1.72,1.51,1.51,0,0,1,0,.67c-.1,0-.23-.92-.94-2.22a8.43,8.43,0,0,0-4.21-3.72,6.39,6.39,0,0,1-2.84-1.72,6.24,6.24,0,0,1-1-2.53A8.82,8.82,0,0,0,164.31,244.85Z"/><path class="cls-6" d="M168.09,250.28c0-.08.39.09.93,0a2.21,2.21,0,0,0,1.53-1.37,6.28,6.28,0,0,0,.36-2.23c0-.6,0-1,.07-1s.21.35.3,1a4.9,4.9,0,0,1-.25,2.45,2.34,2.34,0,0,1-2,1.53C168.38,250.65,168.05,250.31,168.09,250.28Z"/><path class="cls-6" d="M173.42,254.22c-.12,0-.57-.69-.95-1.76a2.82,2.82,0,0,1-.09-1.47c.09-.37.22-.57.29-.55s0,.9.29,1.86S173.58,254.18,173.42,254.22Z"/><path class="cls-6" d="M148.72,254.27a8.6,8.6,0,0,1,.87-7.93c.15.06-.66,1.71-.89,3.91S148.88,254.24,148.72,254.27Z"/><path class="cls-6" d="M139.71,261.88a6.48,6.48,0,0,1-.5-5.12,13.5,13.5,0,0,1,.24,2.56A14.06,14.06,0,0,1,139.71,261.88Z"/><path class="cls-6" d="M137.86,269.48a4.94,4.94,0,0,1-1.28-2.4,4.87,4.87,0,0,1-.31-2.71,13.65,13.65,0,0,1,.81,2.55A14.5,14.5,0,0,1,137.86,269.48Z"/><path class="cls-6" d="M237.06,390.9a5.76,5.76,0,0,1,.49-1.27c.18-.39.39-.88.61-1.46s.5-1.22.73-2A48.08,48.08,0,0,0,240.4,381a51.21,51.21,0,0,0,1-6.59,49.36,49.36,0,0,0,0-6.66,45.39,45.39,0,0,0-.7-5.4c-.12-.77-.3-1.45-.43-2.05s-.27-1.12-.39-1.54a6.19,6.19,0,0,1-.29-1.32,8,8,0,0,1,.49,1.26c.15.41.31.92.47,1.53s.36,1.27.51,2a40.69,40.69,0,0,1,.82,5.44,42.25,42.25,0,0,1-1,13.39,41.69,41.69,0,0,1-1.62,5.26c-.26.73-.57,1.37-.82,1.94a15.33,15.33,0,0,1-.69,1.44A6.93,6.93,0,0,1,237.06,390.9Z"/><path class="cls-6" d="M152.52,261c.09,0,0,1.12.14,2.86a6.51,6.51,0,0,0,.9,2.86,3.39,3.39,0,0,0,1.25,1.15c.26.14.58.25.89.44a1.32,1.32,0,0,1,.69,1c0,.89-.51,1.41-.57,2a2.56,2.56,0,0,0,.5,1.56,17.37,17.37,0,0,0,1.78,2.52c1.14,1.34,2,2,2,2.08s-.26-.11-.66-.41a12.46,12.46,0,0,1-1.58-1.43,14.49,14.49,0,0,1-1.91-2.52,2.84,2.84,0,0,1-.59-1.88c.12-.73.62-1.3.56-1.81s-.71-.73-1.3-1a3.78,3.78,0,0,1-1.43-1.34,6.48,6.48,0,0,1-.85-3.08,12.23,12.23,0,0,1,.06-2.13A2.23,2.23,0,0,1,152.52,261Z"/><path class="cls-6" d="M146.27,265.68a5.43,5.43,0,0,0,.09,2.27,3.63,3.63,0,0,0,1.45,1.91,2.09,2.09,0,0,1,.91,1.38,4.76,4.76,0,0,1-.2,1.7,6.91,6.91,0,0,0,.87,5.3,14.85,14.85,0,0,0,1.48,1.8s-.23-.07-.56-.32a5.75,5.75,0,0,1-1.22-1.27,6.92,6.92,0,0,1-1.08-5.63,4.43,4.43,0,0,0,.21-1.51,1.67,1.67,0,0,0-.72-1.08,3.86,3.86,0,0,1-1.49-2.18,3.53,3.53,0,0,1,0-1.78C146.11,265.86,146.25,265.67,146.27,265.68Z"/><path class="cls-7" d="M322.9,251.15s22.76,9.38,18.32,44.22a25.45,25.45,0,0,1-2.54,8.31c-6.68,13.18-29.53,58.28-29.84,59s-53-37.18-53-37.18S286.57,235.43,322.9,251.15Z"/><path class="cls-9" d="M340.5,300.1s0,.11-.13.31l-.43.89-1.69,3.42-6.44,12.89c-5.57,11.06-13.45,26.73-22.76,45.21l-.12.25-.23-.16-39.92-28-13.09-9.19-.2-.14.12-.2c3.56-6.34,6.82-12.6,9.72-18.74s5.42-12.16,8.13-17.73,5.48-10.73,8.17-15.49a50.3,50.3,0,0,1,9-12.18,34.72,34.72,0,0,1,10-7.37,29.05,29.05,0,0,1,9-2.48,25.22,25.22,0,0,1,5.86,0,13.42,13.42,0,0,1,1.5.25l.51.11a4.62,4.62,0,0,1-.51-.07c-.34-.06-.84-.13-1.51-.2a26.2,26.2,0,0,0-5.83.08,29,29,0,0,0-8.89,2.53,34.92,34.92,0,0,0-9.84,7.38A49.94,49.94,0,0,0,282,273.65c-2.67,4.76-5.44,9.92-8.11,15.49s-5.21,11.59-8.1,17.74-6.16,12.43-9.72,18.78l-.08-.34,13.1,9.19,39.9,28-.35.09c9.37-18.45,17.31-34.09,22.92-45.12l6.56-12.83,1.76-3.4.46-.87Z"/><path class="cls-8" d="M318.24,341.36a2,2,0,0,1-.56-.3l-1.56-.94-5.65-3.57-18.52-12c-7.25-4.66-13.86-8.79-18.67-11.73l-5.71-3.47-1.55-1a3.14,3.14,0,0,1-.52-.36,2.56,2.56,0,0,1,.57.27l1.6.87c1.38.76,3.36,1.9,5.8,3.33,4.86,2.87,11.51,6.95,18.76,11.61s13.74,9,18.44,12.09l5.56,3.71,1.5,1A4.14,4.14,0,0,1,318.24,341.36Z"/><path class="cls-8" d="M317,345.77a3.71,3.71,0,0,1-.57-.29l-1.59-.89L309,341.21,290,329.88l-19-11.46-5.72-3.52-1.54-1a3.49,3.49,0,0,1-.52-.37,2.39,2.39,0,0,1,.57.28l1.6.9,5.8,3.38,19.05,11.33,19,11.45,5.72,3.52,1.54,1A2.49,2.49,0,0,1,317,345.77Z"/></g><g id="Plant"><path class="cls-7" d="M43.42,377.44a11.9,11.9,0,0,1,8.26,4.34,21.14,21.14,0,0,1,4.14,8.56c1.53,6,.47,13-1.29,19-6.45-2.38-10.37-9.33-12.13-13-2.79-5.77-4.34-17.88,1-18.9"/><path class="cls-7" d="M63.76,416.65a10.18,10.18,0,0,1-.37-10.2,13.55,13.55,0,0,1,8.2-6.45c1.59-.47,3.42-.65,4.78.28a4.34,4.34,0,0,1,1.63,4.1,8.79,8.79,0,0,1-1.9,4.16c-3.19,4.22-7.06,7.73-12.34,8.11"/><path class="cls-9" d="M64.26,436.63a7.83,7.83,0,0,1-.27-1.25c-.17-.88-.38-2-.63-3.41a35.7,35.7,0,0,1-.59-11.45A21.78,21.78,0,0,1,67.13,410a14.75,14.75,0,0,1,2.48-2.46,7.22,7.22,0,0,1,.77-.54c.18-.12.28-.18.29-.16a23.59,23.59,0,0,0-3.3,3.35,22.68,22.68,0,0,0-4.16,10.43,38.43,38.43,0,0,0,.46,11.33c.21,1.45.39,2.62.49,3.44A6.32,6.32,0,0,1,64.26,436.63Z"/><path class="cls-9" d="M45.41,386.56a2.18,2.18,0,0,1,.26.49c.17.38.38.86.65,1.45.56,1.26,1.34,3.09,2.29,5.37,1.9,4.54,4.44,10.86,7.09,17.9s4.89,13.47,6.46,18.15c.78,2.34,1.4,4.23,1.8,5.55.19.62.35,1.12.47,1.52a2.9,2.9,0,0,1,.13.54,2.71,2.71,0,0,1-.22-.51l-.54-1.5c-.48-1.35-1.14-3.21-1.94-5.5-1.64-4.64-3.94-11-6.58-18.09s-5.14-13.37-7-17.94l-2.16-5.42-.58-1.48A3.48,3.48,0,0,1,45.41,386.56Z"/><path class="cls-7" d="M56.72,423.33a23.8,23.8,0,0,0-18.33-11.66c-1.91-.15-4.21.14-5.09,1.85s.25,3.76,1.54,5.19a20.32,20.32,0,0,0,21.95,5.14"/><path class="cls-9" d="M41.25,416.83a6.39,6.39,0,0,1,1.2.05,11.06,11.06,0,0,1,1.39.18c.54.11,1.17.17,1.83.36s1.41.35,2.18.63a25.09,25.09,0,0,1,2.42.95,26.89,26.89,0,0,1,5.08,3.09,25.69,25.69,0,0,1,4.19,4.23A21.15,21.15,0,0,1,61,428.47a18.25,18.25,0,0,1,1.09,2,15.53,15.53,0,0,1,.74,1.71,9.25,9.25,0,0,1,.46,1.33,6.22,6.22,0,0,1,.3,1.16c-.09,0-.54-1.63-1.78-4.06-.33-.6-.67-1.27-1.12-1.93s-.94-1.37-1.48-2.09a27.91,27.91,0,0,0-4.14-4.14,27.17,27.17,0,0,0-5-3.06,23.89,23.89,0,0,0-2.37-1c-.74-.29-1.47-.48-2.13-.67C43,417,41.24,416.92,41.25,416.83Z"/></g><g id="Starts"><path d="M183.57,113.81l-.33,1.06a1.5,1.5,0,0,1-1,1l-1.06.33,1.06.36a1.51,1.51,0,0,1,.93.93l.38,1.09.42-1.14a1.51,1.51,0,0,1,.93-.9l1-.34-1-.34A1.5,1.5,0,0,1,184,115Z"/><path d="M217.7,65.58l-.33,1.06a1.53,1.53,0,0,1-1,1l-1.06.33,1.07.36a1.51,1.51,0,0,1,.93.93l.38,1.08.41-1.13a1.48,1.48,0,0,1,.94-.9l1-.34-1-.34a1.52,1.52,0,0,1-.91-.88Z"/><path d="M363.2,225.85l-.33,1.06a1.46,1.46,0,0,1-1,1l-1.06.33,1.06.37a1.48,1.48,0,0,1,.94.92l.37,1.09.42-1.13a1.49,1.49,0,0,1,.94-.91l1-.34-1-.34a1.52,1.52,0,0,1-.92-.87Z"/><path d="M357.34,150.91,357,152a1.46,1.46,0,0,1-1,1l-1.06.33,1.06.37a1.52,1.52,0,0,1,.94.93l.37,1.08.42-1.13a1.52,1.52,0,0,1,.93-.91l1-.34-1-.34a1.5,1.5,0,0,1-.92-.87Z"/><path d="M193.27,72.25l-1.35,4.34a6.14,6.14,0,0,1-4,4L183.53,82l4.37,1.48a6.14,6.14,0,0,1,3.83,3.81l1.54,4.44L195,87.08a6.15,6.15,0,0,1,3.84-3.71L203,82l-4.13-1.4A6.14,6.14,0,0,1,195.12,77Z"/><path d="M334.24,182.22l-1.35,4.34a6.14,6.14,0,0,1-4,4L324.5,192l4.37,1.49a6.13,6.13,0,0,1,3.83,3.8l1.54,4.45,1.71-4.65a6.14,6.14,0,0,1,3.83-3.7L344,192l-4.13-1.4a6.11,6.11,0,0,1-3.75-3.59Z"/><path d="M115.37,66.31l-.56,1.79a2.52,2.52,0,0,1-1.66,1.67l-1.8.56,1.81.62a2.54,2.54,0,0,1,1.58,1.57l.63,1.83.71-1.92a2.58,2.58,0,0,1,1.58-1.53l1.73-.57-1.7-.58a2.52,2.52,0,0,1-1.55-1.48Z"/><path d="M315.23,215.54l-.56,1.79A2.56,2.56,0,0,1,313,219l-1.79.56,1.8.61a2.52,2.52,0,0,1,1.58,1.57l.64,1.84.7-1.92a2.52,2.52,0,0,1,1.59-1.53l1.73-.57-1.71-.58A2.52,2.52,0,0,1,316,217.5Z"/></g><g id="Floor"><path class="cls-9" d="M462.22,437.33c0,.14-103.48.26-231.1.26S0,437.47,0,437.33s103.46-.27,231.12-.27S462.22,437.18,462.22,437.33Z"/></g><g id="Speech_Bubble" data-name="Speech Bubble"><path class="cls-10" d="M122.16,198.16a49.57,49.57,0,0,0,21.69-22.1l21.62-6.39-16.79-9.87a49.8,49.8,0,1,0-26.52,38.36Z"/><path class="cls-9" d="M122.16,198.16s-.26.14-.78.39l-2.32,1.08c-.52.23-1.08.53-1.72.78l-2.16.74c-.78.26-1.61.57-2.52.85l-3,.7a48.09,48.09,0,0,1-15.51.93,20.76,20.76,0,0,1-2.3-.31l-2.37-.39a19.06,19.06,0,0,1-2.41-.56l-2.47-.65c-1.65-.49-3.3-1.18-5-1.79l-2.49-1.2a22.41,22.41,0,0,1-2.53-1.3,47.55,47.55,0,0,1-4.93-3.2l-2.43-1.83L65,190.3l-1.17-1.06c-.37-.37-.71-.78-1.07-1.18l-2.16-2.4c-.68-.85-1.3-1.76-2-2.65-.33-.45-.66-.89-1-1.35s-.58-.95-.88-1.43L55,177.28c-.54-1-1-2.08-1.48-3.14-.24-.53-.48-1.06-.73-1.59s-.39-1.11-.59-1.67l-1.14-3.39a54.89,54.89,0,0,1-1.86-14.67A52,52,0,0,1,52,137.55c.49-1.24.87-2.52,1.44-3.74s1.17-2.42,1.76-3.64,1.4-2.33,2.11-3.5c.18-.29.35-.59.54-.88l.62-.82,1.24-1.66A51.29,51.29,0,0,1,72,112a50.68,50.68,0,0,1,15.91-6.71l1.62-.38.82-.19.82-.11,3.3-.42.82-.1.83,0,1.65,0a27.62,27.62,0,0,1,3.28,0l3.27.22c1.09.06,2.15.32,3.22.47a49.25,49.25,0,0,1,34.56,23.68l1.47,2.51c.43.86.87,1.71,1.25,2.59a47.81,47.81,0,0,1,2,5.28,50,50,0,0,1,2,21.11l-.11-.21,16.78,9.89.38.23-.42.12-21.64,6.36.1-.08a49.48,49.48,0,0,1-14.79,17.7,51.19,51.19,0,0,1-5.16,3.35l-1.4.74c-.32.17-.48.24-.48.24s.15-.1.46-.27l1.38-.78a56.89,56.89,0,0,0,5.11-3.41,51.4,51.4,0,0,0,7.23-6.7,50.7,50.7,0,0,0,7.38-11l0-.06.07,0,21.61-6.43,0,.34c-5.22-3.05-10.8-6.33-16.8-9.85l-.12-.07v-.14a49.35,49.35,0,0,0-2-20.92,47.74,47.74,0,0,0-2-5.23c-.37-.87-.81-1.71-1.24-2.56l-1.45-2.48a51.36,51.36,0,0,0-7.12-9.33,50.83,50.83,0,0,0-20.91-12.65,50,50,0,0,0-6.21-1.44c-1.06-.14-2.11-.4-3.18-.46l-3.23-.22a27.28,27.28,0,0,0-3.26,0l-1.63,0-.82,0-.81.1-3.26.42-.82.11-.81.18-1.61.37A49,49,0,0,0,60.1,123.63l-1.23,1.63-.61.82c-.19.28-.36.58-.54.86-.69,1.16-1.42,2.3-2.08,3.47L53.89,134c-.56,1.21-1,2.48-1.43,3.7a51.71,51.71,0,0,0-2.78,15.12,54.19,54.19,0,0,0,1.82,14.53c.38,1.13.75,2.25,1.12,3.37.2.55.36,1.12.59,1.65l.72,1.58c.49,1,.92,2.11,1.45,3.12S56.53,179,57.09,180a16,16,0,0,0,.87,1.43l1,1.34c.66.88,1.27,1.78,1.94,2.62L63,187.78c.36.39.69.8,1.06,1.17L65.23,190l2.27,2.09,2.41,1.82a45.93,45.93,0,0,0,4.89,3.19,24.71,24.71,0,0,0,2.5,1.3l2.47,1.2c1.71.61,3.34,1.3,5,1.8l2.45.65a20.7,20.7,0,0,0,2.39.57l2.35.39a20.65,20.65,0,0,0,2.29.32,48.57,48.57,0,0,0,15.44-.84l2.94-.67c.91-.27,1.74-.57,2.52-.82l2.16-.72c.65-.25,1.21-.53,1.73-.75l2.33-1Z"/><path class="cls-7" d="M72.71,149.48l-.47,2.33s5.29,1.27,7.42,2.59a19.92,19.92,0,0,0,1.06,8.29A19.77,19.77,0,0,1,76.58,166L77.74,168a14.39,14.39,0,0,1,4.67-1.73,19.4,19.4,0,0,0,1.53,2.25,20.06,20.06,0,0,0,3.87,3.68,30.75,30.75,0,0,1-3,6.86l1.92,1.41s3.6-4.55,5.66-5.78a20.09,20.09,0,0,0,8.36,1.32,19.61,19.61,0,0,1,1.34,4.77l2.36-.3a14.15,14.15,0,0,1,.19-5.06,20.24,20.24,0,0,0,6-2.69,31.13,31.13,0,0,1,5.87,4.89l1.89-1.45s-3.14-4.39-3.9-6.78a20.39,20.39,0,0,0,3-4.43,19.1,19.1,0,0,1,4.78,1.25l.93-2.19a14.05,14.05,0,0,1-4.31-2.75,20,20,0,0,0,.66-6.59c.93-.45,5.13-2.46,7.54-2.78l-.3-2.36s-6.24.59-8.34-.19a20.06,20.06,0,0,0-2.35-4.61,19.08,19.08,0,0,1,3.65-3.86l-1.42-1.86s-2.86,2.2-5,2.52a19.79,19.79,0,0,0-4.81-3.39s.28-5.54,1.29-8.05l-2.17-.88s-2.63,5.85-4.32,7.15a20.17,20.17,0,0,0-4.59-.34,19.61,19.61,0,0,1-1.53-5.18l-2.33.3s.5,3.54-.33,5.49A19.77,19.77,0,0,0,89,139.09c-.6-.4-4.76-3.22-6.3-5.21l-1.86,1.43s3.67,5.13,4,7.28a19.82,19.82,0,0,0-4,6.69C79.88,149.4,75.14,150,72.71,149.48Zm43.1-5.16,0-.06Z"/><g class="cls-12"><path class="cls-10" d="M85.58,150.45c1,.41,2.41-1,4.72-2.51.27-.2.6-.37.9-.57l1-.56a21.46,21.46,0,0,1,2.21-1,15.38,15.38,0,0,1,10.42-.46,23.85,23.85,0,0,1,2.3.83l1,.47c.32.17.66.31.95.49,2.43,1.29,4,2.57,4.92,2.08a1,1,0,0,0,.44-.67,3.13,3.13,0,0,0,0-1.29,9.37,9.37,0,0,0-1.94-3.93,13.66,13.66,0,0,0-1-1.1c-.36-.37-.76-.72-1.18-1.09a16,16,0,0,0-3-1.93,16.38,16.38,0,0,0-3.76-1.35,16.12,16.12,0,0,0-8.64.38,16.6,16.6,0,0,0-3.63,1.68,15.54,15.54,0,0,0-2.81,2.19c-.39.4-.76.78-1.08,1.18a14.12,14.12,0,0,0-.86,1.19A9.21,9.21,0,0,0,85,148.53a3.21,3.21,0,0,0,.09,1.29A1,1,0,0,0,85.58,150.45Z"/></g><path class="cls-7" d="M127.34,148.35c-.42.05-.65,1.16-.49,2.48a6.61,6.61,0,0,0,.25,1.21c.22.68.52,1.12.8,1.09.43,0,.65-1.16.5-2.48S127.77,148.3,127.34,148.35Z"/><g class="cls-11"><path d="M127.07,151.94a7.53,7.53,0,0,1-.25-2.37l-1.45.11a8,8,0,0,0,1.18,2.35Z"/></g><path class="cls-7" d="M124.3,163.26c-.39-.17-1.15.67-1.68,1.89a7.38,7.38,0,0,0-.4,1.17c-.16.69-.12,1.23.14,1.34s1.15-.67,1.69-1.88S124.69,163.44,124.3,163.26Z"/><g class="cls-11"><path d="M122.25,166.21a5.2,5.2,0,0,1,1-2.16c-.41-.17-.85-.38-1.3-.61a7.42,7.42,0,0,0-.16,2.58Z"/></g><path class="cls-7" d="M119.73,176c-.26-.34-1.33,0-2.39.82a6.91,6.91,0,0,0-.92.82c-.48.54-.71,1-.54,1.25s1.33,0,2.39-.82S120,176.39,119.73,176Z"/><g class="cls-11"><path d="M116.49,177.61a7.64,7.64,0,0,1,1.92-1.41c-.25-.36-.54-.77-.82-1.19a7.69,7.69,0,0,0-1.44,2.2Z"/></g><path class="cls-7" d="M105.63,181c0-.42-1.15-.65-2.47-.5a7.4,7.4,0,0,0-1.21.24c-.68.22-1.12.52-1.09.8s1.15.66,2.47.51S105.68,181.47,105.63,181Z"/><g class="cls-11"><path d="M102.05,180.75a5.37,5.37,0,0,1,2.37-.24c-.07-.44-.11-.92-.14-1.42a7.63,7.63,0,0,0-2.31,1.15Z"/></g><path class="cls-7" d="M87.22,181.72c.26-.34-.39-1.27-1.45-2.07a6.54,6.54,0,0,0-1-.65c-.64-.32-1.17-.4-1.34-.17s.39,1.27,1.45,2.07S87,182.06,87.22,181.72Z"/><g class="cls-11"><path d="M84.82,179a7.72,7.72,0,0,1,1.88,1.46c.28-.34.59-.74.92-1.12a7.72,7.72,0,0,0-2.52-.77Z"/></g><path class="cls-7" d="M77.71,169.35c.38-.2.17-1.31-.47-2.48a6.45,6.45,0,0,0-.68-1c-.46-.56-.9-.85-1.15-.71s-.17,1.31.47,2.48S77.33,169.56,77.71,169.35Z"/><g class="cls-11"><path d="M76.63,165.93a5.18,5.18,0,0,1,1.11,2.1,13.87,13.87,0,0,1,1.28-.66,7.59,7.59,0,0,0-2-1.71Z"/></g><path class="cls-7" d="M71.34,152.79c.43.09,1-.88,1.28-2.18a7.22,7.22,0,0,0,.15-1.22c0-.72-.13-1.23-.41-1.29s-1,.88-1.27,2.18S70.92,152.7,71.34,152.79Z"/><g class="cls-11"><path d="M72.77,149.49a7.77,7.77,0,0,1-.53,2.32l1.4.36a7.66,7.66,0,0,0-.36-2.6Z"/></g><g class="cls-11"><path d="M102.71,164.56c-1.22,1-1.67,2.42-1,3.23s2.16.7,3.37-.27,1.67-2.41,1-3.23S103.92,163.6,102.71,164.56Z"/></g><path class="cls-7" d="M104.39,164.13c-1.21,1-1.67,2.41-1,3.23s2.16.69,3.38-.28,1.67-2.41,1-3.23S105.6,163.16,104.39,164.13Z"/><g class="cls-12"><path class="cls-10" d="M104.39,164.13c-1.21,1-1.67,2.41-1,3.23s2.16.69,3.38-.28,1.67-2.41,1-3.23S105.6,163.16,104.39,164.13Z"/></g><g class="cls-11"><path d="M115.8,155.1c-.29-1.52-1.35-2.6-2.37-2.41s-1.63,1.58-1.34,3.11,1.35,2.6,2.37,2.41S116.09,156.62,115.8,155.1Z"/></g><path class="cls-7" d="M117.47,154.83c-.28-1.52-1.35-2.6-2.37-2.41s-1.63,1.58-1.34,3.11,1.35,2.6,2.37,2.41S117.76,156.36,117.47,154.83Z"/><g class="cls-12"><path class="cls-10" d="M117.47,154.83c-.28-1.52-1.35-2.6-2.37-2.41s-1.63,1.58-1.34,3.11,1.35,2.6,2.37,2.41S117.76,156.36,117.47,154.83Z"/></g><g class="cls-11"><path d="M92.64,165.48a1.85,1.85,0,1,0,2.6.29A1.85,1.85,0,0,0,92.64,165.48Z"/></g><path class="cls-7" d="M93.42,164.86a1.85,1.85,0,1,0,2.6.3A1.86,1.86,0,0,0,93.42,164.86Z"/><g class="cls-11"><path class="cls-10" d="M93.42,164.86a1.85,1.85,0,1,0,2.6.3A1.86,1.86,0,0,0,93.42,164.86Z"/></g><g class="cls-11"><path d="M97.84,145.64a2.27,2.27,0,1,0,2.59-1.9A2.27,2.27,0,0,0,97.84,145.64Z"/></g><path class="cls-7" d="M98,144.43a2.27,2.27,0,1,0,4.49.7,2.27,2.27,0,1,0-4.49-.7Z"/><g class="cls-11"><path class="cls-10" d="M98,144.43a2.27,2.27,0,1,0,4.49.7,2.27,2.27,0,1,0-4.49-.7Z"/></g><g class="cls-11"><path d="M85.35,159.26a1.36,1.36,0,1,0,1.9.21A1.35,1.35,0,0,0,85.35,159.26Z"/></g><path class="cls-7" d="M85.92,158.8a1.36,1.36,0,1,0,1.9.22A1.36,1.36,0,0,0,85.92,158.8Z"/><g class="cls-11"><path class="cls-10" d="M85.92,158.8a1.36,1.36,0,1,0,1.9.22A1.36,1.36,0,0,0,85.92,158.8Z"/></g><path class="cls-7" d="M79.5,135.47c.26.34,1.32,0,2.36-.81a6.83,6.83,0,0,0,.91-.81c.48-.53.7-1,.53-1.23s-1.31,0-2.36.81S79.25,135.13,79.5,135.47Z"/><g class="cls-11"><path d="M82.7,133.92a7.53,7.53,0,0,1-1.89,1.39l.81,1.18A7.53,7.53,0,0,0,83,134.31Z"/></g><path class="cls-7" d="M93.75,130.65c0,.42,1.14.65,2.44.5a7.13,7.13,0,0,0,1.19-.24c.68-.22,1.11-.51,1.08-.79,0-.43-1.14-.65-2.44-.5S93.7,130.23,93.75,130.65Z"/><g class="cls-11"><path d="M97.28,130.94a5.2,5.2,0,0,1-2.33.24c.06.43.1.91.13,1.41a7.46,7.46,0,0,0,2.28-1.15Z"/></g><path class="cls-7" d="M106.93,128.2c-.17.39.68,1.12,1.88,1.63a6.5,6.5,0,0,0,1.16.38c.7.14,1.22.1,1.33-.16s-.68-1.12-1.89-1.64S107.09,127.81,106.93,128.2Z"/><g class="cls-11"><path d="M109.87,130.19a7.63,7.63,0,0,1-2.15-.94c-.18.39-.39.84-.61,1.29a7.73,7.73,0,0,0,2.59.13Z"/></g><path class="cls-7" d="M118.21,137.74c-.35.26,0,1.32.79,2.37a7.47,7.47,0,0,0,.82.91c.52.47,1,.7,1.22.53s0-1.31-.8-2.36S118.55,137.49,118.21,137.74Z"/><g class="cls-11"><path d="M119.74,141a5.26,5.26,0,0,1-1.38-1.9c-.35.27-.74.54-1.16.82a7.56,7.56,0,0,0,2.14,1.4Z"/></g><g class="cls-11"><path d="M86,152.4c-.62,1.42-.35,2.91.61,3.33s2.23-.4,2.85-1.82.35-2.91-.61-3.33S86.62,151,86,152.4Z"/></g><path class="cls-7" d="M86.1,151.29c-.62,1.43-.35,2.92.61,3.33s2.23-.39,2.85-1.82.35-2.91-.61-3.33S86.72,149.87,86.1,151.29Z"/><g class="cls-11"><path class="cls-10" d="M86.1,151.29c-.62,1.43-.35,2.92.61,3.33s2.23-.39,2.85-1.82.35-2.91-.61-3.33S86.72,149.87,86.1,151.29Z"/></g><g class="cls-11"><path d="M98.32,153.49a2.81,2.81,0,1,0,4,.44A2.81,2.81,0,0,0,98.32,153.49Z"/></g><path class="cls-7" d="M99.6,152.47a2.81,2.81,0,1,0,3.94.45A2.81,2.81,0,0,0,99.6,152.47Z"/><g class="cls-12"><path class="cls-10" d="M99.6,152.47a2.81,2.81,0,1,0,3.94.45A2.81,2.81,0,0,0,99.6,152.47Z"/></g><g class="cls-11"><path d="M81.77,157.38c-.24,0-.42.52-.46,1.39a11.77,11.77,0,0,0,.53,3.62,18.31,18.31,0,0,0,.9,2.38,20.59,20.59,0,0,0,1.47,2.56,18.53,18.53,0,0,0,11,7.58,20.18,20.18,0,0,0,2.91.47,16.61,16.61,0,0,0,2.55,0,11.41,11.41,0,0,0,3.57-.78c.8-.34,1.19-.68,1.14-.92-.12-.52-1.93-.45-4.64-.85-.68-.09-1.41-.23-2.19-.4s-1.58-.41-2.41-.71a20.29,20.29,0,0,1-9.25-6.38,23.53,23.53,0,0,1-1.51-2c-.44-.66-.83-1.29-1.16-1.89C82.87,159,82.29,157.3,81.77,157.38Z"/></g><g class="cls-11"><path d="M111.06,169.47a1.71,1.71,0,1,0-.33,2.46A1.76,1.76,0,0,0,111.06,169.47Z"/></g><path class="cls-9" d="M71.51,187.93a1,1,0,0,1-.74-1.66l56.65-63.68a1,1,0,0,1,1.42-.08,1,1,0,0,1,.08,1.41L72.26,187.6A1,1,0,0,1,71.51,187.93Z"/><path class="cls-9" d="M131.64,184.46a1,1,0,0,1-.66-.25l-63.6-56.74a1,1,0,0,1-.09-1.41,1,1,0,0,1,1.42-.08l63.6,56.74a1,1,0,0,1-.67,1.74Z"/></g></g></svg>